  0
SECTION
  2
HEADER
  9
$ANGBASE
  50
0.0
  9
$ANGDIR
  70
  1
  9
$MEASUREMENT
  70
0
  0
ENDSEC
  0
SECTION
  2
TABLES
  0
TABLE
  2
LTYPE
  70
1
  0
LTYPE
  2
CONTINUOUS
  70
0
  3
Solid line
  72
65
  73
0
  40
0.0
  0
ENDTAB
  0
TABLE
  2
STYLE
  70
4
  0
STYLE
  2
KICAD
  70
0
  40
0
  41
1
  42
1
  50
0
  71
0
  3
isocp.shx
  0
STYLE
  2
KICADB
  70
0
  40
0
  41
1
  42
1
  50
0
  71
0
  3
isocp.shx
  0
STYLE
  2
KICADI
  70
0
  40
0
  41
1
  42
1
  50
15
  71
0
  3
isocp.shx
  0
STYLE
  2
KICADBI
  70
0
  40
0
  41
1
  42
1
  50
15
  71
0
  3
isocp.shx
  0
ENDTAB
  0
TABLE
  2
LAYER
  70
30
  0
LAYER
  2
BLACK
  70
0
  62
7
  6
CONTINUOUS
  0
LAYER
  2
GRAY1
  70
0
  62
251
  6
CONTINUOUS
  0
LAYER
  2
GRAY2
  70
0
  62
8
  6
CONTINUOUS
  0
LAYER
  2
GRAY3
  70
0
  62
9
  6
CONTINUOUS
  0
LAYER
  2
WHITE
  70
0
  62
7
  6
CONTINUOUS
  0
LAYER
  2
LYELLOW
  70
0
  62
51
  6
CONTINUOUS
  0
LAYER
  2
BLUE1
  70
0
  62
178
  6
CONTINUOUS
  0
LAYER
  2
GREEN1
  70
0
  62
98
  6
CONTINUOUS
  0
LAYER
  2
CYAN1
  70
0
  62
138
  6
CONTINUOUS
  0
LAYER
  2
RED1
  70
0
  62
18
  6
CONTINUOUS
  0
LAYER
  2
MAGENTA1
  70
0
  62
228
  6
CONTINUOUS
  0
LAYER
  2
BROWN1
  70
0
  62
58
  6
CONTINUOUS
  0
LAYER
  2
BLUE2
  70
0
  62
5
  6
CONTINUOUS
  0
LAYER
  2
GREEN2
  70
0
  62
3
  6
CONTINUOUS
  0
LAYER
  2
CYAN2
  70
0
  62
4
  6
CONTINUOUS
  0
LAYER
  2
RED2
  70
0
  62
1
  6
CONTINUOUS
  0
LAYER
  2
MAGENTA2
  70
0
  62
6
  6
CONTINUOUS
  0
LAYER
  2
BROWN2
  70
0
  62
54
  6
CONTINUOUS
  0
LAYER
  2
BLUE3
  70
0
  62
171
  6
CONTINUOUS
  0
LAYER
  2
GREEN3
  70
0
  62
91
  6
CONTINUOUS
  0
LAYER
  2
CYAN3
  70
0
  62
131
  6
CONTINUOUS
  0
LAYER
  2
RED3
  70
0
  62
11
  6
CONTINUOUS
  0
LAYER
  2
MAGENTA3
  70
0
  62
221
  6
CONTINUOUS
  0
LAYER
  2
YELLOW3
  70
0
  62
2
  6
CONTINUOUS
  0
LAYER
  2
BLUE4
  70
0
  62
5
  6
CONTINUOUS
  0
LAYER
  2
GREEN4
  70
0
  62
3
  6
CONTINUOUS
  0
LAYER
  2
CYAN4
  70
0
  62
4
  6
CONTINUOUS
  0
LAYER
  2
RED4
  70
0
  62
1
  6
CONTINUOUS
  0
LAYER
  2
MAGENTA4
  70
0
  62
6
  6
CONTINUOUS
  0
LAYER
  2
YELLOW4
  70
0
  62
2
  6
CONTINUOUS
  0
ENDTAB
  0
ENDSEC
  0
SECTION
  2
ENTITIES
0
LINE
8
BLACK
10
-1.95064
20
4.45812
11
-1.94846
21
4.45812
0
LINE
8
BLACK
10
-1.94846
20
4.45812
11
-1.9464
21
4.45737
0
LINE
8
BLACK
10
-1.9464
20
4.45737
11
-1.94425
21
4.45699
0
LINE
8
BLACK
10
-1.94425
20
4.45699
11
-1.94236
21
4.4559
0
LINE
8
BLACK
10
-1.94236
20
4.4559
11
-1.9403
21
4.45515
0
LINE
8
BLACK
10
-1.9403
20
4.45515
11
-1.93862
21
4.45374
0
LINE
8
BLACK
10
-1.93862
20
4.45374
11
-1.93673
21
4.45265
0
LINE
8
BLACK
10
-1.93673
20
4.45265
11
-1.93532
21
4.45098
0
LINE
8
BLACK
10
-1.93532
20
4.45098
11
-1.93365
21
4.44957
0
LINE
8
BLACK
10
-1.93365
20
4.44957
11
-1.93256
21
4.44768
0
LINE
8
BLACK
10
-1.93256
20
4.44768
11
-1.93115
21
4.446
0
LINE
8
BLACK
10
-1.93115
20
4.446
11
-1.9304
21
4.44394
0
LINE
8
BLACK
10
-1.9304
20
4.44394
11
-1.92931
21
4.44205
0
LINE
8
BLACK
10
-1.92931
20
4.44205
11
-1.92893
21
4.4399
0
LINE
8
BLACK
10
-1.92893
20
4.4399
11
-1.92818
21
4.43784
0
LINE
8
BLACK
10
-1.92818
20
4.43784
11
-1.92818
21
4.43565
0
LINE
8
BLACK
10
-1.92818
20
4.43565
11
-1.9278
21
4.4335
0
LINE
8
BLACK
10
-1.9278
20
4.4335
11
-1.9278
21
4.14023
0
LINE
8
BLACK
10
-1.9278
20
4.14023
11
-1.92769
21
4.13911
0
LINE
8
BLACK
10
-1.92769
20
4.13911
11
-1.92657
21
4.139
0
LINE
8
BLACK
10
-1.92657
20
4.139
11
1.92657
21
4.139
0
LINE
8
BLACK
10
1.92657
20
4.139
11
1.92769
21
4.13911
0
LINE
8
BLACK
10
1.92769
20
4.13911
11
1.9278
21
4.14023
0
LINE
8
BLACK
10
1.9278
20
4.14023
11
1.9278
21
4.4335
0
LINE
8
BLACK
10
1.9278
20
4.4335
11
1.92818
21
4.43565
0
LINE
8
BLACK
10
1.92818
20
4.43565
11
1.92818
21
4.43784
0
LINE
8
BLACK
10
1.92818
20
4.43784
11
1.92893
21
4.4399
0
LINE
8
BLACK
10
1.92893
20
4.4399
11
1.92931
21
4.44205
0
LINE
8
BLACK
10
1.92931
20
4.44205
11
1.9304
21
4.44394
0
LINE
8
BLACK
10
1.9304
20
4.44394
11
1.93115
21
4.446
0
LINE
8
BLACK
10
1.93115
20
4.446
11
1.93256
21
4.44768
0
LINE
8
BLACK
10
1.93256
20
4.44768
11
1.93365
21
4.44957
0
LINE
8
BLACK
10
1.93365
20
4.44957
11
1.93532
21
4.45098
0
LINE
8
BLACK
10
1.93532
20
4.45098
11
1.93673
21
4.45265
0
LINE
8
BLACK
10
1.93673
20
4.45265
11
1.93862
21
4.45374
0
LINE
8
BLACK
10
1.93862
20
4.45374
11
1.9403
21
4.45515
0
LINE
8
BLACK
10
1.9403
20
4.45515
11
1.94236
21
4.4559
0
LINE
8
BLACK
10
1.94236
20
4.4559
11
1.94425
21
4.45699
0
LINE
8
BLACK
10
1.94425
20
4.45699
11
1.9464
21
4.45737
0
LINE
8
BLACK
10
1.9464
20
4.45737
11
1.94846
21
4.45812
0
LINE
8
BLACK
10
1.94846
20
4.45812
11
1.95064
21
4.45812
0
LINE
8
BLACK
10
1.95064
20
4.45812
11
1.9528
21
4.4585
0
LINE
8
BLACK
10
1.9528
20
4.4585
11
3.7023
21
4.4585
0
LINE
8
BLACK
10
3.7023
20
4.4585
11
3.70445
21
4.45812
0
LINE
8
BLACK
10
3.70445
20
4.45812
11
3.70664
21
4.45812
0
LINE
8
BLACK
10
3.70664
20
4.45812
11
3.7087
21
4.45737
0
LINE
8
BLACK
10
3.7087
20
4.45737
11
3.71085
21
4.45699
0
LINE
8
BLACK
10
3.71085
20
4.45699
11
3.71274
21
4.4559
0
LINE
8
BLACK
10
3.71274
20
4.4559
11
3.7148
21
4.45515
0
LINE
8
BLACK
10
3.7148
20
4.45515
11
3.71648
21
4.45374
0
LINE
8
BLACK
10
3.71648
20
4.45374
11
3.71837
21
4.45265
0
LINE
8
BLACK
10
3.71837
20
4.45265
11
3.71978
21
4.45098
0
LINE
8
BLACK
10
3.71978
20
4.45098
11
3.72145
21
4.44957
0
LINE
8
BLACK
10
3.72145
20
4.44957
11
3.72254
21
4.44768
0
LINE
8
BLACK
10
3.72254
20
4.44768
11
3.72395
21
4.446
0
LINE
8
BLACK
10
3.72395
20
4.446
11
3.7247
21
4.44394
0
LINE
8
BLACK
10
3.7247
20
4.44394
11
3.72579
21
4.44205
0
LINE
8
BLACK
10
3.72579
20
4.44205
11
3.72617
21
4.4399
0
LINE
8
BLACK
10
3.72617
20
4.4399
11
3.72692
21
4.43784
0
LINE
8
BLACK
10
3.72692
20
4.43784
11
3.72692
21
4.43565
0
LINE
8
BLACK
10
3.72692
20
4.43565
11
3.7273
21
4.4335
0
LINE
8
BLACK
10
3.7273
20
4.4335
11
3.7273
21
4.25123
0
LINE
8
BLACK
10
3.7273
20
4.25123
11
3.72741
21
4.25011
0
LINE
8
BLACK
10
3.72741
20
4.25011
11
3.72853
21
4.25
0
LINE
8
BLACK
10
3.72853
20
4.25
11
10.9444
21
4.25
0
LINE
8
BLACK
10
10.9444
20
4.25
11
10.9455
21
4.24981
0
LINE
8
BLACK
10
10.9455
20
4.24981
11
10.9466
21
4.24991
0
LINE
8
BLACK
10
10.9466
20
4.24991
11
10.9498
21
4.24906
0
LINE
8
BLACK
10
10.9498
20
4.24906
11
10.953
21
4.24849
0
LINE
8
BLACK
10
10.953
20
4.24849
11
10.9539
21
4.24794
0
LINE
8
BLACK
10
10.9539
20
4.24794
11
10.955
21
4.24766
0
LINE
8
BLACK
10
10.955
20
4.24766
11
10.9577
21
4.24578
0
LINE
8
BLACK
10
10.9577
20
4.24578
11
10.9605
21
4.24415
0
LINE
8
BLACK
10
10.9605
20
4.24415
11
10.9612
21
4.24331
0
LINE
8
BLACK
10
10.9612
20
4.24331
11
10.9621
21
4.24268
0
LINE
8
BLACK
10
10.9621
20
4.24268
11
11.4
21
3.80482
0
LINE
8
BLACK
10
11.4
20
3.80482
11
11.4006
21
3.80392
0
LINE
8
BLACK
10
11.4006
20
3.80392
11
11.4015
21
3.80321
0
LINE
8
BLACK
10
11.4015
20
3.80321
11
11.4031
21
3.80039
0
LINE
8
BLACK
10
11.4031
20
3.80039
11
11.405
21
3.79771
0
LINE
8
BLACK
10
11.405
20
3.79771
11
11.4052
21
3.79665
0
LINE
8
BLACK
10
11.4052
20
3.79665
11
11.4058
21
3.79569
0
LINE
8
BLACK
10
11.4058
20
3.79569
11
11.4064
21
3.79248
0
LINE
8
BLACK
10
11.4064
20
3.79248
11
11.4072
21
3.78932
0
LINE
8
BLACK
10
11.4072
20
3.78932
11
11.4071
21
3.78823
0
LINE
8
BLACK
10
11.4071
20
3.78823
11
11.4073
21
3.78714
0
LINE
8
BLACK
10
11.4073
20
3.78714
11
11.4073
21
0.94623
0
LINE
8
BLACK
10
11.4073
20
0.94623
11
11.4074
21
0.94511
0
LINE
8
BLACK
10
11.4074
20
0.94511
11
11.4085
21
0.945
0
LINE
8
BLACK
10
11.4085
20
0.945
11
11.6561
21
0.945
0
LINE
8
BLACK
10
11.6561
20
0.945
11
11.6572
21
0.94511
0
LINE
8
BLACK
10
11.6572
20
0.94511
11
11.6573
21
0.94623
0
LINE
8
BLACK
10
11.6573
20
0.94623
11
11.6573
21
1.975
0
LINE
8
BLACK
10
11.6573
20
1.975
11
11.6577
21
1.97715
0
LINE
8
BLACK
10
11.6577
20
1.97715
11
11.6577
21
1.97934
0
LINE
8
BLACK
10
11.6577
20
1.97934
11
11.6584
21
1.9814
0
LINE
8
BLACK
10
11.6584
20
1.9814
11
11.6588
21
1.98355
0
LINE
8
BLACK
10
11.6588
20
1.98355
11
11.6599
21
1.98544
0
LINE
8
BLACK
10
11.6599
20
1.98544
11
11.6606
21
1.9875
0
LINE
8
BLACK
10
11.6606
20
1.9875
11
11.6621
21
1.98918
0
LINE
8
BLACK
10
11.6621
20
1.98918
11
11.6631
21
1.99107
0
LINE
8
BLACK
10
11.6631
20
1.99107
11
11.6648
21
1.99248
0
LINE
8
BLACK
10
11.6648
20
1.99248
11
11.6662
21
1.99415
0
LINE
8
BLACK
10
11.6662
20
1.99415
11
11.6681
21
1.99524
0
LINE
8
BLACK
10
11.6681
20
1.99524
11
11.6698
21
1.99665
0
LINE
8
BLACK
10
11.6698
20
1.99665
11
11.6719
21
1.9974
0
LINE
8
BLACK
10
11.6719
20
1.9974
11
11.6737
21
1.99849
0
LINE
8
BLACK
10
11.6737
20
1.99849
11
11.6759
21
1.99887
0
LINE
8
BLACK
10
11.6759
20
1.99887
11
11.678
21
1.99962
0
LINE
8
BLACK
10
11.678
20
1.99962
11
11.6801
21
1.99962
0
LINE
8
BLACK
10
11.6801
20
1.99962
11
11.6823
21
2
0
LINE
8
BLACK
10
11.6823
20
2
11
13.1323
21
2
0
LINE
8
BLACK
10
13.1323
20
2
11
13.1345
21
1.99962
0
LINE
8
BLACK
10
13.1345
20
1.99962
11
13.1366
21
1.99962
0
LINE
8
BLACK
10
13.1366
20
1.99962
11
13.1387
21
1.99887
0
LINE
8
BLACK
10
13.1387
20
1.99887
11
13.1409
21
1.99849
0
LINE
8
BLACK
10
13.1409
20
1.99849
11
13.1427
21
1.9974
0
LINE
8
BLACK
10
13.1427
20
1.9974
11
13.1448
21
1.99665
0
LINE
8
BLACK
10
13.1448
20
1.99665
11
13.1465
21
1.99524
0
LINE
8
BLACK
10
13.1465
20
1.99524
11
13.1484
21
1.99415
0
LINE
8
BLACK
10
13.1484
20
1.99415
11
13.1498
21
1.99248
0
LINE
8
BLACK
10
13.1498
20
1.99248
11
13.1515
21
1.99107
0
LINE
8
BLACK
10
13.1515
20
1.99107
11
13.1525
21
1.98918
0
LINE
8
BLACK
10
13.1525
20
1.98918
11
13.154
21
1.9875
0
LINE
8
BLACK
10
13.154
20
1.9875
11
13.1547
21
1.98544
0
LINE
8
BLACK
10
13.1547
20
1.98544
11
13.1558
21
1.98355
0
LINE
8
BLACK
10
13.1558
20
1.98355
11
13.1562
21
1.9814
0
LINE
8
BLACK
10
13.1562
20
1.9814
11
13.1569
21
1.97934
0
LINE
8
BLACK
10
13.1569
20
1.97934
11
13.1569
21
1.97715
0
LINE
8
BLACK
10
13.1569
20
1.97715
11
13.1573
21
1.975
0
LINE
8
BLACK
10
13.1573
20
1.975
11
13.1573
21
-1.14
0
LINE
8
BLACK
10
13.1573
20
-1.14
11
13.1569
21
-1.14216
0
LINE
8
BLACK
10
13.1569
20
-1.14216
11
13.1569
21
-1.14434
0
LINE
8
BLACK
10
13.1569
20
-1.14434
11
13.1562
21
-1.1464
0
LINE
8
BLACK
10
13.1562
20
-1.1464
11
13.1558
21
-1.14855
0
LINE
8
BLACK
10
13.1558
20
-1.14855
11
13.1547
21
-1.15044
0
LINE
8
BLACK
10
13.1547
20
-1.15044
11
13.154
21
-1.1525
0
LINE
8
BLACK
10
13.154
20
-1.1525
11
13.1525
21
-1.15418
0
LINE
8
BLACK
10
13.1525
20
-1.15418
11
13.1515
21
-1.15607
0
LINE
8
BLACK
10
13.1515
20
-1.15607
11
13.1498
21
-1.15748
0
LINE
8
BLACK
10
13.1498
20
-1.15748
11
13.1484
21
-1.15915
0
LINE
8
BLACK
10
13.1484
20
-1.15915
11
13.1465
21
-1.16024
0
LINE
8
BLACK
10
13.1465
20
-1.16024
11
13.1448
21
-1.16165
0
LINE
8
BLACK
10
13.1448
20
-1.16165
11
13.1427
21
-1.1624
0
LINE
8
BLACK
10
13.1427
20
-1.1624
11
13.1409
21
-1.16349
0
LINE
8
BLACK
10
13.1409
20
-1.16349
11
13.1387
21
-1.16387
0
LINE
8
BLACK
10
13.1387
20
-1.16387
11
13.1366
21
-1.16462
0
LINE
8
BLACK
10
13.1366
20
-1.16462
11
13.1345
21
-1.16462
0
LINE
8
BLACK
10
13.1345
20
-1.16462
11
13.1323
21
-1.165
0
LINE
8
BLACK
10
13.1323
20
-1.165
11
9.1823
21
-1.165
0
LINE
8
BLACK
10
9.1823
20
-1.165
11
9.18014
21
-1.16462
0
LINE
8
BLACK
10
9.18014
20
-1.16462
11
9.17796
21
-1.16462
0
LINE
8
BLACK
10
9.17796
20
-1.16462
11
9.1759
21
-1.16387
0
LINE
8
BLACK
10
9.1759
20
-1.16387
11
9.17375
21
-1.16349
0
LINE
8
BLACK
10
9.17375
20
-1.16349
11
9.17186
21
-1.1624
0
LINE
8
BLACK
10
9.17186
20
-1.1624
11
9.1698
21
-1.16165
0
LINE
8
BLACK
10
9.1698
20
-1.16165
11
9.16812
21
-1.16024
0
LINE
8
BLACK
10
9.16812
20
-1.16024
11
9.16623
21
-1.15915
0
LINE
8
BLACK
10
9.16623
20
-1.15915
11
9.16482
21
-1.15748
0
LINE
8
BLACK
10
9.16482
20
-1.15748
11
9.16315
21
-1.15607
0
LINE
8
BLACK
10
9.16315
20
-1.15607
11
9.16206
21
-1.15418
0
LINE
8
BLACK
10
9.16206
20
-1.15418
11
9.16065
21
-1.1525
0
LINE
8
BLACK
10
9.16065
20
-1.1525
11
9.1599
21
-1.15044
0
LINE
8
BLACK
10
9.1599
20
-1.15044
11
9.15881
21
-1.14855
0
LINE
8
BLACK
10
9.15881
20
-1.14855
11
9.15843
21
-1.1464
0
LINE
8
BLACK
10
9.15843
20
-1.1464
11
9.15768
21
-1.14434
0
LINE
8
BLACK
10
9.15768
20
-1.14434
11
9.15768
21
-1.14216
0
LINE
8
BLACK
10
9.15768
20
-1.14216
11
9.1573
21
-1.14
0
LINE
8
BLACK
10
9.1573
20
-1.14
11
9.1573
21
1.975
0
LINE
8
BLACK
10
9.1573
20
1.975
11
9.15768
21
1.97715
0
LINE
8
BLACK
10
9.15768
20
1.97715
11
9.15768
21
1.97934
0
LINE
8
BLACK
10
9.15768
20
1.97934
11
9.15843
21
1.9814
0
LINE
8
BLACK
10
9.15843
20
1.9814
11
9.15881
21
1.98355
0
LINE
8
BLACK
10
9.15881
20
1.98355
11
9.1599
21
1.98544
0
LINE
8
BLACK
10
9.1599
20
1.98544
11
9.16065
21
1.9875
0
LINE
8
BLACK
10
9.16065
20
1.9875
11
9.16206
21
1.98918
0
LINE
8
BLACK
10
9.16206
20
1.98918
11
9.16315
21
1.99107
0
LINE
8
BLACK
10
9.16315
20
1.99107
11
9.16482
21
1.99248
0
LINE
8
BLACK
10
9.16482
20
1.99248
11
9.16623
21
1.99415
0
LINE
8
BLACK
10
9.16623
20
1.99415
11
9.16812
21
1.99524
0
LINE
8
BLACK
10
9.16812
20
1.99524
11
9.1698
21
1.99665
0
LINE
8
BLACK
10
9.1698
20
1.99665
11
9.17186
21
1.9974
0
LINE
8
BLACK
10
9.17186
20
1.9974
11
9.17375
21
1.99849
0
LINE
8
BLACK
10
9.17375
20
1.99849
11
9.1759
21
1.99887
0
LINE
8
BLACK
10
9.1759
20
1.99887
11
9.17796
21
1.99962
0
LINE
8
BLACK
10
9.17796
20
1.99962
11
9.18014
21
1.99962
0
LINE
8
BLACK
10
9.18014
20
1.99962
11
9.1823
21
2
0
LINE
8
BLACK
10
9.1823
20
2
11
10.6322
21
2
0
LINE
8
BLACK
10
10.6322
20
2
11
10.6344
21
1.99962
0
LINE
8
BLACK
10
10.6344
20
1.99962
11
10.6365
21
1.99962
0
LINE
8
BLACK
10
10.6365
20
1.99962
11
10.6386
21
1.99887
0
LINE
8
BLACK
10
10.6386
20
1.99887
11
10.6408
21
1.99849
0
LINE
8
BLACK
10
10.6408
20
1.99849
11
10.6426
21
1.9974
0
LINE
8
BLACK
10
10.6426
20
1.9974
11
10.6447
21
1.99665
0
LINE
8
BLACK
10
10.6447
20
1.99665
11
10.6464
21
1.99524
0
LINE
8
BLACK
10
10.6464
20
1.99524
11
10.6483
21
1.99415
0
LINE
8
BLACK
10
10.6483
20
1.99415
11
10.6497
21
1.99248
0
LINE
8
BLACK
10
10.6497
20
1.99248
11
10.6514
21
1.99107
0
LINE
8
BLACK
10
10.6514
20
1.99107
11
10.6524
21
1.98918
0
LINE
8
BLACK
10
10.6524
20
1.98918
11
10.6539
21
1.9875
0
LINE
8
BLACK
10
10.6539
20
1.9875
11
10.6546
21
1.98544
0
LINE
8
BLACK
10
10.6546
20
1.98544
11
10.6557
21
1.98355
0
LINE
8
BLACK
10
10.6557
20
1.98355
11
10.6561
21
1.9814
0
LINE
8
BLACK
10
10.6561
20
1.9814
11
10.6568
21
1.97934
0
LINE
8
BLACK
10
10.6568
20
1.97934
11
10.6568
21
1.97715
0
LINE
8
BLACK
10
10.6568
20
1.97715
11
10.6572
21
1.975
0
LINE
8
BLACK
10
10.6572
20
1.975
11
10.6572
21
0.94623
0
LINE
8
BLACK
10
10.6572
20
0.94623
11
10.6573
21
0.94511
0
LINE
8
BLACK
10
10.6573
20
0.94511
11
10.6584
21
0.945
0
LINE
8
BLACK
10
10.6584
20
0.945
11
10.906
21
0.945
0
LINE
8
BLACK
10
10.906
20
0.945
11
10.9071
21
0.94511
0
LINE
8
BLACK
10
10.9071
20
0.94511
11
10.9072
21
0.94623
0
LINE
8
BLACK
10
10.9072
20
0.94623
11
10.9072
21
3.74877
0
LINE
8
BLACK
10
10.9072
20
3.74877
11
10.9071
21
3.74989
0
LINE
8
BLACK
10
10.9071
20
3.74989
11
10.906
21
3.75
0
LINE
8
BLACK
10
10.906
20
3.75
11
3.97843
21
3.75
0
LINE
8
BLACK
10
3.97843
20
3.75
11
3.97731
21
3.74989
0
LINE
8
BLACK
10
3.97731
20
3.74989
11
3.9772
21
3.74877
0
LINE
8
BLACK
10
3.9772
20
3.74877
11
3.9772
21
0.94623
0
LINE
8
BLACK
10
3.9772
20
0.94623
11
3.97731
21
0.94511
0
LINE
8
BLACK
10
3.97731
20
0.94511
11
3.97843
21
0.945
0
LINE
8
BLACK
10
3.97843
20
0.945
11
4.22597
21
0.945
0
LINE
8
BLACK
10
4.22597
20
0.945
11
4.22709
21
0.94511
0
LINE
8
BLACK
10
4.22709
20
0.94511
11
4.2272
21
0.94623
0
LINE
8
BLACK
10
4.2272
20
0.94623
11
4.2272
21
1.975
0
LINE
8
BLACK
10
4.2272
20
1.975
11
4.22758
21
1.97715
0
LINE
8
BLACK
10
4.22758
20
1.97715
11
4.22758
21
1.97934
0
LINE
8
BLACK
10
4.22758
20
1.97934
11
4.22833
21
1.9814
0
LINE
8
BLACK
10
4.22833
20
1.9814
11
4.22871
21
1.98355
0
LINE
8
BLACK
10
4.22871
20
1.98355
11
4.2298
21
1.98544
0
LINE
8
BLACK
10
4.2298
20
1.98544
11
4.23055
21
1.9875
0
LINE
8
BLACK
10
4.23055
20
1.9875
11
4.23196
21
1.98918
0
LINE
8
BLACK
10
4.23196
20
1.98918
11
4.23305
21
1.99107
0
LINE
8
BLACK
10
4.23305
20
1.99107
11
4.23472
21
1.99248
0
LINE
8
BLACK
10
4.23472
20
1.99248
11
4.23613
21
1.99415
0
LINE
8
BLACK
10
4.23613
20
1.99415
11
4.23802
21
1.99524
0
LINE
8
BLACK
10
4.23802
20
1.99524
11
4.2397
21
1.99665
0
LINE
8
BLACK
10
4.2397
20
1.99665
11
4.24176
21
1.9974
0
LINE
8
BLACK
10
4.24176
20
1.9974
11
4.24365
21
1.99849
0
LINE
8
BLACK
10
4.24365
20
1.99849
11
4.2458
21
1.99887
0
LINE
8
BLACK
10
4.2458
20
1.99887
11
4.24786
21
1.99962
0
LINE
8
BLACK
10
4.24786
20
1.99962
11
4.25005
21
1.99962
0
LINE
8
BLACK
10
4.25005
20
1.99962
11
4.2522
21
2
0
LINE
8
BLACK
10
4.2522
20
2
11
5.7022
21
2
0
LINE
8
BLACK
10
5.7022
20
2
11
5.70435
21
1.99962
0
LINE
8
BLACK
10
5.70435
20
1.99962
11
5.70654
21
1.99962
0
LINE
8
BLACK
10
5.70654
20
1.99962
11
5.7086
21
1.99887
0
LINE
8
BLACK
10
5.7086
20
1.99887
11
5.71075
21
1.99849
0
LINE
8
BLACK
10
5.71075
20
1.99849
11
5.71264
21
1.9974
0
LINE
8
BLACK
10
5.71264
20
1.9974
11
5.7147
21
1.99665
0
LINE
8
BLACK
10
5.7147
20
1.99665
11
5.71638
21
1.99524
0
LINE
8
BLACK
10
5.71638
20
1.99524
11
5.71827
21
1.99415
0
LINE
8
BLACK
10
5.71827
20
1.99415
11
5.71968
21
1.99248
0
LINE
8
BLACK
10
5.71968
20
1.99248
11
5.72135
21
1.99107
0
LINE
8
BLACK
10
5.72135
20
1.99107
11
5.72244
21
1.98918
0
LINE
8
BLACK
10
5.72244
20
1.98918
11
5.72385
21
1.9875
0
LINE
8
BLACK
10
5.72385
20
1.9875
11
5.7246
21
1.98544
0
LINE
8
BLACK
10
5.7246
20
1.98544
11
5.72569
21
1.98355
0
LINE
8
BLACK
10
5.72569
20
1.98355
11
5.72607
21
1.9814
0
LINE
8
BLACK
10
5.72607
20
1.9814
11
5.72682
21
1.97934
0
LINE
8
BLACK
10
5.72682
20
1.97934
11
5.72682
21
1.97715
0
LINE
8
BLACK
10
5.72682
20
1.97715
11
5.7272
21
1.975
0
LINE
8
BLACK
10
5.7272
20
1.975
11
5.7272
21
-1.14
0
LINE
8
BLACK
10
5.7272
20
-1.14
11
5.72682
21
-1.14216
0
LINE
8
BLACK
10
5.72682
20
-1.14216
11
5.72682
21
-1.14434
0
LINE
8
BLACK
10
5.72682
20
-1.14434
11
5.72607
21
-1.1464
0
LINE
8
BLACK
10
5.72607
20
-1.1464
11
5.72569
21
-1.14855
0
LINE
8
BLACK
10
5.72569
20
-1.14855
11
5.7246
21
-1.15044
0
LINE
8
BLACK
10
5.7246
20
-1.15044
11
5.72385
21
-1.1525
0
LINE
8
BLACK
10
5.72385
20
-1.1525
11
5.72244
21
-1.15418
0
LINE
8
BLACK
10
5.72244
20
-1.15418
11
5.72135
21
-1.15607
0
LINE
8
BLACK
10
5.72135
20
-1.15607
11
5.71968
21
-1.15748
0
LINE
8
BLACK
10
5.71968
20
-1.15748
11
5.71827
21
-1.15915
0
LINE
8
BLACK
10
5.71827
20
-1.15915
11
5.71638
21
-1.16024
0
LINE
8
BLACK
10
5.71638
20
-1.16024
11
5.7147
21
-1.16165
0
LINE
8
BLACK
10
5.7147
20
-1.16165
11
5.71264
21
-1.1624
0
LINE
8
BLACK
10
5.71264
20
-1.1624
11
5.71075
21
-1.16349
0
LINE
8
BLACK
10
5.71075
20
-1.16349
11
5.7086
21
-1.16387
0
LINE
8
BLACK
10
5.7086
20
-1.16387
11
5.70654
21
-1.16462
0
LINE
8
BLACK
10
5.70654
20
-1.16462
11
5.70435
21
-1.16462
0
LINE
8
BLACK
10
5.70435
20
-1.16462
11
5.7022
21
-1.165
0
LINE
8
BLACK
10
5.7022
20
-1.165
11
1.7522
21
-1.165
0
LINE
8
BLACK
10
1.7522
20
-1.165
11
1.75004
21
-1.16462
0
LINE
8
BLACK
10
1.75004
20
-1.16462
11
1.74786
21
-1.16462
0
LINE
8
BLACK
10
1.74786
20
-1.16462
11
1.7458
21
-1.16387
0
LINE
8
BLACK
10
1.7458
20
-1.16387
11
1.74365
21
-1.16349
0
LINE
8
BLACK
10
1.74365
20
-1.16349
11
1.74176
21
-1.1624
0
LINE
8
BLACK
10
1.74176
20
-1.1624
11
1.7397
21
-1.16165
0
LINE
8
BLACK
10
1.7397
20
-1.16165
11
1.73802
21
-1.16024
0
LINE
8
BLACK
10
1.73802
20
-1.16024
11
1.73613
21
-1.15915
0
LINE
8
BLACK
10
1.73613
20
-1.15915
11
1.73472
21
-1.15748
0
LINE
8
BLACK
10
1.73472
20
-1.15748
11
1.73305
21
-1.15607
0
LINE
8
BLACK
10
1.73305
20
-1.15607
11
1.73196
21
-1.15418
0
LINE
8
BLACK
10
1.73196
20
-1.15418
11
1.73055
21
-1.1525
0
LINE
8
BLACK
10
1.73055
20
-1.1525
11
1.7298
21
-1.15044
0
LINE
8
BLACK
10
1.7298
20
-1.15044
11
1.72871
21
-1.14855
0
LINE
8
BLACK
10
1.72871
20
-1.14855
11
1.72833
21
-1.1464
0
LINE
8
BLACK
10
1.72833
20
-1.1464
11
1.72758
21
-1.14434
0
LINE
8
BLACK
10
1.72758
20
-1.14434
11
1.72758
21
-1.14216
0
LINE
8
BLACK
10
1.72758
20
-1.14216
11
1.7272
21
-1.14
0
LINE
8
BLACK
10
1.7272
20
-1.14
11
1.7272
21
1.975
0
LINE
8
BLACK
10
1.7272
20
1.975
11
1.72758
21
1.97715
0
LINE
8
BLACK
10
1.72758
20
1.97715
11
1.72758
21
1.97934
0
LINE
8
BLACK
10
1.72758
20
1.97934
11
1.72833
21
1.9814
0
LINE
8
BLACK
10
1.72833
20
1.9814
11
1.72871
21
1.98355
0
LINE
8
BLACK
10
1.72871
20
1.98355
11
1.7298
21
1.98544
0
LINE
8
BLACK
10
1.7298
20
1.98544
11
1.73055
21
1.9875
0
LINE
8
BLACK
10
1.73055
20
1.9875
11
1.73196
21
1.98918
0
LINE
8
BLACK
10
1.73196
20
1.98918
11
1.73305
21
1.99107
0
LINE
8
BLACK
10
1.73305
20
1.99107
11
1.73472
21
1.99248
0
LINE
8
BLACK
10
1.73472
20
1.99248
11
1.73613
21
1.99415
0
LINE
8
BLACK
10
1.73613
20
1.99415
11
1.73802
21
1.99524
0
LINE
8
BLACK
10
1.73802
20
1.99524
11
1.7397
21
1.99665
0
LINE
8
BLACK
10
1.7397
20
1.99665
11
1.74176
21
1.9974
0
LINE
8
BLACK
10
1.74176
20
1.9974
11
1.74365
21
1.99849
0
LINE
8
BLACK
10
1.74365
20
1.99849
11
1.7458
21
1.99887
0
LINE
8
BLACK
10
1.7458
20
1.99887
11
1.74786
21
1.99962
0
LINE
8
BLACK
10
1.74786
20
1.99962
11
1.75004
21
1.99962
0
LINE
8
BLACK
10
1.75004
20
1.99962
11
1.7522
21
2
0
LINE
8
BLACK
10
1.7522
20
2
11
3.2023
21
2
0
LINE
8
BLACK
10
3.2023
20
2
11
3.20445
21
1.99962
0
LINE
8
BLACK
10
3.20445
20
1.99962
11
3.20664
21
1.99962
0
LINE
8
BLACK
10
3.20664
20
1.99962
11
3.2087
21
1.99887
0
LINE
8
BLACK
10
3.2087
20
1.99887
11
3.21085
21
1.99849
0
LINE
8
BLACK
10
3.21085
20
1.99849
11
3.21274
21
1.9974
0
LINE
8
BLACK
10
3.21274
20
1.9974
11
3.2148
21
1.99665
0
LINE
8
BLACK
10
3.2148
20
1.99665
11
3.21648
21
1.99524
0
LINE
8
BLACK
10
3.21648
20
1.99524
11
3.21837
21
1.99415
0
LINE
8
BLACK
10
3.21837
20
1.99415
11
3.21978
21
1.99248
0
LINE
8
BLACK
10
3.21978
20
1.99248
11
3.22145
21
1.99107
0
LINE
8
BLACK
10
3.22145
20
1.99107
11
3.22254
21
1.98918
0
LINE
8
BLACK
10
3.22254
20
1.98918
11
3.22395
21
1.9875
0
LINE
8
BLACK
10
3.22395
20
1.9875
11
3.2247
21
1.98544
0
LINE
8
BLACK
10
3.2247
20
1.98544
11
3.22579
21
1.98355
0
LINE
8
BLACK
10
3.22579
20
1.98355
11
3.22617
21
1.9814
0
LINE
8
BLACK
10
3.22617
20
1.9814
11
3.22692
21
1.97934
0
LINE
8
BLACK
10
3.22692
20
1.97934
11
3.22692
21
1.97715
0
LINE
8
BLACK
10
3.22692
20
1.97715
11
3.2273
21
1.975
0
LINE
8
BLACK
10
3.2273
20
1.975
11
3.2273
21
0.94623
0
LINE
8
BLACK
10
3.2273
20
0.94623
11
3.22741
21
0.94511
0
LINE
8
BLACK
10
3.22741
20
0.94511
11
3.22853
21
0.945
0
LINE
8
BLACK
10
3.22853
20
0.945
11
3.47607
21
0.945
0
LINE
8
BLACK
10
3.47607
20
0.945
11
3.47719
21
0.94511
0
LINE
8
BLACK
10
3.47719
20
0.94511
11
3.4773
21
0.94623
0
LINE
8
BLACK
10
3.4773
20
0.94623
11
3.4773
21
3.54027
0
LINE
8
BLACK
10
3.4773
20
3.54027
11
3.47719
21
3.54139
0
LINE
8
BLACK
10
3.47719
20
3.54139
11
3.47607
21
3.5415
0
LINE
8
BLACK
10
3.47607
20
3.5415
11
1.9528
21
3.5415
0
LINE
8
BLACK
10
1.9528
20
3.5415
11
1.95064
21
3.54188
0
LINE
8
BLACK
10
1.95064
20
3.54188
11
1.94846
21
3.54188
0
LINE
8
BLACK
10
1.94846
20
3.54188
11
1.9464
21
3.54263
0
LINE
8
BLACK
10
1.9464
20
3.54263
11
1.94425
21
3.54301
0
LINE
8
BLACK
10
1.94425
20
3.54301
11
1.94236
21
3.5441
0
LINE
8
BLACK
10
1.94236
20
3.5441
11
1.9403
21
3.54485
0
LINE
8
BLACK
10
1.9403
20
3.54485
11
1.93862
21
3.54626
0
LINE
8
BLACK
10
1.93862
20
3.54626
11
1.93673
21
3.54735
0
LINE
8
BLACK
10
1.93673
20
3.54735
11
1.93532
21
3.54902
0
LINE
8
BLACK
10
1.93532
20
3.54902
11
1.93365
21
3.55043
0
LINE
8
BLACK
10
1.93365
20
3.55043
11
1.93256
21
3.55232
0
LINE
8
BLACK
10
1.93256
20
3.55232
11
1.93115
21
3.554
0
LINE
8
BLACK
10
1.93115
20
3.554
11
1.9304
21
3.55606
0
LINE
8
BLACK
10
1.9304
20
3.55606
11
1.92931
21
3.55795
0
LINE
8
BLACK
10
1.92931
20
3.55795
11
1.92893
21
3.5601
0
LINE
8
BLACK
10
1.92893
20
3.5601
11
1.92818
21
3.56216
0
LINE
8
BLACK
10
1.92818
20
3.56216
11
1.92818
21
3.56434
0
LINE
8
BLACK
10
1.92818
20
3.56434
11
1.9278
21
3.5665
0
LINE
8
BLACK
10
1.9278
20
3.5665
11
1.9278
21
3.85977
0
LINE
8
BLACK
10
1.9278
20
3.85977
11
1.92769
21
3.86089
0
LINE
8
BLACK
10
1.92769
20
3.86089
11
1.92657
21
3.861
0
LINE
8
BLACK
10
1.92657
20
3.861
11
0.25123
21
3.861
0
LINE
8
BLACK
10
0.25123
20
3.861
11
0.25011
21
3.86089
0
LINE
8
BLACK
10
0.25011
20
3.86089
11
0.25
21
3.85977
0
LINE
8
BLACK
10
0.25
20
3.85977
11
0.25
21
1.9528
0
LINE
8
BLACK
10
0.25
20
1.9528
11
0.24962
21
1.95064
0
LINE
8
BLACK
10
0.24962
20
1.95064
11
0.24962
21
1.94846
0
LINE
8
BLACK
10
0.24962
20
1.94846
11
0.248872
21
1.9464
0
LINE
8
BLACK
10
0.248872
20
1.9464
11
0.248492
21
1.94425
0
LINE
8
BLACK
10
0.248492
20
1.94425
11
0.247399
21
1.94236
0
LINE
8
BLACK
10
0.247399
20
1.94236
11
0.246651
21
1.9403
0
LINE
8
BLACK
10
0.246651
20
1.9403
11
0.245244
21
1.93862
0
LINE
8
BLACK
10
0.245244
20
1.93862
11
0.244151
21
1.93673
0
LINE
8
BLACK
10
0.244151
20
1.93673
11
0.242476
21
1.93532
0
LINE
8
BLACK
10
0.242476
20
1.93532
11
0.24107
21
1.93365
0
LINE
8
BLACK
10
0.24107
20
1.93365
11
0.239177
21
1.93256
0
LINE
8
BLACK
10
0.239177
20
1.93256
11
0.2375
21
1.93115
0
LINE
8
BLACK
10
0.2375
20
1.93115
11
0.235444
21
1.9304
0
LINE
8
BLACK
10
0.235444
20
1.9304
11
0.233551
21
1.92931
0
LINE
8
BLACK
10
0.233551
20
1.92931
11
0.231397
21
1.92893
0
LINE
8
BLACK
10
0.231397
20
1.92893
11
0.229341
21
1.92818
0
LINE
8
BLACK
10
0.229341
20
1.92818
11
0.227155
21
1.92818
0
LINE
8
BLACK
10
0.227155
20
1.92818
11
0.225
21
1.9278
0
LINE
8
BLACK
10
0.225
20
1.9278
11
0.14023
21
1.9278
0
LINE
8
BLACK
10
0.14023
20
1.9278
11
0.13911
21
1.92769
0
LINE
8
BLACK
10
0.13911
20
1.92769
11
0.139
21
1.92657
0
LINE
8
BLACK
10
0.139
20
1.92657
11
0.139
21
0.205124
0
LINE
8
BLACK
10
0.139
20
0.205124
11
0.161311
21
0.192243
0
LINE
8
BLACK
10
0.161311
20
0.192243
11
0.217333
21
0.125477
0
LINE
8
BLACK
10
0.217333
20
0.125477
11
0.247142
21
0.043578
0
LINE
8
BLACK
10
0.247142
20
0.043578
11
0.247142
21
-0.043578
0
LINE
8
BLACK
10
0.247142
20
-0.043578
11
0.217333
21
-0.125477
0
LINE
8
BLACK
10
0.217333
20
-0.125477
11
0.161311
21
-0.192243
0
LINE
8
BLACK
10
0.161311
20
-0.192243
11
0.139
21
-0.205124
0
LINE
8
BLACK
10
0.139
20
-0.205124
11
0.139
21
-1.92657
0
LINE
8
BLACK
10
0.139
20
-1.92657
11
0.13911
21
-1.92769
0
LINE
8
BLACK
10
0.13911
20
-1.92769
11
0.14023
21
-1.9278
0
LINE
8
BLACK
10
0.14023
20
-1.9278
11
0.225
21
-1.9278
0
LINE
8
BLACK
10
0.225
20
-1.9278
11
0.227155
21
-1.92818
0
LINE
8
BLACK
10
0.227155
20
-1.92818
11
0.229341
21
-1.92818
0
LINE
8
BLACK
10
0.229341
20
-1.92818
11
0.231397
21
-1.92893
0
LINE
8
BLACK
10
0.231397
20
-1.92893
11
0.233551
21
-1.92931
0
LINE
8
BLACK
10
0.233551
20
-1.92931
11
0.235444
21
-1.9304
0
LINE
8
BLACK
10
0.235444
20
-1.9304
11
0.2375
21
-1.93115
0
LINE
8
BLACK
10
0.2375
20
-1.93115
11
0.239177
21
-1.93256
0
LINE
8
BLACK
10
0.239177
20
-1.93256
11
0.24107
21
-1.93365
0
LINE
8
BLACK
10
0.24107
20
-1.93365
11
0.242476
21
-1.93532
0
LINE
8
BLACK
10
0.242476
20
-1.93532
11
0.244151
21
-1.93673
0
LINE
8
BLACK
10
0.244151
20
-1.93673
11
0.245244
21
-1.93862
0
LINE
8
BLACK
10
0.245244
20
-1.93862
11
0.246651
21
-1.9403
0
LINE
8
BLACK
10
0.246651
20
-1.9403
11
0.247399
21
-1.94236
0
LINE
8
BLACK
10
0.247399
20
-1.94236
11
0.248492
21
-1.94425
0
LINE
8
BLACK
10
0.248492
20
-1.94425
11
0.248872
21
-1.9464
0
LINE
8
BLACK
10
0.248872
20
-1.9464
11
0.24962
21
-1.94846
0
LINE
8
BLACK
10
0.24962
20
-1.94846
11
0.24962
21
-1.95064
0
LINE
8
BLACK
10
0.24962
20
-1.95064
11
0.25
21
-1.9528
0
LINE
8
BLACK
10
0.25
20
-1.9528
11
0.25
21
-3.85977
0
LINE
8
BLACK
10
0.25
20
-3.85977
11
0.25011
21
-3.86089
0
LINE
8
BLACK
10
0.25011
20
-3.86089
11
0.25123
21
-3.861
0
LINE
8
BLACK
10
0.25123
20
-3.861
11
1.92657
21
-3.861
0
LINE
8
BLACK
10
1.92657
20
-3.861
11
1.92769
21
-3.86089
0
LINE
8
BLACK
10
1.92769
20
-3.86089
11
1.9278
21
-3.85977
0
LINE
8
BLACK
10
1.9278
20
-3.85977
11
1.9278
21
-3.5665
0
LINE
8
BLACK
10
1.9278
20
-3.5665
11
1.92818
21
-3.56434
0
LINE
8
BLACK
10
1.92818
20
-3.56434
11
1.92818
21
-3.56216
0
LINE
8
BLACK
10
1.92818
20
-3.56216
11
1.92893
21
-3.5601
0
LINE
8
BLACK
10
1.92893
20
-3.5601
11
1.92931
21
-3.55795
0
LINE
8
BLACK
10
1.92931
20
-3.55795
11
1.9304
21
-3.55606
0
LINE
8
BLACK
10
1.9304
20
-3.55606
11
1.93115
21
-3.554
0
LINE
8
BLACK
10
1.93115
20
-3.554
11
1.93256
21
-3.55232
0
LINE
8
BLACK
10
1.93256
20
-3.55232
11
1.93365
21
-3.55043
0
LINE
8
BLACK
10
1.93365
20
-3.55043
11
1.93532
21
-3.54902
0
LINE
8
BLACK
10
1.93532
20
-3.54902
11
1.93673
21
-3.54735
0
LINE
8
BLACK
10
1.93673
20
-3.54735
11
1.93862
21
-3.54626
0
LINE
8
BLACK
10
1.93862
20
-3.54626
11
1.9403
21
-3.54485
0
LINE
8
BLACK
10
1.9403
20
-3.54485
11
1.94236
21
-3.5441
0
LINE
8
BLACK
10
1.94236
20
-3.5441
11
1.94425
21
-3.54301
0
LINE
8
BLACK
10
1.94425
20
-3.54301
11
1.9464
21
-3.54263
0
LINE
8
BLACK
10
1.9464
20
-3.54263
11
1.94846
21
-3.54188
0
LINE
8
BLACK
10
1.94846
20
-3.54188
11
1.95064
21
-3.54188
0
LINE
8
BLACK
10
1.95064
20
-3.54188
11
1.9528
21
-3.5415
0
LINE
8
BLACK
10
1.9528
20
-3.5415
11
3.7023
21
-3.5415
0
LINE
8
BLACK
10
3.7023
20
-3.5415
11
3.70445
21
-3.54188
0
LINE
8
BLACK
10
3.70445
20
-3.54188
11
3.70664
21
-3.54188
0
LINE
8
BLACK
10
3.70664
20
-3.54188
11
3.7087
21
-3.54263
0
LINE
8
BLACK
10
3.7087
20
-3.54263
11
3.71085
21
-3.54301
0
LINE
8
BLACK
10
3.71085
20
-3.54301
11
3.71274
21
-3.5441
0
LINE
8
BLACK
10
3.71274
20
-3.5441
11
3.7148
21
-3.54485
0
LINE
8
BLACK
10
3.7148
20
-3.54485
11
3.71648
21
-3.54626
0
LINE
8
BLACK
10
3.71648
20
-3.54626
11
3.71837
21
-3.54735
0
LINE
8
BLACK
10
3.71837
20
-3.54735
11
3.71978
21
-3.54902
0
LINE
8
BLACK
10
3.71978
20
-3.54902
11
3.72145
21
-3.55043
0
LINE
8
BLACK
10
3.72145
20
-3.55043
11
3.72254
21
-3.55232
0
LINE
8
BLACK
10
3.72254
20
-3.55232
11
3.72395
21
-3.554
0
LINE
8
BLACK
10
3.72395
20
-3.554
11
3.7247
21
-3.55606
0
LINE
8
BLACK
10
3.7247
20
-3.55606
11
3.72579
21
-3.55795
0
LINE
8
BLACK
10
3.72579
20
-3.55795
11
3.72617
21
-3.5601
0
LINE
8
BLACK
10
3.72617
20
-3.5601
11
3.72692
21
-3.56216
0
LINE
8
BLACK
10
3.72692
20
-3.56216
11
3.72692
21
-3.56434
0
LINE
8
BLACK
10
3.72692
20
-3.56434
11
3.7273
21
-3.5665
0
LINE
8
BLACK
10
3.7273
20
-3.5665
11
3.7273
21
-3.74877
0
LINE
8
BLACK
10
3.7273
20
-3.74877
11
3.72741
21
-3.74989
0
LINE
8
BLACK
10
3.72741
20
-3.74989
11
3.72853
21
-3.75
0
LINE
8
BLACK
10
3.72853
20
-3.75
11
10.9444
21
-3.75
0
LINE
8
BLACK
10
10.9444
20
-3.75
11
10.9455
21
-3.75019
0
LINE
8
BLACK
10
10.9455
20
-3.75019
11
10.9466
21
-3.75009
0
LINE
8
BLACK
10
10.9466
20
-3.75009
11
10.9498
21
-3.75094
0
LINE
8
BLACK
10
10.9498
20
-3.75094
11
10.953
21
-3.75151
0
LINE
8
BLACK
10
10.953
20
-3.75151
11
10.9539
21
-3.75206
0
LINE
8
BLACK
10
10.9539
20
-3.75206
11
10.955
21
-3.75234
0
LINE
8
BLACK
10
10.955
20
-3.75234
11
10.9577
21
-3.75422
0
LINE
8
BLACK
10
10.9577
20
-3.75422
11
10.9605
21
-3.75585
0
LINE
8
BLACK
10
10.9605
20
-3.75585
11
10.9612
21
-3.75669
0
LINE
8
BLACK
10
10.9612
20
-3.75669
11
10.9621
21
-3.75732
0
LINE
8
BLACK
10
10.9621
20
-3.75732
11
11.4
21
-4.19518
0
LINE
8
BLACK
10
11.4
20
-4.19518
11
11.4006
21
-4.19608
0
LINE
8
BLACK
10
11.4006
20
-4.19608
11
11.4015
21
-4.19679
0
LINE
8
BLACK
10
11.4015
20
-4.19679
11
11.4031
21
-4.19961
0
LINE
8
BLACK
10
11.4031
20
-4.19961
11
11.405
21
-4.20229
0
LINE
8
BLACK
10
11.405
20
-4.20229
11
11.4052
21
-4.20335
0
LINE
8
BLACK
10
11.4052
20
-4.20335
11
11.4058
21
-4.2043
0
LINE
8
BLACK
10
11.4058
20
-4.2043
11
11.4064
21
-4.20752
0
LINE
8
BLACK
10
11.4064
20
-4.20752
11
11.4072
21
-4.21068
0
LINE
8
BLACK
10
11.4072
20
-4.21068
11
11.4071
21
-4.21177
0
LINE
8
BLACK
10
11.4071
20
-4.21177
11
11.4073
21
-4.21286
0
LINE
8
BLACK
10
11.4073
20
-4.21286
11
11.4073
21
-7.05377
0
LINE
8
BLACK
10
11.4073
20
-7.05377
11
11.4074
21
-7.05489
0
LINE
8
BLACK
10
11.4074
20
-7.05489
11
11.4085
21
-7.055
0
LINE
8
BLACK
10
11.4085
20
-7.055
11
11.6561
21
-7.055
0
LINE
8
BLACK
10
11.6561
20
-7.055
11
11.6572
21
-7.05489
0
LINE
8
BLACK
10
11.6572
20
-7.05489
11
11.6573
21
-7.05377
0
LINE
8
BLACK
10
11.6573
20
-7.05377
11
11.6573
21
-6.025
0
LINE
8
BLACK
10
11.6573
20
-6.025
11
11.6577
21
-6.02284
0
LINE
8
BLACK
10
11.6577
20
-6.02284
11
11.6577
21
-6.02066
0
LINE
8
BLACK
10
11.6577
20
-6.02066
11
11.6584
21
-6.0186
0
LINE
8
BLACK
10
11.6584
20
-6.0186
11
11.6588
21
-6.01645
0
LINE
8
BLACK
10
11.6588
20
-6.01645
11
11.6599
21
-6.01456
0
LINE
8
BLACK
10
11.6599
20
-6.01456
11
11.6606
21
-6.0125
0
LINE
8
BLACK
10
11.6606
20
-6.0125
11
11.6621
21
-6.01082
0
LINE
8
BLACK
10
11.6621
20
-6.01082
11
11.6631
21
-6.00893
0
LINE
8
BLACK
10
11.6631
20
-6.00893
11
11.6648
21
-6.00752
0
LINE
8
BLACK
10
11.6648
20
-6.00752
11
11.6662
21
-6.00585
0
LINE
8
BLACK
10
11.6662
20
-6.00585
11
11.6681
21
-6.00476
0
LINE
8
BLACK
10
11.6681
20
-6.00476
11
11.6698
21
-6.00335
0
LINE
8
BLACK
10
11.6698
20
-6.00335
11
11.6719
21
-6.0026
0
LINE
8
BLACK
10
11.6719
20
-6.0026
11
11.6737
21
-6.00151
0
LINE
8
BLACK
10
11.6737
20
-6.00151
11
11.6759
21
-6.00113
0
LINE
8
BLACK
10
11.6759
20
-6.00113
11
11.678
21
-6.00038
0
LINE
8
BLACK
10
11.678
20
-6.00038
11
11.6801
21
-6.00038
0
LINE
8
BLACK
10
11.6801
20
-6.00038
11
11.6823
21
-6
0
LINE
8
BLACK
10
11.6823
20
-6
11
13.1323
21
-6
0
LINE
8
BLACK
10
13.1323
20
-6
11
13.1345
21
-6.00038
0
LINE
8
BLACK
10
13.1345
20
-6.00038
11
13.1366
21
-6.00038
0
LINE
8
BLACK
10
13.1366
20
-6.00038
11
13.1387
21
-6.00113
0
LINE
8
BLACK
10
13.1387
20
-6.00113
11
13.1409
21
-6.00151
0
LINE
8
BLACK
10
13.1409
20
-6.00151
11
13.1427
21
-6.0026
0
LINE
8
BLACK
10
13.1427
20
-6.0026
11
13.1448
21
-6.00335
0
LINE
8
BLACK
10
13.1448
20
-6.00335
11
13.1465
21
-6.00476
0
LINE
8
BLACK
10
13.1465
20
-6.00476
11
13.1484
21
-6.00585
0
LINE
8
BLACK
10
13.1484
20
-6.00585
11
13.1498
21
-6.00752
0
LINE
8
BLACK
10
13.1498
20
-6.00752
11
13.1515
21
-6.00893
0
LINE
8
BLACK
10
13.1515
20
-6.00893
11
13.1525
21
-6.01082
0
LINE
8
BLACK
10
13.1525
20
-6.01082
11
13.154
21
-6.0125
0
LINE
8
BLACK
10
13.154
20
-6.0125
11
13.1547
21
-6.01456
0
LINE
8
BLACK
10
13.1547
20
-6.01456
11
13.1558
21
-6.01645
0
LINE
8
BLACK
10
13.1558
20
-6.01645
11
13.1562
21
-6.0186
0
LINE
8
BLACK
10
13.1562
20
-6.0186
11
13.1569
21
-6.02066
0
LINE
8
BLACK
10
13.1569
20
-6.02066
11
13.1569
21
-6.02284
0
LINE
8
BLACK
10
13.1569
20
-6.02284
11
13.1573
21
-6.025
0
LINE
8
BLACK
10
13.1573
20
-6.025
11
13.1573
21
-9.14
0
LINE
8
BLACK
10
13.1573
20
-9.14
11
13.1569
21
-9.14215
0
LINE
8
BLACK
10
13.1569
20
-9.14215
11
13.1569
21
-9.14434
0
LINE
8
BLACK
10
13.1569
20
-9.14434
11
13.1562
21
-9.1464
0
LINE
8
BLACK
10
13.1562
20
-9.1464
11
13.1558
21
-9.14855
0
LINE
8
BLACK
10
13.1558
20
-9.14855
11
13.1547
21
-9.15044
0
LINE
8
BLACK
10
13.1547
20
-9.15044
11
13.154
21
-9.1525
0
LINE
8
BLACK
10
13.154
20
-9.1525
11
13.1525
21
-9.15418
0
LINE
8
BLACK
10
13.1525
20
-9.15418
11
13.1515
21
-9.15607
0
LINE
8
BLACK
10
13.1515
20
-9.15607
11
13.1498
21
-9.15748
0
LINE
8
BLACK
10
13.1498
20
-9.15748
11
13.1484
21
-9.15915
0
LINE
8
BLACK
10
13.1484
20
-9.15915
11
13.1465
21
-9.16024
0
LINE
8
BLACK
10
13.1465
20
-9.16024
11
13.1448
21
-9.16165
0
LINE
8
BLACK
10
13.1448
20
-9.16165
11
13.1427
21
-9.1624
0
LINE
8
BLACK
10
13.1427
20
-9.1624
11
13.1409
21
-9.16349
0
LINE
8
BLACK
10
13.1409
20
-9.16349
11
13.1387
21
-9.16387
0
LINE
8
BLACK
10
13.1387
20
-9.16387
11
13.1366
21
-9.16462
0
LINE
8
BLACK
10
13.1366
20
-9.16462
11
13.1345
21
-9.16462
0
LINE
8
BLACK
10
13.1345
20
-9.16462
11
13.1323
21
-9.165
0
LINE
8
BLACK
10
13.1323
20
-9.165
11
9.1823
21
-9.165
0
LINE
8
BLACK
10
9.1823
20
-9.165
11
9.18014
21
-9.16462
0
LINE
8
BLACK
10
9.18014
20
-9.16462
11
9.17796
21
-9.16462
0
LINE
8
BLACK
10
9.17796
20
-9.16462
11
9.1759
21
-9.16387
0
LINE
8
BLACK
10
9.1759
20
-9.16387
11
9.17375
21
-9.16349
0
LINE
8
BLACK
10
9.17375
20
-9.16349
11
9.17186
21
-9.1624
0
LINE
8
BLACK
10
9.17186
20
-9.1624
11
9.1698
21
-9.16165
0
LINE
8
BLACK
10
9.1698
20
-9.16165
11
9.16812
21
-9.16024
0
LINE
8
BLACK
10
9.16812
20
-9.16024
11
9.16623
21
-9.15915
0
LINE
8
BLACK
10
9.16623
20
-9.15915
11
9.16482
21
-9.15748
0
LINE
8
BLACK
10
9.16482
20
-9.15748
11
9.16315
21
-9.15607
0
LINE
8
BLACK
10
9.16315
20
-9.15607
11
9.16206
21
-9.15418
0
LINE
8
BLACK
10
9.16206
20
-9.15418
11
9.16065
21
-9.1525
0
LINE
8
BLACK
10
9.16065
20
-9.1525
11
9.1599
21
-9.15044
0
LINE
8
BLACK
10
9.1599
20
-9.15044
11
9.15881
21
-9.14855
0
LINE
8
BLACK
10
9.15881
20
-9.14855
11
9.15843
21
-9.1464
0
LINE
8
BLACK
10
9.15843
20
-9.1464
11
9.15768
21
-9.14434
0
LINE
8
BLACK
10
9.15768
20
-9.14434
11
9.15768
21
-9.14215
0
LINE
8
BLACK
10
9.15768
20
-9.14215
11
9.1573
21
-9.14
0
LINE
8
BLACK
10
9.1573
20
-9.14
11
9.1573
21
-6.025
0
LINE
8
BLACK
10
9.1573
20
-6.025
11
9.15768
21
-6.02284
0
LINE
8
BLACK
10
9.15768
20
-6.02284
11
9.15768
21
-6.02066
0
LINE
8
BLACK
10
9.15768
20
-6.02066
11
9.15843
21
-6.0186
0
LINE
8
BLACK
10
9.15843
20
-6.0186
11
9.15881
21
-6.01645
0
LINE
8
BLACK
10
9.15881
20
-6.01645
11
9.1599
21
-6.01456
0
LINE
8
BLACK
10
9.1599
20
-6.01456
11
9.16065
21
-6.0125
0
LINE
8
BLACK
10
9.16065
20
-6.0125
11
9.16206
21
-6.01082
0
LINE
8
BLACK
10
9.16206
20
-6.01082
11
9.16315
21
-6.00893
0
LINE
8
BLACK
10
9.16315
20
-6.00893
11
9.16482
21
-6.00752
0
LINE
8
BLACK
10
9.16482
20
-6.00752
11
9.16623
21
-6.00585
0
LINE
8
BLACK
10
9.16623
20
-6.00585
11
9.16812
21
-6.00476
0
LINE
8
BLACK
10
9.16812
20
-6.00476
11
9.1698
21
-6.00335
0
LINE
8
BLACK
10
9.1698
20
-6.00335
11
9.17186
21
-6.0026
0
LINE
8
BLACK
10
9.17186
20
-6.0026
11
9.17375
21
-6.00151
0
LINE
8
BLACK
10
9.17375
20
-6.00151
11
9.1759
21
-6.00113
0
LINE
8
BLACK
10
9.1759
20
-6.00113
11
9.17796
21
-6.00038
0
LINE
8
BLACK
10
9.17796
20
-6.00038
11
9.18014
21
-6.00038
0
LINE
8
BLACK
10
9.18014
20
-6.00038
11
9.1823
21
-6
0
LINE
8
BLACK
10
9.1823
20
-6
11
10.6322
21
-6
0
LINE
8
BLACK
10
10.6322
20
-6
11
10.6344
21
-6.00038
0
LINE
8
BLACK
10
10.6344
20
-6.00038
11
10.6365
21
-6.00038
0
LINE
8
BLACK
10
10.6365
20
-6.00038
11
10.6386
21
-6.00113
0
LINE
8
BLACK
10
10.6386
20
-6.00113
11
10.6408
21
-6.00151
0
LINE
8
BLACK
10
10.6408
20
-6.00151
11
10.6426
21
-6.0026
0
LINE
8
BLACK
10
10.6426
20
-6.0026
11
10.6447
21
-6.00335
0
LINE
8
BLACK
10
10.6447
20
-6.00335
11
10.6464
21
-6.00476
0
LINE
8
BLACK
10
10.6464
20
-6.00476
11
10.6483
21
-6.00585
0
LINE
8
BLACK
10
10.6483
20
-6.00585
11
10.6497
21
-6.00752
0
LINE
8
BLACK
10
10.6497
20
-6.00752
11
10.6514
21
-6.00893
0
LINE
8
BLACK
10
10.6514
20
-6.00893
11
10.6524
21
-6.01082
0
LINE
8
BLACK
10
10.6524
20
-6.01082
11
10.6539
21
-6.0125
0
LINE
8
BLACK
10
10.6539
20
-6.0125
11
10.6546
21
-6.01456
0
LINE
8
BLACK
10
10.6546
20
-6.01456
11
10.6557
21
-6.01645
0
LINE
8
BLACK
10
10.6557
20
-6.01645
11
10.6561
21
-6.0186
0
LINE
8
BLACK
10
10.6561
20
-6.0186
11
10.6568
21
-6.02066
0
LINE
8
BLACK
10
10.6568
20
-6.02066
11
10.6568
21
-6.02284
0
LINE
8
BLACK
10
10.6568
20
-6.02284
11
10.6572
21
-6.025
0
LINE
8
BLACK
10
10.6572
20
-6.025
11
10.6572
21
-7.05377
0
LINE
8
BLACK
10
10.6572
20
-7.05377
11
10.6573
21
-7.05489
0
LINE
8
BLACK
10
10.6573
20
-7.05489
11
10.6584
21
-7.055
0
LINE
8
BLACK
10
10.6584
20
-7.055
11
10.906
21
-7.055
0
LINE
8
BLACK
10
10.906
20
-7.055
11
10.9071
21
-7.05489
0
LINE
8
BLACK
10
10.9071
20
-7.05489
11
10.9072
21
-7.05377
0
LINE
8
BLACK
10
10.9072
20
-7.05377
11
10.9072
21
-4.25123
0
LINE
8
BLACK
10
10.9072
20
-4.25123
11
10.9071
21
-4.25011
0
LINE
8
BLACK
10
10.9071
20
-4.25011
11
10.906
21
-4.25
0
LINE
8
BLACK
10
10.906
20
-4.25
11
3.97843
21
-4.25
0
LINE
8
BLACK
10
3.97843
20
-4.25
11
3.97731
21
-4.25011
0
LINE
8
BLACK
10
3.97731
20
-4.25011
11
3.9772
21
-4.25123
0
LINE
8
BLACK
10
3.9772
20
-4.25123
11
3.9772
21
-7.05377
0
LINE
8
BLACK
10
3.9772
20
-7.05377
11
3.97731
21
-7.05489
0
LINE
8
BLACK
10
3.97731
20
-7.05489
11
3.97843
21
-7.055
0
LINE
8
BLACK
10
3.97843
20
-7.055
11
4.22597
21
-7.055
0
LINE
8
BLACK
10
4.22597
20
-7.055
11
4.22709
21
-7.05489
0
LINE
8
BLACK
10
4.22709
20
-7.05489
11
4.2272
21
-7.05377
0
LINE
8
BLACK
10
4.2272
20
-7.05377
11
4.2272
21
-6.025
0
LINE
8
BLACK
10
4.2272
20
-6.025
11
4.22758
21
-6.02284
0
LINE
8
BLACK
10
4.22758
20
-6.02284
11
4.22758
21
-6.02066
0
LINE
8
BLACK
10
4.22758
20
-6.02066
11
4.22833
21
-6.0186
0
LINE
8
BLACK
10
4.22833
20
-6.0186
11
4.22871
21
-6.01645
0
LINE
8
BLACK
10
4.22871
20
-6.01645
11
4.2298
21
-6.01456
0
LINE
8
BLACK
10
4.2298
20
-6.01456
11
4.23055
21
-6.0125
0
LINE
8
BLACK
10
4.23055
20
-6.0125
11
4.23196
21
-6.01082
0
LINE
8
BLACK
10
4.23196
20
-6.01082
11
4.23305
21
-6.00893
0
LINE
8
BLACK
10
4.23305
20
-6.00893
11
4.23472
21
-6.00752
0
LINE
8
BLACK
10
4.23472
20
-6.00752
11
4.23613
21
-6.00585
0
LINE
8
BLACK
10
4.23613
20
-6.00585
11
4.23802
21
-6.00476
0
LINE
8
BLACK
10
4.23802
20
-6.00476
11
4.2397
21
-6.00335
0
LINE
8
BLACK
10
4.2397
20
-6.00335
11
4.24176
21
-6.0026
0
LINE
8
BLACK
10
4.24176
20
-6.0026
11
4.24365
21
-6.00151
0
LINE
8
BLACK
10
4.24365
20
-6.00151
11
4.2458
21
-6.00113
0
LINE
8
BLACK
10
4.2458
20
-6.00113
11
4.24786
21
-6.00038
0
LINE
8
BLACK
10
4.24786
20
-6.00038
11
4.25005
21
-6.00038
0
LINE
8
BLACK
10
4.25005
20
-6.00038
11
4.2522
21
-6
0
LINE
8
BLACK
10
4.2522
20
-6
11
5.7022
21
-6
0
LINE
8
BLACK
10
5.7022
20
-6
11
5.70435
21
-6.00038
0
LINE
8
BLACK
10
5.70435
20
-6.00038
11
5.70654
21
-6.00038
0
LINE
8
BLACK
10
5.70654
20
-6.00038
11
5.7086
21
-6.00113
0
LINE
8
BLACK
10
5.7086
20
-6.00113
11
5.71075
21
-6.00151
0
LINE
8
BLACK
10
5.71075
20
-6.00151
11
5.71264
21
-6.0026
0
LINE
8
BLACK
10
5.71264
20
-6.0026
11
5.7147
21
-6.00335
0
LINE
8
BLACK
10
5.7147
20
-6.00335
11
5.71638
21
-6.00476
0
LINE
8
BLACK
10
5.71638
20
-6.00476
11
5.71827
21
-6.00585
0
LINE
8
BLACK
10
5.71827
20
-6.00585
11
5.71968
21
-6.00752
0
LINE
8
BLACK
10
5.71968
20
-6.00752
11
5.72135
21
-6.00893
0
LINE
8
BLACK
10
5.72135
20
-6.00893
11
5.72244
21
-6.01082
0
LINE
8
BLACK
10
5.72244
20
-6.01082
11
5.72385
21
-6.0125
0
LINE
8
BLACK
10
5.72385
20
-6.0125
11
5.7246
21
-6.01456
0
LINE
8
BLACK
10
5.7246
20
-6.01456
11
5.72569
21
-6.01645
0
LINE
8
BLACK
10
5.72569
20
-6.01645
11
5.72607
21
-6.0186
0
LINE
8
BLACK
10
5.72607
20
-6.0186
11
5.72682
21
-6.02066
0
LINE
8
BLACK
10
5.72682
20
-6.02066
11
5.72682
21
-6.02284
0
LINE
8
BLACK
10
5.72682
20
-6.02284
11
5.7272
21
-6.025
0
LINE
8
BLACK
10
5.7272
20
-6.025
11
5.7272
21
-9.14
0
LINE
8
BLACK
10
5.7272
20
-9.14
11
5.72682
21
-9.14215
0
LINE
8
BLACK
10
5.72682
20
-9.14215
11
5.72682
21
-9.14434
0
LINE
8
BLACK
10
5.72682
20
-9.14434
11
5.72607
21
-9.1464
0
LINE
8
BLACK
10
5.72607
20
-9.1464
11
5.72569
21
-9.14855
0
LINE
8
BLACK
10
5.72569
20
-9.14855
11
5.7246
21
-9.15044
0
LINE
8
BLACK
10
5.7246
20
-9.15044
11
5.72385
21
-9.1525
0
LINE
8
BLACK
10
5.72385
20
-9.1525
11
5.72244
21
-9.15418
0
LINE
8
BLACK
10
5.72244
20
-9.15418
11
5.72135
21
-9.15607
0
LINE
8
BLACK
10
5.72135
20
-9.15607
11
5.71968
21
-9.15748
0
LINE
8
BLACK
10
5.71968
20
-9.15748
11
5.71827
21
-9.15915
0
LINE
8
BLACK
10
5.71827
20
-9.15915
11
5.71638
21
-9.16024
0
LINE
8
BLACK
10
5.71638
20
-9.16024
11
5.7147
21
-9.16165
0
LINE
8
BLACK
10
5.7147
20
-9.16165
11
5.71264
21
-9.1624
0
LINE
8
BLACK
10
5.71264
20
-9.1624
11
5.71075
21
-9.16349
0
LINE
8
BLACK
10
5.71075
20
-9.16349
11
5.7086
21
-9.16387
0
LINE
8
BLACK
10
5.7086
20
-9.16387
11
5.70654
21
-9.16462
0
LINE
8
BLACK
10
5.70654
20
-9.16462
11
5.70435
21
-9.16462
0
LINE
8
BLACK
10
5.70435
20
-9.16462
11
5.7022
21
-9.165
0
LINE
8
BLACK
10
5.7022
20
-9.165
11
1.7522
21
-9.165
0
LINE
8
BLACK
10
1.7522
20
-9.165
11
1.75004
21
-9.16462
0
LINE
8
BLACK
10
1.75004
20
-9.16462
11
1.74786
21
-9.16462
0
LINE
8
BLACK
10
1.74786
20
-9.16462
11
1.7458
21
-9.16387
0
LINE
8
BLACK
10
1.7458
20
-9.16387
11
1.74365
21
-9.16349
0
LINE
8
BLACK
10
1.74365
20
-9.16349
11
1.74176
21
-9.1624
0
LINE
8
BLACK
10
1.74176
20
-9.1624
11
1.7397
21
-9.16165
0
LINE
8
BLACK
10
1.7397
20
-9.16165
11
1.73802
21
-9.16024
0
LINE
8
BLACK
10
1.73802
20
-9.16024
11
1.73613
21
-9.15915
0
LINE
8
BLACK
10
1.73613
20
-9.15915
11
1.73472
21
-9.15748
0
LINE
8
BLACK
10
1.73472
20
-9.15748
11
1.73305
21
-9.15607
0
LINE
8
BLACK
10
1.73305
20
-9.15607
11
1.73196
21
-9.15418
0
LINE
8
BLACK
10
1.73196
20
-9.15418
11
1.73055
21
-9.1525
0
LINE
8
BLACK
10
1.73055
20
-9.1525
11
1.7298
21
-9.15044
0
LINE
8
BLACK
10
1.7298
20
-9.15044
11
1.72871
21
-9.14855
0
LINE
8
BLACK
10
1.72871
20
-9.14855
11
1.72833
21
-9.1464
0
LINE
8
BLACK
10
1.72833
20
-9.1464
11
1.72758
21
-9.14434
0
LINE
8
BLACK
10
1.72758
20
-9.14434
11
1.72758
21
-9.14215
0
LINE
8
BLACK
10
1.72758
20
-9.14215
11
1.7272
21
-9.14
0
LINE
8
BLACK
10
1.7272
20
-9.14
11
1.7272
21
-6.025
0
LINE
8
BLACK
10
1.7272
20
-6.025
11
1.72758
21
-6.02284
0
LINE
8
BLACK
10
1.72758
20
-6.02284
11
1.72758
21
-6.02066
0
LINE
8
BLACK
10
1.72758
20
-6.02066
11
1.72833
21
-6.0186
0
LINE
8
BLACK
10
1.72833
20
-6.0186
11
1.72871
21
-6.01645
0
LINE
8
BLACK
10
1.72871
20
-6.01645
11
1.7298
21
-6.01456
0
LINE
8
BLACK
10
1.7298
20
-6.01456
11
1.73055
21
-6.0125
0
LINE
8
BLACK
10
1.73055
20
-6.0125
11
1.73196
21
-6.01082
0
LINE
8
BLACK
10
1.73196
20
-6.01082
11
1.73305
21
-6.00893
0
LINE
8
BLACK
10
1.73305
20
-6.00893
11
1.73472
21
-6.00752
0
LINE
8
BLACK
10
1.73472
20
-6.00752
11
1.73613
21
-6.00585
0
LINE
8
BLACK
10
1.73613
20
-6.00585
11
1.73802
21
-6.00476
0
LINE
8
BLACK
10
1.73802
20
-6.00476
11
1.7397
21
-6.00335
0
LINE
8
BLACK
10
1.7397
20
-6.00335
11
1.74176
21
-6.0026
0
LINE
8
BLACK
10
1.74176
20
-6.0026
11
1.74365
21
-6.00151
0
LINE
8
BLACK
10
1.74365
20
-6.00151
11
1.7458
21
-6.00113
0
LINE
8
BLACK
10
1.7458
20
-6.00113
11
1.74786
21
-6.00038
0
LINE
8
BLACK
10
1.74786
20
-6.00038
11
1.75004
21
-6.00038
0
LINE
8
BLACK
10
1.75004
20
-6.00038
11
1.7522
21
-6
0
LINE
8
BLACK
10
1.7522
20
-6
11
3.2023
21
-6
0
LINE
8
BLACK
10
3.2023
20
-6
11
3.20445
21
-6.00038
0
LINE
8
BLACK
10
3.20445
20
-6.00038
11
3.20664
21
-6.00038
0
LINE
8
BLACK
10
3.20664
20
-6.00038
11
3.2087
21
-6.00113
0
LINE
8
BLACK
10
3.2087
20
-6.00113
11
3.21085
21
-6.00151
0
LINE
8
BLACK
10
3.21085
20
-6.00151
11
3.21274
21
-6.0026
0
LINE
8
BLACK
10
3.21274
20
-6.0026
11
3.2148
21
-6.00335
0
LINE
8
BLACK
10
3.2148
20
-6.00335
11
3.21648
21
-6.00476
0
LINE
8
BLACK
10
3.21648
20
-6.00476
11
3.21837
21
-6.00585
0
LINE
8
BLACK
10
3.21837
20
-6.00585
11
3.21978
21
-6.00752
0
LINE
8
BLACK
10
3.21978
20
-6.00752
11
3.22145
21
-6.00893
0
LINE
8
BLACK
10
3.22145
20
-6.00893
11
3.22254
21
-6.01082
0
LINE
8
BLACK
10
3.22254
20
-6.01082
11
3.22395
21
-6.0125
0
LINE
8
BLACK
10
3.22395
20
-6.0125
11
3.2247
21
-6.01456
0
LINE
8
BLACK
10
3.2247
20
-6.01456
11
3.22579
21
-6.01645
0
LINE
8
BLACK
10
3.22579
20
-6.01645
11
3.22617
21
-6.0186
0
LINE
8
BLACK
10
3.22617
20
-6.0186
11
3.22692
21
-6.02066
0
LINE
8
BLACK
10
3.22692
20
-6.02066
11
3.22692
21
-6.02284
0
LINE
8
BLACK
10
3.22692
20
-6.02284
11
3.2273
21
-6.025
0
LINE
8
BLACK
10
3.2273
20
-6.025
11
3.2273
21
-7.05377
0
LINE
8
BLACK
10
3.2273
20
-7.05377
11
3.22741
21
-7.05489
0
LINE
8
BLACK
10
3.22741
20
-7.05489
11
3.22853
21
-7.055
0
LINE
8
BLACK
10
3.22853
20
-7.055
11
3.47607
21
-7.055
0
LINE
8
BLACK
10
3.47607
20
-7.055
11
3.47719
21
-7.05489
0
LINE
8
BLACK
10
3.47719
20
-7.05489
11
3.4773
21
-7.05377
0
LINE
8
BLACK
10
3.4773
20
-7.05377
11
3.4773
21
-4.45973
0
LINE
8
BLACK
10
3.4773
20
-4.45973
11
3.47719
21
-4.45861
0
LINE
8
BLACK
10
3.47719
20
-4.45861
11
3.47607
21
-4.4585
0
LINE
8
BLACK
10
3.47607
20
-4.4585
11
1.9528
21
-4.4585
0
LINE
8
BLACK
10
1.9528
20
-4.4585
11
1.95064
21
-4.45812
0
LINE
8
BLACK
10
1.95064
20
-4.45812
11
1.94846
21
-4.45812
0
LINE
8
BLACK
10
1.94846
20
-4.45812
11
1.9464
21
-4.45737
0
LINE
8
BLACK
10
1.9464
20
-4.45737
11
1.94425
21
-4.45699
0
LINE
8
BLACK
10
1.94425
20
-4.45699
11
1.94236
21
-4.4559
0
LINE
8
BLACK
10
1.94236
20
-4.4559
11
1.9403
21
-4.45515
0
LINE
8
BLACK
10
1.9403
20
-4.45515
11
1.93862
21
-4.45374
0
LINE
8
BLACK
10
1.93862
20
-4.45374
11
1.93673
21
-4.45265
0
LINE
8
BLACK
10
1.93673
20
-4.45265
11
1.93532
21
-4.45098
0
LINE
8
BLACK
10
1.93532
20
-4.45098
11
1.93365
21
-4.44957
0
LINE
8
BLACK
10
1.93365
20
-4.44957
11
1.93256
21
-4.44768
0
LINE
8
BLACK
10
1.93256
20
-4.44768
11
1.93115
21
-4.446
0
LINE
8
BLACK
10
1.93115
20
-4.446
11
1.9304
21
-4.44394
0
LINE
8
BLACK
10
1.9304
20
-4.44394
11
1.92931
21
-4.44205
0
LINE
8
BLACK
10
1.92931
20
-4.44205
11
1.92893
21
-4.4399
0
LINE
8
BLACK
10
1.92893
20
-4.4399
11
1.92818
21
-4.43784
0
LINE
8
BLACK
10
1.92818
20
-4.43784
11
1.92818
21
-4.43565
0
LINE
8
BLACK
10
1.92818
20
-4.43565
11
1.9278
21
-4.4335
0
LINE
8
BLACK
10
1.9278
20
-4.4335
11
1.9278
21
-4.14023
0
LINE
8
BLACK
10
1.9278
20
-4.14023
11
1.92769
21
-4.13911
0
LINE
8
BLACK
10
1.92769
20
-4.13911
11
1.92657
21
-4.139
0
LINE
8
BLACK
10
1.92657
20
-4.139
11
-1.92657
21
-4.139
0
LINE
8
BLACK
10
-1.92657
20
-4.139
11
-1.92769
21
-4.13911
0
LINE
8
BLACK
10
-1.92769
20
-4.13911
11
-1.9278
21
-4.14023
0
LINE
8
BLACK
10
-1.9278
20
-4.14023
11
-1.9278
21
-4.4335
0
LINE
8
BLACK
10
-1.9278
20
-4.4335
11
-1.92818
21
-4.43565
0
LINE
8
BLACK
10
-1.92818
20
-4.43565
11
-1.92818
21
-4.43784
0
LINE
8
BLACK
10
-1.92818
20
-4.43784
11
-1.92893
21
-4.4399
0
LINE
8
BLACK
10
-1.92893
20
-4.4399
11
-1.92931
21
-4.44205
0
LINE
8
BLACK
10
-1.92931
20
-4.44205
11
-1.9304
21
-4.44394
0
LINE
8
BLACK
10
-1.9304
20
-4.44394
11
-1.93115
21
-4.446
0
LINE
8
BLACK
10
-1.93115
20
-4.446
11
-1.93256
21
-4.44768
0
LINE
8
BLACK
10
-1.93256
20
-4.44768
11
-1.93365
21
-4.44957
0
LINE
8
BLACK
10
-1.93365
20
-4.44957
11
-1.93532
21
-4.45098
0
LINE
8
BLACK
10
-1.93532
20
-4.45098
11
-1.93673
21
-4.45265
0
LINE
8
BLACK
10
-1.93673
20
-4.45265
11
-1.93862
21
-4.45374
0
LINE
8
BLACK
10
-1.93862
20
-4.45374
11
-1.9403
21
-4.45515
0
LINE
8
BLACK
10
-1.9403
20
-4.45515
11
-1.94236
21
-4.4559
0
LINE
8
BLACK
10
-1.94236
20
-4.4559
11
-1.94425
21
-4.45699
0
LINE
8
BLACK
10
-1.94425
20
-4.45699
11
-1.9464
21
-4.45737
0
LINE
8
BLACK
10
-1.9464
20
-4.45737
11
-1.94846
21
-4.45812
0
LINE
8
BLACK
10
-1.94846
20
-4.45812
11
-1.95064
21
-4.45812
0
LINE
8
BLACK
10
-1.95064
20
-4.45812
11
-1.9528
21
-4.4585
0
LINE
8
BLACK
10
-1.9528
20
-4.4585
11
-3.47607
21
-4.4585
0
LINE
8
BLACK
10
-3.47607
20
-4.4585
11
-3.47719
21
-4.45861
0
LINE
8
BLACK
10
-3.47719
20
-4.45861
11
-3.4773
21
-4.45973
0
LINE
8
BLACK
10
-3.4773
20
-4.45973
11
-3.4773
21
-7.05377
0
LINE
8
BLACK
10
-3.4773
20
-7.05377
11
-3.47719
21
-7.05489
0
LINE
8
BLACK
10
-3.47719
20
-7.05489
11
-3.47607
21
-7.055
0
LINE
8
BLACK
10
-3.47607
20
-7.055
11
-3.22853
21
-7.055
0
LINE
8
BLACK
10
-3.22853
20
-7.055
11
-3.22741
21
-7.05489
0
LINE
8
BLACK
10
-3.22741
20
-7.05489
11
-3.2273
21
-7.05377
0
LINE
8
BLACK
10
-3.2273
20
-7.05377
11
-3.2273
21
-6.025
0
LINE
8
BLACK
10
-3.2273
20
-6.025
11
-3.22692
21
-6.02284
0
LINE
8
BLACK
10
-3.22692
20
-6.02284
11
-3.22692
21
-6.02066
0
LINE
8
BLACK
10
-3.22692
20
-6.02066
11
-3.22617
21
-6.0186
0
LINE
8
BLACK
10
-3.22617
20
-6.0186
11
-3.22579
21
-6.01645
0
LINE
8
BLACK
10
-3.22579
20
-6.01645
11
-3.2247
21
-6.01456
0
LINE
8
BLACK
10
-3.2247
20
-6.01456
11
-3.22395
21
-6.0125
0
LINE
8
BLACK
10
-3.22395
20
-6.0125
11
-3.22254
21
-6.01082
0
LINE
8
BLACK
10
-3.22254
20
-6.01082
11
-3.22145
21
-6.00893
0
LINE
8
BLACK
10
-3.22145
20
-6.00893
11
-3.21978
21
-6.00752
0
LINE
8
BLACK
10
-3.21978
20
-6.00752
11
-3.21837
21
-6.00585
0
LINE
8
BLACK
10
-3.21837
20
-6.00585
11
-3.21648
21
-6.00476
0
LINE
8
BLACK
10
-3.21648
20
-6.00476
11
-3.2148
21
-6.00335
0
LINE
8
BLACK
10
-3.2148
20
-6.00335
11
-3.21274
21
-6.0026
0
LINE
8
BLACK
10
-3.21274
20
-6.0026
11
-3.21085
21
-6.00151
0
LINE
8
BLACK
10
-3.21085
20
-6.00151
11
-3.2087
21
-6.00113
0
LINE
8
BLACK
10
-3.2087
20
-6.00113
11
-3.20664
21
-6.00038
0
LINE
8
BLACK
10
-3.20664
20
-6.00038
11
-3.20445
21
-6.00038
0
LINE
8
BLACK
10
-3.20445
20
-6.00038
11
-3.2023
21
-6
0
LINE
8
BLACK
10
-3.2023
20
-6
11
-1.7522
21
-6
0
LINE
8
BLACK
10
-1.7522
20
-6
11
-1.75004
21
-6.00038
0
LINE
8
BLACK
10
-1.75004
20
-6.00038
11
-1.74786
21
-6.00038
0
LINE
8
BLACK
10
-1.74786
20
-6.00038
11
-1.7458
21
-6.00113
0
LINE
8
BLACK
10
-1.7458
20
-6.00113
11
-1.74365
21
-6.00151
0
LINE
8
BLACK
10
-1.74365
20
-6.00151
11
-1.74176
21
-6.0026
0
LINE
8
BLACK
10
-1.74176
20
-6.0026
11
-1.7397
21
-6.00335
0
LINE
8
BLACK
10
-1.7397
20
-6.00335
11
-1.73802
21
-6.00476
0
LINE
8
BLACK
10
-1.73802
20
-6.00476
11
-1.73613
21
-6.00585
0
LINE
8
BLACK
10
-1.73613
20
-6.00585
11
-1.73472
21
-6.00752
0
LINE
8
BLACK
10
-1.73472
20
-6.00752
11
-1.73305
21
-6.00893
0
LINE
8
BLACK
10
-1.73305
20
-6.00893
11
-1.73196
21
-6.01082
0
LINE
8
BLACK
10
-1.73196
20
-6.01082
11
-1.73055
21
-6.0125
0
LINE
8
BLACK
10
-1.73055
20
-6.0125
11
-1.7298
21
-6.01456
0
LINE
8
BLACK
10
-1.7298
20
-6.01456
11
-1.72871
21
-6.01645
0
LINE
8
BLACK
10
-1.72871
20
-6.01645
11
-1.72833
21
-6.0186
0
LINE
8
BLACK
10
-1.72833
20
-6.0186
11
-1.72758
21
-6.02066
0
LINE
8
BLACK
10
-1.72758
20
-6.02066
11
-1.72758
21
-6.02284
0
LINE
8
BLACK
10
-1.72758
20
-6.02284
11
-1.7272
21
-6.025
0
LINE
8
BLACK
10
-1.7272
20
-6.025
11
-1.7272
21
-9.14
0
LINE
8
BLACK
10
-1.7272
20
-9.14
11
-1.72758
21
-9.14215
0
LINE
8
BLACK
10
-1.72758
20
-9.14215
11
-1.72758
21
-9.14434
0
LINE
8
BLACK
10
-1.72758
20
-9.14434
11
-1.72833
21
-9.1464
0
LINE
8
BLACK
10
-1.72833
20
-9.1464
11
-1.72871
21
-9.14855
0
LINE
8
BLACK
10
-1.72871
20
-9.14855
11
-1.7298
21
-9.15044
0
LINE
8
BLACK
10
-1.7298
20
-9.15044
11
-1.73055
21
-9.1525
0
LINE
8
BLACK
10
-1.73055
20
-9.1525
11
-1.73196
21
-9.15418
0
LINE
8
BLACK
10
-1.73196
20
-9.15418
11
-1.73305
21
-9.15607
0
LINE
8
BLACK
10
-1.73305
20
-9.15607
11
-1.73472
21
-9.15748
0
LINE
8
BLACK
10
-1.73472
20
-9.15748
11
-1.73613
21
-9.15915
0
LINE
8
BLACK
10
-1.73613
20
-9.15915
11
-1.73802
21
-9.16024
0
LINE
8
BLACK
10
-1.73802
20
-9.16024
11
-1.7397
21
-9.16165
0
LINE
8
BLACK
10
-1.7397
20
-9.16165
11
-1.74176
21
-9.1624
0
LINE
8
BLACK
10
-1.74176
20
-9.1624
11
-1.74365
21
-9.16349
0
LINE
8
BLACK
10
-1.74365
20
-9.16349
11
-1.7458
21
-9.16387
0
LINE
8
BLACK
10
-1.7458
20
-9.16387
11
-1.74786
21
-9.16462
0
LINE
8
BLACK
10
-1.74786
20
-9.16462
11
-1.75004
21
-9.16462
0
LINE
8
BLACK
10
-1.75004
20
-9.16462
11
-1.7522
21
-9.165
0
LINE
8
BLACK
10
-1.7522
20
-9.165
11
-5.7022
21
-9.165
0
LINE
8
BLACK
10
-5.7022
20
-9.165
11
-5.70435
21
-9.16462
0
LINE
8
BLACK
10
-5.70435
20
-9.16462
11
-5.70654
21
-9.16462
0
LINE
8
BLACK
10
-5.70654
20
-9.16462
11
-5.7086
21
-9.16387
0
LINE
8
BLACK
10
-5.7086
20
-9.16387
11
-5.71075
21
-9.16349
0
LINE
8
BLACK
10
-5.71075
20
-9.16349
11
-5.71264
21
-9.1624
0
LINE
8
BLACK
10
-5.71264
20
-9.1624
11
-5.7147
21
-9.16165
0
LINE
8
BLACK
10
-5.7147
20
-9.16165
11
-5.71638
21
-9.16024
0
LINE
8
BLACK
10
-5.71638
20
-9.16024
11
-5.71827
21
-9.15915
0
LINE
8
BLACK
10
-5.71827
20
-9.15915
11
-5.71968
21
-9.15748
0
LINE
8
BLACK
10
-5.71968
20
-9.15748
11
-5.72135
21
-9.15607
0
LINE
8
BLACK
10
-5.72135
20
-9.15607
11
-5.72244
21
-9.15418
0
LINE
8
BLACK
10
-5.72244
20
-9.15418
11
-5.72385
21
-9.1525
0
LINE
8
BLACK
10
-5.72385
20
-9.1525
11
-5.7246
21
-9.15044
0
LINE
8
BLACK
10
-5.7246
20
-9.15044
11
-5.72569
21
-9.14855
0
LINE
8
BLACK
10
-5.72569
20
-9.14855
11
-5.72607
21
-9.1464
0
LINE
8
BLACK
10
-5.72607
20
-9.1464
11
-5.72682
21
-9.14434
0
LINE
8
BLACK
10
-5.72682
20
-9.14434
11
-5.72682
21
-9.14215
0
LINE
8
BLACK
10
-5.72682
20
-9.14215
11
-5.7272
21
-9.14
0
LINE
8
BLACK
10
-5.7272
20
-9.14
11
-5.7272
21
-6.025
0
LINE
8
BLACK
10
-5.7272
20
-6.025
11
-5.72682
21
-6.02284
0
LINE
8
BLACK
10
-5.72682
20
-6.02284
11
-5.72682
21
-6.02066
0
LINE
8
BLACK
10
-5.72682
20
-6.02066
11
-5.72607
21
-6.0186
0
LINE
8
BLACK
10
-5.72607
20
-6.0186
11
-5.72569
21
-6.01645
0
LINE
8
BLACK
10
-5.72569
20
-6.01645
11
-5.7246
21
-6.01456
0
LINE
8
BLACK
10
-5.7246
20
-6.01456
11
-5.72385
21
-6.0125
0
LINE
8
BLACK
10
-5.72385
20
-6.0125
11
-5.72244
21
-6.01082
0
LINE
8
BLACK
10
-5.72244
20
-6.01082
11
-5.72135
21
-6.00893
0
LINE
8
BLACK
10
-5.72135
20
-6.00893
11
-5.71968
21
-6.00752
0
LINE
8
BLACK
10
-5.71968
20
-6.00752
11
-5.71827
21
-6.00585
0
LINE
8
BLACK
10
-5.71827
20
-6.00585
11
-5.71638
21
-6.00476
0
LINE
8
BLACK
10
-5.71638
20
-6.00476
11
-5.7147
21
-6.00335
0
LINE
8
BLACK
10
-5.7147
20
-6.00335
11
-5.71264
21
-6.0026
0
LINE
8
BLACK
10
-5.71264
20
-6.0026
11
-5.71075
21
-6.00151
0
LINE
8
BLACK
10
-5.71075
20
-6.00151
11
-5.7086
21
-6.00113
0
LINE
8
BLACK
10
-5.7086
20
-6.00113
11
-5.70654
21
-6.00038
0
LINE
8
BLACK
10
-5.70654
20
-6.00038
11
-5.70435
21
-6.00038
0
LINE
8
BLACK
10
-5.70435
20
-6.00038
11
-5.7022
21
-6
0
LINE
8
BLACK
10
-5.7022
20
-6
11
-4.2522
21
-6
0
LINE
8
BLACK
10
-4.2522
20
-6
11
-4.25005
21
-6.00038
0
LINE
8
BLACK
10
-4.25005
20
-6.00038
11
-4.24786
21
-6.00038
0
LINE
8
BLACK
10
-4.24786
20
-6.00038
11
-4.2458
21
-6.00113
0
LINE
8
BLACK
10
-4.2458
20
-6.00113
11
-4.24365
21
-6.00151
0
LINE
8
BLACK
10
-4.24365
20
-6.00151
11
-4.24176
21
-6.0026
0
LINE
8
BLACK
10
-4.24176
20
-6.0026
11
-4.2397
21
-6.00335
0
LINE
8
BLACK
10
-4.2397
20
-6.00335
11
-4.23802
21
-6.00476
0
LINE
8
BLACK
10
-4.23802
20
-6.00476
11
-4.23613
21
-6.00585
0
LINE
8
BLACK
10
-4.23613
20
-6.00585
11
-4.23472
21
-6.00752
0
LINE
8
BLACK
10
-4.23472
20
-6.00752
11
-4.23305
21
-6.00893
0
LINE
8
BLACK
10
-4.23305
20
-6.00893
11
-4.23196
21
-6.01082
0
LINE
8
BLACK
10
-4.23196
20
-6.01082
11
-4.23055
21
-6.0125
0
LINE
8
BLACK
10
-4.23055
20
-6.0125
11
-4.2298
21
-6.01456
0
LINE
8
BLACK
10
-4.2298
20
-6.01456
11
-4.22871
21
-6.01645
0
LINE
8
BLACK
10
-4.22871
20
-6.01645
11
-4.22833
21
-6.0186
0
LINE
8
BLACK
10
-4.22833
20
-6.0186
11
-4.22758
21
-6.02066
0
LINE
8
BLACK
10
-4.22758
20
-6.02066
11
-4.22758
21
-6.02284
0
LINE
8
BLACK
10
-4.22758
20
-6.02284
11
-4.2272
21
-6.025
0
LINE
8
BLACK
10
-4.2272
20
-6.025
11
-4.2272
21
-7.05377
0
LINE
8
BLACK
10
-4.2272
20
-7.05377
11
-4.22709
21
-7.05489
0
LINE
8
BLACK
10
-4.22709
20
-7.05489
11
-4.22597
21
-7.055
0
LINE
8
BLACK
10
-4.22597
20
-7.055
11
-3.97843
21
-7.055
0
LINE
8
BLACK
10
-3.97843
20
-7.055
11
-3.97731
21
-7.05489
0
LINE
8
BLACK
10
-3.97731
20
-7.05489
11
-3.9772
21
-7.05377
0
LINE
8
BLACK
10
-3.9772
20
-7.05377
11
-3.9772
21
-4.25123
0
LINE
8
BLACK
10
-3.9772
20
-4.25123
11
-3.97731
21
-4.25011
0
LINE
8
BLACK
10
-3.97731
20
-4.25011
11
-3.97843
21
-4.25
0
LINE
8
BLACK
10
-3.97843
20
-4.25
11
-10.906
21
-4.25
0
LINE
8
BLACK
10
-10.906
20
-4.25
11
-10.9071
21
-4.25011
0
LINE
8
BLACK
10
-10.9071
20
-4.25011
11
-10.9072
21
-4.25123
0
LINE
8
BLACK
10
-10.9072
20
-4.25123
11
-10.9072
21
-7.05377
0
LINE
8
BLACK
10
-10.9072
20
-7.05377
11
-10.9071
21
-7.05489
0
LINE
8
BLACK
10
-10.9071
20
-7.05489
11
-10.906
21
-7.055
0
LINE
8
BLACK
10
-10.906
20
-7.055
11
-10.6584
21
-7.055
0
LINE
8
BLACK
10
-10.6584
20
-7.055
11
-10.6573
21
-7.05489
0
LINE
8
BLACK
10
-10.6573
20
-7.05489
11
-10.6572
21
-7.05377
0
LINE
8
BLACK
10
-10.6572
20
-7.05377
11
-10.6572
21
-6.025
0
LINE
8
BLACK
10
-10.6572
20
-6.025
11
-10.6568
21
-6.02284
0
LINE
8
BLACK
10
-10.6568
20
-6.02284
11
-10.6568
21
-6.02066
0
LINE
8
BLACK
10
-10.6568
20
-6.02066
11
-10.6561
21
-6.0186
0
LINE
8
BLACK
10
-10.6561
20
-6.0186
11
-10.6557
21
-6.01645
0
LINE
8
BLACK
10
-10.6557
20
-6.01645
11
-10.6546
21
-6.01456
0
LINE
8
BLACK
10
-10.6546
20
-6.01456
11
-10.6539
21
-6.0125
0
LINE
8
BLACK
10
-10.6539
20
-6.0125
11
-10.6524
21
-6.01082
0
LINE
8
BLACK
10
-10.6524
20
-6.01082
11
-10.6514
21
-6.00893
0
LINE
8
BLACK
10
-10.6514
20
-6.00893
11
-10.6497
21
-6.00752
0
LINE
8
BLACK
10
-10.6497
20
-6.00752
11
-10.6483
21
-6.00585
0
LINE
8
BLACK
10
-10.6483
20
-6.00585
11
-10.6464
21
-6.00476
0
LINE
8
BLACK
10
-10.6464
20
-6.00476
11
-10.6447
21
-6.00335
0
LINE
8
BLACK
10
-10.6447
20
-6.00335
11
-10.6426
21
-6.0026
0
LINE
8
BLACK
10
-10.6426
20
-6.0026
11
-10.6408
21
-6.00151
0
LINE
8
BLACK
10
-10.6408
20
-6.00151
11
-10.6386
21
-6.00113
0
LINE
8
BLACK
10
-10.6386
20
-6.00113
11
-10.6365
21
-6.00038
0
LINE
8
BLACK
10
-10.6365
20
-6.00038
11
-10.6344
21
-6.00038
0
LINE
8
BLACK
10
-10.6344
20
-6.00038
11
-10.6322
21
-6
0
LINE
8
BLACK
10
-10.6322
20
-6
11
-9.1823
21
-6
0
LINE
8
BLACK
10
-9.1823
20
-6
11
-9.18014
21
-6.00038
0
LINE
8
BLACK
10
-9.18014
20
-6.00038
11
-9.17796
21
-6.00038
0
LINE
8
BLACK
10
-9.17796
20
-6.00038
11
-9.1759
21
-6.00113
0
LINE
8
BLACK
10
-9.1759
20
-6.00113
11
-9.17375
21
-6.00151
0
LINE
8
BLACK
10
-9.17375
20
-6.00151
11
-9.17186
21
-6.0026
0
LINE
8
BLACK
10
-9.17186
20
-6.0026
11
-9.1698
21
-6.00335
0
LINE
8
BLACK
10
-9.1698
20
-6.00335
11
-9.16812
21
-6.00476
0
LINE
8
BLACK
10
-9.16812
20
-6.00476
11
-9.16623
21
-6.00585
0
LINE
8
BLACK
10
-9.16623
20
-6.00585
11
-9.16482
21
-6.00752
0
LINE
8
BLACK
10
-9.16482
20
-6.00752
11
-9.16315
21
-6.00893
0
LINE
8
BLACK
10
-9.16315
20
-6.00893
11
-9.16206
21
-6.01082
0
LINE
8
BLACK
10
-9.16206
20
-6.01082
11
-9.16065
21
-6.0125
0
LINE
8
BLACK
10
-9.16065
20
-6.0125
11
-9.1599
21
-6.01456
0
LINE
8
BLACK
10
-9.1599
20
-6.01456
11
-9.15881
21
-6.01645
0
LINE
8
BLACK
10
-9.15881
20
-6.01645
11
-9.15843
21
-6.0186
0
LINE
8
BLACK
10
-9.15843
20
-6.0186
11
-9.15768
21
-6.02066
0
LINE
8
BLACK
10
-9.15768
20
-6.02066
11
-9.15768
21
-6.02284
0
LINE
8
BLACK
10
-9.15768
20
-6.02284
11
-9.1573
21
-6.025
0
LINE
8
BLACK
10
-9.1573
20
-6.025
11
-9.1573
21
-9.14
0
LINE
8
BLACK
10
-9.1573
20
-9.14
11
-9.15768
21
-9.14215
0
LINE
8
BLACK
10
-9.15768
20
-9.14215
11
-9.15768
21
-9.14434
0
LINE
8
BLACK
10
-9.15768
20
-9.14434
11
-9.15843
21
-9.1464
0
LINE
8
BLACK
10
-9.15843
20
-9.1464
11
-9.15881
21
-9.14855
0
LINE
8
BLACK
10
-9.15881
20
-9.14855
11
-9.1599
21
-9.15044
0
LINE
8
BLACK
10
-9.1599
20
-9.15044
11
-9.16065
21
-9.1525
0
LINE
8
BLACK
10
-9.16065
20
-9.1525
11
-9.16206
21
-9.15418
0
LINE
8
BLACK
10
-9.16206
20
-9.15418
11
-9.16315
21
-9.15607
0
LINE
8
BLACK
10
-9.16315
20
-9.15607
11
-9.16482
21
-9.15748
0
LINE
8
BLACK
10
-9.16482
20
-9.15748
11
-9.16623
21
-9.15915
0
LINE
8
BLACK
10
-9.16623
20
-9.15915
11
-9.16812
21
-9.16024
0
LINE
8
BLACK
10
-9.16812
20
-9.16024
11
-9.1698
21
-9.16165
0
LINE
8
BLACK
10
-9.1698
20
-9.16165
11
-9.17186
21
-9.1624
0
LINE
8
BLACK
10
-9.17186
20
-9.1624
11
-9.17375
21
-9.16349
0
LINE
8
BLACK
10
-9.17375
20
-9.16349
11
-9.1759
21
-9.16387
0
LINE
8
BLACK
10
-9.1759
20
-9.16387
11
-9.17796
21
-9.16462
0
LINE
8
BLACK
10
-9.17796
20
-9.16462
11
-9.18014
21
-9.16462
0
LINE
8
BLACK
10
-9.18014
20
-9.16462
11
-9.1823
21
-9.165
0
LINE
8
BLACK
10
-9.1823
20
-9.165
11
-13.1323
21
-9.165
0
LINE
8
BLACK
10
-13.1323
20
-9.165
11
-13.1345
21
-9.16462
0
LINE
8
BLACK
10
-13.1345
20
-9.16462
11
-13.1366
21
-9.16462
0
LINE
8
BLACK
10
-13.1366
20
-9.16462
11
-13.1387
21
-9.16387
0
LINE
8
BLACK
10
-13.1387
20
-9.16387
11
-13.1409
21
-9.16349
0
LINE
8
BLACK
10
-13.1409
20
-9.16349
11
-13.1427
21
-9.1624
0
LINE
8
BLACK
10
-13.1427
20
-9.1624
11
-13.1448
21
-9.16165
0
LINE
8
BLACK
10
-13.1448
20
-9.16165
11
-13.1465
21
-9.16024
0
LINE
8
BLACK
10
-13.1465
20
-9.16024
11
-13.1484
21
-9.15915
0
LINE
8
BLACK
10
-13.1484
20
-9.15915
11
-13.1498
21
-9.15748
0
LINE
8
BLACK
10
-13.1498
20
-9.15748
11
-13.1515
21
-9.15607
0
LINE
8
BLACK
10
-13.1515
20
-9.15607
11
-13.1525
21
-9.15418
0
LINE
8
BLACK
10
-13.1525
20
-9.15418
11
-13.154
21
-9.1525
0
LINE
8
BLACK
10
-13.154
20
-9.1525
11
-13.1547
21
-9.15044
0
LINE
8
BLACK
10
-13.1547
20
-9.15044
11
-13.1558
21
-9.14855
0
LINE
8
BLACK
10
-13.1558
20
-9.14855
11
-13.1562
21
-9.1464
0
LINE
8
BLACK
10
-13.1562
20
-9.1464
11
-13.1569
21
-9.14434
0
LINE
8
BLACK
10
-13.1569
20
-9.14434
11
-13.1569
21
-9.14215
0
LINE
8
BLACK
10
-13.1569
20
-9.14215
11
-13.1573
21
-9.14
0
LINE
8
BLACK
10
-13.1573
20
-9.14
11
-13.1573
21
-6.025
0
LINE
8
BLACK
10
-13.1573
20
-6.025
11
-13.1569
21
-6.02284
0
LINE
8
BLACK
10
-13.1569
20
-6.02284
11
-13.1569
21
-6.02066
0
LINE
8
BLACK
10
-13.1569
20
-6.02066
11
-13.1562
21
-6.0186
0
LINE
8
BLACK
10
-13.1562
20
-6.0186
11
-13.1558
21
-6.01645
0
LINE
8
BLACK
10
-13.1558
20
-6.01645
11
-13.1547
21
-6.01456
0
LINE
8
BLACK
10
-13.1547
20
-6.01456
11
-13.154
21
-6.0125
0
LINE
8
BLACK
10
-13.154
20
-6.0125
11
-13.1525
21
-6.01082
0
LINE
8
BLACK
10
-13.1525
20
-6.01082
11
-13.1515
21
-6.00893
0
LINE
8
BLACK
10
-13.1515
20
-6.00893
11
-13.1498
21
-6.00752
0
LINE
8
BLACK
10
-13.1498
20
-6.00752
11
-13.1484
21
-6.00585
0
LINE
8
BLACK
10
-13.1484
20
-6.00585
11
-13.1465
21
-6.00476
0
LINE
8
BLACK
10
-13.1465
20
-6.00476
11
-13.1448
21
-6.00335
0
LINE
8
BLACK
10
-13.1448
20
-6.00335
11
-13.1427
21
-6.0026
0
LINE
8
BLACK
10
-13.1427
20
-6.0026
11
-13.1409
21
-6.00151
0
LINE
8
BLACK
10
-13.1409
20
-6.00151
11
-13.1387
21
-6.00113
0
LINE
8
BLACK
10
-13.1387
20
-6.00113
11
-13.1366
21
-6.00038
0
LINE
8
BLACK
10
-13.1366
20
-6.00038
11
-13.1345
21
-6.00038
0
LINE
8
BLACK
10
-13.1345
20
-6.00038
11
-13.1323
21
-6
0
LINE
8
BLACK
10
-13.1323
20
-6
11
-11.6823
21
-6
0
LINE
8
BLACK
10
-11.6823
20
-6
11
-11.6801
21
-6.00038
0
LINE
8
BLACK
10
-11.6801
20
-6.00038
11
-11.678
21
-6.00038
0
LINE
8
BLACK
10
-11.678
20
-6.00038
11
-11.6759
21
-6.00113
0
LINE
8
BLACK
10
-11.6759
20
-6.00113
11
-11.6737
21
-6.00151
0
LINE
8
BLACK
10
-11.6737
20
-6.00151
11
-11.6719
21
-6.0026
0
LINE
8
BLACK
10
-11.6719
20
-6.0026
11
-11.6698
21
-6.00335
0
LINE
8
BLACK
10
-11.6698
20
-6.00335
11
-11.6681
21
-6.00476
0
LINE
8
BLACK
10
-11.6681
20
-6.00476
11
-11.6662
21
-6.00585
0
LINE
8
BLACK
10
-11.6662
20
-6.00585
11
-11.6648
21
-6.00752
0
LINE
8
BLACK
10
-11.6648
20
-6.00752
11
-11.6631
21
-6.00893
0
LINE
8
BLACK
10
-11.6631
20
-6.00893
11
-11.6621
21
-6.01082
0
LINE
8
BLACK
10
-11.6621
20
-6.01082
11
-11.6606
21
-6.0125
0
LINE
8
BLACK
10
-11.6606
20
-6.0125
11
-11.6599
21
-6.01456
0
LINE
8
BLACK
10
-11.6599
20
-6.01456
11
-11.6588
21
-6.01645
0
LINE
8
BLACK
10
-11.6588
20
-6.01645
11
-11.6584
21
-6.0186
0
LINE
8
BLACK
10
-11.6584
20
-6.0186
11
-11.6577
21
-6.02066
0
LINE
8
BLACK
10
-11.6577
20
-6.02066
11
-11.6577
21
-6.02284
0
LINE
8
BLACK
10
-11.6577
20
-6.02284
11
-11.6573
21
-6.025
0
LINE
8
BLACK
10
-11.6573
20
-6.025
11
-11.6573
21
-7.05377
0
LINE
8
BLACK
10
-11.6573
20
-7.05377
11
-11.6572
21
-7.05489
0
LINE
8
BLACK
10
-11.6572
20
-7.05489
11
-11.6561
21
-7.055
0
LINE
8
BLACK
10
-11.6561
20
-7.055
11
-11.4085
21
-7.055
0
LINE
8
BLACK
10
-11.4085
20
-7.055
11
-11.4074
21
-7.05489
0
LINE
8
BLACK
10
-11.4074
20
-7.05489
11
-11.4073
21
-7.05377
0
LINE
8
BLACK
10
-11.4073
20
-7.05377
11
-11.4073
21
-4.21286
0
LINE
8
BLACK
10
-11.4073
20
-4.21286
11
-11.4071
21
-4.21177
0
LINE
8
BLACK
10
-11.4071
20
-4.21177
11
-11.4072
21
-4.21068
0
LINE
8
BLACK
10
-11.4072
20
-4.21068
11
-11.4064
21
-4.20752
0
LINE
8
BLACK
10
-11.4064
20
-4.20752
11
-11.4058
21
-4.2043
0
LINE
8
BLACK
10
-11.4058
20
-4.2043
11
-11.4052
21
-4.20335
0
LINE
8
BLACK
10
-11.4052
20
-4.20335
11
-11.405
21
-4.20229
0
LINE
8
BLACK
10
-11.405
20
-4.20229
11
-11.4031
21
-4.19961
0
LINE
8
BLACK
10
-11.4031
20
-4.19961
11
-11.4015
21
-4.19679
0
LINE
8
BLACK
10
-11.4015
20
-4.19679
11
-11.4006
21
-4.19608
0
LINE
8
BLACK
10
-11.4006
20
-4.19608
11
-11.4
21
-4.19518
0
LINE
8
BLACK
10
-11.4
20
-4.19518
11
-10.9621
21
-3.75732
0
LINE
8
BLACK
10
-10.9621
20
-3.75732
11
-10.9612
21
-3.75669
0
LINE
8
BLACK
10
-10.9612
20
-3.75669
11
-10.9605
21
-3.75585
0
LINE
8
BLACK
10
-10.9605
20
-3.75585
11
-10.9577
21
-3.75422
0
LINE
8
BLACK
10
-10.9577
20
-3.75422
11
-10.955
21
-3.75234
0
LINE
8
BLACK
10
-10.955
20
-3.75234
11
-10.9539
21
-3.75206
0
LINE
8
BLACK
10
-10.9539
20
-3.75206
11
-10.953
21
-3.75151
0
LINE
8
BLACK
10
-10.953
20
-3.75151
11
-10.9498
21
-3.75094
0
LINE
8
BLACK
10
-10.9498
20
-3.75094
11
-10.9466
21
-3.75009
0
LINE
8
BLACK
10
-10.9466
20
-3.75009
11
-10.9455
21
-3.75019
0
LINE
8
BLACK
10
-10.9455
20
-3.75019
11
-10.9444
21
-3.75
0
LINE
8
BLACK
10
-10.9444
20
-3.75
11
-3.72853
21
-3.75
0
LINE
8
BLACK
10
-3.72853
20
-3.75
11
-3.72741
21
-3.74989
0
LINE
8
BLACK
10
-3.72741
20
-3.74989
11
-3.7273
21
-3.74877
0
LINE
8
BLACK
10
-3.7273
20
-3.74877
11
-3.7273
21
-3.5665
0
LINE
8
BLACK
10
-3.7273
20
-3.5665
11
-3.72692
21
-3.56434
0
LINE
8
BLACK
10
-3.72692
20
-3.56434
11
-3.72692
21
-3.56216
0
LINE
8
BLACK
10
-3.72692
20
-3.56216
11
-3.72617
21
-3.5601
0
LINE
8
BLACK
10
-3.72617
20
-3.5601
11
-3.72579
21
-3.55795
0
LINE
8
BLACK
10
-3.72579
20
-3.55795
11
-3.7247
21
-3.55606
0
LINE
8
BLACK
10
-3.7247
20
-3.55606
11
-3.72395
21
-3.554
0
LINE
8
BLACK
10
-3.72395
20
-3.554
11
-3.72254
21
-3.55232
0
LINE
8
BLACK
10
-3.72254
20
-3.55232
11
-3.72145
21
-3.55043
0
LINE
8
BLACK
10
-3.72145
20
-3.55043
11
-3.71978
21
-3.54902
0
LINE
8
BLACK
10
-3.71978
20
-3.54902
11
-3.71837
21
-3.54735
0
LINE
8
BLACK
10
-3.71837
20
-3.54735
11
-3.71648
21
-3.54626
0
LINE
8
BLACK
10
-3.71648
20
-3.54626
11
-3.7148
21
-3.54485
0
LINE
8
BLACK
10
-3.7148
20
-3.54485
11
-3.71274
21
-3.5441
0
LINE
8
BLACK
10
-3.71274
20
-3.5441
11
-3.71085
21
-3.54301
0
LINE
8
BLACK
10
-3.71085
20
-3.54301
11
-3.7087
21
-3.54263
0
LINE
8
BLACK
10
-3.7087
20
-3.54263
11
-3.70664
21
-3.54188
0
LINE
8
BLACK
10
-3.70664
20
-3.54188
11
-3.70445
21
-3.54188
0
LINE
8
BLACK
10
-3.70445
20
-3.54188
11
-3.7023
21
-3.5415
0
LINE
8
BLACK
10
-3.7023
20
-3.5415
11
-1.9528
21
-3.5415
0
LINE
8
BLACK
10
-1.9528
20
-3.5415
11
-1.95064
21
-3.54188
0
LINE
8
BLACK
10
-1.95064
20
-3.54188
11
-1.94846
21
-3.54188
0
LINE
8
BLACK
10
-1.94846
20
-3.54188
11
-1.9464
21
-3.54263
0
LINE
8
BLACK
10
-1.9464
20
-3.54263
11
-1.94425
21
-3.54301
0
LINE
8
BLACK
10
-1.94425
20
-3.54301
11
-1.94236
21
-3.5441
0
LINE
8
BLACK
10
-1.94236
20
-3.5441
11
-1.9403
21
-3.54485
0
LINE
8
BLACK
10
-1.9403
20
-3.54485
11
-1.93862
21
-3.54626
0
LINE
8
BLACK
10
-1.93862
20
-3.54626
11
-1.93673
21
-3.54735
0
LINE
8
BLACK
10
-1.93673
20
-3.54735
11
-1.93532
21
-3.54902
0
LINE
8
BLACK
10
-1.93532
20
-3.54902
11
-1.93365
21
-3.55043
0
LINE
8
BLACK
10
-1.93365
20
-3.55043
11
-1.93256
21
-3.55232
0
LINE
8
BLACK
10
-1.93256
20
-3.55232
11
-1.93115
21
-3.554
0
LINE
8
BLACK
10
-1.93115
20
-3.554
11
-1.9304
21
-3.55606
0
LINE
8
BLACK
10
-1.9304
20
-3.55606
11
-1.92931
21
-3.55795
0
LINE
8
BLACK
10
-1.92931
20
-3.55795
11
-1.92893
21
-3.5601
0
LINE
8
BLACK
10
-1.92893
20
-3.5601
11
-1.92818
21
-3.56216
0
LINE
8
BLACK
10
-1.92818
20
-3.56216
11
-1.92818
21
-3.56434
0
LINE
8
BLACK
10
-1.92818
20
-3.56434
11
-1.9278
21
-3.5665
0
LINE
8
BLACK
10
-1.9278
20
-3.5665
11
-1.9278
21
-3.85977
0
LINE
8
BLACK
10
-1.9278
20
-3.85977
11
-1.92769
21
-3.86089
0
LINE
8
BLACK
10
-1.92769
20
-3.86089
11
-1.92657
21
-3.861
0
LINE
8
BLACK
10
-1.92657
20
-3.861
11
-0.251229
21
-3.861
0
LINE
8
BLACK
10
-0.251229
20
-3.861
11
-0.25011
21
-3.86089
0
LINE
8
BLACK
10
-0.25011
20
-3.86089
11
-0.25
21
-3.85977
0
LINE
8
BLACK
10
-0.25
20
-3.85977
11
-0.25
21
-1.9528
0
LINE
8
BLACK
10
-0.25
20
-1.9528
11
-0.24962
21
-1.95064
0
LINE
8
BLACK
10
-0.24962
20
-1.95064
11
-0.24962
21
-1.94846
0
LINE
8
BLACK
10
-0.24962
20
-1.94846
11
-0.248872
21
-1.9464
0
LINE
8
BLACK
10
-0.248872
20
-1.9464
11
-0.248492
21
-1.94425
0
LINE
8
BLACK
10
-0.248492
20
-1.94425
11
-0.247399
21
-1.94236
0
LINE
8
BLACK
10
-0.247399
20
-1.94236
11
-0.246651
21
-1.9403
0
LINE
8
BLACK
10
-0.246651
20
-1.9403
11
-0.245244
21
-1.93862
0
LINE
8
BLACK
10
-0.245244
20
-1.93862
11
-0.244151
21
-1.93673
0
LINE
8
BLACK
10
-0.244151
20
-1.93673
11
-0.242476
21
-1.93532
0
LINE
8
BLACK
10
-0.242476
20
-1.93532
11
-0.24107
21
-1.93365
0
LINE
8
BLACK
10
-0.24107
20
-1.93365
11
-0.239177
21
-1.93256
0
LINE
8
BLACK
10
-0.239177
20
-1.93256
11
-0.2375
21
-1.93115
0
LINE
8
BLACK
10
-0.2375
20
-1.93115
11
-0.235444
21
-1.9304
0
LINE
8
BLACK
10
-0.235444
20
-1.9304
11
-0.233551
21
-1.92931
0
LINE
8
BLACK
10
-0.233551
20
-1.92931
11
-0.231397
21
-1.92893
0
LINE
8
BLACK
10
-0.231397
20
-1.92893
11
-0.229341
21
-1.92818
0
LINE
8
BLACK
10
-0.229341
20
-1.92818
11
-0.227155
21
-1.92818
0
LINE
8
BLACK
10
-0.227155
20
-1.92818
11
-0.225
21
-1.9278
0
LINE
8
BLACK
10
-0.225
20
-1.9278
11
-0.140229
21
-1.9278
0
LINE
8
BLACK
10
-0.140229
20
-1.9278
11
-0.13911
21
-1.92769
0
LINE
8
BLACK
10
-0.13911
20
-1.92769
11
-0.139
21
-1.92657
0
LINE
8
BLACK
10
-0.139
20
-1.92657
11
-0.139
21
-0.205124
0
LINE
8
BLACK
10
-0.139
20
-0.205124
11
-0.161311
21
-0.192243
0
LINE
8
BLACK
10
-0.161311
20
-0.192243
11
-0.217333
21
-0.125477
0
LINE
8
BLACK
10
-0.217333
20
-0.125477
11
-0.247142
21
-0.043578
0
LINE
8
BLACK
10
-0.247142
20
-0.043578
11
-0.247142
21
0.043578
0
LINE
8
BLACK
10
-0.247142
20
0.043578
11
-0.217333
21
0.125477
0
LINE
8
BLACK
10
-0.217333
20
0.125477
11
-0.161311
21
0.192243
0
LINE
8
BLACK
10
-0.161311
20
0.192243
11
-0.139
21
0.205124
0
LINE
8
BLACK
10
-0.139
20
0.205124
11
-0.139
21
1.92657
0
LINE
8
BLACK
10
-0.139
20
1.92657
11
-0.13911
21
1.92769
0
LINE
8
BLACK
10
-0.13911
20
1.92769
11
-0.14023
21
1.9278
0
LINE
8
BLACK
10
-0.14023
20
1.9278
11
-0.225
21
1.9278
0
LINE
8
BLACK
10
-0.225
20
1.9278
11
-0.227155
21
1.92818
0
LINE
8
BLACK
10
-0.227155
20
1.92818
11
-0.229341
21
1.92818
0
LINE
8
BLACK
10
-0.229341
20
1.92818
11
-0.231397
21
1.92893
0
LINE
8
BLACK
10
-0.231397
20
1.92893
11
-0.233551
21
1.92931
0
LINE
8
BLACK
10
-0.233551
20
1.92931
11
-0.235444
21
1.9304
0
LINE
8
BLACK
10
-0.235444
20
1.9304
11
-0.2375
21
1.93115
0
LINE
8
BLACK
10
-0.2375
20
1.93115
11
-0.239177
21
1.93256
0
LINE
8
BLACK
10
-0.239177
20
1.93256
11
-0.24107
21
1.93365
0
LINE
8
BLACK
10
-0.24107
20
1.93365
11
-0.242476
21
1.93532
0
LINE
8
BLACK
10
-0.242476
20
1.93532
11
-0.244151
21
1.93673
0
LINE
8
BLACK
10
-0.244151
20
1.93673
11
-0.245244
21
1.93862
0
LINE
8
BLACK
10
-0.245244
20
1.93862
11
-0.246651
21
1.9403
0
LINE
8
BLACK
10
-0.246651
20
1.9403
11
-0.247399
21
1.94236
0
LINE
8
BLACK
10
-0.247399
20
1.94236
11
-0.248492
21
1.94425
0
LINE
8
BLACK
10
-0.248492
20
1.94425
11
-0.248872
21
1.9464
0
LINE
8
BLACK
10
-0.248872
20
1.9464
11
-0.24962
21
1.94846
0
LINE
8
BLACK
10
-0.24962
20
1.94846
11
-0.24962
21
1.95064
0
LINE
8
BLACK
10
-0.24962
20
1.95064
11
-0.25
21
1.9528
0
LINE
8
BLACK
10
-0.25
20
1.9528
11
-0.25
21
3.85977
0
LINE
8
BLACK
10
-0.25
20
3.85977
11
-0.25011
21
3.86089
0
LINE
8
BLACK
10
-0.25011
20
3.86089
11
-0.25123
21
3.861
0
LINE
8
BLACK
10
-0.25123
20
3.861
11
-1.92657
21
3.861
0
LINE
8
BLACK
10
-1.92657
20
3.861
11
-1.92769
21
3.86089
0
LINE
8
BLACK
10
-1.92769
20
3.86089
11
-1.9278
21
3.85977
0
LINE
8
BLACK
10
-1.9278
20
3.85977
11
-1.9278
21
3.5665
0
LINE
8
BLACK
10
-1.9278
20
3.5665
11
-1.92818
21
3.56434
0
LINE
8
BLACK
10
-1.92818
20
3.56434
11
-1.92818
21
3.56216
0
LINE
8
BLACK
10
-1.92818
20
3.56216
11
-1.92893
21
3.5601
0
LINE
8
BLACK
10
-1.92893
20
3.5601
11
-1.92931
21
3.55795
0
LINE
8
BLACK
10
-1.92931
20
3.55795
11
-1.9304
21
3.55606
0
LINE
8
BLACK
10
-1.9304
20
3.55606
11
-1.93115
21
3.554
0
LINE
8
BLACK
10
-1.93115
20
3.554
11
-1.93256
21
3.55232
0
LINE
8
BLACK
10
-1.93256
20
3.55232
11
-1.93365
21
3.55043
0
LINE
8
BLACK
10
-1.93365
20
3.55043
11
-1.93532
21
3.54902
0
LINE
8
BLACK
10
-1.93532
20
3.54902
11
-1.93673
21
3.54735
0
LINE
8
BLACK
10
-1.93673
20
3.54735
11
-1.93862
21
3.54626
0
LINE
8
BLACK
10
-1.93862
20
3.54626
11
-1.9403
21
3.54485
0
LINE
8
BLACK
10
-1.9403
20
3.54485
11
-1.94236
21
3.5441
0
LINE
8
BLACK
10
-1.94236
20
3.5441
11
-1.94425
21
3.54301
0
LINE
8
BLACK
10
-1.94425
20
3.54301
11
-1.9464
21
3.54263
0
LINE
8
BLACK
10
-1.9464
20
3.54263
11
-1.94846
21
3.54188
0
LINE
8
BLACK
10
-1.94846
20
3.54188
11
-1.95064
21
3.54188
0
LINE
8
BLACK
10
-1.95064
20
3.54188
11
-1.9528
21
3.5415
0
LINE
8
BLACK
10
-1.9528
20
3.5415
11
-3.47607
21
3.5415
0
LINE
8
BLACK
10
-3.47607
20
3.5415
11
-3.47719
21
3.54139
0
LINE
8
BLACK
10
-3.47719
20
3.54139
11
-3.4773
21
3.54027
0
LINE
8
BLACK
10
-3.4773
20
3.54027
11
-3.4773
21
0.94623
0
LINE
8
BLACK
10
-3.4773
20
0.94623
11
-3.47719
21
0.94511
0
LINE
8
BLACK
10
-3.47719
20
0.94511
11
-3.47607
21
0.945
0
LINE
8
BLACK
10
-3.47607
20
0.945
11
-3.22853
21
0.945
0
LINE
8
BLACK
10
-3.22853
20
0.945
11
-3.22741
21
0.94511
0
LINE
8
BLACK
10
-3.22741
20
0.94511
11
-3.2273
21
0.94623
0
LINE
8
BLACK
10
-3.2273
20
0.94623
11
-3.2273
21
1.975
0
LINE
8
BLACK
10
-3.2273
20
1.975
11
-3.22692
21
1.97715
0
LINE
8
BLACK
10
-3.22692
20
1.97715
11
-3.22692
21
1.97934
0
LINE
8
BLACK
10
-3.22692
20
1.97934
11
-3.22617
21
1.9814
0
LINE
8
BLACK
10
-3.22617
20
1.9814
11
-3.22579
21
1.98355
0
LINE
8
BLACK
10
-3.22579
20
1.98355
11
-3.2247
21
1.98544
0
LINE
8
BLACK
10
-3.2247
20
1.98544
11
-3.22395
21
1.9875
0
LINE
8
BLACK
10
-3.22395
20
1.9875
11
-3.22254
21
1.98918
0
LINE
8
BLACK
10
-3.22254
20
1.98918
11
-3.22145
21
1.99107
0
LINE
8
BLACK
10
-3.22145
20
1.99107
11
-3.21978
21
1.99248
0
LINE
8
BLACK
10
-3.21978
20
1.99248
11
-3.21837
21
1.99415
0
LINE
8
BLACK
10
-3.21837
20
1.99415
11
-3.21648
21
1.99524
0
LINE
8
BLACK
10
-3.21648
20
1.99524
11
-3.2148
21
1.99665
0
LINE
8
BLACK
10
-3.2148
20
1.99665
11
-3.21274
21
1.9974
0
LINE
8
BLACK
10
-3.21274
20
1.9974
11
-3.21085
21
1.99849
0
LINE
8
BLACK
10
-3.21085
20
1.99849
11
-3.2087
21
1.99887
0
LINE
8
BLACK
10
-3.2087
20
1.99887
11
-3.20664
21
1.99962
0
LINE
8
BLACK
10
-3.20664
20
1.99962
11
-3.20445
21
1.99962
0
LINE
8
BLACK
10
-3.20445
20
1.99962
11
-3.2023
21
2
0
LINE
8
BLACK
10
-3.2023
20
2
11
-1.7522
21
2
0
LINE
8
BLACK
10
-1.7522
20
2
11
-1.75004
21
1.99962
0
LINE
8
BLACK
10
-1.75004
20
1.99962
11
-1.74786
21
1.99962
0
LINE
8
BLACK
10
-1.74786
20
1.99962
11
-1.7458
21
1.99887
0
LINE
8
BLACK
10
-1.7458
20
1.99887
11
-1.74365
21
1.99849
0
LINE
8
BLACK
10
-1.74365
20
1.99849
11
-1.74176
21
1.9974
0
LINE
8
BLACK
10
-1.74176
20
1.9974
11
-1.7397
21
1.99665
0
LINE
8
BLACK
10
-1.7397
20
1.99665
11
-1.73802
21
1.99524
0
LINE
8
BLACK
10
-1.73802
20
1.99524
11
-1.73613
21
1.99415
0
LINE
8
BLACK
10
-1.73613
20
1.99415
11
-1.73472
21
1.99248
0
LINE
8
BLACK
10
-1.73472
20
1.99248
11
-1.73305
21
1.99107
0
LINE
8
BLACK
10
-1.73305
20
1.99107
11
-1.73196
21
1.98918
0
LINE
8
BLACK
10
-1.73196
20
1.98918
11
-1.73055
21
1.9875
0
LINE
8
BLACK
10
-1.73055
20
1.9875
11
-1.7298
21
1.98544
0
LINE
8
BLACK
10
-1.7298
20
1.98544
11
-1.72871
21
1.98355
0
LINE
8
BLACK
10
-1.72871
20
1.98355
11
-1.72833
21
1.9814
0
LINE
8
BLACK
10
-1.72833
20
1.9814
11
-1.72758
21
1.97934
0
LINE
8
BLACK
10
-1.72758
20
1.97934
11
-1.72758
21
1.97715
0
LINE
8
BLACK
10
-1.72758
20
1.97715
11
-1.7272
21
1.975
0
LINE
8
BLACK
10
-1.7272
20
1.975
11
-1.7272
21
-1.14
0
LINE
8
BLACK
10
-1.7272
20
-1.14
11
-1.72758
21
-1.14216
0
LINE
8
BLACK
10
-1.72758
20
-1.14216
11
-1.72758
21
-1.14434
0
LINE
8
BLACK
10
-1.72758
20
-1.14434
11
-1.72833
21
-1.1464
0
LINE
8
BLACK
10
-1.72833
20
-1.1464
11
-1.72871
21
-1.14855
0
LINE
8
BLACK
10
-1.72871
20
-1.14855
11
-1.7298
21
-1.15044
0
LINE
8
BLACK
10
-1.7298
20
-1.15044
11
-1.73055
21
-1.1525
0
LINE
8
BLACK
10
-1.73055
20
-1.1525
11
-1.73196
21
-1.15418
0
LINE
8
BLACK
10
-1.73196
20
-1.15418
11
-1.73305
21
-1.15607
0
LINE
8
BLACK
10
-1.73305
20
-1.15607
11
-1.73472
21
-1.15748
0
LINE
8
BLACK
10
-1.73472
20
-1.15748
11
-1.73613
21
-1.15915
0
LINE
8
BLACK
10
-1.73613
20
-1.15915
11
-1.73802
21
-1.16024
0
LINE
8
BLACK
10
-1.73802
20
-1.16024
11
-1.7397
21
-1.16165
0
LINE
8
BLACK
10
-1.7397
20
-1.16165
11
-1.74176
21
-1.1624
0
LINE
8
BLACK
10
-1.74176
20
-1.1624
11
-1.74365
21
-1.16349
0
LINE
8
BLACK
10
-1.74365
20
-1.16349
11
-1.7458
21
-1.16387
0
LINE
8
BLACK
10
-1.7458
20
-1.16387
11
-1.74786
21
-1.16462
0
LINE
8
BLACK
10
-1.74786
20
-1.16462
11
-1.75004
21
-1.16462
0
LINE
8
BLACK
10
-1.75004
20
-1.16462
11
-1.7522
21
-1.165
0
LINE
8
BLACK
10
-1.7522
20
-1.165
11
-5.7022
21
-1.165
0
LINE
8
BLACK
10
-5.7022
20
-1.165
11
-5.70435
21
-1.16462
0
LINE
8
BLACK
10
-5.70435
20
-1.16462
11
-5.70654
21
-1.16462
0
LINE
8
BLACK
10
-5.70654
20
-1.16462
11
-5.7086
21
-1.16387
0
LINE
8
BLACK
10
-5.7086
20
-1.16387
11
-5.71075
21
-1.16349
0
LINE
8
BLACK
10
-5.71075
20
-1.16349
11
-5.71264
21
-1.1624
0
LINE
8
BLACK
10
-5.71264
20
-1.1624
11
-5.7147
21
-1.16165
0
LINE
8
BLACK
10
-5.7147
20
-1.16165
11
-5.71638
21
-1.16024
0
LINE
8
BLACK
10
-5.71638
20
-1.16024
11
-5.71827
21
-1.15915
0
LINE
8
BLACK
10
-5.71827
20
-1.15915
11
-5.71968
21
-1.15748
0
LINE
8
BLACK
10
-5.71968
20
-1.15748
11
-5.72135
21
-1.15607
0
LINE
8
BLACK
10
-5.72135
20
-1.15607
11
-5.72244
21
-1.15418
0
LINE
8
BLACK
10
-5.72244
20
-1.15418
11
-5.72385
21
-1.1525
0
LINE
8
BLACK
10
-5.72385
20
-1.1525
11
-5.7246
21
-1.15044
0
LINE
8
BLACK
10
-5.7246
20
-1.15044
11
-5.72569
21
-1.14855
0
LINE
8
BLACK
10
-5.72569
20
-1.14855
11
-5.72607
21
-1.1464
0
LINE
8
BLACK
10
-5.72607
20
-1.1464
11
-5.72682
21
-1.14434
0
LINE
8
BLACK
10
-5.72682
20
-1.14434
11
-5.72682
21
-1.14216
0
LINE
8
BLACK
10
-5.72682
20
-1.14216
11
-5.7272
21
-1.14
0
LINE
8
BLACK
10
-5.7272
20
-1.14
11
-5.7272
21
1.975
0
LINE
8
BLACK
10
-5.7272
20
1.975
11
-5.72682
21
1.97715
0
LINE
8
BLACK
10
-5.72682
20
1.97715
11
-5.72682
21
1.97934
0
LINE
8
BLACK
10
-5.72682
20
1.97934
11
-5.72607
21
1.9814
0
LINE
8
BLACK
10
-5.72607
20
1.9814
11
-5.72569
21
1.98355
0
LINE
8
BLACK
10
-5.72569
20
1.98355
11
-5.7246
21
1.98544
0
LINE
8
BLACK
10
-5.7246
20
1.98544
11
-5.72385
21
1.9875
0
LINE
8
BLACK
10
-5.72385
20
1.9875
11
-5.72244
21
1.98918
0
LINE
8
BLACK
10
-5.72244
20
1.98918
11
-5.72135
21
1.99107
0
LINE
8
BLACK
10
-5.72135
20
1.99107
11
-5.71968
21
1.99248
0
LINE
8
BLACK
10
-5.71968
20
1.99248
11
-5.71827
21
1.99415
0
LINE
8
BLACK
10
-5.71827
20
1.99415
11
-5.71638
21
1.99524
0
LINE
8
BLACK
10
-5.71638
20
1.99524
11
-5.7147
21
1.99665
0
LINE
8
BLACK
10
-5.7147
20
1.99665
11
-5.71264
21
1.9974
0
LINE
8
BLACK
10
-5.71264
20
1.9974
11
-5.71075
21
1.99849
0
LINE
8
BLACK
10
-5.71075
20
1.99849
11
-5.7086
21
1.99887
0
LINE
8
BLACK
10
-5.7086
20
1.99887
11
-5.70654
21
1.99962
0
LINE
8
BLACK
10
-5.70654
20
1.99962
11
-5.70435
21
1.99962
0
LINE
8
BLACK
10
-5.70435
20
1.99962
11
-5.7022
21
2
0
LINE
8
BLACK
10
-5.7022
20
2
11
-4.2522
21
2
0
LINE
8
BLACK
10
-4.2522
20
2
11
-4.25005
21
1.99962
0
LINE
8
BLACK
10
-4.25005
20
1.99962
11
-4.24786
21
1.99962
0
LINE
8
BLACK
10
-4.24786
20
1.99962
11
-4.2458
21
1.99887
0
LINE
8
BLACK
10
-4.2458
20
1.99887
11
-4.24365
21
1.99849
0
LINE
8
BLACK
10
-4.24365
20
1.99849
11
-4.24176
21
1.9974
0
LINE
8
BLACK
10
-4.24176
20
1.9974
11
-4.2397
21
1.99665
0
LINE
8
BLACK
10
-4.2397
20
1.99665
11
-4.23802
21
1.99524
0
LINE
8
BLACK
10
-4.23802
20
1.99524
11
-4.23613
21
1.99415
0
LINE
8
BLACK
10
-4.23613
20
1.99415
11
-4.23472
21
1.99248
0
LINE
8
BLACK
10
-4.23472
20
1.99248
11
-4.23305
21
1.99107
0
LINE
8
BLACK
10
-4.23305
20
1.99107
11
-4.23196
21
1.98918
0
LINE
8
BLACK
10
-4.23196
20
1.98918
11
-4.23055
21
1.9875
0
LINE
8
BLACK
10
-4.23055
20
1.9875
11
-4.2298
21
1.98544
0
LINE
8
BLACK
10
-4.2298
20
1.98544
11
-4.22871
21
1.98355
0
LINE
8
BLACK
10
-4.22871
20
1.98355
11
-4.22833
21
1.9814
0
LINE
8
BLACK
10
-4.22833
20
1.9814
11
-4.22758
21
1.97934
0
LINE
8
BLACK
10
-4.22758
20
1.97934
11
-4.22758
21
1.97715
0
LINE
8
BLACK
10
-4.22758
20
1.97715
11
-4.2272
21
1.975
0
LINE
8
BLACK
10
-4.2272
20
1.975
11
-4.2272
21
0.94623
0
LINE
8
BLACK
10
-4.2272
20
0.94623
11
-4.22709
21
0.94511
0
LINE
8
BLACK
10
-4.22709
20
0.94511
11
-4.22597
21
0.945
0
LINE
8
BLACK
10
-4.22597
20
0.945
11
-3.97843
21
0.945
0
LINE
8
BLACK
10
-3.97843
20
0.945
11
-3.97731
21
0.94511
0
LINE
8
BLACK
10
-3.97731
20
0.94511
11
-3.9772
21
0.94623
0
LINE
8
BLACK
10
-3.9772
20
0.94623
11
-3.9772
21
3.74877
0
LINE
8
BLACK
10
-3.9772
20
3.74877
11
-3.97731
21
3.74989
0
LINE
8
BLACK
10
-3.97731
20
3.74989
11
-3.97843
21
3.75
0
LINE
8
BLACK
10
-3.97843
20
3.75
11
-10.906
21
3.75
0
LINE
8
BLACK
10
-10.906
20
3.75
11
-10.9071
21
3.74989
0
LINE
8
BLACK
10
-10.9071
20
3.74989
11
-10.9072
21
3.74877
0
LINE
8
BLACK
10
-10.9072
20
3.74877
11
-10.9072
21
0.94623
0
LINE
8
BLACK
10
-10.9072
20
0.94623
11
-10.9071
21
0.94511
0
LINE
8
BLACK
10
-10.9071
20
0.94511
11
-10.906
21
0.945
0
LINE
8
BLACK
10
-10.906
20
0.945
11
-10.6584
21
0.945
0
LINE
8
BLACK
10
-10.6584
20
0.945
11
-10.6573
21
0.94511
0
LINE
8
BLACK
10
-10.6573
20
0.94511
11
-10.6572
21
0.94623
0
LINE
8
BLACK
10
-10.6572
20
0.94623
11
-10.6572
21
1.975
0
LINE
8
BLACK
10
-10.6572
20
1.975
11
-10.6568
21
1.97715
0
LINE
8
BLACK
10
-10.6568
20
1.97715
11
-10.6568
21
1.97934
0
LINE
8
BLACK
10
-10.6568
20
1.97934
11
-10.6561
21
1.9814
0
LINE
8
BLACK
10
-10.6561
20
1.9814
11
-10.6557
21
1.98355
0
LINE
8
BLACK
10
-10.6557
20
1.98355
11
-10.6546
21
1.98544
0
LINE
8
BLACK
10
-10.6546
20
1.98544
11
-10.6539
21
1.9875
0
LINE
8
BLACK
10
-10.6539
20
1.9875
11
-10.6524
21
1.98918
0
LINE
8
BLACK
10
-10.6524
20
1.98918
11
-10.6514
21
1.99107
0
LINE
8
BLACK
10
-10.6514
20
1.99107
11
-10.6497
21
1.99248
0
LINE
8
BLACK
10
-10.6497
20
1.99248
11
-10.6483
21
1.99415
0
LINE
8
BLACK
10
-10.6483
20
1.99415
11
-10.6464
21
1.99524
0
LINE
8
BLACK
10
-10.6464
20
1.99524
11
-10.6447
21
1.99665
0
LINE
8
BLACK
10
-10.6447
20
1.99665
11
-10.6426
21
1.9974
0
LINE
8
BLACK
10
-10.6426
20
1.9974
11
-10.6408
21
1.99849
0
LINE
8
BLACK
10
-10.6408
20
1.99849
11
-10.6386
21
1.99887
0
LINE
8
BLACK
10
-10.6386
20
1.99887
11
-10.6365
21
1.99962
0
LINE
8
BLACK
10
-10.6365
20
1.99962
11
-10.6344
21
1.99962
0
LINE
8
BLACK
10
-10.6344
20
1.99962
11
-10.6322
21
2
0
LINE
8
BLACK
10
-10.6322
20
2
11
-9.1823
21
2
0
LINE
8
BLACK
10
-9.1823
20
2
11
-9.18014
21
1.99962
0
LINE
8
BLACK
10
-9.18014
20
1.99962
11
-9.17796
21
1.99962
0
LINE
8
BLACK
10
-9.17796
20
1.99962
11
-9.1759
21
1.99887
0
LINE
8
BLACK
10
-9.1759
20
1.99887
11
-9.17375
21
1.99849
0
LINE
8
BLACK
10
-9.17375
20
1.99849
11
-9.17186
21
1.9974
0
LINE
8
BLACK
10
-9.17186
20
1.9974
11
-9.1698
21
1.99665
0
LINE
8
BLACK
10
-9.1698
20
1.99665
11
-9.16812
21
1.99524
0
LINE
8
BLACK
10
-9.16812
20
1.99524
11
-9.16623
21
1.99415
0
LINE
8
BLACK
10
-9.16623
20
1.99415
11
-9.16482
21
1.99248
0
LINE
8
BLACK
10
-9.16482
20
1.99248
11
-9.16315
21
1.99107
0
LINE
8
BLACK
10
-9.16315
20
1.99107
11
-9.16206
21
1.98918
0
LINE
8
BLACK
10
-9.16206
20
1.98918
11
-9.16065
21
1.9875
0
LINE
8
BLACK
10
-9.16065
20
1.9875
11
-9.1599
21
1.98544
0
LINE
8
BLACK
10
-9.1599
20
1.98544
11
-9.15881
21
1.98355
0
LINE
8
BLACK
10
-9.15881
20
1.98355
11
-9.15843
21
1.9814
0
LINE
8
BLACK
10
-9.15843
20
1.9814
11
-9.15768
21
1.97934
0
LINE
8
BLACK
10
-9.15768
20
1.97934
11
-9.15768
21
1.97715
0
LINE
8
BLACK
10
-9.15768
20
1.97715
11
-9.1573
21
1.975
0
LINE
8
BLACK
10
-9.1573
20
1.975
11
-9.1573
21
-1.14
0
LINE
8
BLACK
10
-9.1573
20
-1.14
11
-9.15768
21
-1.14216
0
LINE
8
BLACK
10
-9.15768
20
-1.14216
11
-9.15768
21
-1.14434
0
LINE
8
BLACK
10
-9.15768
20
-1.14434
11
-9.15843
21
-1.1464
0
LINE
8
BLACK
10
-9.15843
20
-1.1464
11
-9.15881
21
-1.14855
0
LINE
8
BLACK
10
-9.15881
20
-1.14855
11
-9.1599
21
-1.15044
0
LINE
8
BLACK
10
-9.1599
20
-1.15044
11
-9.16065
21
-1.1525
0
LINE
8
BLACK
10
-9.16065
20
-1.1525
11
-9.16206
21
-1.15418
0
LINE
8
BLACK
10
-9.16206
20
-1.15418
11
-9.16315
21
-1.15607
0
LINE
8
BLACK
10
-9.16315
20
-1.15607
11
-9.16482
21
-1.15748
0
LINE
8
BLACK
10
-9.16482
20
-1.15748
11
-9.16623
21
-1.15915
0
LINE
8
BLACK
10
-9.16623
20
-1.15915
11
-9.16812
21
-1.16024
0
LINE
8
BLACK
10
-9.16812
20
-1.16024
11
-9.1698
21
-1.16165
0
LINE
8
BLACK
10
-9.1698
20
-1.16165
11
-9.17186
21
-1.1624
0
LINE
8
BLACK
10
-9.17186
20
-1.1624
11
-9.17375
21
-1.16349
0
LINE
8
BLACK
10
-9.17375
20
-1.16349
11
-9.1759
21
-1.16387
0
LINE
8
BLACK
10
-9.1759
20
-1.16387
11
-9.17796
21
-1.16462
0
LINE
8
BLACK
10
-9.17796
20
-1.16462
11
-9.18014
21
-1.16462
0
LINE
8
BLACK
10
-9.18014
20
-1.16462
11
-9.1823
21
-1.165
0
LINE
8
BLACK
10
-9.1823
20
-1.165
11
-13.1323
21
-1.165
0
LINE
8
BLACK
10
-13.1323
20
-1.165
11
-13.1345
21
-1.16462
0
LINE
8
BLACK
10
-13.1345
20
-1.16462
11
-13.1366
21
-1.16462
0
LINE
8
BLACK
10
-13.1366
20
-1.16462
11
-13.1387
21
-1.16387
0
LINE
8
BLACK
10
-13.1387
20
-1.16387
11
-13.1409
21
-1.16349
0
LINE
8
BLACK
10
-13.1409
20
-1.16349
11
-13.1427
21
-1.1624
0
LINE
8
BLACK
10
-13.1427
20
-1.1624
11
-13.1448
21
-1.16165
0
LINE
8
BLACK
10
-13.1448
20
-1.16165
11
-13.1465
21
-1.16024
0
LINE
8
BLACK
10
-13.1465
20
-1.16024
11
-13.1484
21
-1.15915
0
LINE
8
BLACK
10
-13.1484
20
-1.15915
11
-13.1498
21
-1.15748
0
LINE
8
BLACK
10
-13.1498
20
-1.15748
11
-13.1515
21
-1.15607
0
LINE
8
BLACK
10
-13.1515
20
-1.15607
11
-13.1525
21
-1.15418
0
LINE
8
BLACK
10
-13.1525
20
-1.15418
11
-13.154
21
-1.1525
0
LINE
8
BLACK
10
-13.154
20
-1.1525
11
-13.1547
21
-1.15044
0
LINE
8
BLACK
10
-13.1547
20
-1.15044
11
-13.1558
21
-1.14855
0
LINE
8
BLACK
10
-13.1558
20
-1.14855
11
-13.1562
21
-1.1464
0
LINE
8
BLACK
10
-13.1562
20
-1.1464
11
-13.1569
21
-1.14434
0
LINE
8
BLACK
10
-13.1569
20
-1.14434
11
-13.1569
21
-1.14216
0
LINE
8
BLACK
10
-13.1569
20
-1.14216
11
-13.1573
21
-1.14
0
LINE
8
BLACK
10
-13.1573
20
-1.14
11
-13.1573
21
1.975
0
LINE
8
BLACK
10
-13.1573
20
1.975
11
-13.1569
21
1.97715
0
LINE
8
BLACK
10
-13.1569
20
1.97715
11
-13.1569
21
1.97934
0
LINE
8
BLACK
10
-13.1569
20
1.97934
11
-13.1562
21
1.9814
0
LINE
8
BLACK
10
-13.1562
20
1.9814
11
-13.1558
21
1.98355
0
LINE
8
BLACK
10
-13.1558
20
1.98355
11
-13.1547
21
1.98544
0
LINE
8
BLACK
10
-13.1547
20
1.98544
11
-13.154
21
1.9875
0
LINE
8
BLACK
10
-13.154
20
1.9875
11
-13.1525
21
1.98918
0
LINE
8
BLACK
10
-13.1525
20
1.98918
11
-13.1515
21
1.99107
0
LINE
8
BLACK
10
-13.1515
20
1.99107
11
-13.1498
21
1.99248
0
LINE
8
BLACK
10
-13.1498
20
1.99248
11
-13.1484
21
1.99415
0
LINE
8
BLACK
10
-13.1484
20
1.99415
11
-13.1465
21
1.99524
0
LINE
8
BLACK
10
-13.1465
20
1.99524
11
-13.1448
21
1.99665
0
LINE
8
BLACK
10
-13.1448
20
1.99665
11
-13.1427
21
1.9974
0
LINE
8
BLACK
10
-13.1427
20
1.9974
11
-13.1409
21
1.99849
0
LINE
8
BLACK
10
-13.1409
20
1.99849
11
-13.1387
21
1.99887
0
LINE
8
BLACK
10
-13.1387
20
1.99887
11
-13.1366
21
1.99962
0
LINE
8
BLACK
10
-13.1366
20
1.99962
11
-13.1345
21
1.99962
0
LINE
8
BLACK
10
-13.1345
20
1.99962
11
-13.1323
21
2
0
LINE
8
BLACK
10
-13.1323
20
2
11
-11.6823
21
2
0
LINE
8
BLACK
10
-11.6823
20
2
11
-11.6801
21
1.99962
0
LINE
8
BLACK
10
-11.6801
20
1.99962
11
-11.678
21
1.99962
0
LINE
8
BLACK
10
-11.678
20
1.99962
11
-11.6759
21
1.99887
0
LINE
8
BLACK
10
-11.6759
20
1.99887
11
-11.6737
21
1.99849
0
LINE
8
BLACK
10
-11.6737
20
1.99849
11
-11.6719
21
1.9974
0
LINE
8
BLACK
10
-11.6719
20
1.9974
11
-11.6698
21
1.99665
0
LINE
8
BLACK
10
-11.6698
20
1.99665
11
-11.6681
21
1.99524
0
LINE
8
BLACK
10
-11.6681
20
1.99524
11
-11.6662
21
1.99415
0
LINE
8
BLACK
10
-11.6662
20
1.99415
11
-11.6648
21
1.99248
0
LINE
8
BLACK
10
-11.6648
20
1.99248
11
-11.6631
21
1.99107
0
LINE
8
BLACK
10
-11.6631
20
1.99107
11
-11.6621
21
1.98918
0
LINE
8
BLACK
10
-11.6621
20
1.98918
11
-11.6606
21
1.9875
0
LINE
8
BLACK
10
-11.6606
20
1.9875
11
-11.6599
21
1.98544
0
LINE
8
BLACK
10
-11.6599
20
1.98544
11
-11.6588
21
1.98355
0
LINE
8
BLACK
10
-11.6588
20
1.98355
11
-11.6584
21
1.9814
0
LINE
8
BLACK
10
-11.6584
20
1.9814
11
-11.6577
21
1.97934
0
LINE
8
BLACK
10
-11.6577
20
1.97934
11
-11.6577
21
1.97715
0
LINE
8
BLACK
10
-11.6577
20
1.97715
11
-11.6573
21
1.975
0
LINE
8
BLACK
10
-11.6573
20
1.975
11
-11.6573
21
0.94623
0
LINE
8
BLACK
10
-11.6573
20
0.94623
11
-11.6572
21
0.94511
0
LINE
8
BLACK
10
-11.6572
20
0.94511
11
-11.6561
21
0.945
0
LINE
8
BLACK
10
-11.6561
20
0.945
11
-11.4085
21
0.945
0
LINE
8
BLACK
10
-11.4085
20
0.945
11
-11.4074
21
0.94511
0
LINE
8
BLACK
10
-11.4074
20
0.94511
11
-11.4073
21
0.94623
0
LINE
8
BLACK
10
-11.4073
20
0.94623
11
-11.4073
21
3.78714
0
LINE
8
BLACK
10
-11.4073
20
3.78714
11
-11.4071
21
3.78823
0
LINE
8
BLACK
10
-11.4071
20
3.78823
11
-11.4072
21
3.78932
0
LINE
8
BLACK
10
-11.4072
20
3.78932
11
-11.4064
21
3.79248
0
LINE
8
BLACK
10
-11.4064
20
3.79248
11
-11.4058
21
3.79569
0
LINE
8
BLACK
10
-11.4058
20
3.79569
11
-11.4052
21
3.79665
0
LINE
8
BLACK
10
-11.4052
20
3.79665
11
-11.405
21
3.79771
0
LINE
8
BLACK
10
-11.405
20
3.79771
11
-11.4031
21
3.80039
0
LINE
8
BLACK
10
-11.4031
20
3.80039
11
-11.4015
21
3.80321
0
LINE
8
BLACK
10
-11.4015
20
3.80321
11
-11.4006
21
3.80392
0
LINE
8
BLACK
10
-11.4006
20
3.80392
11
-11.4
21
3.80482
0
LINE
8
BLACK
10
-11.4
20
3.80482
11
-10.9621
21
4.24268
0
LINE
8
BLACK
10
-10.9621
20
4.24268
11
-10.9612
21
4.24331
0
LINE
8
BLACK
10
-10.9612
20
4.24331
11
-10.9605
21
4.24415
0
LINE
8
BLACK
10
-10.9605
20
4.24415
11
-10.9577
21
4.24578
0
LINE
8
BLACK
10
-10.9577
20
4.24578
11
-10.955
21
4.24766
0
LINE
8
BLACK
10
-10.955
20
4.24766
11
-10.9539
21
4.24794
0
LINE
8
BLACK
10
-10.9539
20
4.24794
11
-10.953
21
4.24849
0
LINE
8
BLACK
10
-10.953
20
4.24849
11
-10.9498
21
4.24906
0
LINE
8
BLACK
10
-10.9498
20
4.24906
11
-10.9466
21
4.24991
0
LINE
8
BLACK
10
-10.9466
20
4.24991
11
-10.9455
21
4.24981
0
LINE
8
BLACK
10
-10.9455
20
4.24981
11
-10.9444
21
4.25
0
LINE
8
BLACK
10
-10.9444
20
4.25
11
-3.72853
21
4.25
0
LINE
8
BLACK
10
-3.72853
20
4.25
11
-3.72741
21
4.25011
0
LINE
8
BLACK
10
-3.72741
20
4.25011
11
-3.7273
21
4.25123
0
LINE
8
BLACK
10
-3.7273
20
4.25123
11
-3.7273
21
4.4335
0
LINE
8
BLACK
10
-3.7273
20
4.4335
11
-3.72692
21
4.43565
0
LINE
8
BLACK
10
-3.72692
20
4.43565
11
-3.72692
21
4.43784
0
LINE
8
BLACK
10
-3.72692
20
4.43784
11
-3.72617
21
4.4399
0
LINE
8
BLACK
10
-3.72617
20
4.4399
11
-3.72579
21
4.44205
0
LINE
8
BLACK
10
-3.72579
20
4.44205
11
-3.7247
21
4.44394
0
LINE
8
BLACK
10
-3.7247
20
4.44394
11
-3.72395
21
4.446
0
LINE
8
BLACK
10
-3.72395
20
4.446
11
-3.72254
21
4.44768
0
LINE
8
BLACK
10
-3.72254
20
4.44768
11
-3.72145
21
4.44957
0
LINE
8
BLACK
10
-3.72145
20
4.44957
11
-3.71978
21
4.45098
0
LINE
8
BLACK
10
-3.71978
20
4.45098
11
-3.71837
21
4.45265
0
LINE
8
BLACK
10
-3.71837
20
4.45265
11
-3.71648
21
4.45374
0
LINE
8
BLACK
10
-3.71648
20
4.45374
11
-3.7148
21
4.45515
0
LINE
8
BLACK
10
-3.7148
20
4.45515
11
-3.71274
21
4.4559
0
LINE
8
BLACK
10
-3.71274
20
4.4559
11
-3.71085
21
4.45699
0
LINE
8
BLACK
10
-3.71085
20
4.45699
11
-3.7087
21
4.45737
0
LINE
8
BLACK
10
-3.7087
20
4.45737
11
-3.70664
21
4.45812
0
LINE
8
BLACK
10
-3.70664
20
4.45812
11
-3.70445
21
4.45812
0
LINE
8
BLACK
10
-3.70445
20
4.45812
11
-3.7023
21
4.4585
0
LINE
8
BLACK
10
-3.7023
20
4.4585
11
-1.9528
21
4.4585
0
LINE
8
BLACK
10
-1.9528
20
4.4585
11
-1.95064
21
4.45812
  0
ENDSEC
  0
EOF
