  0
SECTION
  2
HEADER
  9
$ANGBASE
  50
0.0
  9
$ANGDIR
  70
  1
  9
$MEASUREMENT
  70
0
  0
ENDSEC
  0
SECTION
  2
TABLES
  0
TABLE
  2
LTYPE
  70
1
  0
LTYPE
  2
CONTINUOUS
  70
0
  3
Solid line
  72
65
  73
0
  40
0.0
  0
ENDTAB
  0
TABLE
  2
STYLE
  70
4
  0
STYLE
  2
KICAD
  70
0
  40
0
  41
1
  42
1
  50
0
  71
0
  3
isocp.shx
  0
STYLE
  2
KICADB
  70
0
  40
0
  41
1
  42
1
  50
0
  71
0
  3
isocp.shx
  0
STYLE
  2
KICADI
  70
0
  40
0
  41
1
  42
1
  50
15
  71
0
  3
isocp.shx
  0
STYLE
  2
KICADBI
  70
0
  40
0
  41
1
  42
1
  50
15
  71
0
  3
isocp.shx
  0
ENDTAB
  0
TABLE
  2
LAYER
  70
30
  0
LAYER
  2
BLACK
  70
0
  62
7
  6
CONTINUOUS
  0
LAYER
  2
GRAY1
  70
0
  62
251
  6
CONTINUOUS
  0
LAYER
  2
GRAY2
  70
0
  62
8
  6
CONTINUOUS
  0
LAYER
  2
GRAY3
  70
0
  62
9
  6
CONTINUOUS
  0
LAYER
  2
WHITE
  70
0
  62
7
  6
CONTINUOUS
  0
LAYER
  2
LYELLOW
  70
0
  62
51
  6
CONTINUOUS
  0
LAYER
  2
BLUE1
  70
0
  62
178
  6
CONTINUOUS
  0
LAYER
  2
GREEN1
  70
0
  62
98
  6
CONTINUOUS
  0
LAYER
  2
CYAN1
  70
0
  62
138
  6
CONTINUOUS
  0
LAYER
  2
RED1
  70
0
  62
18
  6
CONTINUOUS
  0
LAYER
  2
MAGENTA1
  70
0
  62
228
  6
CONTINUOUS
  0
LAYER
  2
BROWN1
  70
0
  62
58
  6
CONTINUOUS
  0
LAYER
  2
BLUE2
  70
0
  62
5
  6
CONTINUOUS
  0
LAYER
  2
GREEN2
  70
0
  62
3
  6
CONTINUOUS
  0
LAYER
  2
CYAN2
  70
0
  62
4
  6
CONTINUOUS
  0
LAYER
  2
RED2
  70
0
  62
1
  6
CONTINUOUS
  0
LAYER
  2
MAGENTA2
  70
0
  62
6
  6
CONTINUOUS
  0
LAYER
  2
BROWN2
  70
0
  62
54
  6
CONTINUOUS
  0
LAYER
  2
BLUE3
  70
0
  62
171
  6
CONTINUOUS
  0
LAYER
  2
GREEN3
  70
0
  62
91
  6
CONTINUOUS
  0
LAYER
  2
CYAN3
  70
0
  62
131
  6
CONTINUOUS
  0
LAYER
  2
RED3
  70
0
  62
11
  6
CONTINUOUS
  0
LAYER
  2
MAGENTA3
  70
0
  62
221
  6
CONTINUOUS
  0
LAYER
  2
YELLOW3
  70
0
  62
2
  6
CONTINUOUS
  0
LAYER
  2
BLUE4
  70
0
  62
5
  6
CONTINUOUS
  0
LAYER
  2
GREEN4
  70
0
  62
3
  6
CONTINUOUS
  0
LAYER
  2
CYAN4
  70
0
  62
4
  6
CONTINUOUS
  0
LAYER
  2
RED4
  70
0
  62
1
  6
CONTINUOUS
  0
LAYER
  2
MAGENTA4
  70
0
  62
6
  6
CONTINUOUS
  0
LAYER
  2
YELLOW4
  70
0
  62
2
  6
CONTINUOUS
  0
ENDTAB
  0
ENDSEC
  0
SECTION
  2
ENTITIES
0
LINE
8
BLACK
10
-1.95064
20
4.15812
11
-1.94846
21
4.15812
0
LINE
8
BLACK
10
-1.94846
20
4.15812
11
-1.9464
21
4.15737
0
LINE
8
BLACK
10
-1.9464
20
4.15737
11
-1.94425
21
4.15699
0
LINE
8
BLACK
10
-1.94425
20
4.15699
11
-1.94236
21
4.1559
0
LINE
8
BLACK
10
-1.94236
20
4.1559
11
-1.9403
21
4.15515
0
LINE
8
BLACK
10
-1.9403
20
4.15515
11
-1.93862
21
4.15374
0
LINE
8
BLACK
10
-1.93862
20
4.15374
11
-1.93673
21
4.15265
0
LINE
8
BLACK
10
-1.93673
20
4.15265
11
-1.93532
21
4.15098
0
LINE
8
BLACK
10
-1.93532
20
4.15098
11
-1.93365
21
4.14957
0
LINE
8
BLACK
10
-1.93365
20
4.14957
11
-1.93256
21
4.14768
0
LINE
8
BLACK
10
-1.93256
20
4.14768
11
-1.93115
21
4.146
0
LINE
8
BLACK
10
-1.93115
20
4.146
11
-1.9304
21
4.14394
0
LINE
8
BLACK
10
-1.9304
20
4.14394
11
-1.92931
21
4.14205
0
LINE
8
BLACK
10
-1.92931
20
4.14205
11
-1.92893
21
4.1399
0
LINE
8
BLACK
10
-1.92893
20
4.1399
11
-1.92818
21
4.13784
0
LINE
8
BLACK
10
-1.92818
20
4.13784
11
-1.92818
21
4.13565
0
LINE
8
BLACK
10
-1.92818
20
4.13565
11
-1.9278
21
4.1335
0
LINE
8
BLACK
10
-1.9278
20
4.1335
11
-1.9278
21
3.84023
0
LINE
8
BLACK
10
-1.9278
20
3.84023
11
-1.92769
21
3.83911
0
LINE
8
BLACK
10
-1.92769
20
3.83911
11
-1.92657
21
3.839
0
LINE
8
BLACK
10
-1.92657
20
3.839
11
1.92657
21
3.839
0
LINE
8
BLACK
10
1.92657
20
3.839
11
1.92769
21
3.83911
0
LINE
8
BLACK
10
1.92769
20
3.83911
11
1.9278
21
3.84023
0
LINE
8
BLACK
10
1.9278
20
3.84023
11
1.9278
21
4.1335
0
LINE
8
BLACK
10
1.9278
20
4.1335
11
1.92818
21
4.13565
0
LINE
8
BLACK
10
1.92818
20
4.13565
11
1.92818
21
4.13784
0
LINE
8
BLACK
10
1.92818
20
4.13784
11
1.92893
21
4.1399
0
LINE
8
BLACK
10
1.92893
20
4.1399
11
1.92931
21
4.14205
0
LINE
8
BLACK
10
1.92931
20
4.14205
11
1.9304
21
4.14394
0
LINE
8
BLACK
10
1.9304
20
4.14394
11
1.93115
21
4.146
0
LINE
8
BLACK
10
1.93115
20
4.146
11
1.93256
21
4.14768
0
LINE
8
BLACK
10
1.93256
20
4.14768
11
1.93365
21
4.14957
0
LINE
8
BLACK
10
1.93365
20
4.14957
11
1.93532
21
4.15098
0
LINE
8
BLACK
10
1.93532
20
4.15098
11
1.93673
21
4.15265
0
LINE
8
BLACK
10
1.93673
20
4.15265
11
1.93862
21
4.15374
0
LINE
8
BLACK
10
1.93862
20
4.15374
11
1.9403
21
4.15515
0
LINE
8
BLACK
10
1.9403
20
4.15515
11
1.94236
21
4.1559
0
LINE
8
BLACK
10
1.94236
20
4.1559
11
1.94425
21
4.15699
0
LINE
8
BLACK
10
1.94425
20
4.15699
11
1.9464
21
4.15737
0
LINE
8
BLACK
10
1.9464
20
4.15737
11
1.94846
21
4.15812
0
LINE
8
BLACK
10
1.94846
20
4.15812
11
1.95064
21
4.15812
0
LINE
8
BLACK
10
1.95064
20
4.15812
11
1.9528
21
4.1585
0
LINE
8
BLACK
10
1.9528
20
4.1585
11
3.7023
21
4.1585
0
LINE
8
BLACK
10
3.7023
20
4.1585
11
3.70445
21
4.15812
0
LINE
8
BLACK
10
3.70445
20
4.15812
11
3.70664
21
4.15812
0
LINE
8
BLACK
10
3.70664
20
4.15812
11
3.7087
21
4.15737
0
LINE
8
BLACK
10
3.7087
20
4.15737
11
3.71085
21
4.15699
0
LINE
8
BLACK
10
3.71085
20
4.15699
11
3.71274
21
4.1559
0
LINE
8
BLACK
10
3.71274
20
4.1559
11
3.7148
21
4.15515
0
LINE
8
BLACK
10
3.7148
20
4.15515
11
3.71648
21
4.15374
0
LINE
8
BLACK
10
3.71648
20
4.15374
11
3.71837
21
4.15265
0
LINE
8
BLACK
10
3.71837
20
4.15265
11
3.71978
21
4.15098
0
LINE
8
BLACK
10
3.71978
20
4.15098
11
3.72145
21
4.14957
0
LINE
8
BLACK
10
3.72145
20
4.14957
11
3.72254
21
4.14768
0
LINE
8
BLACK
10
3.72254
20
4.14768
11
3.72395
21
4.146
0
LINE
8
BLACK
10
3.72395
20
4.146
11
3.7247
21
4.14394
0
LINE
8
BLACK
10
3.7247
20
4.14394
11
3.72579
21
4.14205
0
LINE
8
BLACK
10
3.72579
20
4.14205
11
3.72617
21
4.1399
0
LINE
8
BLACK
10
3.72617
20
4.1399
11
3.72692
21
4.13784
0
LINE
8
BLACK
10
3.72692
20
4.13784
11
3.72692
21
4.13565
0
LINE
8
BLACK
10
3.72692
20
4.13565
11
3.7273
21
4.1335
0
LINE
8
BLACK
10
3.7273
20
4.1335
11
3.7273
21
3.95123
0
LINE
8
BLACK
10
3.7273
20
3.95123
11
3.72741
21
3.95011
0
LINE
8
BLACK
10
3.72741
20
3.95011
11
3.72853
21
3.95
0
LINE
8
BLACK
10
3.72853
20
3.95
11
10.9444
21
3.95
0
LINE
8
BLACK
10
10.9444
20
3.95
11
10.9455
21
3.94981
0
LINE
8
BLACK
10
10.9455
20
3.94981
11
10.9466
21
3.9499
0
LINE
8
BLACK
10
10.9466
20
3.9499
11
10.9498
21
3.94906
0
LINE
8
BLACK
10
10.9498
20
3.94906
11
10.953
21
3.94849
0
LINE
8
BLACK
10
10.953
20
3.94849
11
10.9539
21
3.94794
0
LINE
8
BLACK
10
10.9539
20
3.94794
11
10.955
21
3.94766
0
LINE
8
BLACK
10
10.955
20
3.94766
11
10.9577
21
3.94578
0
LINE
8
BLACK
10
10.9577
20
3.94578
11
10.9605
21
3.94415
0
LINE
8
BLACK
10
10.9605
20
3.94415
11
10.9612
21
3.94331
0
LINE
8
BLACK
10
10.9612
20
3.94331
11
10.9621
21
3.94268
0
LINE
8
BLACK
10
10.9621
20
3.94268
11
11.4
21
3.50482
0
LINE
8
BLACK
10
11.4
20
3.50482
11
11.4006
21
3.50392
0
LINE
8
BLACK
10
11.4006
20
3.50392
11
11.4015
21
3.50321
0
LINE
8
BLACK
10
11.4015
20
3.50321
11
11.4031
21
3.50039
0
LINE
8
BLACK
10
11.4031
20
3.50039
11
11.405
21
3.49771
0
LINE
8
BLACK
10
11.405
20
3.49771
11
11.4052
21
3.49665
0
LINE
8
BLACK
10
11.4052
20
3.49665
11
11.4058
21
3.49569
0
LINE
8
BLACK
10
11.4058
20
3.49569
11
11.4064
21
3.49248
0
LINE
8
BLACK
10
11.4064
20
3.49248
11
11.4072
21
3.48932
0
LINE
8
BLACK
10
11.4072
20
3.48932
11
11.4071
21
3.48823
0
LINE
8
BLACK
10
11.4071
20
3.48823
11
11.4073
21
3.48714
0
LINE
8
BLACK
10
11.4073
20
3.48714
11
11.4073
21
0.64623
0
LINE
8
BLACK
10
11.4073
20
0.64623
11
11.4074
21
0.64511
0
LINE
8
BLACK
10
11.4074
20
0.64511
11
11.4085
21
0.645
0
LINE
8
BLACK
10
11.4085
20
0.645
11
11.6561
21
0.645
0
LINE
8
BLACK
10
11.6561
20
0.645
11
11.6572
21
0.64511
0
LINE
8
BLACK
10
11.6572
20
0.64511
11
11.6573
21
0.64623
0
LINE
8
BLACK
10
11.6573
20
0.64623
11
11.6573
21
1.675
0
LINE
8
BLACK
10
11.6573
20
1.675
11
11.6577
21
1.67715
0
LINE
8
BLACK
10
11.6577
20
1.67715
11
11.6577
21
1.67934
0
LINE
8
BLACK
10
11.6577
20
1.67934
11
11.6584
21
1.6814
0
LINE
8
BLACK
10
11.6584
20
1.6814
11
11.6588
21
1.68355
0
LINE
8
BLACK
10
11.6588
20
1.68355
11
11.6599
21
1.68544
0
LINE
8
BLACK
10
11.6599
20
1.68544
11
11.6606
21
1.6875
0
LINE
8
BLACK
10
11.6606
20
1.6875
11
11.6621
21
1.68918
0
LINE
8
BLACK
10
11.6621
20
1.68918
11
11.6631
21
1.69107
0
LINE
8
BLACK
10
11.6631
20
1.69107
11
11.6648
21
1.69248
0
LINE
8
BLACK
10
11.6648
20
1.69248
11
11.6662
21
1.69415
0
LINE
8
BLACK
10
11.6662
20
1.69415
11
11.6681
21
1.69524
0
LINE
8
BLACK
10
11.6681
20
1.69524
11
11.6698
21
1.69665
0
LINE
8
BLACK
10
11.6698
20
1.69665
11
11.6719
21
1.6974
0
LINE
8
BLACK
10
11.6719
20
1.6974
11
11.6737
21
1.69849
0
LINE
8
BLACK
10
11.6737
20
1.69849
11
11.6759
21
1.69887
0
LINE
8
BLACK
10
11.6759
20
1.69887
11
11.678
21
1.69962
0
LINE
8
BLACK
10
11.678
20
1.69962
11
11.6801
21
1.69962
0
LINE
8
BLACK
10
11.6801
20
1.69962
11
11.6823
21
1.7
0
LINE
8
BLACK
10
11.6823
20
1.7
11
13.1323
21
1.7
0
LINE
8
BLACK
10
13.1323
20
1.7
11
13.1345
21
1.69962
0
LINE
8
BLACK
10
13.1345
20
1.69962
11
13.1366
21
1.69962
0
LINE
8
BLACK
10
13.1366
20
1.69962
11
13.1387
21
1.69887
0
LINE
8
BLACK
10
13.1387
20
1.69887
11
13.1409
21
1.69849
0
LINE
8
BLACK
10
13.1409
20
1.69849
11
13.1427
21
1.6974
0
LINE
8
BLACK
10
13.1427
20
1.6974
11
13.1448
21
1.69665
0
LINE
8
BLACK
10
13.1448
20
1.69665
11
13.1465
21
1.69524
0
LINE
8
BLACK
10
13.1465
20
1.69524
11
13.1484
21
1.69415
0
LINE
8
BLACK
10
13.1484
20
1.69415
11
13.1498
21
1.69248
0
LINE
8
BLACK
10
13.1498
20
1.69248
11
13.1515
21
1.69107
0
LINE
8
BLACK
10
13.1515
20
1.69107
11
13.1525
21
1.68918
0
LINE
8
BLACK
10
13.1525
20
1.68918
11
13.154
21
1.6875
0
LINE
8
BLACK
10
13.154
20
1.6875
11
13.1547
21
1.68544
0
LINE
8
BLACK
10
13.1547
20
1.68544
11
13.1558
21
1.68355
0
LINE
8
BLACK
10
13.1558
20
1.68355
11
13.1562
21
1.6814
0
LINE
8
BLACK
10
13.1562
20
1.6814
11
13.1569
21
1.67934
0
LINE
8
BLACK
10
13.1569
20
1.67934
11
13.1569
21
1.67715
0
LINE
8
BLACK
10
13.1569
20
1.67715
11
13.1573
21
1.675
0
LINE
8
BLACK
10
13.1573
20
1.675
11
13.1573
21
-1.44
0
LINE
8
BLACK
10
13.1573
20
-1.44
11
13.1569
21
-1.44215
0
LINE
8
BLACK
10
13.1569
20
-1.44215
11
13.1569
21
-1.44434
0
LINE
8
BLACK
10
13.1569
20
-1.44434
11
13.1562
21
-1.4464
0
LINE
8
BLACK
10
13.1562
20
-1.4464
11
13.1558
21
-1.44855
0
LINE
8
BLACK
10
13.1558
20
-1.44855
11
13.1547
21
-1.45044
0
LINE
8
BLACK
10
13.1547
20
-1.45044
11
13.154
21
-1.4525
0
LINE
8
BLACK
10
13.154
20
-1.4525
11
13.1525
21
-1.45418
0
LINE
8
BLACK
10
13.1525
20
-1.45418
11
13.1515
21
-1.45607
0
LINE
8
BLACK
10
13.1515
20
-1.45607
11
13.1498
21
-1.45748
0
LINE
8
BLACK
10
13.1498
20
-1.45748
11
13.1484
21
-1.45915
0
LINE
8
BLACK
10
13.1484
20
-1.45915
11
13.1465
21
-1.46024
0
LINE
8
BLACK
10
13.1465
20
-1.46024
11
13.1448
21
-1.46165
0
LINE
8
BLACK
10
13.1448
20
-1.46165
11
13.1427
21
-1.4624
0
LINE
8
BLACK
10
13.1427
20
-1.4624
11
13.1409
21
-1.46349
0
LINE
8
BLACK
10
13.1409
20
-1.46349
11
13.1387
21
-1.46387
0
LINE
8
BLACK
10
13.1387
20
-1.46387
11
13.1366
21
-1.46462
0
LINE
8
BLACK
10
13.1366
20
-1.46462
11
13.1345
21
-1.46462
0
LINE
8
BLACK
10
13.1345
20
-1.46462
11
13.1323
21
-1.465
0
LINE
8
BLACK
10
13.1323
20
-1.465
11
9.1823
21
-1.465
0
LINE
8
BLACK
10
9.1823
20
-1.465
11
9.18014
21
-1.46462
0
LINE
8
BLACK
10
9.18014
20
-1.46462
11
9.17796
21
-1.46462
0
LINE
8
BLACK
10
9.17796
20
-1.46462
11
9.1759
21
-1.46387
0
LINE
8
BLACK
10
9.1759
20
-1.46387
11
9.17375
21
-1.46349
0
LINE
8
BLACK
10
9.17375
20
-1.46349
11
9.17186
21
-1.4624
0
LINE
8
BLACK
10
9.17186
20
-1.4624
11
9.1698
21
-1.46165
0
LINE
8
BLACK
10
9.1698
20
-1.46165
11
9.16812
21
-1.46024
0
LINE
8
BLACK
10
9.16812
20
-1.46024
11
9.16623
21
-1.45915
0
LINE
8
BLACK
10
9.16623
20
-1.45915
11
9.16482
21
-1.45748
0
LINE
8
BLACK
10
9.16482
20
-1.45748
11
9.16315
21
-1.45607
0
LINE
8
BLACK
10
9.16315
20
-1.45607
11
9.16206
21
-1.45418
0
LINE
8
BLACK
10
9.16206
20
-1.45418
11
9.16065
21
-1.4525
0
LINE
8
BLACK
10
9.16065
20
-1.4525
11
9.1599
21
-1.45044
0
LINE
8
BLACK
10
9.1599
20
-1.45044
11
9.15881
21
-1.44855
0
LINE
8
BLACK
10
9.15881
20
-1.44855
11
9.15843
21
-1.4464
0
LINE
8
BLACK
10
9.15843
20
-1.4464
11
9.15768
21
-1.44434
0
LINE
8
BLACK
10
9.15768
20
-1.44434
11
9.15768
21
-1.44215
0
LINE
8
BLACK
10
9.15768
20
-1.44215
11
9.1573
21
-1.44
0
LINE
8
BLACK
10
9.1573
20
-1.44
11
9.1573
21
1.675
0
LINE
8
BLACK
10
9.1573
20
1.675
11
9.15768
21
1.67715
0
LINE
8
BLACK
10
9.15768
20
1.67715
11
9.15768
21
1.67934
0
LINE
8
BLACK
10
9.15768
20
1.67934
11
9.15843
21
1.6814
0
LINE
8
BLACK
10
9.15843
20
1.6814
11
9.15881
21
1.68355
0
LINE
8
BLACK
10
9.15881
20
1.68355
11
9.1599
21
1.68544
0
LINE
8
BLACK
10
9.1599
20
1.68544
11
9.16065
21
1.6875
0
LINE
8
BLACK
10
9.16065
20
1.6875
11
9.16206
21
1.68918
0
LINE
8
BLACK
10
9.16206
20
1.68918
11
9.16315
21
1.69107
0
LINE
8
BLACK
10
9.16315
20
1.69107
11
9.16482
21
1.69248
0
LINE
8
BLACK
10
9.16482
20
1.69248
11
9.16623
21
1.69415
0
LINE
8
BLACK
10
9.16623
20
1.69415
11
9.16812
21
1.69524
0
LINE
8
BLACK
10
9.16812
20
1.69524
11
9.1698
21
1.69665
0
LINE
8
BLACK
10
9.1698
20
1.69665
11
9.17186
21
1.6974
0
LINE
8
BLACK
10
9.17186
20
1.6974
11
9.17375
21
1.69849
0
LINE
8
BLACK
10
9.17375
20
1.69849
11
9.1759
21
1.69887
0
LINE
8
BLACK
10
9.1759
20
1.69887
11
9.17796
21
1.69962
0
LINE
8
BLACK
10
9.17796
20
1.69962
11
9.18014
21
1.69962
0
LINE
8
BLACK
10
9.18014
20
1.69962
11
9.1823
21
1.7
0
LINE
8
BLACK
10
9.1823
20
1.7
11
10.6322
21
1.7
0
LINE
8
BLACK
10
10.6322
20
1.7
11
10.6344
21
1.69962
0
LINE
8
BLACK
10
10.6344
20
1.69962
11
10.6365
21
1.69962
0
LINE
8
BLACK
10
10.6365
20
1.69962
11
10.6386
21
1.69887
0
LINE
8
BLACK
10
10.6386
20
1.69887
11
10.6408
21
1.69849
0
LINE
8
BLACK
10
10.6408
20
1.69849
11
10.6426
21
1.6974
0
LINE
8
BLACK
10
10.6426
20
1.6974
11
10.6447
21
1.69665
0
LINE
8
BLACK
10
10.6447
20
1.69665
11
10.6464
21
1.69524
0
LINE
8
BLACK
10
10.6464
20
1.69524
11
10.6483
21
1.69415
0
LINE
8
BLACK
10
10.6483
20
1.69415
11
10.6497
21
1.69248
0
LINE
8
BLACK
10
10.6497
20
1.69248
11
10.6514
21
1.69107
0
LINE
8
BLACK
10
10.6514
20
1.69107
11
10.6524
21
1.68918
0
LINE
8
BLACK
10
10.6524
20
1.68918
11
10.6539
21
1.6875
0
LINE
8
BLACK
10
10.6539
20
1.6875
11
10.6546
21
1.68544
0
LINE
8
BLACK
10
10.6546
20
1.68544
11
10.6557
21
1.68355
0
LINE
8
BLACK
10
10.6557
20
1.68355
11
10.6561
21
1.6814
0
LINE
8
BLACK
10
10.6561
20
1.6814
11
10.6568
21
1.67934
0
LINE
8
BLACK
10
10.6568
20
1.67934
11
10.6568
21
1.67715
0
LINE
8
BLACK
10
10.6568
20
1.67715
11
10.6572
21
1.675
0
LINE
8
BLACK
10
10.6572
20
1.675
11
10.6572
21
0.64623
0
LINE
8
BLACK
10
10.6572
20
0.64623
11
10.6573
21
0.64511
0
LINE
8
BLACK
10
10.6573
20
0.64511
11
10.6584
21
0.645
0
LINE
8
BLACK
10
10.6584
20
0.645
11
10.906
21
0.645
0
LINE
8
BLACK
10
10.906
20
0.645
11
10.9071
21
0.64511
0
LINE
8
BLACK
10
10.9071
20
0.64511
11
10.9072
21
0.64623
0
LINE
8
BLACK
10
10.9072
20
0.64623
11
10.9072
21
3.44877
0
LINE
8
BLACK
10
10.9072
20
3.44877
11
10.9071
21
3.44989
0
LINE
8
BLACK
10
10.9071
20
3.44989
11
10.906
21
3.45
0
LINE
8
BLACK
10
10.906
20
3.45
11
3.97843
21
3.45
0
LINE
8
BLACK
10
3.97843
20
3.45
11
3.97731
21
3.44989
0
LINE
8
BLACK
10
3.97731
20
3.44989
11
3.9772
21
3.44877
0
LINE
8
BLACK
10
3.9772
20
3.44877
11
3.9772
21
0.64623
0
LINE
8
BLACK
10
3.9772
20
0.64623
11
3.97731
21
0.64511
0
LINE
8
BLACK
10
3.97731
20
0.64511
11
3.97843
21
0.645
0
LINE
8
BLACK
10
3.97843
20
0.645
11
4.22597
21
0.645
0
LINE
8
BLACK
10
4.22597
20
0.645
11
4.22709
21
0.64511
0
LINE
8
BLACK
10
4.22709
20
0.64511
11
4.2272
21
0.64623
0
LINE
8
BLACK
10
4.2272
20
0.64623
11
4.2272
21
1.675
0
LINE
8
BLACK
10
4.2272
20
1.675
11
4.22758
21
1.67715
0
LINE
8
BLACK
10
4.22758
20
1.67715
11
4.22758
21
1.67934
0
LINE
8
BLACK
10
4.22758
20
1.67934
11
4.22833
21
1.6814
0
LINE
8
BLACK
10
4.22833
20
1.6814
11
4.22871
21
1.68355
0
LINE
8
BLACK
10
4.22871
20
1.68355
11
4.2298
21
1.68544
0
LINE
8
BLACK
10
4.2298
20
1.68544
11
4.23055
21
1.6875
0
LINE
8
BLACK
10
4.23055
20
1.6875
11
4.23196
21
1.68918
0
LINE
8
BLACK
10
4.23196
20
1.68918
11
4.23305
21
1.69107
0
LINE
8
BLACK
10
4.23305
20
1.69107
11
4.23472
21
1.69248
0
LINE
8
BLACK
10
4.23472
20
1.69248
11
4.23613
21
1.69415
0
LINE
8
BLACK
10
4.23613
20
1.69415
11
4.23802
21
1.69524
0
LINE
8
BLACK
10
4.23802
20
1.69524
11
4.2397
21
1.69665
0
LINE
8
BLACK
10
4.2397
20
1.69665
11
4.24176
21
1.6974
0
LINE
8
BLACK
10
4.24176
20
1.6974
11
4.24365
21
1.69849
0
LINE
8
BLACK
10
4.24365
20
1.69849
11
4.2458
21
1.69887
0
LINE
8
BLACK
10
4.2458
20
1.69887
11
4.24786
21
1.69962
0
LINE
8
BLACK
10
4.24786
20
1.69962
11
4.25005
21
1.69962
0
LINE
8
BLACK
10
4.25005
20
1.69962
11
4.2522
21
1.7
0
LINE
8
BLACK
10
4.2522
20
1.7
11
5.7022
21
1.7
0
LINE
8
BLACK
10
5.7022
20
1.7
11
5.70435
21
1.69962
0
LINE
8
BLACK
10
5.70435
20
1.69962
11
5.70654
21
1.69962
0
LINE
8
BLACK
10
5.70654
20
1.69962
11
5.7086
21
1.69887
0
LINE
8
BLACK
10
5.7086
20
1.69887
11
5.71075
21
1.69849
0
LINE
8
BLACK
10
5.71075
20
1.69849
11
5.71264
21
1.6974
0
LINE
8
BLACK
10
5.71264
20
1.6974
11
5.7147
21
1.69665
0
LINE
8
BLACK
10
5.7147
20
1.69665
11
5.71638
21
1.69524
0
LINE
8
BLACK
10
5.71638
20
1.69524
11
5.71827
21
1.69415
0
LINE
8
BLACK
10
5.71827
20
1.69415
11
5.71968
21
1.69248
0
LINE
8
BLACK
10
5.71968
20
1.69248
11
5.72135
21
1.69107
0
LINE
8
BLACK
10
5.72135
20
1.69107
11
5.72244
21
1.68918
0
LINE
8
BLACK
10
5.72244
20
1.68918
11
5.72385
21
1.6875
0
LINE
8
BLACK
10
5.72385
20
1.6875
11
5.7246
21
1.68544
0
LINE
8
BLACK
10
5.7246
20
1.68544
11
5.72569
21
1.68355
0
LINE
8
BLACK
10
5.72569
20
1.68355
11
5.72607
21
1.6814
0
LINE
8
BLACK
10
5.72607
20
1.6814
11
5.72682
21
1.67934
0
LINE
8
BLACK
10
5.72682
20
1.67934
11
5.72682
21
1.67715
0
LINE
8
BLACK
10
5.72682
20
1.67715
11
5.7272
21
1.675
0
LINE
8
BLACK
10
5.7272
20
1.675
11
5.7272
21
-1.44
0
LINE
8
BLACK
10
5.7272
20
-1.44
11
5.72682
21
-1.44215
0
LINE
8
BLACK
10
5.72682
20
-1.44215
11
5.72682
21
-1.44434
0
LINE
8
BLACK
10
5.72682
20
-1.44434
11
5.72607
21
-1.4464
0
LINE
8
BLACK
10
5.72607
20
-1.4464
11
5.72569
21
-1.44855
0
LINE
8
BLACK
10
5.72569
20
-1.44855
11
5.7246
21
-1.45044
0
LINE
8
BLACK
10
5.7246
20
-1.45044
11
5.72385
21
-1.4525
0
LINE
8
BLACK
10
5.72385
20
-1.4525
11
5.72244
21
-1.45418
0
LINE
8
BLACK
10
5.72244
20
-1.45418
11
5.72135
21
-1.45607
0
LINE
8
BLACK
10
5.72135
20
-1.45607
11
5.71968
21
-1.45748
0
LINE
8
BLACK
10
5.71968
20
-1.45748
11
5.71827
21
-1.45915
0
LINE
8
BLACK
10
5.71827
20
-1.45915
11
5.71638
21
-1.46024
0
LINE
8
BLACK
10
5.71638
20
-1.46024
11
5.7147
21
-1.46165
0
LINE
8
BLACK
10
5.7147
20
-1.46165
11
5.71264
21
-1.4624
0
LINE
8
BLACK
10
5.71264
20
-1.4624
11
5.71075
21
-1.46349
0
LINE
8
BLACK
10
5.71075
20
-1.46349
11
5.7086
21
-1.46387
0
LINE
8
BLACK
10
5.7086
20
-1.46387
11
5.70654
21
-1.46462
0
LINE
8
BLACK
10
5.70654
20
-1.46462
11
5.70435
21
-1.46462
0
LINE
8
BLACK
10
5.70435
20
-1.46462
11
5.7022
21
-1.465
0
LINE
8
BLACK
10
5.7022
20
-1.465
11
1.7522
21
-1.465
0
LINE
8
BLACK
10
1.7522
20
-1.465
11
1.75004
21
-1.46462
0
LINE
8
BLACK
10
1.75004
20
-1.46462
11
1.74786
21
-1.46462
0
LINE
8
BLACK
10
1.74786
20
-1.46462
11
1.7458
21
-1.46387
0
LINE
8
BLACK
10
1.7458
20
-1.46387
11
1.74365
21
-1.46349
0
LINE
8
BLACK
10
1.74365
20
-1.46349
11
1.74176
21
-1.4624
0
LINE
8
BLACK
10
1.74176
20
-1.4624
11
1.7397
21
-1.46165
0
LINE
8
BLACK
10
1.7397
20
-1.46165
11
1.73802
21
-1.46024
0
LINE
8
BLACK
10
1.73802
20
-1.46024
11
1.73613
21
-1.45915
0
LINE
8
BLACK
10
1.73613
20
-1.45915
11
1.73472
21
-1.45748
0
LINE
8
BLACK
10
1.73472
20
-1.45748
11
1.73305
21
-1.45607
0
LINE
8
BLACK
10
1.73305
20
-1.45607
11
1.73196
21
-1.45418
0
LINE
8
BLACK
10
1.73196
20
-1.45418
11
1.73055
21
-1.4525
0
LINE
8
BLACK
10
1.73055
20
-1.4525
11
1.7298
21
-1.45044
0
LINE
8
BLACK
10
1.7298
20
-1.45044
11
1.72871
21
-1.44855
0
LINE
8
BLACK
10
1.72871
20
-1.44855
11
1.72833
21
-1.4464
0
LINE
8
BLACK
10
1.72833
20
-1.4464
11
1.72758
21
-1.44434
0
LINE
8
BLACK
10
1.72758
20
-1.44434
11
1.72758
21
-1.44215
0
LINE
8
BLACK
10
1.72758
20
-1.44215
11
1.7272
21
-1.44
0
LINE
8
BLACK
10
1.7272
20
-1.44
11
1.7272
21
1.675
0
LINE
8
BLACK
10
1.7272
20
1.675
11
1.72758
21
1.67715
0
LINE
8
BLACK
10
1.72758
20
1.67715
11
1.72758
21
1.67934
0
LINE
8
BLACK
10
1.72758
20
1.67934
11
1.72833
21
1.6814
0
LINE
8
BLACK
10
1.72833
20
1.6814
11
1.72871
21
1.68355
0
LINE
8
BLACK
10
1.72871
20
1.68355
11
1.7298
21
1.68544
0
LINE
8
BLACK
10
1.7298
20
1.68544
11
1.73055
21
1.6875
0
LINE
8
BLACK
10
1.73055
20
1.6875
11
1.73196
21
1.68918
0
LINE
8
BLACK
10
1.73196
20
1.68918
11
1.73305
21
1.69107
0
LINE
8
BLACK
10
1.73305
20
1.69107
11
1.73472
21
1.69248
0
LINE
8
BLACK
10
1.73472
20
1.69248
11
1.73613
21
1.69415
0
LINE
8
BLACK
10
1.73613
20
1.69415
11
1.73802
21
1.69524
0
LINE
8
BLACK
10
1.73802
20
1.69524
11
1.7397
21
1.69665
0
LINE
8
BLACK
10
1.7397
20
1.69665
11
1.74176
21
1.6974
0
LINE
8
BLACK
10
1.74176
20
1.6974
11
1.74365
21
1.69849
0
LINE
8
BLACK
10
1.74365
20
1.69849
11
1.7458
21
1.69887
0
LINE
8
BLACK
10
1.7458
20
1.69887
11
1.74786
21
1.69962
0
LINE
8
BLACK
10
1.74786
20
1.69962
11
1.75004
21
1.69962
0
LINE
8
BLACK
10
1.75004
20
1.69962
11
1.7522
21
1.7
0
LINE
8
BLACK
10
1.7522
20
1.7
11
3.2023
21
1.7
0
LINE
8
BLACK
10
3.2023
20
1.7
11
3.20445
21
1.69962
0
LINE
8
BLACK
10
3.20445
20
1.69962
11
3.20664
21
1.69962
0
LINE
8
BLACK
10
3.20664
20
1.69962
11
3.2087
21
1.69887
0
LINE
8
BLACK
10
3.2087
20
1.69887
11
3.21085
21
1.69849
0
LINE
8
BLACK
10
3.21085
20
1.69849
11
3.21274
21
1.6974
0
LINE
8
BLACK
10
3.21274
20
1.6974
11
3.2148
21
1.69665
0
LINE
8
BLACK
10
3.2148
20
1.69665
11
3.21648
21
1.69524
0
LINE
8
BLACK
10
3.21648
20
1.69524
11
3.21837
21
1.69415
0
LINE
8
BLACK
10
3.21837
20
1.69415
11
3.21978
21
1.69248
0
LINE
8
BLACK
10
3.21978
20
1.69248
11
3.22145
21
1.69107
0
LINE
8
BLACK
10
3.22145
20
1.69107
11
3.22254
21
1.68918
0
LINE
8
BLACK
10
3.22254
20
1.68918
11
3.22395
21
1.6875
0
LINE
8
BLACK
10
3.22395
20
1.6875
11
3.2247
21
1.68544
0
LINE
8
BLACK
10
3.2247
20
1.68544
11
3.22579
21
1.68355
0
LINE
8
BLACK
10
3.22579
20
1.68355
11
3.22617
21
1.6814
0
LINE
8
BLACK
10
3.22617
20
1.6814
11
3.22692
21
1.67934
0
LINE
8
BLACK
10
3.22692
20
1.67934
11
3.22692
21
1.67715
0
LINE
8
BLACK
10
3.22692
20
1.67715
11
3.2273
21
1.675
0
LINE
8
BLACK
10
3.2273
20
1.675
11
3.2273
21
0.64623
0
LINE
8
BLACK
10
3.2273
20
0.64623
11
3.22741
21
0.64511
0
LINE
8
BLACK
10
3.22741
20
0.64511
11
3.22853
21
0.645
0
LINE
8
BLACK
10
3.22853
20
0.645
11
3.47607
21
0.645
0
LINE
8
BLACK
10
3.47607
20
0.645
11
3.47719
21
0.64511
0
LINE
8
BLACK
10
3.47719
20
0.64511
11
3.4773
21
0.64623
0
LINE
8
BLACK
10
3.4773
20
0.64623
11
3.4773
21
3.24027
0
LINE
8
BLACK
10
3.4773
20
3.24027
11
3.47719
21
3.24139
0
LINE
8
BLACK
10
3.47719
20
3.24139
11
3.47607
21
3.2415
0
LINE
8
BLACK
10
3.47607
20
3.2415
11
1.9528
21
3.2415
0
LINE
8
BLACK
10
1.9528
20
3.2415
11
1.95064
21
3.24188
0
LINE
8
BLACK
10
1.95064
20
3.24188
11
1.94846
21
3.24188
0
LINE
8
BLACK
10
1.94846
20
3.24188
11
1.9464
21
3.24263
0
LINE
8
BLACK
10
1.9464
20
3.24263
11
1.94425
21
3.24301
0
LINE
8
BLACK
10
1.94425
20
3.24301
11
1.94236
21
3.2441
0
LINE
8
BLACK
10
1.94236
20
3.2441
11
1.9403
21
3.24485
0
LINE
8
BLACK
10
1.9403
20
3.24485
11
1.93862
21
3.24626
0
LINE
8
BLACK
10
1.93862
20
3.24626
11
1.93673
21
3.24735
0
LINE
8
BLACK
10
1.93673
20
3.24735
11
1.93532
21
3.24902
0
LINE
8
BLACK
10
1.93532
20
3.24902
11
1.93365
21
3.25043
0
LINE
8
BLACK
10
1.93365
20
3.25043
11
1.93256
21
3.25232
0
LINE
8
BLACK
10
1.93256
20
3.25232
11
1.93115
21
3.254
0
LINE
8
BLACK
10
1.93115
20
3.254
11
1.9304
21
3.25606
0
LINE
8
BLACK
10
1.9304
20
3.25606
11
1.92931
21
3.25795
0
LINE
8
BLACK
10
1.92931
20
3.25795
11
1.92893
21
3.2601
0
LINE
8
BLACK
10
1.92893
20
3.2601
11
1.92818
21
3.26216
0
LINE
8
BLACK
10
1.92818
20
3.26216
11
1.92818
21
3.26435
0
LINE
8
BLACK
10
1.92818
20
3.26435
11
1.9278
21
3.2665
0
LINE
8
BLACK
10
1.9278
20
3.2665
11
1.9278
21
3.55977
0
LINE
8
BLACK
10
1.9278
20
3.55977
11
1.92769
21
3.56089
0
LINE
8
BLACK
10
1.92769
20
3.56089
11
1.92657
21
3.561
0
LINE
8
BLACK
10
1.92657
20
3.561
11
0.25123
21
3.561
0
LINE
8
BLACK
10
0.25123
20
3.561
11
0.25011
21
3.56089
0
LINE
8
BLACK
10
0.25011
20
3.56089
11
0.25
21
3.55977
0
LINE
8
BLACK
10
0.25
20
3.55977
11
0.25
21
1.9528
0
LINE
8
BLACK
10
0.25
20
1.9528
11
0.24962
21
1.95064
0
LINE
8
BLACK
10
0.24962
20
1.95064
11
0.24962
21
1.94846
0
LINE
8
BLACK
10
0.24962
20
1.94846
11
0.248872
21
1.9464
0
LINE
8
BLACK
10
0.248872
20
1.9464
11
0.248492
21
1.94425
0
LINE
8
BLACK
10
0.248492
20
1.94425
11
0.247399
21
1.94236
0
LINE
8
BLACK
10
0.247399
20
1.94236
11
0.246651
21
1.9403
0
LINE
8
BLACK
10
0.246651
20
1.9403
11
0.245244
21
1.93862
0
LINE
8
BLACK
10
0.245244
20
1.93862
11
0.244151
21
1.93673
0
LINE
8
BLACK
10
0.244151
20
1.93673
11
0.242476
21
1.93532
0
LINE
8
BLACK
10
0.242476
20
1.93532
11
0.24107
21
1.93365
0
LINE
8
BLACK
10
0.24107
20
1.93365
11
0.239177
21
1.93256
0
LINE
8
BLACK
10
0.239177
20
1.93256
11
0.2375
21
1.93115
0
LINE
8
BLACK
10
0.2375
20
1.93115
11
0.235444
21
1.9304
0
LINE
8
BLACK
10
0.235444
20
1.9304
11
0.233551
21
1.92931
0
LINE
8
BLACK
10
0.233551
20
1.92931
11
0.231397
21
1.92893
0
LINE
8
BLACK
10
0.231397
20
1.92893
11
0.229341
21
1.92818
0
LINE
8
BLACK
10
0.229341
20
1.92818
11
0.227155
21
1.92818
0
LINE
8
BLACK
10
0.227155
20
1.92818
11
0.225
21
1.9278
0
LINE
8
BLACK
10
0.225
20
1.9278
11
0.14023
21
1.9278
0
LINE
8
BLACK
10
0.14023
20
1.9278
11
0.13911
21
1.92769
0
LINE
8
BLACK
10
0.13911
20
1.92769
11
0.139
21
1.92657
0
LINE
8
BLACK
10
0.139
20
1.92657
11
0.139
21
0.25
0
LINE
8
BLACK
10
0.139
20
0.25
11
0.55
21
0.25
0
LINE
8
BLACK
10
0.55
20
0.25
11
0.560831
21
0.24809
0
LINE
8
BLACK
10
0.560831
20
0.24809
11
0.571789
21
0.249049
0
LINE
8
BLACK
10
0.571789
20
0.249049
11
0.603342
21
0.240594
0
LINE
8
BLACK
10
0.603342
20
0.240594
11
0.635505
21
0.234923
0
LINE
8
BLACK
10
0.635505
20
0.234923
11
0.64503
21
0.229424
0
LINE
8
BLACK
10
0.64503
20
0.229424
11
0.655654
21
0.226577
0
LINE
8
BLACK
10
0.655654
20
0.226577
11
0.682411
21
0.207842
0
LINE
8
BLACK
10
0.682411
20
0.207842
11
0.710697
21
0.191511
0
LINE
8
BLACK
10
0.710697
20
0.191511
11
0.717766
21
0.183086
0
LINE
8
BLACK
10
0.717766
20
0.183086
11
0.726777
21
0.176777
0
LINE
8
BLACK
10
0.726777
20
0.176777
11
1.12678
21
-0.223223
0
LINE
8
BLACK
10
1.12678
20
-0.223223
11
1.13308
21
-0.232232
0
LINE
8
BLACK
10
1.13308
20
-0.232232
11
1.14151
21
-0.239303
0
LINE
8
BLACK
10
1.14151
20
-0.239303
11
1.15784
21
-0.267589
0
LINE
8
BLACK
10
1.15784
20
-0.267589
11
1.17658
21
-0.294345
0
LINE
8
BLACK
10
1.17658
20
-0.294345
11
1.17942
21
-0.30497
0
LINE
8
BLACK
10
1.17942
20
-0.30497
11
1.18492
21
-0.314495
0
LINE
8
BLACK
10
1.18492
20
-0.314495
11
1.19059
21
-0.346664
0
LINE
8
BLACK
10
1.19059
20
-0.346664
11
1.19905
21
-0.378211
0
LINE
8
BLACK
10
1.19905
20
-0.378211
11
1.19809
21
-0.389166
0
LINE
8
BLACK
10
1.19809
20
-0.389166
11
1.2
21
-0.4
0
LINE
8
BLACK
10
1.2
20
-0.4
11
1.2
21
-1.94645
0
LINE
8
BLACK
10
1.2
20
-1.94645
11
1.35355
21
-2.1
0
LINE
8
BLACK
10
1.35355
20
-2.1
11
16.1
21
-2.1
0
LINE
8
BLACK
10
16.1
20
-2.1
11
16.1855
21
-2.11508
0
LINE
8
BLACK
10
16.1855
20
-2.11508
11
16.2607
21
-2.15849
0
LINE
8
BLACK
10
16.2607
20
-2.15849
11
16.3165
21
-2.225
0
LINE
8
BLACK
10
16.3165
20
-2.225
11
16.3462
21
-2.30659
0
LINE
8
BLACK
10
16.3462
20
-2.30659
11
16.3462
21
-2.39341
0
LINE
8
BLACK
10
16.3462
20
-2.39341
11
16.3165
21
-2.475
0
LINE
8
BLACK
10
16.3165
20
-2.475
11
16.2607
21
-2.54151
0
LINE
8
BLACK
10
16.2607
20
-2.54151
11
16.1855
21
-2.58492
0
LINE
8
BLACK
10
16.1855
20
-2.58492
11
16.1
21
-2.6
0
LINE
8
BLACK
10
16.1
20
-2.6
11
1.25
21
-2.6
0
LINE
8
BLACK
10
1.25
20
-2.6
11
1.23917
21
-2.59809
0
LINE
8
BLACK
10
1.23917
20
-2.59809
11
1.22821
21
-2.59905
0
LINE
8
BLACK
10
1.22821
20
-2.59905
11
1.19666
21
-2.59059
0
LINE
8
BLACK
10
1.19666
20
-2.59059
11
1.1645
21
-2.58492
0
LINE
8
BLACK
10
1.1645
20
-2.58492
11
1.15497
21
-2.57942
0
LINE
8
BLACK
10
1.15497
20
-2.57942
11
1.14434
21
-2.57658
0
LINE
8
BLACK
10
1.14434
20
-2.57658
11
1.11759
21
-2.55784
0
LINE
8
BLACK
10
1.11759
20
-2.55784
11
1.0893
21
-2.54151
0
LINE
8
BLACK
10
1.0893
20
-2.54151
11
1.08223
21
-2.53309
0
LINE
8
BLACK
10
1.08223
20
-2.53309
11
1.07322
21
-2.52678
0
LINE
8
BLACK
10
1.07322
20
-2.52678
11
0.773223
21
-2.22678
0
LINE
8
BLACK
10
0.773223
20
-2.22678
11
0.766914
21
-2.21777
0
LINE
8
BLACK
10
0.766914
20
-2.21777
11
0.758489
21
-2.2107
0
LINE
8
BLACK
10
0.758489
20
-2.2107
11
0.742158
21
-2.18241
0
LINE
8
BLACK
10
0.742158
20
-2.18241
11
0.723423
21
-2.15565
0
LINE
8
BLACK
10
0.723423
20
-2.15565
11
0.720576
21
-2.14503
0
LINE
8
BLACK
10
0.720576
20
-2.14503
11
0.715077
21
-2.1355
0
LINE
8
BLACK
10
0.715077
20
-2.1355
11
0.709406
21
-2.10334
0
LINE
8
BLACK
10
0.709406
20
-2.10334
11
0.700951
21
-2.07179
0
LINE
8
BLACK
10
0.700951
20
-2.07179
11
0.70191
21
-2.06083
0
LINE
8
BLACK
10
0.70191
20
-2.06083
11
0.7
21
-2.05
0
LINE
8
BLACK
10
0.7
20
-2.05
11
0.7
21
-0.503553
0
LINE
8
BLACK
10
0.7
20
-0.503553
11
0.446446
21
-0.25
0
LINE
8
BLACK
10
0.446446
20
-0.25
11
0.139
21
-0.25
0
LINE
8
BLACK
10
0.139
20
-0.25
11
0.139
21
-1.92657
0
LINE
8
BLACK
10
0.139
20
-1.92657
11
0.13911
21
-1.92769
0
LINE
8
BLACK
10
0.13911
20
-1.92769
11
0.14023
21
-1.9278
0
LINE
8
BLACK
10
0.14023
20
-1.9278
11
0.225
21
-1.9278
0
LINE
8
BLACK
10
0.225
20
-1.9278
11
0.227155
21
-1.92818
0
LINE
8
BLACK
10
0.227155
20
-1.92818
11
0.229341
21
-1.92818
0
LINE
8
BLACK
10
0.229341
20
-1.92818
11
0.231397
21
-1.92893
0
LINE
8
BLACK
10
0.231397
20
-1.92893
11
0.233551
21
-1.92931
0
LINE
8
BLACK
10
0.233551
20
-1.92931
11
0.235444
21
-1.9304
0
LINE
8
BLACK
10
0.235444
20
-1.9304
11
0.2375
21
-1.93115
0
LINE
8
BLACK
10
0.2375
20
-1.93115
11
0.239177
21
-1.93256
0
LINE
8
BLACK
10
0.239177
20
-1.93256
11
0.24107
21
-1.93365
0
LINE
8
BLACK
10
0.24107
20
-1.93365
11
0.242476
21
-1.93532
0
LINE
8
BLACK
10
0.242476
20
-1.93532
11
0.244151
21
-1.93673
0
LINE
8
BLACK
10
0.244151
20
-1.93673
11
0.245244
21
-1.93862
0
LINE
8
BLACK
10
0.245244
20
-1.93862
11
0.246651
21
-1.9403
0
LINE
8
BLACK
10
0.246651
20
-1.9403
11
0.247399
21
-1.94236
0
LINE
8
BLACK
10
0.247399
20
-1.94236
11
0.248492
21
-1.94425
0
LINE
8
BLACK
10
0.248492
20
-1.94425
11
0.248872
21
-1.9464
0
LINE
8
BLACK
10
0.248872
20
-1.9464
11
0.24962
21
-1.94846
0
LINE
8
BLACK
10
0.24962
20
-1.94846
11
0.24962
21
-1.95064
0
LINE
8
BLACK
10
0.24962
20
-1.95064
11
0.25
21
-1.9528
0
LINE
8
BLACK
10
0.25
20
-1.9528
11
0.25
21
-3.55977
0
LINE
8
BLACK
10
0.25
20
-3.55977
11
0.25011
21
-3.56089
0
LINE
8
BLACK
10
0.25011
20
-3.56089
11
0.25123
21
-3.561
0
LINE
8
BLACK
10
0.25123
20
-3.561
11
1.92657
21
-3.561
0
LINE
8
BLACK
10
1.92657
20
-3.561
11
1.92769
21
-3.56089
0
LINE
8
BLACK
10
1.92769
20
-3.56089
11
1.9278
21
-3.55977
0
LINE
8
BLACK
10
1.9278
20
-3.55977
11
1.9278
21
-3.2665
0
LINE
8
BLACK
10
1.9278
20
-3.2665
11
1.92818
21
-3.26435
0
LINE
8
BLACK
10
1.92818
20
-3.26435
11
1.92818
21
-3.26216
0
LINE
8
BLACK
10
1.92818
20
-3.26216
11
1.92893
21
-3.2601
0
LINE
8
BLACK
10
1.92893
20
-3.2601
11
1.92931
21
-3.25795
0
LINE
8
BLACK
10
1.92931
20
-3.25795
11
1.9304
21
-3.25606
0
LINE
8
BLACK
10
1.9304
20
-3.25606
11
1.93115
21
-3.254
0
LINE
8
BLACK
10
1.93115
20
-3.254
11
1.93256
21
-3.25232
0
LINE
8
BLACK
10
1.93256
20
-3.25232
11
1.93365
21
-3.25043
0
LINE
8
BLACK
10
1.93365
20
-3.25043
11
1.93532
21
-3.24902
0
LINE
8
BLACK
10
1.93532
20
-3.24902
11
1.93673
21
-3.24735
0
LINE
8
BLACK
10
1.93673
20
-3.24735
11
1.93862
21
-3.24626
0
LINE
8
BLACK
10
1.93862
20
-3.24626
11
1.9403
21
-3.24485
0
LINE
8
BLACK
10
1.9403
20
-3.24485
11
1.94236
21
-3.2441
0
LINE
8
BLACK
10
1.94236
20
-3.2441
11
1.94425
21
-3.24301
0
LINE
8
BLACK
10
1.94425
20
-3.24301
11
1.9464
21
-3.24263
0
LINE
8
BLACK
10
1.9464
20
-3.24263
11
1.94846
21
-3.24188
0
LINE
8
BLACK
10
1.94846
20
-3.24188
11
1.95064
21
-3.24188
0
LINE
8
BLACK
10
1.95064
20
-3.24188
11
1.9528
21
-3.2415
0
LINE
8
BLACK
10
1.9528
20
-3.2415
11
3.7023
21
-3.2415
0
LINE
8
BLACK
10
3.7023
20
-3.2415
11
3.70445
21
-3.24188
0
LINE
8
BLACK
10
3.70445
20
-3.24188
11
3.70664
21
-3.24188
0
LINE
8
BLACK
10
3.70664
20
-3.24188
11
3.7087
21
-3.24263
0
LINE
8
BLACK
10
3.7087
20
-3.24263
11
3.71085
21
-3.24301
0
LINE
8
BLACK
10
3.71085
20
-3.24301
11
3.71274
21
-3.2441
0
LINE
8
BLACK
10
3.71274
20
-3.2441
11
3.7148
21
-3.24485
0
LINE
8
BLACK
10
3.7148
20
-3.24485
11
3.71648
21
-3.24626
0
LINE
8
BLACK
10
3.71648
20
-3.24626
11
3.71837
21
-3.24735
0
LINE
8
BLACK
10
3.71837
20
-3.24735
11
3.71978
21
-3.24902
0
LINE
8
BLACK
10
3.71978
20
-3.24902
11
3.72145
21
-3.25043
0
LINE
8
BLACK
10
3.72145
20
-3.25043
11
3.72254
21
-3.25232
0
LINE
8
BLACK
10
3.72254
20
-3.25232
11
3.72395
21
-3.254
0
LINE
8
BLACK
10
3.72395
20
-3.254
11
3.7247
21
-3.25606
0
LINE
8
BLACK
10
3.7247
20
-3.25606
11
3.72579
21
-3.25795
0
LINE
8
BLACK
10
3.72579
20
-3.25795
11
3.72617
21
-3.2601
0
LINE
8
BLACK
10
3.72617
20
-3.2601
11
3.72692
21
-3.26216
0
LINE
8
BLACK
10
3.72692
20
-3.26216
11
3.72692
21
-3.26435
0
LINE
8
BLACK
10
3.72692
20
-3.26435
11
3.7273
21
-3.2665
0
LINE
8
BLACK
10
3.7273
20
-3.2665
11
3.7273
21
-3.44877
0
LINE
8
BLACK
10
3.7273
20
-3.44877
11
3.72741
21
-3.44989
0
LINE
8
BLACK
10
3.72741
20
-3.44989
11
3.72853
21
-3.45
0
LINE
8
BLACK
10
3.72853
20
-3.45
11
10.9444
21
-3.45
0
LINE
8
BLACK
10
10.9444
20
-3.45
11
10.9455
21
-3.45019
0
LINE
8
BLACK
10
10.9455
20
-3.45019
11
10.9466
21
-3.45009
0
LINE
8
BLACK
10
10.9466
20
-3.45009
11
10.9498
21
-3.45094
0
LINE
8
BLACK
10
10.9498
20
-3.45094
11
10.953
21
-3.45151
0
LINE
8
BLACK
10
10.953
20
-3.45151
11
10.9539
21
-3.45206
0
LINE
8
BLACK
10
10.9539
20
-3.45206
11
10.955
21
-3.45234
0
LINE
8
BLACK
10
10.955
20
-3.45234
11
10.9577
21
-3.45422
0
LINE
8
BLACK
10
10.9577
20
-3.45422
11
10.9605
21
-3.45585
0
LINE
8
BLACK
10
10.9605
20
-3.45585
11
10.9612
21
-3.45669
0
LINE
8
BLACK
10
10.9612
20
-3.45669
11
10.9621
21
-3.45732
0
LINE
8
BLACK
10
10.9621
20
-3.45732
11
11.4
21
-3.89518
0
LINE
8
BLACK
10
11.4
20
-3.89518
11
11.4006
21
-3.89608
0
LINE
8
BLACK
10
11.4006
20
-3.89608
11
11.4015
21
-3.89679
0
LINE
8
BLACK
10
11.4015
20
-3.89679
11
11.4031
21
-3.89961
0
LINE
8
BLACK
10
11.4031
20
-3.89961
11
11.405
21
-3.90229
0
LINE
8
BLACK
10
11.405
20
-3.90229
11
11.4052
21
-3.90335
0
LINE
8
BLACK
10
11.4052
20
-3.90335
11
11.4058
21
-3.9043
0
LINE
8
BLACK
10
11.4058
20
-3.9043
11
11.4064
21
-3.90752
0
LINE
8
BLACK
10
11.4064
20
-3.90752
11
11.4072
21
-3.91068
0
LINE
8
BLACK
10
11.4072
20
-3.91068
11
11.4071
21
-3.91177
0
LINE
8
BLACK
10
11.4071
20
-3.91177
11
11.4073
21
-3.91286
0
LINE
8
BLACK
10
11.4073
20
-3.91286
11
11.4073
21
-6.75377
0
LINE
8
BLACK
10
11.4073
20
-6.75377
11
11.4074
21
-6.75489
0
LINE
8
BLACK
10
11.4074
20
-6.75489
11
11.4085
21
-6.755
0
LINE
8
BLACK
10
11.4085
20
-6.755
11
11.6561
21
-6.755
0
LINE
8
BLACK
10
11.6561
20
-6.755
11
11.6572
21
-6.75489
0
LINE
8
BLACK
10
11.6572
20
-6.75489
11
11.6573
21
-6.75377
0
LINE
8
BLACK
10
11.6573
20
-6.75377
11
11.6573
21
-5.725
0
LINE
8
BLACK
10
11.6573
20
-5.725
11
11.6577
21
-5.72284
0
LINE
8
BLACK
10
11.6577
20
-5.72284
11
11.6577
21
-5.72066
0
LINE
8
BLACK
10
11.6577
20
-5.72066
11
11.6584
21
-5.7186
0
LINE
8
BLACK
10
11.6584
20
-5.7186
11
11.6588
21
-5.71645
0
LINE
8
BLACK
10
11.6588
20
-5.71645
11
11.6599
21
-5.71456
0
LINE
8
BLACK
10
11.6599
20
-5.71456
11
11.6606
21
-5.7125
0
LINE
8
BLACK
10
11.6606
20
-5.7125
11
11.6621
21
-5.71082
0
LINE
8
BLACK
10
11.6621
20
-5.71082
11
11.6631
21
-5.70893
0
LINE
8
BLACK
10
11.6631
20
-5.70893
11
11.6648
21
-5.70752
0
LINE
8
BLACK
10
11.6648
20
-5.70752
11
11.6662
21
-5.70585
0
LINE
8
BLACK
10
11.6662
20
-5.70585
11
11.6681
21
-5.70476
0
LINE
8
BLACK
10
11.6681
20
-5.70476
11
11.6698
21
-5.70335
0
LINE
8
BLACK
10
11.6698
20
-5.70335
11
11.6719
21
-5.7026
0
LINE
8
BLACK
10
11.6719
20
-5.7026
11
11.6737
21
-5.70151
0
LINE
8
BLACK
10
11.6737
20
-5.70151
11
11.6759
21
-5.70113
0
LINE
8
BLACK
10
11.6759
20
-5.70113
11
11.678
21
-5.70038
0
LINE
8
BLACK
10
11.678
20
-5.70038
11
11.6801
21
-5.70038
0
LINE
8
BLACK
10
11.6801
20
-5.70038
11
11.6823
21
-5.7
0
LINE
8
BLACK
10
11.6823
20
-5.7
11
13.1323
21
-5.7
0
LINE
8
BLACK
10
13.1323
20
-5.7
11
13.1345
21
-5.70038
0
LINE
8
BLACK
10
13.1345
20
-5.70038
11
13.1366
21
-5.70038
0
LINE
8
BLACK
10
13.1366
20
-5.70038
11
13.1387
21
-5.70113
0
LINE
8
BLACK
10
13.1387
20
-5.70113
11
13.1409
21
-5.70151
0
LINE
8
BLACK
10
13.1409
20
-5.70151
11
13.1427
21
-5.7026
0
LINE
8
BLACK
10
13.1427
20
-5.7026
11
13.1448
21
-5.70335
0
LINE
8
BLACK
10
13.1448
20
-5.70335
11
13.1465
21
-5.70476
0
LINE
8
BLACK
10
13.1465
20
-5.70476
11
13.1484
21
-5.70585
0
LINE
8
BLACK
10
13.1484
20
-5.70585
11
13.1498
21
-5.70752
0
LINE
8
BLACK
10
13.1498
20
-5.70752
11
13.1515
21
-5.70893
0
LINE
8
BLACK
10
13.1515
20
-5.70893
11
13.1525
21
-5.71082
0
LINE
8
BLACK
10
13.1525
20
-5.71082
11
13.154
21
-5.7125
0
LINE
8
BLACK
10
13.154
20
-5.7125
11
13.1547
21
-5.71456
0
LINE
8
BLACK
10
13.1547
20
-5.71456
11
13.1558
21
-5.71645
0
LINE
8
BLACK
10
13.1558
20
-5.71645
11
13.1562
21
-5.7186
0
LINE
8
BLACK
10
13.1562
20
-5.7186
11
13.1569
21
-5.72066
0
LINE
8
BLACK
10
13.1569
20
-5.72066
11
13.1569
21
-5.72284
0
LINE
8
BLACK
10
13.1569
20
-5.72284
11
13.1573
21
-5.725
0
LINE
8
BLACK
10
13.1573
20
-5.725
11
13.1573
21
-8.84
0
LINE
8
BLACK
10
13.1573
20
-8.84
11
13.1569
21
-8.84215
0
LINE
8
BLACK
10
13.1569
20
-8.84215
11
13.1569
21
-8.84434
0
LINE
8
BLACK
10
13.1569
20
-8.84434
11
13.1562
21
-8.8464
0
LINE
8
BLACK
10
13.1562
20
-8.8464
11
13.1558
21
-8.84855
0
LINE
8
BLACK
10
13.1558
20
-8.84855
11
13.1547
21
-8.85044
0
LINE
8
BLACK
10
13.1547
20
-8.85044
11
13.154
21
-8.8525
0
LINE
8
BLACK
10
13.154
20
-8.8525
11
13.1525
21
-8.85418
0
LINE
8
BLACK
10
13.1525
20
-8.85418
11
13.1515
21
-8.85607
0
LINE
8
BLACK
10
13.1515
20
-8.85607
11
13.1498
21
-8.85748
0
LINE
8
BLACK
10
13.1498
20
-8.85748
11
13.1484
21
-8.85915
0
LINE
8
BLACK
10
13.1484
20
-8.85915
11
13.1465
21
-8.86024
0
LINE
8
BLACK
10
13.1465
20
-8.86024
11
13.1448
21
-8.86165
0
LINE
8
BLACK
10
13.1448
20
-8.86165
11
13.1427
21
-8.8624
0
LINE
8
BLACK
10
13.1427
20
-8.8624
11
13.1409
21
-8.86349
0
LINE
8
BLACK
10
13.1409
20
-8.86349
11
13.1387
21
-8.86387
0
LINE
8
BLACK
10
13.1387
20
-8.86387
11
13.1366
21
-8.86462
0
LINE
8
BLACK
10
13.1366
20
-8.86462
11
13.1345
21
-8.86462
0
LINE
8
BLACK
10
13.1345
20
-8.86462
11
13.1323
21
-8.865
0
LINE
8
BLACK
10
13.1323
20
-8.865
11
9.1823
21
-8.865
0
LINE
8
BLACK
10
9.1823
20
-8.865
11
9.18014
21
-8.86462
0
LINE
8
BLACK
10
9.18014
20
-8.86462
11
9.17796
21
-8.86462
0
LINE
8
BLACK
10
9.17796
20
-8.86462
11
9.1759
21
-8.86387
0
LINE
8
BLACK
10
9.1759
20
-8.86387
11
9.17375
21
-8.86349
0
LINE
8
BLACK
10
9.17375
20
-8.86349
11
9.17186
21
-8.8624
0
LINE
8
BLACK
10
9.17186
20
-8.8624
11
9.1698
21
-8.86165
0
LINE
8
BLACK
10
9.1698
20
-8.86165
11
9.16812
21
-8.86024
0
LINE
8
BLACK
10
9.16812
20
-8.86024
11
9.16623
21
-8.85915
0
LINE
8
BLACK
10
9.16623
20
-8.85915
11
9.16482
21
-8.85748
0
LINE
8
BLACK
10
9.16482
20
-8.85748
11
9.16315
21
-8.85607
0
LINE
8
BLACK
10
9.16315
20
-8.85607
11
9.16206
21
-8.85418
0
LINE
8
BLACK
10
9.16206
20
-8.85418
11
9.16065
21
-8.8525
0
LINE
8
BLACK
10
9.16065
20
-8.8525
11
9.1599
21
-8.85044
0
LINE
8
BLACK
10
9.1599
20
-8.85044
11
9.15881
21
-8.84855
0
LINE
8
BLACK
10
9.15881
20
-8.84855
11
9.15843
21
-8.8464
0
LINE
8
BLACK
10
9.15843
20
-8.8464
11
9.15768
21
-8.84434
0
LINE
8
BLACK
10
9.15768
20
-8.84434
11
9.15768
21
-8.84215
0
LINE
8
BLACK
10
9.15768
20
-8.84215
11
9.1573
21
-8.84
0
LINE
8
BLACK
10
9.1573
20
-8.84
11
9.1573
21
-5.725
0
LINE
8
BLACK
10
9.1573
20
-5.725
11
9.15768
21
-5.72284
0
LINE
8
BLACK
10
9.15768
20
-5.72284
11
9.15768
21
-5.72066
0
LINE
8
BLACK
10
9.15768
20
-5.72066
11
9.15843
21
-5.7186
0
LINE
8
BLACK
10
9.15843
20
-5.7186
11
9.15881
21
-5.71645
0
LINE
8
BLACK
10
9.15881
20
-5.71645
11
9.1599
21
-5.71456
0
LINE
8
BLACK
10
9.1599
20
-5.71456
11
9.16065
21
-5.7125
0
LINE
8
BLACK
10
9.16065
20
-5.7125
11
9.16206
21
-5.71082
0
LINE
8
BLACK
10
9.16206
20
-5.71082
11
9.16315
21
-5.70893
0
LINE
8
BLACK
10
9.16315
20
-5.70893
11
9.16482
21
-5.70752
0
LINE
8
BLACK
10
9.16482
20
-5.70752
11
9.16623
21
-5.70585
0
LINE
8
BLACK
10
9.16623
20
-5.70585
11
9.16812
21
-5.70476
0
LINE
8
BLACK
10
9.16812
20
-5.70476
11
9.1698
21
-5.70335
0
LINE
8
BLACK
10
9.1698
20
-5.70335
11
9.17186
21
-5.7026
0
LINE
8
BLACK
10
9.17186
20
-5.7026
11
9.17375
21
-5.70151
0
LINE
8
BLACK
10
9.17375
20
-5.70151
11
9.1759
21
-5.70113
0
LINE
8
BLACK
10
9.1759
20
-5.70113
11
9.17796
21
-5.70038
0
LINE
8
BLACK
10
9.17796
20
-5.70038
11
9.18014
21
-5.70038
0
LINE
8
BLACK
10
9.18014
20
-5.70038
11
9.1823
21
-5.7
0
LINE
8
BLACK
10
9.1823
20
-5.7
11
10.6322
21
-5.7
0
LINE
8
BLACK
10
10.6322
20
-5.7
11
10.6344
21
-5.70038
0
LINE
8
BLACK
10
10.6344
20
-5.70038
11
10.6365
21
-5.70038
0
LINE
8
BLACK
10
10.6365
20
-5.70038
11
10.6386
21
-5.70113
0
LINE
8
BLACK
10
10.6386
20
-5.70113
11
10.6408
21
-5.70151
0
LINE
8
BLACK
10
10.6408
20
-5.70151
11
10.6426
21
-5.7026
0
LINE
8
BLACK
10
10.6426
20
-5.7026
11
10.6447
21
-5.70335
0
LINE
8
BLACK
10
10.6447
20
-5.70335
11
10.6464
21
-5.70476
0
LINE
8
BLACK
10
10.6464
20
-5.70476
11
10.6483
21
-5.70585
0
LINE
8
BLACK
10
10.6483
20
-5.70585
11
10.6497
21
-5.70752
0
LINE
8
BLACK
10
10.6497
20
-5.70752
11
10.6514
21
-5.70893
0
LINE
8
BLACK
10
10.6514
20
-5.70893
11
10.6524
21
-5.71082
0
LINE
8
BLACK
10
10.6524
20
-5.71082
11
10.6539
21
-5.7125
0
LINE
8
BLACK
10
10.6539
20
-5.7125
11
10.6546
21
-5.71456
0
LINE
8
BLACK
10
10.6546
20
-5.71456
11
10.6557
21
-5.71645
0
LINE
8
BLACK
10
10.6557
20
-5.71645
11
10.6561
21
-5.7186
0
LINE
8
BLACK
10
10.6561
20
-5.7186
11
10.6568
21
-5.72066
0
LINE
8
BLACK
10
10.6568
20
-5.72066
11
10.6568
21
-5.72284
0
LINE
8
BLACK
10
10.6568
20
-5.72284
11
10.6572
21
-5.725
0
LINE
8
BLACK
10
10.6572
20
-5.725
11
10.6572
21
-6.75377
0
LINE
8
BLACK
10
10.6572
20
-6.75377
11
10.6573
21
-6.75489
0
LINE
8
BLACK
10
10.6573
20
-6.75489
11
10.6584
21
-6.755
0
LINE
8
BLACK
10
10.6584
20
-6.755
11
10.906
21
-6.755
0
LINE
8
BLACK
10
10.906
20
-6.755
11
10.9071
21
-6.75489
0
LINE
8
BLACK
10
10.9071
20
-6.75489
11
10.9072
21
-6.75377
0
LINE
8
BLACK
10
10.9072
20
-6.75377
11
10.9072
21
-3.95123
0
LINE
8
BLACK
10
10.9072
20
-3.95123
11
10.9071
21
-3.95011
0
LINE
8
BLACK
10
10.9071
20
-3.95011
11
10.906
21
-3.95
0
LINE
8
BLACK
10
10.906
20
-3.95
11
3.97843
21
-3.95
0
LINE
8
BLACK
10
3.97843
20
-3.95
11
3.97731
21
-3.95011
0
LINE
8
BLACK
10
3.97731
20
-3.95011
11
3.9772
21
-3.95123
0
LINE
8
BLACK
10
3.9772
20
-3.95123
11
3.9772
21
-6.75377
0
LINE
8
BLACK
10
3.9772
20
-6.75377
11
3.97731
21
-6.75489
0
LINE
8
BLACK
10
3.97731
20
-6.75489
11
3.97843
21
-6.755
0
LINE
8
BLACK
10
3.97843
20
-6.755
11
4.22597
21
-6.755
0
LINE
8
BLACK
10
4.22597
20
-6.755
11
4.22709
21
-6.75489
0
LINE
8
BLACK
10
4.22709
20
-6.75489
11
4.2272
21
-6.75377
0
LINE
8
BLACK
10
4.2272
20
-6.75377
11
4.2272
21
-5.725
0
LINE
8
BLACK
10
4.2272
20
-5.725
11
4.22758
21
-5.72284
0
LINE
8
BLACK
10
4.22758
20
-5.72284
11
4.22758
21
-5.72066
0
LINE
8
BLACK
10
4.22758
20
-5.72066
11
4.22833
21
-5.7186
0
LINE
8
BLACK
10
4.22833
20
-5.7186
11
4.22871
21
-5.71645
0
LINE
8
BLACK
10
4.22871
20
-5.71645
11
4.2298
21
-5.71456
0
LINE
8
BLACK
10
4.2298
20
-5.71456
11
4.23055
21
-5.7125
0
LINE
8
BLACK
10
4.23055
20
-5.7125
11
4.23196
21
-5.71082
0
LINE
8
BLACK
10
4.23196
20
-5.71082
11
4.23305
21
-5.70893
0
LINE
8
BLACK
10
4.23305
20
-5.70893
11
4.23472
21
-5.70752
0
LINE
8
BLACK
10
4.23472
20
-5.70752
11
4.23613
21
-5.70585
0
LINE
8
BLACK
10
4.23613
20
-5.70585
11
4.23802
21
-5.70476
0
LINE
8
BLACK
10
4.23802
20
-5.70476
11
4.2397
21
-5.70335
0
LINE
8
BLACK
10
4.2397
20
-5.70335
11
4.24176
21
-5.7026
0
LINE
8
BLACK
10
4.24176
20
-5.7026
11
4.24365
21
-5.70151
0
LINE
8
BLACK
10
4.24365
20
-5.70151
11
4.2458
21
-5.70113
0
LINE
8
BLACK
10
4.2458
20
-5.70113
11
4.24786
21
-5.70038
0
LINE
8
BLACK
10
4.24786
20
-5.70038
11
4.25005
21
-5.70038
0
LINE
8
BLACK
10
4.25005
20
-5.70038
11
4.2522
21
-5.7
0
LINE
8
BLACK
10
4.2522
20
-5.7
11
5.7022
21
-5.7
0
LINE
8
BLACK
10
5.7022
20
-5.7
11
5.70435
21
-5.70038
0
LINE
8
BLACK
10
5.70435
20
-5.70038
11
5.70654
21
-5.70038
0
LINE
8
BLACK
10
5.70654
20
-5.70038
11
5.7086
21
-5.70113
0
LINE
8
BLACK
10
5.7086
20
-5.70113
11
5.71075
21
-5.70151
0
LINE
8
BLACK
10
5.71075
20
-5.70151
11
5.71264
21
-5.7026
0
LINE
8
BLACK
10
5.71264
20
-5.7026
11
5.7147
21
-5.70335
0
LINE
8
BLACK
10
5.7147
20
-5.70335
11
5.71638
21
-5.70476
0
LINE
8
BLACK
10
5.71638
20
-5.70476
11
5.71827
21
-5.70585
0
LINE
8
BLACK
10
5.71827
20
-5.70585
11
5.71968
21
-5.70752
0
LINE
8
BLACK
10
5.71968
20
-5.70752
11
5.72135
21
-5.70893
0
LINE
8
BLACK
10
5.72135
20
-5.70893
11
5.72244
21
-5.71082
0
LINE
8
BLACK
10
5.72244
20
-5.71082
11
5.72385
21
-5.7125
0
LINE
8
BLACK
10
5.72385
20
-5.7125
11
5.7246
21
-5.71456
0
LINE
8
BLACK
10
5.7246
20
-5.71456
11
5.72569
21
-5.71645
0
LINE
8
BLACK
10
5.72569
20
-5.71645
11
5.72607
21
-5.7186
0
LINE
8
BLACK
10
5.72607
20
-5.7186
11
5.72682
21
-5.72066
0
LINE
8
BLACK
10
5.72682
20
-5.72066
11
5.72682
21
-5.72284
0
LINE
8
BLACK
10
5.72682
20
-5.72284
11
5.7272
21
-5.725
0
LINE
8
BLACK
10
5.7272
20
-5.725
11
5.7272
21
-8.84
0
LINE
8
BLACK
10
5.7272
20
-8.84
11
5.72682
21
-8.84215
0
LINE
8
BLACK
10
5.72682
20
-8.84215
11
5.72682
21
-8.84434
0
LINE
8
BLACK
10
5.72682
20
-8.84434
11
5.72607
21
-8.8464
0
LINE
8
BLACK
10
5.72607
20
-8.8464
11
5.72569
21
-8.84855
0
LINE
8
BLACK
10
5.72569
20
-8.84855
11
5.7246
21
-8.85044
0
LINE
8
BLACK
10
5.7246
20
-8.85044
11
5.72385
21
-8.8525
0
LINE
8
BLACK
10
5.72385
20
-8.8525
11
5.72244
21
-8.85418
0
LINE
8
BLACK
10
5.72244
20
-8.85418
11
5.72135
21
-8.85607
0
LINE
8
BLACK
10
5.72135
20
-8.85607
11
5.71968
21
-8.85748
0
LINE
8
BLACK
10
5.71968
20
-8.85748
11
5.71827
21
-8.85915
0
LINE
8
BLACK
10
5.71827
20
-8.85915
11
5.71638
21
-8.86024
0
LINE
8
BLACK
10
5.71638
20
-8.86024
11
5.7147
21
-8.86165
0
LINE
8
BLACK
10
5.7147
20
-8.86165
11
5.71264
21
-8.8624
0
LINE
8
BLACK
10
5.71264
20
-8.8624
11
5.71075
21
-8.86349
0
LINE
8
BLACK
10
5.71075
20
-8.86349
11
5.7086
21
-8.86387
0
LINE
8
BLACK
10
5.7086
20
-8.86387
11
5.70654
21
-8.86462
0
LINE
8
BLACK
10
5.70654
20
-8.86462
11
5.70435
21
-8.86462
0
LINE
8
BLACK
10
5.70435
20
-8.86462
11
5.7022
21
-8.865
0
LINE
8
BLACK
10
5.7022
20
-8.865
11
1.7522
21
-8.865
0
LINE
8
BLACK
10
1.7522
20
-8.865
11
1.75004
21
-8.86462
0
LINE
8
BLACK
10
1.75004
20
-8.86462
11
1.74786
21
-8.86462
0
LINE
8
BLACK
10
1.74786
20
-8.86462
11
1.7458
21
-8.86387
0
LINE
8
BLACK
10
1.7458
20
-8.86387
11
1.74365
21
-8.86349
0
LINE
8
BLACK
10
1.74365
20
-8.86349
11
1.74176
21
-8.8624
0
LINE
8
BLACK
10
1.74176
20
-8.8624
11
1.7397
21
-8.86165
0
LINE
8
BLACK
10
1.7397
20
-8.86165
11
1.73802
21
-8.86024
0
LINE
8
BLACK
10
1.73802
20
-8.86024
11
1.73613
21
-8.85915
0
LINE
8
BLACK
10
1.73613
20
-8.85915
11
1.73472
21
-8.85748
0
LINE
8
BLACK
10
1.73472
20
-8.85748
11
1.73305
21
-8.85607
0
LINE
8
BLACK
10
1.73305
20
-8.85607
11
1.73196
21
-8.85418
0
LINE
8
BLACK
10
1.73196
20
-8.85418
11
1.73055
21
-8.8525
0
LINE
8
BLACK
10
1.73055
20
-8.8525
11
1.7298
21
-8.85044
0
LINE
8
BLACK
10
1.7298
20
-8.85044
11
1.72871
21
-8.84855
0
LINE
8
BLACK
10
1.72871
20
-8.84855
11
1.72833
21
-8.8464
0
LINE
8
BLACK
10
1.72833
20
-8.8464
11
1.72758
21
-8.84434
0
LINE
8
BLACK
10
1.72758
20
-8.84434
11
1.72758
21
-8.84215
0
LINE
8
BLACK
10
1.72758
20
-8.84215
11
1.7272
21
-8.84
0
LINE
8
BLACK
10
1.7272
20
-8.84
11
1.7272
21
-5.725
0
LINE
8
BLACK
10
1.7272
20
-5.725
11
1.72758
21
-5.72284
0
LINE
8
BLACK
10
1.72758
20
-5.72284
11
1.72758
21
-5.72066
0
LINE
8
BLACK
10
1.72758
20
-5.72066
11
1.72833
21
-5.7186
0
LINE
8
BLACK
10
1.72833
20
-5.7186
11
1.72871
21
-5.71645
0
LINE
8
BLACK
10
1.72871
20
-5.71645
11
1.7298
21
-5.71456
0
LINE
8
BLACK
10
1.7298
20
-5.71456
11
1.73055
21
-5.7125
0
LINE
8
BLACK
10
1.73055
20
-5.7125
11
1.73196
21
-5.71082
0
LINE
8
BLACK
10
1.73196
20
-5.71082
11
1.73305
21
-5.70893
0
LINE
8
BLACK
10
1.73305
20
-5.70893
11
1.73472
21
-5.70752
0
LINE
8
BLACK
10
1.73472
20
-5.70752
11
1.73613
21
-5.70585
0
LINE
8
BLACK
10
1.73613
20
-5.70585
11
1.73802
21
-5.70476
0
LINE
8
BLACK
10
1.73802
20
-5.70476
11
1.7397
21
-5.70335
0
LINE
8
BLACK
10
1.7397
20
-5.70335
11
1.74176
21
-5.7026
0
LINE
8
BLACK
10
1.74176
20
-5.7026
11
1.74365
21
-5.70151
0
LINE
8
BLACK
10
1.74365
20
-5.70151
11
1.7458
21
-5.70113
0
LINE
8
BLACK
10
1.7458
20
-5.70113
11
1.74786
21
-5.70038
0
LINE
8
BLACK
10
1.74786
20
-5.70038
11
1.75004
21
-5.70038
0
LINE
8
BLACK
10
1.75004
20
-5.70038
11
1.7522
21
-5.7
0
LINE
8
BLACK
10
1.7522
20
-5.7
11
3.2023
21
-5.7
0
LINE
8
BLACK
10
3.2023
20
-5.7
11
3.20445
21
-5.70038
0
LINE
8
BLACK
10
3.20445
20
-5.70038
11
3.20664
21
-5.70038
0
LINE
8
BLACK
10
3.20664
20
-5.70038
11
3.2087
21
-5.70113
0
LINE
8
BLACK
10
3.2087
20
-5.70113
11
3.21085
21
-5.70151
0
LINE
8
BLACK
10
3.21085
20
-5.70151
11
3.21274
21
-5.7026
0
LINE
8
BLACK
10
3.21274
20
-5.7026
11
3.2148
21
-5.70335
0
LINE
8
BLACK
10
3.2148
20
-5.70335
11
3.21648
21
-5.70476
0
LINE
8
BLACK
10
3.21648
20
-5.70476
11
3.21837
21
-5.70585
0
LINE
8
BLACK
10
3.21837
20
-5.70585
11
3.21978
21
-5.70752
0
LINE
8
BLACK
10
3.21978
20
-5.70752
11
3.22145
21
-5.70893
0
LINE
8
BLACK
10
3.22145
20
-5.70893
11
3.22254
21
-5.71082
0
LINE
8
BLACK
10
3.22254
20
-5.71082
11
3.22395
21
-5.7125
0
LINE
8
BLACK
10
3.22395
20
-5.7125
11
3.2247
21
-5.71456
0
LINE
8
BLACK
10
3.2247
20
-5.71456
11
3.22579
21
-5.71645
0
LINE
8
BLACK
10
3.22579
20
-5.71645
11
3.22617
21
-5.7186
0
LINE
8
BLACK
10
3.22617
20
-5.7186
11
3.22692
21
-5.72066
0
LINE
8
BLACK
10
3.22692
20
-5.72066
11
3.22692
21
-5.72284
0
LINE
8
BLACK
10
3.22692
20
-5.72284
11
3.2273
21
-5.725
0
LINE
8
BLACK
10
3.2273
20
-5.725
11
3.2273
21
-6.75377
0
LINE
8
BLACK
10
3.2273
20
-6.75377
11
3.22741
21
-6.75489
0
LINE
8
BLACK
10
3.22741
20
-6.75489
11
3.22853
21
-6.755
0
LINE
8
BLACK
10
3.22853
20
-6.755
11
3.47607
21
-6.755
0
LINE
8
BLACK
10
3.47607
20
-6.755
11
3.47719
21
-6.75489
0
LINE
8
BLACK
10
3.47719
20
-6.75489
11
3.4773
21
-6.75377
0
LINE
8
BLACK
10
3.4773
20
-6.75377
11
3.4773
21
-4.15973
0
LINE
8
BLACK
10
3.4773
20
-4.15973
11
3.47719
21
-4.15861
0
LINE
8
BLACK
10
3.47719
20
-4.15861
11
3.47607
21
-4.1585
0
LINE
8
BLACK
10
3.47607
20
-4.1585
11
1.9528
21
-4.1585
0
LINE
8
BLACK
10
1.9528
20
-4.1585
11
1.95064
21
-4.15812
0
LINE
8
BLACK
10
1.95064
20
-4.15812
11
1.94846
21
-4.15812
0
LINE
8
BLACK
10
1.94846
20
-4.15812
11
1.9464
21
-4.15737
0
LINE
8
BLACK
10
1.9464
20
-4.15737
11
1.94425
21
-4.15699
0
LINE
8
BLACK
10
1.94425
20
-4.15699
11
1.94236
21
-4.1559
0
LINE
8
BLACK
10
1.94236
20
-4.1559
11
1.9403
21
-4.15515
0
LINE
8
BLACK
10
1.9403
20
-4.15515
11
1.93862
21
-4.15374
0
LINE
8
BLACK
10
1.93862
20
-4.15374
11
1.93673
21
-4.15265
0
LINE
8
BLACK
10
1.93673
20
-4.15265
11
1.93532
21
-4.15098
0
LINE
8
BLACK
10
1.93532
20
-4.15098
11
1.93365
21
-4.14957
0
LINE
8
BLACK
10
1.93365
20
-4.14957
11
1.93256
21
-4.14768
0
LINE
8
BLACK
10
1.93256
20
-4.14768
11
1.93115
21
-4.146
0
LINE
8
BLACK
10
1.93115
20
-4.146
11
1.9304
21
-4.14394
0
LINE
8
BLACK
10
1.9304
20
-4.14394
11
1.92931
21
-4.14205
0
LINE
8
BLACK
10
1.92931
20
-4.14205
11
1.92893
21
-4.1399
0
LINE
8
BLACK
10
1.92893
20
-4.1399
11
1.92818
21
-4.13784
0
LINE
8
BLACK
10
1.92818
20
-4.13784
11
1.92818
21
-4.13565
0
LINE
8
BLACK
10
1.92818
20
-4.13565
11
1.9278
21
-4.1335
0
LINE
8
BLACK
10
1.9278
20
-4.1335
11
1.9278
21
-3.84023
0
LINE
8
BLACK
10
1.9278
20
-3.84023
11
1.92769
21
-3.83911
0
LINE
8
BLACK
10
1.92769
20
-3.83911
11
1.92657
21
-3.839
0
LINE
8
BLACK
10
1.92657
20
-3.839
11
-1.92657
21
-3.839
0
LINE
8
BLACK
10
-1.92657
20
-3.839
11
-1.92769
21
-3.83911
0
LINE
8
BLACK
10
-1.92769
20
-3.83911
11
-1.9278
21
-3.84023
0
LINE
8
BLACK
10
-1.9278
20
-3.84023
11
-1.9278
21
-4.1335
0
LINE
8
BLACK
10
-1.9278
20
-4.1335
11
-1.92818
21
-4.13565
0
LINE
8
BLACK
10
-1.92818
20
-4.13565
11
-1.92818
21
-4.13784
0
LINE
8
BLACK
10
-1.92818
20
-4.13784
11
-1.92893
21
-4.1399
0
LINE
8
BLACK
10
-1.92893
20
-4.1399
11
-1.92931
21
-4.14205
0
LINE
8
BLACK
10
-1.92931
20
-4.14205
11
-1.9304
21
-4.14394
0
LINE
8
BLACK
10
-1.9304
20
-4.14394
11
-1.93115
21
-4.146
0
LINE
8
BLACK
10
-1.93115
20
-4.146
11
-1.93256
21
-4.14768
0
LINE
8
BLACK
10
-1.93256
20
-4.14768
11
-1.93365
21
-4.14957
0
LINE
8
BLACK
10
-1.93365
20
-4.14957
11
-1.93532
21
-4.15098
0
LINE
8
BLACK
10
-1.93532
20
-4.15098
11
-1.93673
21
-4.15265
0
LINE
8
BLACK
10
-1.93673
20
-4.15265
11
-1.93862
21
-4.15374
0
LINE
8
BLACK
10
-1.93862
20
-4.15374
11
-1.9403
21
-4.15515
0
LINE
8
BLACK
10
-1.9403
20
-4.15515
11
-1.94236
21
-4.1559
0
LINE
8
BLACK
10
-1.94236
20
-4.1559
11
-1.94425
21
-4.15699
0
LINE
8
BLACK
10
-1.94425
20
-4.15699
11
-1.9464
21
-4.15737
0
LINE
8
BLACK
10
-1.9464
20
-4.15737
11
-1.94846
21
-4.15812
0
LINE
8
BLACK
10
-1.94846
20
-4.15812
11
-1.95064
21
-4.15812
0
LINE
8
BLACK
10
-1.95064
20
-4.15812
11
-1.9528
21
-4.1585
0
LINE
8
BLACK
10
-1.9528
20
-4.1585
11
-3.47607
21
-4.1585
0
LINE
8
BLACK
10
-3.47607
20
-4.1585
11
-3.47719
21
-4.15861
0
LINE
8
BLACK
10
-3.47719
20
-4.15861
11
-3.4773
21
-4.15973
0
LINE
8
BLACK
10
-3.4773
20
-4.15973
11
-3.4773
21
-6.75377
0
LINE
8
BLACK
10
-3.4773
20
-6.75377
11
-3.47719
21
-6.75489
0
LINE
8
BLACK
10
-3.47719
20
-6.75489
11
-3.47607
21
-6.755
0
LINE
8
BLACK
10
-3.47607
20
-6.755
11
-3.22853
21
-6.755
0
LINE
8
BLACK
10
-3.22853
20
-6.755
11
-3.22741
21
-6.75489
0
LINE
8
BLACK
10
-3.22741
20
-6.75489
11
-3.2273
21
-6.75377
0
LINE
8
BLACK
10
-3.2273
20
-6.75377
11
-3.2273
21
-5.725
0
LINE
8
BLACK
10
-3.2273
20
-5.725
11
-3.22692
21
-5.72284
0
LINE
8
BLACK
10
-3.22692
20
-5.72284
11
-3.22692
21
-5.72066
0
LINE
8
BLACK
10
-3.22692
20
-5.72066
11
-3.22617
21
-5.7186
0
LINE
8
BLACK
10
-3.22617
20
-5.7186
11
-3.22579
21
-5.71645
0
LINE
8
BLACK
10
-3.22579
20
-5.71645
11
-3.2247
21
-5.71456
0
LINE
8
BLACK
10
-3.2247
20
-5.71456
11
-3.22395
21
-5.7125
0
LINE
8
BLACK
10
-3.22395
20
-5.7125
11
-3.22254
21
-5.71082
0
LINE
8
BLACK
10
-3.22254
20
-5.71082
11
-3.22145
21
-5.70893
0
LINE
8
BLACK
10
-3.22145
20
-5.70893
11
-3.21978
21
-5.70752
0
LINE
8
BLACK
10
-3.21978
20
-5.70752
11
-3.21837
21
-5.70585
0
LINE
8
BLACK
10
-3.21837
20
-5.70585
11
-3.21648
21
-5.70476
0
LINE
8
BLACK
10
-3.21648
20
-5.70476
11
-3.2148
21
-5.70335
0
LINE
8
BLACK
10
-3.2148
20
-5.70335
11
-3.21274
21
-5.7026
0
LINE
8
BLACK
10
-3.21274
20
-5.7026
11
-3.21085
21
-5.70151
0
LINE
8
BLACK
10
-3.21085
20
-5.70151
11
-3.2087
21
-5.70113
0
LINE
8
BLACK
10
-3.2087
20
-5.70113
11
-3.20664
21
-5.70038
0
LINE
8
BLACK
10
-3.20664
20
-5.70038
11
-3.20445
21
-5.70038
0
LINE
8
BLACK
10
-3.20445
20
-5.70038
11
-3.2023
21
-5.7
0
LINE
8
BLACK
10
-3.2023
20
-5.7
11
-1.7522
21
-5.7
0
LINE
8
BLACK
10
-1.7522
20
-5.7
11
-1.75004
21
-5.70038
0
LINE
8
BLACK
10
-1.75004
20
-5.70038
11
-1.74786
21
-5.70038
0
LINE
8
BLACK
10
-1.74786
20
-5.70038
11
-1.7458
21
-5.70113
0
LINE
8
BLACK
10
-1.7458
20
-5.70113
11
-1.74365
21
-5.70151
0
LINE
8
BLACK
10
-1.74365
20
-5.70151
11
-1.74176
21
-5.7026
0
LINE
8
BLACK
10
-1.74176
20
-5.7026
11
-1.7397
21
-5.70335
0
LINE
8
BLACK
10
-1.7397
20
-5.70335
11
-1.73802
21
-5.70476
0
LINE
8
BLACK
10
-1.73802
20
-5.70476
11
-1.73613
21
-5.70585
0
LINE
8
BLACK
10
-1.73613
20
-5.70585
11
-1.73472
21
-5.70752
0
LINE
8
BLACK
10
-1.73472
20
-5.70752
11
-1.73305
21
-5.70893
0
LINE
8
BLACK
10
-1.73305
20
-5.70893
11
-1.73196
21
-5.71082
0
LINE
8
BLACK
10
-1.73196
20
-5.71082
11
-1.73055
21
-5.7125
0
LINE
8
BLACK
10
-1.73055
20
-5.7125
11
-1.7298
21
-5.71456
0
LINE
8
BLACK
10
-1.7298
20
-5.71456
11
-1.72871
21
-5.71645
0
LINE
8
BLACK
10
-1.72871
20
-5.71645
11
-1.72833
21
-5.7186
0
LINE
8
BLACK
10
-1.72833
20
-5.7186
11
-1.72758
21
-5.72066
0
LINE
8
BLACK
10
-1.72758
20
-5.72066
11
-1.72758
21
-5.72284
0
LINE
8
BLACK
10
-1.72758
20
-5.72284
11
-1.7272
21
-5.725
0
LINE
8
BLACK
10
-1.7272
20
-5.725
11
-1.7272
21
-8.84
0
LINE
8
BLACK
10
-1.7272
20
-8.84
11
-1.72758
21
-8.84215
0
LINE
8
BLACK
10
-1.72758
20
-8.84215
11
-1.72758
21
-8.84434
0
LINE
8
BLACK
10
-1.72758
20
-8.84434
11
-1.72833
21
-8.8464
0
LINE
8
BLACK
10
-1.72833
20
-8.8464
11
-1.72871
21
-8.84855
0
LINE
8
BLACK
10
-1.72871
20
-8.84855
11
-1.7298
21
-8.85044
0
LINE
8
BLACK
10
-1.7298
20
-8.85044
11
-1.73055
21
-8.8525
0
LINE
8
BLACK
10
-1.73055
20
-8.8525
11
-1.73196
21
-8.85418
0
LINE
8
BLACK
10
-1.73196
20
-8.85418
11
-1.73305
21
-8.85607
0
LINE
8
BLACK
10
-1.73305
20
-8.85607
11
-1.73472
21
-8.85748
0
LINE
8
BLACK
10
-1.73472
20
-8.85748
11
-1.73613
21
-8.85915
0
LINE
8
BLACK
10
-1.73613
20
-8.85915
11
-1.73802
21
-8.86024
0
LINE
8
BLACK
10
-1.73802
20
-8.86024
11
-1.7397
21
-8.86165
0
LINE
8
BLACK
10
-1.7397
20
-8.86165
11
-1.74176
21
-8.8624
0
LINE
8
BLACK
10
-1.74176
20
-8.8624
11
-1.74365
21
-8.86349
0
LINE
8
BLACK
10
-1.74365
20
-8.86349
11
-1.7458
21
-8.86387
0
LINE
8
BLACK
10
-1.7458
20
-8.86387
11
-1.74786
21
-8.86462
0
LINE
8
BLACK
10
-1.74786
20
-8.86462
11
-1.75004
21
-8.86462
0
LINE
8
BLACK
10
-1.75004
20
-8.86462
11
-1.7522
21
-8.865
0
LINE
8
BLACK
10
-1.7522
20
-8.865
11
-5.7022
21
-8.865
0
LINE
8
BLACK
10
-5.7022
20
-8.865
11
-5.70435
21
-8.86462
0
LINE
8
BLACK
10
-5.70435
20
-8.86462
11
-5.70654
21
-8.86462
0
LINE
8
BLACK
10
-5.70654
20
-8.86462
11
-5.7086
21
-8.86387
0
LINE
8
BLACK
10
-5.7086
20
-8.86387
11
-5.71075
21
-8.86349
0
LINE
8
BLACK
10
-5.71075
20
-8.86349
11
-5.71264
21
-8.8624
0
LINE
8
BLACK
10
-5.71264
20
-8.8624
11
-5.7147
21
-8.86165
0
LINE
8
BLACK
10
-5.7147
20
-8.86165
11
-5.71638
21
-8.86024
0
LINE
8
BLACK
10
-5.71638
20
-8.86024
11
-5.71827
21
-8.85915
0
LINE
8
BLACK
10
-5.71827
20
-8.85915
11
-5.71968
21
-8.85748
0
LINE
8
BLACK
10
-5.71968
20
-8.85748
11
-5.72135
21
-8.85607
0
LINE
8
BLACK
10
-5.72135
20
-8.85607
11
-5.72244
21
-8.85418
0
LINE
8
BLACK
10
-5.72244
20
-8.85418
11
-5.72385
21
-8.8525
0
LINE
8
BLACK
10
-5.72385
20
-8.8525
11
-5.7246
21
-8.85044
0
LINE
8
BLACK
10
-5.7246
20
-8.85044
11
-5.72569
21
-8.84855
0
LINE
8
BLACK
10
-5.72569
20
-8.84855
11
-5.72607
21
-8.8464
0
LINE
8
BLACK
10
-5.72607
20
-8.8464
11
-5.72682
21
-8.84434
0
LINE
8
BLACK
10
-5.72682
20
-8.84434
11
-5.72682
21
-8.84215
0
LINE
8
BLACK
10
-5.72682
20
-8.84215
11
-5.7272
21
-8.84
0
LINE
8
BLACK
10
-5.7272
20
-8.84
11
-5.7272
21
-5.725
0
LINE
8
BLACK
10
-5.7272
20
-5.725
11
-5.72682
21
-5.72284
0
LINE
8
BLACK
10
-5.72682
20
-5.72284
11
-5.72682
21
-5.72066
0
LINE
8
BLACK
10
-5.72682
20
-5.72066
11
-5.72607
21
-5.7186
0
LINE
8
BLACK
10
-5.72607
20
-5.7186
11
-5.72569
21
-5.71645
0
LINE
8
BLACK
10
-5.72569
20
-5.71645
11
-5.7246
21
-5.71456
0
LINE
8
BLACK
10
-5.7246
20
-5.71456
11
-5.72385
21
-5.7125
0
LINE
8
BLACK
10
-5.72385
20
-5.7125
11
-5.72244
21
-5.71082
0
LINE
8
BLACK
10
-5.72244
20
-5.71082
11
-5.72135
21
-5.70893
0
LINE
8
BLACK
10
-5.72135
20
-5.70893
11
-5.71968
21
-5.70752
0
LINE
8
BLACK
10
-5.71968
20
-5.70752
11
-5.71827
21
-5.70585
0
LINE
8
BLACK
10
-5.71827
20
-5.70585
11
-5.71638
21
-5.70476
0
LINE
8
BLACK
10
-5.71638
20
-5.70476
11
-5.7147
21
-5.70335
0
LINE
8
BLACK
10
-5.7147
20
-5.70335
11
-5.71264
21
-5.7026
0
LINE
8
BLACK
10
-5.71264
20
-5.7026
11
-5.71075
21
-5.70151
0
LINE
8
BLACK
10
-5.71075
20
-5.70151
11
-5.7086
21
-5.70113
0
LINE
8
BLACK
10
-5.7086
20
-5.70113
11
-5.70654
21
-5.70038
0
LINE
8
BLACK
10
-5.70654
20
-5.70038
11
-5.70435
21
-5.70038
0
LINE
8
BLACK
10
-5.70435
20
-5.70038
11
-5.7022
21
-5.7
0
LINE
8
BLACK
10
-5.7022
20
-5.7
11
-4.2522
21
-5.7
0
LINE
8
BLACK
10
-4.2522
20
-5.7
11
-4.25005
21
-5.70038
0
LINE
8
BLACK
10
-4.25005
20
-5.70038
11
-4.24786
21
-5.70038
0
LINE
8
BLACK
10
-4.24786
20
-5.70038
11
-4.2458
21
-5.70113
0
LINE
8
BLACK
10
-4.2458
20
-5.70113
11
-4.24365
21
-5.70151
0
LINE
8
BLACK
10
-4.24365
20
-5.70151
11
-4.24176
21
-5.7026
0
LINE
8
BLACK
10
-4.24176
20
-5.7026
11
-4.2397
21
-5.70335
0
LINE
8
BLACK
10
-4.2397
20
-5.70335
11
-4.23802
21
-5.70476
0
LINE
8
BLACK
10
-4.23802
20
-5.70476
11
-4.23613
21
-5.70585
0
LINE
8
BLACK
10
-4.23613
20
-5.70585
11
-4.23472
21
-5.70752
0
LINE
8
BLACK
10
-4.23472
20
-5.70752
11
-4.23305
21
-5.70893
0
LINE
8
BLACK
10
-4.23305
20
-5.70893
11
-4.23196
21
-5.71082
0
LINE
8
BLACK
10
-4.23196
20
-5.71082
11
-4.23055
21
-5.7125
0
LINE
8
BLACK
10
-4.23055
20
-5.7125
11
-4.2298
21
-5.71456
0
LINE
8
BLACK
10
-4.2298
20
-5.71456
11
-4.22871
21
-5.71645
0
LINE
8
BLACK
10
-4.22871
20
-5.71645
11
-4.22833
21
-5.7186
0
LINE
8
BLACK
10
-4.22833
20
-5.7186
11
-4.22758
21
-5.72066
0
LINE
8
BLACK
10
-4.22758
20
-5.72066
11
-4.22758
21
-5.72284
0
LINE
8
BLACK
10
-4.22758
20
-5.72284
11
-4.2272
21
-5.725
0
LINE
8
BLACK
10
-4.2272
20
-5.725
11
-4.2272
21
-6.75377
0
LINE
8
BLACK
10
-4.2272
20
-6.75377
11
-4.22709
21
-6.75489
0
LINE
8
BLACK
10
-4.22709
20
-6.75489
11
-4.22597
21
-6.755
0
LINE
8
BLACK
10
-4.22597
20
-6.755
11
-3.97843
21
-6.755
0
LINE
8
BLACK
10
-3.97843
20
-6.755
11
-3.97731
21
-6.75489
0
LINE
8
BLACK
10
-3.97731
20
-6.75489
11
-3.9772
21
-6.75377
0
LINE
8
BLACK
10
-3.9772
20
-6.75377
11
-3.9772
21
-3.95123
0
LINE
8
BLACK
10
-3.9772
20
-3.95123
11
-3.97731
21
-3.95011
0
LINE
8
BLACK
10
-3.97731
20
-3.95011
11
-3.97843
21
-3.95
0
LINE
8
BLACK
10
-3.97843
20
-3.95
11
-10.906
21
-3.95
0
LINE
8
BLACK
10
-10.906
20
-3.95
11
-10.9071
21
-3.95011
0
LINE
8
BLACK
10
-10.9071
20
-3.95011
11
-10.9072
21
-3.95123
0
LINE
8
BLACK
10
-10.9072
20
-3.95123
11
-10.9072
21
-6.75377
0
LINE
8
BLACK
10
-10.9072
20
-6.75377
11
-10.9071
21
-6.75489
0
LINE
8
BLACK
10
-10.9071
20
-6.75489
11
-10.906
21
-6.755
0
LINE
8
BLACK
10
-10.906
20
-6.755
11
-10.6584
21
-6.755
0
LINE
8
BLACK
10
-10.6584
20
-6.755
11
-10.6573
21
-6.75489
0
LINE
8
BLACK
10
-10.6573
20
-6.75489
11
-10.6572
21
-6.75377
0
LINE
8
BLACK
10
-10.6572
20
-6.75377
11
-10.6572
21
-5.725
0
LINE
8
BLACK
10
-10.6572
20
-5.725
11
-10.6568
21
-5.72284
0
LINE
8
BLACK
10
-10.6568
20
-5.72284
11
-10.6568
21
-5.72066
0
LINE
8
BLACK
10
-10.6568
20
-5.72066
11
-10.6561
21
-5.7186
0
LINE
8
BLACK
10
-10.6561
20
-5.7186
11
-10.6557
21
-5.71645
0
LINE
8
BLACK
10
-10.6557
20
-5.71645
11
-10.6546
21
-5.71456
0
LINE
8
BLACK
10
-10.6546
20
-5.71456
11
-10.6539
21
-5.7125
0
LINE
8
BLACK
10
-10.6539
20
-5.7125
11
-10.6524
21
-5.71082
0
LINE
8
BLACK
10
-10.6524
20
-5.71082
11
-10.6514
21
-5.70893
0
LINE
8
BLACK
10
-10.6514
20
-5.70893
11
-10.6497
21
-5.70752
0
LINE
8
BLACK
10
-10.6497
20
-5.70752
11
-10.6483
21
-5.70585
0
LINE
8
BLACK
10
-10.6483
20
-5.70585
11
-10.6464
21
-5.70476
0
LINE
8
BLACK
10
-10.6464
20
-5.70476
11
-10.6447
21
-5.70335
0
LINE
8
BLACK
10
-10.6447
20
-5.70335
11
-10.6426
21
-5.7026
0
LINE
8
BLACK
10
-10.6426
20
-5.7026
11
-10.6408
21
-5.70151
0
LINE
8
BLACK
10
-10.6408
20
-5.70151
11
-10.6386
21
-5.70113
0
LINE
8
BLACK
10
-10.6386
20
-5.70113
11
-10.6365
21
-5.70038
0
LINE
8
BLACK
10
-10.6365
20
-5.70038
11
-10.6344
21
-5.70038
0
LINE
8
BLACK
10
-10.6344
20
-5.70038
11
-10.6322
21
-5.7
0
LINE
8
BLACK
10
-10.6322
20
-5.7
11
-9.1823
21
-5.7
0
LINE
8
BLACK
10
-9.1823
20
-5.7
11
-9.18014
21
-5.70038
0
LINE
8
BLACK
10
-9.18014
20
-5.70038
11
-9.17796
21
-5.70038
0
LINE
8
BLACK
10
-9.17796
20
-5.70038
11
-9.1759
21
-5.70113
0
LINE
8
BLACK
10
-9.1759
20
-5.70113
11
-9.17375
21
-5.70151
0
LINE
8
BLACK
10
-9.17375
20
-5.70151
11
-9.17186
21
-5.7026
0
LINE
8
BLACK
10
-9.17186
20
-5.7026
11
-9.1698
21
-5.70335
0
LINE
8
BLACK
10
-9.1698
20
-5.70335
11
-9.16812
21
-5.70476
0
LINE
8
BLACK
10
-9.16812
20
-5.70476
11
-9.16623
21
-5.70585
0
LINE
8
BLACK
10
-9.16623
20
-5.70585
11
-9.16482
21
-5.70752
0
LINE
8
BLACK
10
-9.16482
20
-5.70752
11
-9.16315
21
-5.70893
0
LINE
8
BLACK
10
-9.16315
20
-5.70893
11
-9.16206
21
-5.71082
0
LINE
8
BLACK
10
-9.16206
20
-5.71082
11
-9.16065
21
-5.7125
0
LINE
8
BLACK
10
-9.16065
20
-5.7125
11
-9.1599
21
-5.71456
0
LINE
8
BLACK
10
-9.1599
20
-5.71456
11
-9.15881
21
-5.71645
0
LINE
8
BLACK
10
-9.15881
20
-5.71645
11
-9.15843
21
-5.7186
0
LINE
8
BLACK
10
-9.15843
20
-5.7186
11
-9.15768
21
-5.72066
0
LINE
8
BLACK
10
-9.15768
20
-5.72066
11
-9.15768
21
-5.72284
0
LINE
8
BLACK
10
-9.15768
20
-5.72284
11
-9.1573
21
-5.725
0
LINE
8
BLACK
10
-9.1573
20
-5.725
11
-9.1573
21
-8.84
0
LINE
8
BLACK
10
-9.1573
20
-8.84
11
-9.15768
21
-8.84215
0
LINE
8
BLACK
10
-9.15768
20
-8.84215
11
-9.15768
21
-8.84434
0
LINE
8
BLACK
10
-9.15768
20
-8.84434
11
-9.15843
21
-8.8464
0
LINE
8
BLACK
10
-9.15843
20
-8.8464
11
-9.15881
21
-8.84855
0
LINE
8
BLACK
10
-9.15881
20
-8.84855
11
-9.1599
21
-8.85044
0
LINE
8
BLACK
10
-9.1599
20
-8.85044
11
-9.16065
21
-8.8525
0
LINE
8
BLACK
10
-9.16065
20
-8.8525
11
-9.16206
21
-8.85418
0
LINE
8
BLACK
10
-9.16206
20
-8.85418
11
-9.16315
21
-8.85607
0
LINE
8
BLACK
10
-9.16315
20
-8.85607
11
-9.16482
21
-8.85748
0
LINE
8
BLACK
10
-9.16482
20
-8.85748
11
-9.16623
21
-8.85915
0
LINE
8
BLACK
10
-9.16623
20
-8.85915
11
-9.16812
21
-8.86024
0
LINE
8
BLACK
10
-9.16812
20
-8.86024
11
-9.1698
21
-8.86165
0
LINE
8
BLACK
10
-9.1698
20
-8.86165
11
-9.17186
21
-8.8624
0
LINE
8
BLACK
10
-9.17186
20
-8.8624
11
-9.17375
21
-8.86349
0
LINE
8
BLACK
10
-9.17375
20
-8.86349
11
-9.1759
21
-8.86387
0
LINE
8
BLACK
10
-9.1759
20
-8.86387
11
-9.17796
21
-8.86462
0
LINE
8
BLACK
10
-9.17796
20
-8.86462
11
-9.18014
21
-8.86462
0
LINE
8
BLACK
10
-9.18014
20
-8.86462
11
-9.1823
21
-8.865
0
LINE
8
BLACK
10
-9.1823
20
-8.865
11
-13.1323
21
-8.865
0
LINE
8
BLACK
10
-13.1323
20
-8.865
11
-13.1345
21
-8.86462
0
LINE
8
BLACK
10
-13.1345
20
-8.86462
11
-13.1366
21
-8.86462
0
LINE
8
BLACK
10
-13.1366
20
-8.86462
11
-13.1387
21
-8.86387
0
LINE
8
BLACK
10
-13.1387
20
-8.86387
11
-13.1409
21
-8.86349
0
LINE
8
BLACK
10
-13.1409
20
-8.86349
11
-13.1427
21
-8.8624
0
LINE
8
BLACK
10
-13.1427
20
-8.8624
11
-13.1448
21
-8.86165
0
LINE
8
BLACK
10
-13.1448
20
-8.86165
11
-13.1465
21
-8.86024
0
LINE
8
BLACK
10
-13.1465
20
-8.86024
11
-13.1484
21
-8.85915
0
LINE
8
BLACK
10
-13.1484
20
-8.85915
11
-13.1498
21
-8.85748
0
LINE
8
BLACK
10
-13.1498
20
-8.85748
11
-13.1515
21
-8.85607
0
LINE
8
BLACK
10
-13.1515
20
-8.85607
11
-13.1525
21
-8.85418
0
LINE
8
BLACK
10
-13.1525
20
-8.85418
11
-13.154
21
-8.8525
0
LINE
8
BLACK
10
-13.154
20
-8.8525
11
-13.1547
21
-8.85044
0
LINE
8
BLACK
10
-13.1547
20
-8.85044
11
-13.1558
21
-8.84855
0
LINE
8
BLACK
10
-13.1558
20
-8.84855
11
-13.1562
21
-8.8464
0
LINE
8
BLACK
10
-13.1562
20
-8.8464
11
-13.1569
21
-8.84434
0
LINE
8
BLACK
10
-13.1569
20
-8.84434
11
-13.1569
21
-8.84215
0
LINE
8
BLACK
10
-13.1569
20
-8.84215
11
-13.1573
21
-8.84
0
LINE
8
BLACK
10
-13.1573
20
-8.84
11
-13.1573
21
-5.725
0
LINE
8
BLACK
10
-13.1573
20
-5.725
11
-13.1569
21
-5.72284
0
LINE
8
BLACK
10
-13.1569
20
-5.72284
11
-13.1569
21
-5.72066
0
LINE
8
BLACK
10
-13.1569
20
-5.72066
11
-13.1562
21
-5.7186
0
LINE
8
BLACK
10
-13.1562
20
-5.7186
11
-13.1558
21
-5.71645
0
LINE
8
BLACK
10
-13.1558
20
-5.71645
11
-13.1547
21
-5.71456
0
LINE
8
BLACK
10
-13.1547
20
-5.71456
11
-13.154
21
-5.7125
0
LINE
8
BLACK
10
-13.154
20
-5.7125
11
-13.1525
21
-5.71082
0
LINE
8
BLACK
10
-13.1525
20
-5.71082
11
-13.1515
21
-5.70893
0
LINE
8
BLACK
10
-13.1515
20
-5.70893
11
-13.1498
21
-5.70752
0
LINE
8
BLACK
10
-13.1498
20
-5.70752
11
-13.1484
21
-5.70585
0
LINE
8
BLACK
10
-13.1484
20
-5.70585
11
-13.1465
21
-5.70476
0
LINE
8
BLACK
10
-13.1465
20
-5.70476
11
-13.1448
21
-5.70335
0
LINE
8
BLACK
10
-13.1448
20
-5.70335
11
-13.1427
21
-5.7026
0
LINE
8
BLACK
10
-13.1427
20
-5.7026
11
-13.1409
21
-5.70151
0
LINE
8
BLACK
10
-13.1409
20
-5.70151
11
-13.1387
21
-5.70113
0
LINE
8
BLACK
10
-13.1387
20
-5.70113
11
-13.1366
21
-5.70038
0
LINE
8
BLACK
10
-13.1366
20
-5.70038
11
-13.1345
21
-5.70038
0
LINE
8
BLACK
10
-13.1345
20
-5.70038
11
-13.1323
21
-5.7
0
LINE
8
BLACK
10
-13.1323
20
-5.7
11
-11.6823
21
-5.7
0
LINE
8
BLACK
10
-11.6823
20
-5.7
11
-11.6801
21
-5.70038
0
LINE
8
BLACK
10
-11.6801
20
-5.70038
11
-11.678
21
-5.70038
0
LINE
8
BLACK
10
-11.678
20
-5.70038
11
-11.6759
21
-5.70113
0
LINE
8
BLACK
10
-11.6759
20
-5.70113
11
-11.6737
21
-5.70151
0
LINE
8
BLACK
10
-11.6737
20
-5.70151
11
-11.6719
21
-5.7026
0
LINE
8
BLACK
10
-11.6719
20
-5.7026
11
-11.6698
21
-5.70335
0
LINE
8
BLACK
10
-11.6698
20
-5.70335
11
-11.6681
21
-5.70476
0
LINE
8
BLACK
10
-11.6681
20
-5.70476
11
-11.6662
21
-5.70585
0
LINE
8
BLACK
10
-11.6662
20
-5.70585
11
-11.6648
21
-5.70752
0
LINE
8
BLACK
10
-11.6648
20
-5.70752
11
-11.6631
21
-5.70893
0
LINE
8
BLACK
10
-11.6631
20
-5.70893
11
-11.6621
21
-5.71082
0
LINE
8
BLACK
10
-11.6621
20
-5.71082
11
-11.6606
21
-5.7125
0
LINE
8
BLACK
10
-11.6606
20
-5.7125
11
-11.6599
21
-5.71456
0
LINE
8
BLACK
10
-11.6599
20
-5.71456
11
-11.6588
21
-5.71645
0
LINE
8
BLACK
10
-11.6588
20
-5.71645
11
-11.6584
21
-5.7186
0
LINE
8
BLACK
10
-11.6584
20
-5.7186
11
-11.6577
21
-5.72066
0
LINE
8
BLACK
10
-11.6577
20
-5.72066
11
-11.6577
21
-5.72284
0
LINE
8
BLACK
10
-11.6577
20
-5.72284
11
-11.6573
21
-5.725
0
LINE
8
BLACK
10
-11.6573
20
-5.725
11
-11.6573
21
-6.75377
0
LINE
8
BLACK
10
-11.6573
20
-6.75377
11
-11.6572
21
-6.75489
0
LINE
8
BLACK
10
-11.6572
20
-6.75489
11
-11.6561
21
-6.755
0
LINE
8
BLACK
10
-11.6561
20
-6.755
11
-11.4085
21
-6.755
0
LINE
8
BLACK
10
-11.4085
20
-6.755
11
-11.4074
21
-6.75489
0
LINE
8
BLACK
10
-11.4074
20
-6.75489
11
-11.4073
21
-6.75377
0
LINE
8
BLACK
10
-11.4073
20
-6.75377
11
-11.4073
21
-3.91286
0
LINE
8
BLACK
10
-11.4073
20
-3.91286
11
-11.4071
21
-3.91177
0
LINE
8
BLACK
10
-11.4071
20
-3.91177
11
-11.4072
21
-3.91068
0
LINE
8
BLACK
10
-11.4072
20
-3.91068
11
-11.4064
21
-3.90752
0
LINE
8
BLACK
10
-11.4064
20
-3.90752
11
-11.4058
21
-3.9043
0
LINE
8
BLACK
10
-11.4058
20
-3.9043
11
-11.4052
21
-3.90335
0
LINE
8
BLACK
10
-11.4052
20
-3.90335
11
-11.405
21
-3.90229
0
LINE
8
BLACK
10
-11.405
20
-3.90229
11
-11.4031
21
-3.89961
0
LINE
8
BLACK
10
-11.4031
20
-3.89961
11
-11.4015
21
-3.89679
0
LINE
8
BLACK
10
-11.4015
20
-3.89679
11
-11.4006
21
-3.89608
0
LINE
8
BLACK
10
-11.4006
20
-3.89608
11
-11.4
21
-3.89518
0
LINE
8
BLACK
10
-11.4
20
-3.89518
11
-10.9621
21
-3.45732
0
LINE
8
BLACK
10
-10.9621
20
-3.45732
11
-10.9612
21
-3.45669
0
LINE
8
BLACK
10
-10.9612
20
-3.45669
11
-10.9605
21
-3.45585
0
LINE
8
BLACK
10
-10.9605
20
-3.45585
11
-10.9577
21
-3.45422
0
LINE
8
BLACK
10
-10.9577
20
-3.45422
11
-10.955
21
-3.45234
0
LINE
8
BLACK
10
-10.955
20
-3.45234
11
-10.9539
21
-3.45206
0
LINE
8
BLACK
10
-10.9539
20
-3.45206
11
-10.953
21
-3.45151
0
LINE
8
BLACK
10
-10.953
20
-3.45151
11
-10.9498
21
-3.45094
0
LINE
8
BLACK
10
-10.9498
20
-3.45094
11
-10.9466
21
-3.45009
0
LINE
8
BLACK
10
-10.9466
20
-3.45009
11
-10.9455
21
-3.45019
0
LINE
8
BLACK
10
-10.9455
20
-3.45019
11
-10.9444
21
-3.45
0
LINE
8
BLACK
10
-10.9444
20
-3.45
11
-3.72853
21
-3.45
0
LINE
8
BLACK
10
-3.72853
20
-3.45
11
-3.72741
21
-3.44989
0
LINE
8
BLACK
10
-3.72741
20
-3.44989
11
-3.7273
21
-3.44877
0
LINE
8
BLACK
10
-3.7273
20
-3.44877
11
-3.7273
21
-3.2665
0
LINE
8
BLACK
10
-3.7273
20
-3.2665
11
-3.72692
21
-3.26435
0
LINE
8
BLACK
10
-3.72692
20
-3.26435
11
-3.72692
21
-3.26216
0
LINE
8
BLACK
10
-3.72692
20
-3.26216
11
-3.72617
21
-3.2601
0
LINE
8
BLACK
10
-3.72617
20
-3.2601
11
-3.72579
21
-3.25795
0
LINE
8
BLACK
10
-3.72579
20
-3.25795
11
-3.7247
21
-3.25606
0
LINE
8
BLACK
10
-3.7247
20
-3.25606
11
-3.72395
21
-3.254
0
LINE
8
BLACK
10
-3.72395
20
-3.254
11
-3.72254
21
-3.25232
0
LINE
8
BLACK
10
-3.72254
20
-3.25232
11
-3.72145
21
-3.25043
0
LINE
8
BLACK
10
-3.72145
20
-3.25043
11
-3.71978
21
-3.24902
0
LINE
8
BLACK
10
-3.71978
20
-3.24902
11
-3.71837
21
-3.24735
0
LINE
8
BLACK
10
-3.71837
20
-3.24735
11
-3.71648
21
-3.24626
0
LINE
8
BLACK
10
-3.71648
20
-3.24626
11
-3.7148
21
-3.24485
0
LINE
8
BLACK
10
-3.7148
20
-3.24485
11
-3.71274
21
-3.2441
0
LINE
8
BLACK
10
-3.71274
20
-3.2441
11
-3.71085
21
-3.24301
0
LINE
8
BLACK
10
-3.71085
20
-3.24301
11
-3.7087
21
-3.24263
0
LINE
8
BLACK
10
-3.7087
20
-3.24263
11
-3.70664
21
-3.24188
0
LINE
8
BLACK
10
-3.70664
20
-3.24188
11
-3.70445
21
-3.24188
0
LINE
8
BLACK
10
-3.70445
20
-3.24188
11
-3.7023
21
-3.2415
0
LINE
8
BLACK
10
-3.7023
20
-3.2415
11
-1.9528
21
-3.2415
0
LINE
8
BLACK
10
-1.9528
20
-3.2415
11
-1.95064
21
-3.24188
0
LINE
8
BLACK
10
-1.95064
20
-3.24188
11
-1.94846
21
-3.24188
0
LINE
8
BLACK
10
-1.94846
20
-3.24188
11
-1.9464
21
-3.24263
0
LINE
8
BLACK
10
-1.9464
20
-3.24263
11
-1.94425
21
-3.24301
0
LINE
8
BLACK
10
-1.94425
20
-3.24301
11
-1.94236
21
-3.2441
0
LINE
8
BLACK
10
-1.94236
20
-3.2441
11
-1.9403
21
-3.24485
0
LINE
8
BLACK
10
-1.9403
20
-3.24485
11
-1.93862
21
-3.24626
0
LINE
8
BLACK
10
-1.93862
20
-3.24626
11
-1.93673
21
-3.24735
0
LINE
8
BLACK
10
-1.93673
20
-3.24735
11
-1.93532
21
-3.24902
0
LINE
8
BLACK
10
-1.93532
20
-3.24902
11
-1.93365
21
-3.25043
0
LINE
8
BLACK
10
-1.93365
20
-3.25043
11
-1.93256
21
-3.25232
0
LINE
8
BLACK
10
-1.93256
20
-3.25232
11
-1.93115
21
-3.254
0
LINE
8
BLACK
10
-1.93115
20
-3.254
11
-1.9304
21
-3.25606
0
LINE
8
BLACK
10
-1.9304
20
-3.25606
11
-1.92931
21
-3.25795
0
LINE
8
BLACK
10
-1.92931
20
-3.25795
11
-1.92893
21
-3.2601
0
LINE
8
BLACK
10
-1.92893
20
-3.2601
11
-1.92818
21
-3.26216
0
LINE
8
BLACK
10
-1.92818
20
-3.26216
11
-1.92818
21
-3.26435
0
LINE
8
BLACK
10
-1.92818
20
-3.26435
11
-1.9278
21
-3.2665
0
LINE
8
BLACK
10
-1.9278
20
-3.2665
11
-1.9278
21
-3.55977
0
LINE
8
BLACK
10
-1.9278
20
-3.55977
11
-1.92769
21
-3.56089
0
LINE
8
BLACK
10
-1.92769
20
-3.56089
11
-1.92657
21
-3.561
0
LINE
8
BLACK
10
-1.92657
20
-3.561
11
-0.251229
21
-3.561
0
LINE
8
BLACK
10
-0.251229
20
-3.561
11
-0.25011
21
-3.56089
0
LINE
8
BLACK
10
-0.25011
20
-3.56089
11
-0.25
21
-3.55977
0
LINE
8
BLACK
10
-0.25
20
-3.55977
11
-0.25
21
-1.9528
0
LINE
8
BLACK
10
-0.25
20
-1.9528
11
-0.24962
21
-1.95064
0
LINE
8
BLACK
10
-0.24962
20
-1.95064
11
-0.24962
21
-1.94846
0
LINE
8
BLACK
10
-0.24962
20
-1.94846
11
-0.248872
21
-1.9464
0
LINE
8
BLACK
10
-0.248872
20
-1.9464
11
-0.248492
21
-1.94425
0
LINE
8
BLACK
10
-0.248492
20
-1.94425
11
-0.247399
21
-1.94236
0
LINE
8
BLACK
10
-0.247399
20
-1.94236
11
-0.246651
21
-1.9403
0
LINE
8
BLACK
10
-0.246651
20
-1.9403
11
-0.245244
21
-1.93862
0
LINE
8
BLACK
10
-0.245244
20
-1.93862
11
-0.244151
21
-1.93673
0
LINE
8
BLACK
10
-0.244151
20
-1.93673
11
-0.242476
21
-1.93532
0
LINE
8
BLACK
10
-0.242476
20
-1.93532
11
-0.24107
21
-1.93365
0
LINE
8
BLACK
10
-0.24107
20
-1.93365
11
-0.239177
21
-1.93256
0
LINE
8
BLACK
10
-0.239177
20
-1.93256
11
-0.2375
21
-1.93115
0
LINE
8
BLACK
10
-0.2375
20
-1.93115
11
-0.235444
21
-1.9304
0
LINE
8
BLACK
10
-0.235444
20
-1.9304
11
-0.233551
21
-1.92931
0
LINE
8
BLACK
10
-0.233551
20
-1.92931
11
-0.231397
21
-1.92893
0
LINE
8
BLACK
10
-0.231397
20
-1.92893
11
-0.229341
21
-1.92818
0
LINE
8
BLACK
10
-0.229341
20
-1.92818
11
-0.227155
21
-1.92818
0
LINE
8
BLACK
10
-0.227155
20
-1.92818
11
-0.225
21
-1.9278
0
LINE
8
BLACK
10
-0.225
20
-1.9278
11
-0.140229
21
-1.9278
0
LINE
8
BLACK
10
-0.140229
20
-1.9278
11
-0.13911
21
-1.92769
0
LINE
8
BLACK
10
-0.13911
20
-1.92769
11
-0.139
21
-1.92657
0
LINE
8
BLACK
10
-0.139
20
-1.92657
11
-0.139
21
-0.204038
0
LINE
8
BLACK
10
-0.139
20
-0.204038
11
-0.160697
21
-0.191511
0
LINE
8
BLACK
10
-0.160697
20
-0.191511
11
-0.216506
21
-0.125
0
LINE
8
BLACK
10
-0.216506
20
-0.125
11
-0.246202
21
-0.043412
0
LINE
8
BLACK
10
-0.246202
20
-0.043412
11
-0.246202
21
0.043412
0
LINE
8
BLACK
10
-0.246202
20
0.043412
11
-0.216506
21
0.125
0
LINE
8
BLACK
10
-0.216506
20
0.125
11
-0.160697
21
0.191511
0
LINE
8
BLACK
10
-0.160697
20
0.191511
11
-0.139
21
0.204038
0
LINE
8
BLACK
10
-0.139
20
0.204038
11
-0.139
21
1.92657
0
LINE
8
BLACK
10
-0.139
20
1.92657
11
-0.13911
21
1.92769
0
LINE
8
BLACK
10
-0.13911
20
1.92769
11
-0.14023
21
1.9278
0
LINE
8
BLACK
10
-0.14023
20
1.9278
11
-0.225
21
1.9278
0
LINE
8
BLACK
10
-0.225
20
1.9278
11
-0.227155
21
1.92818
0
LINE
8
BLACK
10
-0.227155
20
1.92818
11
-0.229341
21
1.92818
0
LINE
8
BLACK
10
-0.229341
20
1.92818
11
-0.231397
21
1.92893
0
LINE
8
BLACK
10
-0.231397
20
1.92893
11
-0.233551
21
1.92931
0
LINE
8
BLACK
10
-0.233551
20
1.92931
11
-0.235444
21
1.9304
0
LINE
8
BLACK
10
-0.235444
20
1.9304
11
-0.2375
21
1.93115
0
LINE
8
BLACK
10
-0.2375
20
1.93115
11
-0.239177
21
1.93256
0
LINE
8
BLACK
10
-0.239177
20
1.93256
11
-0.24107
21
1.93365
0
LINE
8
BLACK
10
-0.24107
20
1.93365
11
-0.242476
21
1.93532
0
LINE
8
BLACK
10
-0.242476
20
1.93532
11
-0.244151
21
1.93673
0
LINE
8
BLACK
10
-0.244151
20
1.93673
11
-0.245244
21
1.93862
0
LINE
8
BLACK
10
-0.245244
20
1.93862
11
-0.246651
21
1.9403
0
LINE
8
BLACK
10
-0.246651
20
1.9403
11
-0.247399
21
1.94236
0
LINE
8
BLACK
10
-0.247399
20
1.94236
11
-0.248492
21
1.94425
0
LINE
8
BLACK
10
-0.248492
20
1.94425
11
-0.248872
21
1.9464
0
LINE
8
BLACK
10
-0.248872
20
1.9464
11
-0.24962
21
1.94846
0
LINE
8
BLACK
10
-0.24962
20
1.94846
11
-0.24962
21
1.95064
0
LINE
8
BLACK
10
-0.24962
20
1.95064
11
-0.25
21
1.9528
0
LINE
8
BLACK
10
-0.25
20
1.9528
11
-0.25
21
3.55977
0
LINE
8
BLACK
10
-0.25
20
3.55977
11
-0.25011
21
3.56089
0
LINE
8
BLACK
10
-0.25011
20
3.56089
11
-0.25123
21
3.561
0
LINE
8
BLACK
10
-0.25123
20
3.561
11
-1.92657
21
3.561
0
LINE
8
BLACK
10
-1.92657
20
3.561
11
-1.92769
21
3.56089
0
LINE
8
BLACK
10
-1.92769
20
3.56089
11
-1.9278
21
3.55977
0
LINE
8
BLACK
10
-1.9278
20
3.55977
11
-1.9278
21
3.2665
0
LINE
8
BLACK
10
-1.9278
20
3.2665
11
-1.92818
21
3.26435
0
LINE
8
BLACK
10
-1.92818
20
3.26435
11
-1.92818
21
3.26216
0
LINE
8
BLACK
10
-1.92818
20
3.26216
11
-1.92893
21
3.2601
0
LINE
8
BLACK
10
-1.92893
20
3.2601
11
-1.92931
21
3.25795
0
LINE
8
BLACK
10
-1.92931
20
3.25795
11
-1.9304
21
3.25606
0
LINE
8
BLACK
10
-1.9304
20
3.25606
11
-1.93115
21
3.254
0
LINE
8
BLACK
10
-1.93115
20
3.254
11
-1.93256
21
3.25232
0
LINE
8
BLACK
10
-1.93256
20
3.25232
11
-1.93365
21
3.25043
0
LINE
8
BLACK
10
-1.93365
20
3.25043
11
-1.93532
21
3.24902
0
LINE
8
BLACK
10
-1.93532
20
3.24902
11
-1.93673
21
3.24735
0
LINE
8
BLACK
10
-1.93673
20
3.24735
11
-1.93862
21
3.24626
0
LINE
8
BLACK
10
-1.93862
20
3.24626
11
-1.9403
21
3.24485
0
LINE
8
BLACK
10
-1.9403
20
3.24485
11
-1.94236
21
3.2441
0
LINE
8
BLACK
10
-1.94236
20
3.2441
11
-1.94425
21
3.24301
0
LINE
8
BLACK
10
-1.94425
20
3.24301
11
-1.9464
21
3.24263
0
LINE
8
BLACK
10
-1.9464
20
3.24263
11
-1.94846
21
3.24188
0
LINE
8
BLACK
10
-1.94846
20
3.24188
11
-1.95064
21
3.24188
0
LINE
8
BLACK
10
-1.95064
20
3.24188
11
-1.9528
21
3.2415
0
LINE
8
BLACK
10
-1.9528
20
3.2415
11
-3.47607
21
3.2415
0
LINE
8
BLACK
10
-3.47607
20
3.2415
11
-3.47719
21
3.24139
0
LINE
8
BLACK
10
-3.47719
20
3.24139
11
-3.4773
21
3.24027
0
LINE
8
BLACK
10
-3.4773
20
3.24027
11
-3.4773
21
0.64623
0
LINE
8
BLACK
10
-3.4773
20
0.64623
11
-3.47719
21
0.64511
0
LINE
8
BLACK
10
-3.47719
20
0.64511
11
-3.47607
21
0.645
0
LINE
8
BLACK
10
-3.47607
20
0.645
11
-3.22853
21
0.645
0
LINE
8
BLACK
10
-3.22853
20
0.645
11
-3.22741
21
0.64511
0
LINE
8
BLACK
10
-3.22741
20
0.64511
11
-3.2273
21
0.64623
0
LINE
8
BLACK
10
-3.2273
20
0.64623
11
-3.2273
21
1.675
0
LINE
8
BLACK
10
-3.2273
20
1.675
11
-3.22692
21
1.67715
0
LINE
8
BLACK
10
-3.22692
20
1.67715
11
-3.22692
21
1.67934
0
LINE
8
BLACK
10
-3.22692
20
1.67934
11
-3.22617
21
1.6814
0
LINE
8
BLACK
10
-3.22617
20
1.6814
11
-3.22579
21
1.68355
0
LINE
8
BLACK
10
-3.22579
20
1.68355
11
-3.2247
21
1.68544
0
LINE
8
BLACK
10
-3.2247
20
1.68544
11
-3.22395
21
1.6875
0
LINE
8
BLACK
10
-3.22395
20
1.6875
11
-3.22254
21
1.68918
0
LINE
8
BLACK
10
-3.22254
20
1.68918
11
-3.22145
21
1.69107
0
LINE
8
BLACK
10
-3.22145
20
1.69107
11
-3.21978
21
1.69248
0
LINE
8
BLACK
10
-3.21978
20
1.69248
11
-3.21837
21
1.69415
0
LINE
8
BLACK
10
-3.21837
20
1.69415
11
-3.21648
21
1.69524
0
LINE
8
BLACK
10
-3.21648
20
1.69524
11
-3.2148
21
1.69665
0
LINE
8
BLACK
10
-3.2148
20
1.69665
11
-3.21274
21
1.6974
0
LINE
8
BLACK
10
-3.21274
20
1.6974
11
-3.21085
21
1.69849
0
LINE
8
BLACK
10
-3.21085
20
1.69849
11
-3.2087
21
1.69887
0
LINE
8
BLACK
10
-3.2087
20
1.69887
11
-3.20664
21
1.69962
0
LINE
8
BLACK
10
-3.20664
20
1.69962
11
-3.20445
21
1.69962
0
LINE
8
BLACK
10
-3.20445
20
1.69962
11
-3.2023
21
1.7
0
LINE
8
BLACK
10
-3.2023
20
1.7
11
-1.7522
21
1.7
0
LINE
8
BLACK
10
-1.7522
20
1.7
11
-1.75004
21
1.69962
0
LINE
8
BLACK
10
-1.75004
20
1.69962
11
-1.74786
21
1.69962
0
LINE
8
BLACK
10
-1.74786
20
1.69962
11
-1.7458
21
1.69887
0
LINE
8
BLACK
10
-1.7458
20
1.69887
11
-1.74365
21
1.69849
0
LINE
8
BLACK
10
-1.74365
20
1.69849
11
-1.74176
21
1.6974
0
LINE
8
BLACK
10
-1.74176
20
1.6974
11
-1.7397
21
1.69665
0
LINE
8
BLACK
10
-1.7397
20
1.69665
11
-1.73802
21
1.69524
0
LINE
8
BLACK
10
-1.73802
20
1.69524
11
-1.73613
21
1.69415
0
LINE
8
BLACK
10
-1.73613
20
1.69415
11
-1.73472
21
1.69248
0
LINE
8
BLACK
10
-1.73472
20
1.69248
11
-1.73305
21
1.69107
0
LINE
8
BLACK
10
-1.73305
20
1.69107
11
-1.73196
21
1.68918
0
LINE
8
BLACK
10
-1.73196
20
1.68918
11
-1.73055
21
1.6875
0
LINE
8
BLACK
10
-1.73055
20
1.6875
11
-1.7298
21
1.68544
0
LINE
8
BLACK
10
-1.7298
20
1.68544
11
-1.72871
21
1.68355
0
LINE
8
BLACK
10
-1.72871
20
1.68355
11
-1.72833
21
1.6814
0
LINE
8
BLACK
10
-1.72833
20
1.6814
11
-1.72758
21
1.67934
0
LINE
8
BLACK
10
-1.72758
20
1.67934
11
-1.72758
21
1.67715
0
LINE
8
BLACK
10
-1.72758
20
1.67715
11
-1.7272
21
1.675
0
LINE
8
BLACK
10
-1.7272
20
1.675
11
-1.7272
21
-1.44
0
LINE
8
BLACK
10
-1.7272
20
-1.44
11
-1.72758
21
-1.44215
0
LINE
8
BLACK
10
-1.72758
20
-1.44215
11
-1.72758
21
-1.44434
0
LINE
8
BLACK
10
-1.72758
20
-1.44434
11
-1.72833
21
-1.4464
0
LINE
8
BLACK
10
-1.72833
20
-1.4464
11
-1.72871
21
-1.44855
0
LINE
8
BLACK
10
-1.72871
20
-1.44855
11
-1.7298
21
-1.45044
0
LINE
8
BLACK
10
-1.7298
20
-1.45044
11
-1.73055
21
-1.4525
0
LINE
8
BLACK
10
-1.73055
20
-1.4525
11
-1.73196
21
-1.45418
0
LINE
8
BLACK
10
-1.73196
20
-1.45418
11
-1.73305
21
-1.45607
0
LINE
8
BLACK
10
-1.73305
20
-1.45607
11
-1.73472
21
-1.45748
0
LINE
8
BLACK
10
-1.73472
20
-1.45748
11
-1.73613
21
-1.45915
0
LINE
8
BLACK
10
-1.73613
20
-1.45915
11
-1.73802
21
-1.46024
0
LINE
8
BLACK
10
-1.73802
20
-1.46024
11
-1.7397
21
-1.46165
0
LINE
8
BLACK
10
-1.7397
20
-1.46165
11
-1.74176
21
-1.4624
0
LINE
8
BLACK
10
-1.74176
20
-1.4624
11
-1.74365
21
-1.46349
0
LINE
8
BLACK
10
-1.74365
20
-1.46349
11
-1.7458
21
-1.46387
0
LINE
8
BLACK
10
-1.7458
20
-1.46387
11
-1.74786
21
-1.46462
0
LINE
8
BLACK
10
-1.74786
20
-1.46462
11
-1.75004
21
-1.46462
0
LINE
8
BLACK
10
-1.75004
20
-1.46462
11
-1.7522
21
-1.465
0
LINE
8
BLACK
10
-1.7522
20
-1.465
11
-5.7022
21
-1.465
0
LINE
8
BLACK
10
-5.7022
20
-1.465
11
-5.70435
21
-1.46462
0
LINE
8
BLACK
10
-5.70435
20
-1.46462
11
-5.70654
21
-1.46462
0
LINE
8
BLACK
10
-5.70654
20
-1.46462
11
-5.7086
21
-1.46387
0
LINE
8
BLACK
10
-5.7086
20
-1.46387
11
-5.71075
21
-1.46349
0
LINE
8
BLACK
10
-5.71075
20
-1.46349
11
-5.71264
21
-1.4624
0
LINE
8
BLACK
10
-5.71264
20
-1.4624
11
-5.7147
21
-1.46165
0
LINE
8
BLACK
10
-5.7147
20
-1.46165
11
-5.71638
21
-1.46024
0
LINE
8
BLACK
10
-5.71638
20
-1.46024
11
-5.71827
21
-1.45915
0
LINE
8
BLACK
10
-5.71827
20
-1.45915
11
-5.71968
21
-1.45748
0
LINE
8
BLACK
10
-5.71968
20
-1.45748
11
-5.72135
21
-1.45607
0
LINE
8
BLACK
10
-5.72135
20
-1.45607
11
-5.72244
21
-1.45418
0
LINE
8
BLACK
10
-5.72244
20
-1.45418
11
-5.72385
21
-1.4525
0
LINE
8
BLACK
10
-5.72385
20
-1.4525
11
-5.7246
21
-1.45044
0
LINE
8
BLACK
10
-5.7246
20
-1.45044
11
-5.72569
21
-1.44855
0
LINE
8
BLACK
10
-5.72569
20
-1.44855
11
-5.72607
21
-1.4464
0
LINE
8
BLACK
10
-5.72607
20
-1.4464
11
-5.72682
21
-1.44434
0
LINE
8
BLACK
10
-5.72682
20
-1.44434
11
-5.72682
21
-1.44215
0
LINE
8
BLACK
10
-5.72682
20
-1.44215
11
-5.7272
21
-1.44
0
LINE
8
BLACK
10
-5.7272
20
-1.44
11
-5.7272
21
1.675
0
LINE
8
BLACK
10
-5.7272
20
1.675
11
-5.72682
21
1.67715
0
LINE
8
BLACK
10
-5.72682
20
1.67715
11
-5.72682
21
1.67934
0
LINE
8
BLACK
10
-5.72682
20
1.67934
11
-5.72607
21
1.6814
0
LINE
8
BLACK
10
-5.72607
20
1.6814
11
-5.72569
21
1.68355
0
LINE
8
BLACK
10
-5.72569
20
1.68355
11
-5.7246
21
1.68544
0
LINE
8
BLACK
10
-5.7246
20
1.68544
11
-5.72385
21
1.6875
0
LINE
8
BLACK
10
-5.72385
20
1.6875
11
-5.72244
21
1.68918
0
LINE
8
BLACK
10
-5.72244
20
1.68918
11
-5.72135
21
1.69107
0
LINE
8
BLACK
10
-5.72135
20
1.69107
11
-5.71968
21
1.69248
0
LINE
8
BLACK
10
-5.71968
20
1.69248
11
-5.71827
21
1.69415
0
LINE
8
BLACK
10
-5.71827
20
1.69415
11
-5.71638
21
1.69524
0
LINE
8
BLACK
10
-5.71638
20
1.69524
11
-5.7147
21
1.69665
0
LINE
8
BLACK
10
-5.7147
20
1.69665
11
-5.71264
21
1.6974
0
LINE
8
BLACK
10
-5.71264
20
1.6974
11
-5.71075
21
1.69849
0
LINE
8
BLACK
10
-5.71075
20
1.69849
11
-5.7086
21
1.69887
0
LINE
8
BLACK
10
-5.7086
20
1.69887
11
-5.70654
21
1.69962
0
LINE
8
BLACK
10
-5.70654
20
1.69962
11
-5.70435
21
1.69962
0
LINE
8
BLACK
10
-5.70435
20
1.69962
11
-5.7022
21
1.7
0
LINE
8
BLACK
10
-5.7022
20
1.7
11
-4.2522
21
1.7
0
LINE
8
BLACK
10
-4.2522
20
1.7
11
-4.25005
21
1.69962
0
LINE
8
BLACK
10
-4.25005
20
1.69962
11
-4.24786
21
1.69962
0
LINE
8
BLACK
10
-4.24786
20
1.69962
11
-4.2458
21
1.69887
0
LINE
8
BLACK
10
-4.2458
20
1.69887
11
-4.24365
21
1.69849
0
LINE
8
BLACK
10
-4.24365
20
1.69849
11
-4.24176
21
1.6974
0
LINE
8
BLACK
10
-4.24176
20
1.6974
11
-4.2397
21
1.69665
0
LINE
8
BLACK
10
-4.2397
20
1.69665
11
-4.23802
21
1.69524
0
LINE
8
BLACK
10
-4.23802
20
1.69524
11
-4.23613
21
1.69415
0
LINE
8
BLACK
10
-4.23613
20
1.69415
11
-4.23472
21
1.69248
0
LINE
8
BLACK
10
-4.23472
20
1.69248
11
-4.23305
21
1.69107
0
LINE
8
BLACK
10
-4.23305
20
1.69107
11
-4.23196
21
1.68918
0
LINE
8
BLACK
10
-4.23196
20
1.68918
11
-4.23055
21
1.6875
0
LINE
8
BLACK
10
-4.23055
20
1.6875
11
-4.2298
21
1.68544
0
LINE
8
BLACK
10
-4.2298
20
1.68544
11
-4.22871
21
1.68355
0
LINE
8
BLACK
10
-4.22871
20
1.68355
11
-4.22833
21
1.6814
0
LINE
8
BLACK
10
-4.22833
20
1.6814
11
-4.22758
21
1.67934
0
LINE
8
BLACK
10
-4.22758
20
1.67934
11
-4.22758
21
1.67715
0
LINE
8
BLACK
10
-4.22758
20
1.67715
11
-4.2272
21
1.675
0
LINE
8
BLACK
10
-4.2272
20
1.675
11
-4.2272
21
0.64623
0
LINE
8
BLACK
10
-4.2272
20
0.64623
11
-4.22709
21
0.64511
0
LINE
8
BLACK
10
-4.22709
20
0.64511
11
-4.22597
21
0.645
0
LINE
8
BLACK
10
-4.22597
20
0.645
11
-3.97843
21
0.645
0
LINE
8
BLACK
10
-3.97843
20
0.645
11
-3.97731
21
0.64511
0
LINE
8
BLACK
10
-3.97731
20
0.64511
11
-3.9772
21
0.64623
0
LINE
8
BLACK
10
-3.9772
20
0.64623
11
-3.9772
21
3.44877
0
LINE
8
BLACK
10
-3.9772
20
3.44877
11
-3.97731
21
3.44989
0
LINE
8
BLACK
10
-3.97731
20
3.44989
11
-3.97843
21
3.45
0
LINE
8
BLACK
10
-3.97843
20
3.45
11
-10.906
21
3.45
0
LINE
8
BLACK
10
-10.906
20
3.45
11
-10.9071
21
3.44989
0
LINE
8
BLACK
10
-10.9071
20
3.44989
11
-10.9072
21
3.44877
0
LINE
8
BLACK
10
-10.9072
20
3.44877
11
-10.9072
21
0.64623
0
LINE
8
BLACK
10
-10.9072
20
0.64623
11
-10.9071
21
0.64511
0
LINE
8
BLACK
10
-10.9071
20
0.64511
11
-10.906
21
0.645
0
LINE
8
BLACK
10
-10.906
20
0.645
11
-10.6584
21
0.645
0
LINE
8
BLACK
10
-10.6584
20
0.645
11
-10.6573
21
0.64511
0
LINE
8
BLACK
10
-10.6573
20
0.64511
11
-10.6572
21
0.64623
0
LINE
8
BLACK
10
-10.6572
20
0.64623
11
-10.6572
21
1.675
0
LINE
8
BLACK
10
-10.6572
20
1.675
11
-10.6568
21
1.67715
0
LINE
8
BLACK
10
-10.6568
20
1.67715
11
-10.6568
21
1.67934
0
LINE
8
BLACK
10
-10.6568
20
1.67934
11
-10.6561
21
1.6814
0
LINE
8
BLACK
10
-10.6561
20
1.6814
11
-10.6557
21
1.68355
0
LINE
8
BLACK
10
-10.6557
20
1.68355
11
-10.6546
21
1.68544
0
LINE
8
BLACK
10
-10.6546
20
1.68544
11
-10.6539
21
1.6875
0
LINE
8
BLACK
10
-10.6539
20
1.6875
11
-10.6524
21
1.68918
0
LINE
8
BLACK
10
-10.6524
20
1.68918
11
-10.6514
21
1.69107
0
LINE
8
BLACK
10
-10.6514
20
1.69107
11
-10.6497
21
1.69248
0
LINE
8
BLACK
10
-10.6497
20
1.69248
11
-10.6483
21
1.69415
0
LINE
8
BLACK
10
-10.6483
20
1.69415
11
-10.6464
21
1.69524
0
LINE
8
BLACK
10
-10.6464
20
1.69524
11
-10.6447
21
1.69665
0
LINE
8
BLACK
10
-10.6447
20
1.69665
11
-10.6426
21
1.6974
0
LINE
8
BLACK
10
-10.6426
20
1.6974
11
-10.6408
21
1.69849
0
LINE
8
BLACK
10
-10.6408
20
1.69849
11
-10.6386
21
1.69887
0
LINE
8
BLACK
10
-10.6386
20
1.69887
11
-10.6365
21
1.69962
0
LINE
8
BLACK
10
-10.6365
20
1.69962
11
-10.6344
21
1.69962
0
LINE
8
BLACK
10
-10.6344
20
1.69962
11
-10.6322
21
1.7
0
LINE
8
BLACK
10
-10.6322
20
1.7
11
-9.1823
21
1.7
0
LINE
8
BLACK
10
-9.1823
20
1.7
11
-9.18014
21
1.69962
0
LINE
8
BLACK
10
-9.18014
20
1.69962
11
-9.17796
21
1.69962
0
LINE
8
BLACK
10
-9.17796
20
1.69962
11
-9.1759
21
1.69887
0
LINE
8
BLACK
10
-9.1759
20
1.69887
11
-9.17375
21
1.69849
0
LINE
8
BLACK
10
-9.17375
20
1.69849
11
-9.17186
21
1.6974
0
LINE
8
BLACK
10
-9.17186
20
1.6974
11
-9.1698
21
1.69665
0
LINE
8
BLACK
10
-9.1698
20
1.69665
11
-9.16812
21
1.69524
0
LINE
8
BLACK
10
-9.16812
20
1.69524
11
-9.16623
21
1.69415
0
LINE
8
BLACK
10
-9.16623
20
1.69415
11
-9.16482
21
1.69248
0
LINE
8
BLACK
10
-9.16482
20
1.69248
11
-9.16315
21
1.69107
0
LINE
8
BLACK
10
-9.16315
20
1.69107
11
-9.16206
21
1.68918
0
LINE
8
BLACK
10
-9.16206
20
1.68918
11
-9.16065
21
1.6875
0
LINE
8
BLACK
10
-9.16065
20
1.6875
11
-9.1599
21
1.68544
0
LINE
8
BLACK
10
-9.1599
20
1.68544
11
-9.15881
21
1.68355
0
LINE
8
BLACK
10
-9.15881
20
1.68355
11
-9.15843
21
1.6814
0
LINE
8
BLACK
10
-9.15843
20
1.6814
11
-9.15768
21
1.67934
0
LINE
8
BLACK
10
-9.15768
20
1.67934
11
-9.15768
21
1.67715
0
LINE
8
BLACK
10
-9.15768
20
1.67715
11
-9.1573
21
1.675
0
LINE
8
BLACK
10
-9.1573
20
1.675
11
-9.1573
21
-1.44
0
LINE
8
BLACK
10
-9.1573
20
-1.44
11
-9.15768
21
-1.44215
0
LINE
8
BLACK
10
-9.15768
20
-1.44215
11
-9.15768
21
-1.44434
0
LINE
8
BLACK
10
-9.15768
20
-1.44434
11
-9.15843
21
-1.4464
0
LINE
8
BLACK
10
-9.15843
20
-1.4464
11
-9.15881
21
-1.44855
0
LINE
8
BLACK
10
-9.15881
20
-1.44855
11
-9.1599
21
-1.45044
0
LINE
8
BLACK
10
-9.1599
20
-1.45044
11
-9.16065
21
-1.4525
0
LINE
8
BLACK
10
-9.16065
20
-1.4525
11
-9.16206
21
-1.45418
0
LINE
8
BLACK
10
-9.16206
20
-1.45418
11
-9.16315
21
-1.45607
0
LINE
8
BLACK
10
-9.16315
20
-1.45607
11
-9.16482
21
-1.45748
0
LINE
8
BLACK
10
-9.16482
20
-1.45748
11
-9.16623
21
-1.45915
0
LINE
8
BLACK
10
-9.16623
20
-1.45915
11
-9.16812
21
-1.46024
0
LINE
8
BLACK
10
-9.16812
20
-1.46024
11
-9.1698
21
-1.46165
0
LINE
8
BLACK
10
-9.1698
20
-1.46165
11
-9.17186
21
-1.4624
0
LINE
8
BLACK
10
-9.17186
20
-1.4624
11
-9.17375
21
-1.46349
0
LINE
8
BLACK
10
-9.17375
20
-1.46349
11
-9.1759
21
-1.46387
0
LINE
8
BLACK
10
-9.1759
20
-1.46387
11
-9.17796
21
-1.46462
0
LINE
8
BLACK
10
-9.17796
20
-1.46462
11
-9.18014
21
-1.46462
0
LINE
8
BLACK
10
-9.18014
20
-1.46462
11
-9.1823
21
-1.465
0
LINE
8
BLACK
10
-9.1823
20
-1.465
11
-13.1323
21
-1.465
0
LINE
8
BLACK
10
-13.1323
20
-1.465
11
-13.1345
21
-1.46462
0
LINE
8
BLACK
10
-13.1345
20
-1.46462
11
-13.1366
21
-1.46462
0
LINE
8
BLACK
10
-13.1366
20
-1.46462
11
-13.1387
21
-1.46387
0
LINE
8
BLACK
10
-13.1387
20
-1.46387
11
-13.1409
21
-1.46349
0
LINE
8
BLACK
10
-13.1409
20
-1.46349
11
-13.1427
21
-1.4624
0
LINE
8
BLACK
10
-13.1427
20
-1.4624
11
-13.1448
21
-1.46165
0
LINE
8
BLACK
10
-13.1448
20
-1.46165
11
-13.1465
21
-1.46024
0
LINE
8
BLACK
10
-13.1465
20
-1.46024
11
-13.1484
21
-1.45915
0
LINE
8
BLACK
10
-13.1484
20
-1.45915
11
-13.1498
21
-1.45748
0
LINE
8
BLACK
10
-13.1498
20
-1.45748
11
-13.1515
21
-1.45607
0
LINE
8
BLACK
10
-13.1515
20
-1.45607
11
-13.1525
21
-1.45418
0
LINE
8
BLACK
10
-13.1525
20
-1.45418
11
-13.154
21
-1.4525
0
LINE
8
BLACK
10
-13.154
20
-1.4525
11
-13.1547
21
-1.45044
0
LINE
8
BLACK
10
-13.1547
20
-1.45044
11
-13.1558
21
-1.44855
0
LINE
8
BLACK
10
-13.1558
20
-1.44855
11
-13.1562
21
-1.4464
0
LINE
8
BLACK
10
-13.1562
20
-1.4464
11
-13.1569
21
-1.44434
0
LINE
8
BLACK
10
-13.1569
20
-1.44434
11
-13.1569
21
-1.44215
0
LINE
8
BLACK
10
-13.1569
20
-1.44215
11
-13.1573
21
-1.44
0
LINE
8
BLACK
10
-13.1573
20
-1.44
11
-13.1573
21
1.675
0
LINE
8
BLACK
10
-13.1573
20
1.675
11
-13.1569
21
1.67715
0
LINE
8
BLACK
10
-13.1569
20
1.67715
11
-13.1569
21
1.67934
0
LINE
8
BLACK
10
-13.1569
20
1.67934
11
-13.1562
21
1.6814
0
LINE
8
BLACK
10
-13.1562
20
1.6814
11
-13.1558
21
1.68355
0
LINE
8
BLACK
10
-13.1558
20
1.68355
11
-13.1547
21
1.68544
0
LINE
8
BLACK
10
-13.1547
20
1.68544
11
-13.154
21
1.6875
0
LINE
8
BLACK
10
-13.154
20
1.6875
11
-13.1525
21
1.68918
0
LINE
8
BLACK
10
-13.1525
20
1.68918
11
-13.1515
21
1.69107
0
LINE
8
BLACK
10
-13.1515
20
1.69107
11
-13.1498
21
1.69248
0
LINE
8
BLACK
10
-13.1498
20
1.69248
11
-13.1484
21
1.69415
0
LINE
8
BLACK
10
-13.1484
20
1.69415
11
-13.1465
21
1.69524
0
LINE
8
BLACK
10
-13.1465
20
1.69524
11
-13.1448
21
1.69665
0
LINE
8
BLACK
10
-13.1448
20
1.69665
11
-13.1427
21
1.6974
0
LINE
8
BLACK
10
-13.1427
20
1.6974
11
-13.1409
21
1.69849
0
LINE
8
BLACK
10
-13.1409
20
1.69849
11
-13.1387
21
1.69887
0
LINE
8
BLACK
10
-13.1387
20
1.69887
11
-13.1366
21
1.69962
0
LINE
8
BLACK
10
-13.1366
20
1.69962
11
-13.1345
21
1.69962
0
LINE
8
BLACK
10
-13.1345
20
1.69962
11
-13.1323
21
1.7
0
LINE
8
BLACK
10
-13.1323
20
1.7
11
-11.6823
21
1.7
0
LINE
8
BLACK
10
-11.6823
20
1.7
11
-11.6801
21
1.69962
0
LINE
8
BLACK
10
-11.6801
20
1.69962
11
-11.678
21
1.69962
0
LINE
8
BLACK
10
-11.678
20
1.69962
11
-11.6759
21
1.69887
0
LINE
8
BLACK
10
-11.6759
20
1.69887
11
-11.6737
21
1.69849
0
LINE
8
BLACK
10
-11.6737
20
1.69849
11
-11.6719
21
1.6974
0
LINE
8
BLACK
10
-11.6719
20
1.6974
11
-11.6698
21
1.69665
0
LINE
8
BLACK
10
-11.6698
20
1.69665
11
-11.6681
21
1.69524
0
LINE
8
BLACK
10
-11.6681
20
1.69524
11
-11.6662
21
1.69415
0
LINE
8
BLACK
10
-11.6662
20
1.69415
11
-11.6648
21
1.69248
0
LINE
8
BLACK
10
-11.6648
20
1.69248
11
-11.6631
21
1.69107
0
LINE
8
BLACK
10
-11.6631
20
1.69107
11
-11.6621
21
1.68918
0
LINE
8
BLACK
10
-11.6621
20
1.68918
11
-11.6606
21
1.6875
0
LINE
8
BLACK
10
-11.6606
20
1.6875
11
-11.6599
21
1.68544
0
LINE
8
BLACK
10
-11.6599
20
1.68544
11
-11.6588
21
1.68355
0
LINE
8
BLACK
10
-11.6588
20
1.68355
11
-11.6584
21
1.6814
0
LINE
8
BLACK
10
-11.6584
20
1.6814
11
-11.6577
21
1.67934
0
LINE
8
BLACK
10
-11.6577
20
1.67934
11
-11.6577
21
1.67715
0
LINE
8
BLACK
10
-11.6577
20
1.67715
11
-11.6573
21
1.675
0
LINE
8
BLACK
10
-11.6573
20
1.675
11
-11.6573
21
0.64623
0
LINE
8
BLACK
10
-11.6573
20
0.64623
11
-11.6572
21
0.64511
0
LINE
8
BLACK
10
-11.6572
20
0.64511
11
-11.6561
21
0.645
0
LINE
8
BLACK
10
-11.6561
20
0.645
11
-11.4085
21
0.645
0
LINE
8
BLACK
10
-11.4085
20
0.645
11
-11.4074
21
0.64511
0
LINE
8
BLACK
10
-11.4074
20
0.64511
11
-11.4073
21
0.64623
0
LINE
8
BLACK
10
-11.4073
20
0.64623
11
-11.4073
21
3.48714
0
LINE
8
BLACK
10
-11.4073
20
3.48714
11
-11.4071
21
3.48823
0
LINE
8
BLACK
10
-11.4071
20
3.48823
11
-11.4072
21
3.48932
0
LINE
8
BLACK
10
-11.4072
20
3.48932
11
-11.4064
21
3.49248
0
LINE
8
BLACK
10
-11.4064
20
3.49248
11
-11.4058
21
3.49569
0
LINE
8
BLACK
10
-11.4058
20
3.49569
11
-11.4052
21
3.49665
0
LINE
8
BLACK
10
-11.4052
20
3.49665
11
-11.405
21
3.49771
0
LINE
8
BLACK
10
-11.405
20
3.49771
11
-11.4031
21
3.50039
0
LINE
8
BLACK
10
-11.4031
20
3.50039
11
-11.4015
21
3.50321
0
LINE
8
BLACK
10
-11.4015
20
3.50321
11
-11.4006
21
3.50392
0
LINE
8
BLACK
10
-11.4006
20
3.50392
11
-11.4
21
3.50482
0
LINE
8
BLACK
10
-11.4
20
3.50482
11
-10.9621
21
3.94268
0
LINE
8
BLACK
10
-10.9621
20
3.94268
11
-10.9612
21
3.94331
0
LINE
8
BLACK
10
-10.9612
20
3.94331
11
-10.9605
21
3.94415
0
LINE
8
BLACK
10
-10.9605
20
3.94415
11
-10.9577
21
3.94578
0
LINE
8
BLACK
10
-10.9577
20
3.94578
11
-10.955
21
3.94766
0
LINE
8
BLACK
10
-10.955
20
3.94766
11
-10.9539
21
3.94794
0
LINE
8
BLACK
10
-10.9539
20
3.94794
11
-10.953
21
3.94849
0
LINE
8
BLACK
10
-10.953
20
3.94849
11
-10.9498
21
3.94906
0
LINE
8
BLACK
10
-10.9498
20
3.94906
11
-10.9466
21
3.9499
0
LINE
8
BLACK
10
-10.9466
20
3.9499
11
-10.9455
21
3.94981
0
LINE
8
BLACK
10
-10.9455
20
3.94981
11
-10.9444
21
3.95
0
LINE
8
BLACK
10
-10.9444
20
3.95
11
-3.72853
21
3.95
0
LINE
8
BLACK
10
-3.72853
20
3.95
11
-3.72741
21
3.95011
0
LINE
8
BLACK
10
-3.72741
20
3.95011
11
-3.7273
21
3.95123
0
LINE
8
BLACK
10
-3.7273
20
3.95123
11
-3.7273
21
4.1335
0
LINE
8
BLACK
10
-3.7273
20
4.1335
11
-3.72692
21
4.13565
0
LINE
8
BLACK
10
-3.72692
20
4.13565
11
-3.72692
21
4.13784
0
LINE
8
BLACK
10
-3.72692
20
4.13784
11
-3.72617
21
4.1399
0
LINE
8
BLACK
10
-3.72617
20
4.1399
11
-3.72579
21
4.14205
0
LINE
8
BLACK
10
-3.72579
20
4.14205
11
-3.7247
21
4.14394
0
LINE
8
BLACK
10
-3.7247
20
4.14394
11
-3.72395
21
4.146
0
LINE
8
BLACK
10
-3.72395
20
4.146
11
-3.72254
21
4.14768
0
LINE
8
BLACK
10
-3.72254
20
4.14768
11
-3.72145
21
4.14957
0
LINE
8
BLACK
10
-3.72145
20
4.14957
11
-3.71978
21
4.15098
0
LINE
8
BLACK
10
-3.71978
20
4.15098
11
-3.71837
21
4.15265
0
LINE
8
BLACK
10
-3.71837
20
4.15265
11
-3.71648
21
4.15374
0
LINE
8
BLACK
10
-3.71648
20
4.15374
11
-3.7148
21
4.15515
0
LINE
8
BLACK
10
-3.7148
20
4.15515
11
-3.71274
21
4.1559
0
LINE
8
BLACK
10
-3.71274
20
4.1559
11
-3.71085
21
4.15699
0
LINE
8
BLACK
10
-3.71085
20
4.15699
11
-3.7087
21
4.15737
0
LINE
8
BLACK
10
-3.7087
20
4.15737
11
-3.70664
21
4.15812
0
LINE
8
BLACK
10
-3.70664
20
4.15812
11
-3.70445
21
4.15812
0
LINE
8
BLACK
10
-3.70445
20
4.15812
11
-3.7023
21
4.1585
0
LINE
8
BLACK
10
-3.7023
20
4.1585
11
-1.9528
21
4.1585
0
LINE
8
BLACK
10
-1.9528
20
4.1585
11
-1.95064
21
4.15812
  0
ENDSEC
  0
EOF
