  0
SECTION
  2
HEADER
  9
$ANGBASE
  50
0.0
  9
$ANGDIR
  70
  1
  9
$MEASUREMENT
  70
0
  0
ENDSEC
  0
SECTION
  2
TABLES
  0
TABLE
  2
LTYPE
  70
1
  0
LTYPE
  2
CONTINUOUS
  70
0
  3
Solid line
  72
65
  73
0
  40
0.0
  0
ENDTAB
  0
TABLE
  2
STYLE
  70
4
  0
STYLE
  2
KICAD
  70
0
  40
0
  41
1
  42
1
  50
0
  71
0
  3
isocp.shx
  0
STYLE
  2
KICADB
  70
0
  40
0
  41
1
  42
1
  50
0
  71
0
  3
isocp.shx
  0
STYLE
  2
KICADI
  70
0
  40
0
  41
1
  42
1
  50
15
  71
0
  3
isocp.shx
  0
STYLE
  2
KICADBI
  70
0
  40
0
  41
1
  42
1
  50
15
  71
0
  3
isocp.shx
  0
ENDTAB
  0
TABLE
  2
LAYER
  70
30
  0
LAYER
  2
BLACK
  70
0
  62
7
  6
CONTINUOUS
  0
LAYER
  2
GRAY1
  70
0
  62
251
  6
CONTINUOUS
  0
LAYER
  2
GRAY2
  70
0
  62
8
  6
CONTINUOUS
  0
LAYER
  2
GRAY3
  70
0
  62
9
  6
CONTINUOUS
  0
LAYER
  2
WHITE
  70
0
  62
7
  6
CONTINUOUS
  0
LAYER
  2
LYELLOW
  70
0
  62
51
  6
CONTINUOUS
  0
LAYER
  2
BLUE1
  70
0
  62
178
  6
CONTINUOUS
  0
LAYER
  2
GREEN1
  70
0
  62
98
  6
CONTINUOUS
  0
LAYER
  2
CYAN1
  70
0
  62
138
  6
CONTINUOUS
  0
LAYER
  2
RED1
  70
0
  62
18
  6
CONTINUOUS
  0
LAYER
  2
MAGENTA1
  70
0
  62
228
  6
CONTINUOUS
  0
LAYER
  2
BROWN1
  70
0
  62
58
  6
CONTINUOUS
  0
LAYER
  2
BLUE2
  70
0
  62
5
  6
CONTINUOUS
  0
LAYER
  2
GREEN2
  70
0
  62
3
  6
CONTINUOUS
  0
LAYER
  2
CYAN2
  70
0
  62
4
  6
CONTINUOUS
  0
LAYER
  2
RED2
  70
0
  62
1
  6
CONTINUOUS
  0
LAYER
  2
MAGENTA2
  70
0
  62
6
  6
CONTINUOUS
  0
LAYER
  2
BROWN2
  70
0
  62
54
  6
CONTINUOUS
  0
LAYER
  2
BLUE3
  70
0
  62
171
  6
CONTINUOUS
  0
LAYER
  2
GREEN3
  70
0
  62
91
  6
CONTINUOUS
  0
LAYER
  2
CYAN3
  70
0
  62
131
  6
CONTINUOUS
  0
LAYER
  2
RED3
  70
0
  62
11
  6
CONTINUOUS
  0
LAYER
  2
MAGENTA3
  70
0
  62
221
  6
CONTINUOUS
  0
LAYER
  2
YELLOW3
  70
0
  62
2
  6
CONTINUOUS
  0
LAYER
  2
BLUE4
  70
0
  62
5
  6
CONTINUOUS
  0
LAYER
  2
GREEN4
  70
0
  62
3
  6
CONTINUOUS
  0
LAYER
  2
CYAN4
  70
0
  62
4
  6
CONTINUOUS
  0
LAYER
  2
RED4
  70
0
  62
1
  6
CONTINUOUS
  0
LAYER
  2
MAGENTA4
  70
0
  62
6
  6
CONTINUOUS
  0
LAYER
  2
YELLOW4
  70
0
  62
2
  6
CONTINUOUS
  0
ENDTAB
  0
ENDSEC
  0
SECTION
  2
ENTITIES
0
LINE
8
BLACK
10
-1.95064
20
0.45812
11
-1.94846
21
0.45812
0
LINE
8
BLACK
10
-1.94846
20
0.45812
11
-1.9464
21
0.457372
0
LINE
8
BLACK
10
-1.9464
20
0.457372
11
-1.94425
21
0.456992
0
LINE
8
BLACK
10
-1.94425
20
0.456992
11
-1.94236
21
0.455899
0
LINE
8
BLACK
10
-1.94236
20
0.455899
11
-1.9403
21
0.455151
0
LINE
8
BLACK
10
-1.9403
20
0.455151
11
-1.93862
21
0.453744
0
LINE
8
BLACK
10
-1.93862
20
0.453744
11
-1.93673
21
0.452651
0
LINE
8
BLACK
10
-1.93673
20
0.452651
11
-1.93532
21
0.450976
0
LINE
8
BLACK
10
-1.93532
20
0.450976
11
-1.93365
21
0.44957
0
LINE
8
BLACK
10
-1.93365
20
0.44957
11
-1.93256
21
0.447677
0
LINE
8
BLACK
10
-1.93256
20
0.447677
11
-1.93115
21
0.446
0
LINE
8
BLACK
10
-1.93115
20
0.446
11
-1.9304
21
0.443944
0
LINE
8
BLACK
10
-1.9304
20
0.443944
11
-1.92931
21
0.442051
0
LINE
8
BLACK
10
-1.92931
20
0.442051
11
-1.92893
21
0.439897
0
LINE
8
BLACK
10
-1.92893
20
0.439897
11
-1.92818
21
0.437841
0
LINE
8
BLACK
10
-1.92818
20
0.437841
11
-1.92818
21
0.435655
0
LINE
8
BLACK
10
-1.92818
20
0.435655
11
-1.9278
21
0.4335
0
LINE
8
BLACK
10
-1.9278
20
0.4335
11
-1.9278
21
0.14023
0
LINE
8
BLACK
10
-1.9278
20
0.14023
11
-1.92769
21
0.13911
0
LINE
8
BLACK
10
-1.92769
20
0.13911
11
-1.92657
21
0.139
0
LINE
8
BLACK
10
-1.92657
20
0.139
11
1.92657
21
0.139
0
LINE
8
BLACK
10
1.92657
20
0.139
11
1.92769
21
0.13911
0
LINE
8
BLACK
10
1.92769
20
0.13911
11
1.9278
21
0.14023
0
LINE
8
BLACK
10
1.9278
20
0.14023
11
1.9278
21
0.4335
0
LINE
8
BLACK
10
1.9278
20
0.4335
11
1.92818
21
0.435655
0
LINE
8
BLACK
10
1.92818
20
0.435655
11
1.92818
21
0.437841
0
LINE
8
BLACK
10
1.92818
20
0.437841
11
1.92893
21
0.439897
0
LINE
8
BLACK
10
1.92893
20
0.439897
11
1.92931
21
0.442051
0
LINE
8
BLACK
10
1.92931
20
0.442051
11
1.9304
21
0.443944
0
LINE
8
BLACK
10
1.9304
20
0.443944
11
1.93115
21
0.446
0
LINE
8
BLACK
10
1.93115
20
0.446
11
1.93256
21
0.447677
0
LINE
8
BLACK
10
1.93256
20
0.447677
11
1.93365
21
0.44957
0
LINE
8
BLACK
10
1.93365
20
0.44957
11
1.93532
21
0.450976
0
LINE
8
BLACK
10
1.93532
20
0.450976
11
1.93673
21
0.452651
0
LINE
8
BLACK
10
1.93673
20
0.452651
11
1.93862
21
0.453744
0
LINE
8
BLACK
10
1.93862
20
0.453744
11
1.9403
21
0.455151
0
LINE
8
BLACK
10
1.9403
20
0.455151
11
1.94236
21
0.455899
0
LINE
8
BLACK
10
1.94236
20
0.455899
11
1.94425
21
0.456992
0
LINE
8
BLACK
10
1.94425
20
0.456992
11
1.9464
21
0.457372
0
LINE
8
BLACK
10
1.9464
20
0.457372
11
1.94846
21
0.45812
0
LINE
8
BLACK
10
1.94846
20
0.45812
11
1.95064
21
0.45812
0
LINE
8
BLACK
10
1.95064
20
0.45812
11
1.9528
21
0.4585
0
LINE
8
BLACK
10
1.9528
20
0.4585
11
3.7023
21
0.4585
0
LINE
8
BLACK
10
3.7023
20
0.4585
11
3.70445
21
0.45812
0
LINE
8
BLACK
10
3.70445
20
0.45812
11
3.70664
21
0.45812
0
LINE
8
BLACK
10
3.70664
20
0.45812
11
3.7087
21
0.457372
0
LINE
8
BLACK
10
3.7087
20
0.457372
11
3.71085
21
0.456992
0
LINE
8
BLACK
10
3.71085
20
0.456992
11
3.71274
21
0.455899
0
LINE
8
BLACK
10
3.71274
20
0.455899
11
3.7148
21
0.455151
0
LINE
8
BLACK
10
3.7148
20
0.455151
11
3.71648
21
0.453744
0
LINE
8
BLACK
10
3.71648
20
0.453744
11
3.71837
21
0.452651
0
LINE
8
BLACK
10
3.71837
20
0.452651
11
3.71978
21
0.450976
0
LINE
8
BLACK
10
3.71978
20
0.450976
11
3.72145
21
0.44957
0
LINE
8
BLACK
10
3.72145
20
0.44957
11
3.72254
21
0.447677
0
LINE
8
BLACK
10
3.72254
20
0.447677
11
3.72395
21
0.446
0
LINE
8
BLACK
10
3.72395
20
0.446
11
3.7247
21
0.443944
0
LINE
8
BLACK
10
3.7247
20
0.443944
11
3.72579
21
0.442051
0
LINE
8
BLACK
10
3.72579
20
0.442051
11
3.72617
21
0.439897
0
LINE
8
BLACK
10
3.72617
20
0.439897
11
3.72692
21
0.437841
0
LINE
8
BLACK
10
3.72692
20
0.437841
11
3.72692
21
0.435655
0
LINE
8
BLACK
10
3.72692
20
0.435655
11
3.7273
21
0.4335
0
LINE
8
BLACK
10
3.7273
20
0.4335
11
3.7273
21
0.25123
0
LINE
8
BLACK
10
3.7273
20
0.25123
11
3.72741
21
0.25011
0
LINE
8
BLACK
10
3.72741
20
0.25011
11
3.72853
21
0.25
0
LINE
8
BLACK
10
3.72853
20
0.25
11
10.9444
21
0.25
0
LINE
8
BLACK
10
10.9444
20
0.25
11
10.9455
21
0.249809
0
LINE
8
BLACK
10
10.9455
20
0.249809
11
10.9466
21
0.249905
0
LINE
8
BLACK
10
10.9466
20
0.249905
11
10.9498
21
0.249059
0
LINE
8
BLACK
10
10.9498
20
0.249059
11
10.953
21
0.248492
0
LINE
8
BLACK
10
10.953
20
0.248492
11
10.9539
21
0.247943
0
LINE
8
BLACK
10
10.9539
20
0.247943
11
10.955
21
0.247658
0
LINE
8
BLACK
10
10.955
20
0.247658
11
10.9577
21
0.245783
0
LINE
8
BLACK
10
10.9577
20
0.245783
11
10.9605
21
0.244151
0
LINE
8
BLACK
10
10.9605
20
0.244151
11
10.9612
21
0.243309
0
LINE
8
BLACK
10
10.9612
20
0.243309
11
10.9621
21
0.242678
0
LINE
8
BLACK
10
10.9621
20
0.242678
11
11.4
21
-0.195178
0
LINE
8
BLACK
10
11.4
20
-0.195178
11
11.4006
21
-0.19608
0
LINE
8
BLACK
10
11.4006
20
-0.19608
11
11.4015
21
-0.196786
0
LINE
8
BLACK
10
11.4015
20
-0.196786
11
11.4031
21
-0.199614
0
LINE
8
BLACK
10
11.4031
20
-0.199614
11
11.405
21
-0.202291
0
LINE
8
BLACK
10
11.405
20
-0.202291
11
11.4052
21
-0.203354
0
LINE
8
BLACK
10
11.4052
20
-0.203354
11
11.4058
21
-0.204305
0
LINE
8
BLACK
10
11.4058
20
-0.204305
11
11.4064
21
-0.207519
0
LINE
8
BLACK
10
11.4064
20
-0.207519
11
11.4072
21
-0.210677
0
LINE
8
BLACK
10
11.4072
20
-0.210677
11
11.4071
21
-0.211773
0
LINE
8
BLACK
10
11.4071
20
-0.211773
11
11.4073
21
-0.212856
0
LINE
8
BLACK
10
11.4073
20
-0.212856
11
11.4073
21
-2.55377
0
LINE
8
BLACK
10
11.4073
20
-2.55377
11
11.4074
21
-2.55489
0
LINE
8
BLACK
10
11.4074
20
-2.55489
11
11.4085
21
-2.555
0
LINE
8
BLACK
10
11.4085
20
-2.555
11
11.6561
21
-2.555
0
LINE
8
BLACK
10
11.6561
20
-2.555
11
11.6572
21
-2.55489
0
LINE
8
BLACK
10
11.6572
20
-2.55489
11
11.6573
21
-2.55377
0
LINE
8
BLACK
10
11.6573
20
-2.55377
11
11.6573
21
-1.525
0
LINE
8
BLACK
10
11.6573
20
-1.525
11
11.6577
21
-1.52285
0
LINE
8
BLACK
10
11.6577
20
-1.52285
11
11.6577
21
-1.52066
0
LINE
8
BLACK
10
11.6577
20
-1.52066
11
11.6584
21
-1.5186
0
LINE
8
BLACK
10
11.6584
20
-1.5186
11
11.6588
21
-1.51645
0
LINE
8
BLACK
10
11.6588
20
-1.51645
11
11.6599
21
-1.51456
0
LINE
8
BLACK
10
11.6599
20
-1.51456
11
11.6606
21
-1.5125
0
LINE
8
BLACK
10
11.6606
20
-1.5125
11
11.6621
21
-1.51082
0
LINE
8
BLACK
10
11.6621
20
-1.51082
11
11.6631
21
-1.50893
0
LINE
8
BLACK
10
11.6631
20
-1.50893
11
11.6648
21
-1.50752
0
LINE
8
BLACK
10
11.6648
20
-1.50752
11
11.6662
21
-1.50585
0
LINE
8
BLACK
10
11.6662
20
-1.50585
11
11.6681
21
-1.50476
0
LINE
8
BLACK
10
11.6681
20
-1.50476
11
11.6698
21
-1.50335
0
LINE
8
BLACK
10
11.6698
20
-1.50335
11
11.6719
21
-1.5026
0
LINE
8
BLACK
10
11.6719
20
-1.5026
11
11.6737
21
-1.50151
0
LINE
8
BLACK
10
11.6737
20
-1.50151
11
11.6759
21
-1.50113
0
LINE
8
BLACK
10
11.6759
20
-1.50113
11
11.678
21
-1.50038
0
LINE
8
BLACK
10
11.678
20
-1.50038
11
11.6801
21
-1.50038
0
LINE
8
BLACK
10
11.6801
20
-1.50038
11
11.6823
21
-1.5
0
LINE
8
BLACK
10
11.6823
20
-1.5
11
13.1323
21
-1.5
0
LINE
8
BLACK
10
13.1323
20
-1.5
11
13.1345
21
-1.50038
0
LINE
8
BLACK
10
13.1345
20
-1.50038
11
13.1366
21
-1.50038
0
LINE
8
BLACK
10
13.1366
20
-1.50038
11
13.1387
21
-1.50113
0
LINE
8
BLACK
10
13.1387
20
-1.50113
11
13.1409
21
-1.50151
0
LINE
8
BLACK
10
13.1409
20
-1.50151
11
13.1427
21
-1.5026
0
LINE
8
BLACK
10
13.1427
20
-1.5026
11
13.1448
21
-1.50335
0
LINE
8
BLACK
10
13.1448
20
-1.50335
11
13.1465
21
-1.50476
0
LINE
8
BLACK
10
13.1465
20
-1.50476
11
13.1484
21
-1.50585
0
LINE
8
BLACK
10
13.1484
20
-1.50585
11
13.1498
21
-1.50752
0
LINE
8
BLACK
10
13.1498
20
-1.50752
11
13.1515
21
-1.50893
0
LINE
8
BLACK
10
13.1515
20
-1.50893
11
13.1525
21
-1.51082
0
LINE
8
BLACK
10
13.1525
20
-1.51082
11
13.154
21
-1.5125
0
LINE
8
BLACK
10
13.154
20
-1.5125
11
13.1547
21
-1.51456
0
LINE
8
BLACK
10
13.1547
20
-1.51456
11
13.1558
21
-1.51645
0
LINE
8
BLACK
10
13.1558
20
-1.51645
11
13.1562
21
-1.5186
0
LINE
8
BLACK
10
13.1562
20
-1.5186
11
13.1569
21
-1.52066
0
LINE
8
BLACK
10
13.1569
20
-1.52066
11
13.1569
21
-1.52285
0
LINE
8
BLACK
10
13.1569
20
-1.52285
11
13.1573
21
-1.525
0
LINE
8
BLACK
10
13.1573
20
-1.525
11
13.1573
21
-4.64
0
LINE
8
BLACK
10
13.1573
20
-4.64
11
13.1569
21
-4.64215
0
LINE
8
BLACK
10
13.1569
20
-4.64215
11
13.1569
21
-4.64434
0
LINE
8
BLACK
10
13.1569
20
-4.64434
11
13.1562
21
-4.6464
0
LINE
8
BLACK
10
13.1562
20
-4.6464
11
13.1558
21
-4.64855
0
LINE
8
BLACK
10
13.1558
20
-4.64855
11
13.1547
21
-4.65044
0
LINE
8
BLACK
10
13.1547
20
-4.65044
11
13.154
21
-4.6525
0
LINE
8
BLACK
10
13.154
20
-4.6525
11
13.1525
21
-4.65418
0
LINE
8
BLACK
10
13.1525
20
-4.65418
11
13.1515
21
-4.65607
0
LINE
8
BLACK
10
13.1515
20
-4.65607
11
13.1498
21
-4.65748
0
LINE
8
BLACK
10
13.1498
20
-4.65748
11
13.1484
21
-4.65915
0
LINE
8
BLACK
10
13.1484
20
-4.65915
11
13.1465
21
-4.66024
0
LINE
8
BLACK
10
13.1465
20
-4.66024
11
13.1448
21
-4.66165
0
LINE
8
BLACK
10
13.1448
20
-4.66165
11
13.1427
21
-4.6624
0
LINE
8
BLACK
10
13.1427
20
-4.6624
11
13.1409
21
-4.66349
0
LINE
8
BLACK
10
13.1409
20
-4.66349
11
13.1387
21
-4.66387
0
LINE
8
BLACK
10
13.1387
20
-4.66387
11
13.1366
21
-4.66462
0
LINE
8
BLACK
10
13.1366
20
-4.66462
11
13.1345
21
-4.66462
0
LINE
8
BLACK
10
13.1345
20
-4.66462
11
13.1323
21
-4.665
0
LINE
8
BLACK
10
13.1323
20
-4.665
11
9.1823
21
-4.665
0
LINE
8
BLACK
10
9.1823
20
-4.665
11
9.18014
21
-4.66462
0
LINE
8
BLACK
10
9.18014
20
-4.66462
11
9.17796
21
-4.66462
0
LINE
8
BLACK
10
9.17796
20
-4.66462
11
9.1759
21
-4.66387
0
LINE
8
BLACK
10
9.1759
20
-4.66387
11
9.17375
21
-4.66349
0
LINE
8
BLACK
10
9.17375
20
-4.66349
11
9.17186
21
-4.6624
0
LINE
8
BLACK
10
9.17186
20
-4.6624
11
9.1698
21
-4.66165
0
LINE
8
BLACK
10
9.1698
20
-4.66165
11
9.16812
21
-4.66024
0
LINE
8
BLACK
10
9.16812
20
-4.66024
11
9.16623
21
-4.65915
0
LINE
8
BLACK
10
9.16623
20
-4.65915
11
9.16482
21
-4.65748
0
LINE
8
BLACK
10
9.16482
20
-4.65748
11
9.16315
21
-4.65607
0
LINE
8
BLACK
10
9.16315
20
-4.65607
11
9.16206
21
-4.65418
0
LINE
8
BLACK
10
9.16206
20
-4.65418
11
9.16065
21
-4.6525
0
LINE
8
BLACK
10
9.16065
20
-4.6525
11
9.1599
21
-4.65044
0
LINE
8
BLACK
10
9.1599
20
-4.65044
11
9.15881
21
-4.64855
0
LINE
8
BLACK
10
9.15881
20
-4.64855
11
9.15843
21
-4.6464
0
LINE
8
BLACK
10
9.15843
20
-4.6464
11
9.15768
21
-4.64434
0
LINE
8
BLACK
10
9.15768
20
-4.64434
11
9.15768
21
-4.64215
0
LINE
8
BLACK
10
9.15768
20
-4.64215
11
9.1573
21
-4.64
0
LINE
8
BLACK
10
9.1573
20
-4.64
11
9.1573
21
-1.525
0
LINE
8
BLACK
10
9.1573
20
-1.525
11
9.15768
21
-1.52285
0
LINE
8
BLACK
10
9.15768
20
-1.52285
11
9.15768
21
-1.52066
0
LINE
8
BLACK
10
9.15768
20
-1.52066
11
9.15843
21
-1.5186
0
LINE
8
BLACK
10
9.15843
20
-1.5186
11
9.15881
21
-1.51645
0
LINE
8
BLACK
10
9.15881
20
-1.51645
11
9.1599
21
-1.51456
0
LINE
8
BLACK
10
9.1599
20
-1.51456
11
9.16065
21
-1.5125
0
LINE
8
BLACK
10
9.16065
20
-1.5125
11
9.16206
21
-1.51082
0
LINE
8
BLACK
10
9.16206
20
-1.51082
11
9.16315
21
-1.50893
0
LINE
8
BLACK
10
9.16315
20
-1.50893
11
9.16482
21
-1.50752
0
LINE
8
BLACK
10
9.16482
20
-1.50752
11
9.16623
21
-1.50585
0
LINE
8
BLACK
10
9.16623
20
-1.50585
11
9.16812
21
-1.50476
0
LINE
8
BLACK
10
9.16812
20
-1.50476
11
9.1698
21
-1.50335
0
LINE
8
BLACK
10
9.1698
20
-1.50335
11
9.17186
21
-1.5026
0
LINE
8
BLACK
10
9.17186
20
-1.5026
11
9.17375
21
-1.50151
0
LINE
8
BLACK
10
9.17375
20
-1.50151
11
9.1759
21
-1.50113
0
LINE
8
BLACK
10
9.1759
20
-1.50113
11
9.17796
21
-1.50038
0
LINE
8
BLACK
10
9.17796
20
-1.50038
11
9.18014
21
-1.50038
0
LINE
8
BLACK
10
9.18014
20
-1.50038
11
9.1823
21
-1.5
0
LINE
8
BLACK
10
9.1823
20
-1.5
11
10.6322
21
-1.5
0
LINE
8
BLACK
10
10.6322
20
-1.5
11
10.6344
21
-1.50038
0
LINE
8
BLACK
10
10.6344
20
-1.50038
11
10.6365
21
-1.50038
0
LINE
8
BLACK
10
10.6365
20
-1.50038
11
10.6386
21
-1.50113
0
LINE
8
BLACK
10
10.6386
20
-1.50113
11
10.6408
21
-1.50151
0
LINE
8
BLACK
10
10.6408
20
-1.50151
11
10.6426
21
-1.5026
0
LINE
8
BLACK
10
10.6426
20
-1.5026
11
10.6447
21
-1.50335
0
LINE
8
BLACK
10
10.6447
20
-1.50335
11
10.6464
21
-1.50476
0
LINE
8
BLACK
10
10.6464
20
-1.50476
11
10.6483
21
-1.50585
0
LINE
8
BLACK
10
10.6483
20
-1.50585
11
10.6497
21
-1.50752
0
LINE
8
BLACK
10
10.6497
20
-1.50752
11
10.6514
21
-1.50893
0
LINE
8
BLACK
10
10.6514
20
-1.50893
11
10.6524
21
-1.51082
0
LINE
8
BLACK
10
10.6524
20
-1.51082
11
10.6539
21
-1.5125
0
LINE
8
BLACK
10
10.6539
20
-1.5125
11
10.6546
21
-1.51456
0
LINE
8
BLACK
10
10.6546
20
-1.51456
11
10.6557
21
-1.51645
0
LINE
8
BLACK
10
10.6557
20
-1.51645
11
10.6561
21
-1.5186
0
LINE
8
BLACK
10
10.6561
20
-1.5186
11
10.6568
21
-1.52066
0
LINE
8
BLACK
10
10.6568
20
-1.52066
11
10.6568
21
-1.52285
0
LINE
8
BLACK
10
10.6568
20
-1.52285
11
10.6572
21
-1.525
0
LINE
8
BLACK
10
10.6572
20
-1.525
11
10.6572
21
-2.55377
0
LINE
8
BLACK
10
10.6572
20
-2.55377
11
10.6573
21
-2.55489
0
LINE
8
BLACK
10
10.6573
20
-2.55489
11
10.6584
21
-2.555
0
LINE
8
BLACK
10
10.6584
20
-2.555
11
10.906
21
-2.555
0
LINE
8
BLACK
10
10.906
20
-2.555
11
10.9071
21
-2.55489
0
LINE
8
BLACK
10
10.9071
20
-2.55489
11
10.9072
21
-2.55377
0
LINE
8
BLACK
10
10.9072
20
-2.55377
11
10.9072
21
-0.25123
0
LINE
8
BLACK
10
10.9072
20
-0.25123
11
10.9071
21
-0.25011
0
LINE
8
BLACK
10
10.9071
20
-0.25011
11
10.906
21
-0.25
0
LINE
8
BLACK
10
10.906
20
-0.25
11
3.97843
21
-0.25
0
LINE
8
BLACK
10
3.97843
20
-0.25
11
3.97731
21
-0.25011
0
LINE
8
BLACK
10
3.97731
20
-0.25011
11
3.9772
21
-0.25123
0
LINE
8
BLACK
10
3.9772
20
-0.25123
11
3.9772
21
-2.55377
0
LINE
8
BLACK
10
3.9772
20
-2.55377
11
3.97731
21
-2.55489
0
LINE
8
BLACK
10
3.97731
20
-2.55489
11
3.97843
21
-2.555
0
LINE
8
BLACK
10
3.97843
20
-2.555
11
4.22597
21
-2.555
0
LINE
8
BLACK
10
4.22597
20
-2.555
11
4.22709
21
-2.55489
0
LINE
8
BLACK
10
4.22709
20
-2.55489
11
4.2272
21
-2.55377
0
LINE
8
BLACK
10
4.2272
20
-2.55377
11
4.2272
21
-1.525
0
LINE
8
BLACK
10
4.2272
20
-1.525
11
4.22758
21
-1.52285
0
LINE
8
BLACK
10
4.22758
20
-1.52285
11
4.22758
21
-1.52066
0
LINE
8
BLACK
10
4.22758
20
-1.52066
11
4.22833
21
-1.5186
0
LINE
8
BLACK
10
4.22833
20
-1.5186
11
4.22871
21
-1.51645
0
LINE
8
BLACK
10
4.22871
20
-1.51645
11
4.2298
21
-1.51456
0
LINE
8
BLACK
10
4.2298
20
-1.51456
11
4.23055
21
-1.5125
0
LINE
8
BLACK
10
4.23055
20
-1.5125
11
4.23196
21
-1.51082
0
LINE
8
BLACK
10
4.23196
20
-1.51082
11
4.23305
21
-1.50893
0
LINE
8
BLACK
10
4.23305
20
-1.50893
11
4.23472
21
-1.50752
0
LINE
8
BLACK
10
4.23472
20
-1.50752
11
4.23613
21
-1.50585
0
LINE
8
BLACK
10
4.23613
20
-1.50585
11
4.23802
21
-1.50476
0
LINE
8
BLACK
10
4.23802
20
-1.50476
11
4.2397
21
-1.50335
0
LINE
8
BLACK
10
4.2397
20
-1.50335
11
4.24176
21
-1.5026
0
LINE
8
BLACK
10
4.24176
20
-1.5026
11
4.24365
21
-1.50151
0
LINE
8
BLACK
10
4.24365
20
-1.50151
11
4.2458
21
-1.50113
0
LINE
8
BLACK
10
4.2458
20
-1.50113
11
4.24786
21
-1.50038
0
LINE
8
BLACK
10
4.24786
20
-1.50038
11
4.25005
21
-1.50038
0
LINE
8
BLACK
10
4.25005
20
-1.50038
11
4.2522
21
-1.5
0
LINE
8
BLACK
10
4.2522
20
-1.5
11
5.7022
21
-1.5
0
LINE
8
BLACK
10
5.7022
20
-1.5
11
5.70435
21
-1.50038
0
LINE
8
BLACK
10
5.70435
20
-1.50038
11
5.70654
21
-1.50038
0
LINE
8
BLACK
10
5.70654
20
-1.50038
11
5.7086
21
-1.50113
0
LINE
8
BLACK
10
5.7086
20
-1.50113
11
5.71075
21
-1.50151
0
LINE
8
BLACK
10
5.71075
20
-1.50151
11
5.71264
21
-1.5026
0
LINE
8
BLACK
10
5.71264
20
-1.5026
11
5.7147
21
-1.50335
0
LINE
8
BLACK
10
5.7147
20
-1.50335
11
5.71638
21
-1.50476
0
LINE
8
BLACK
10
5.71638
20
-1.50476
11
5.71827
21
-1.50585
0
LINE
8
BLACK
10
5.71827
20
-1.50585
11
5.71968
21
-1.50752
0
LINE
8
BLACK
10
5.71968
20
-1.50752
11
5.72135
21
-1.50893
0
LINE
8
BLACK
10
5.72135
20
-1.50893
11
5.72244
21
-1.51082
0
LINE
8
BLACK
10
5.72244
20
-1.51082
11
5.72385
21
-1.5125
0
LINE
8
BLACK
10
5.72385
20
-1.5125
11
5.7246
21
-1.51456
0
LINE
8
BLACK
10
5.7246
20
-1.51456
11
5.72569
21
-1.51645
0
LINE
8
BLACK
10
5.72569
20
-1.51645
11
5.72607
21
-1.5186
0
LINE
8
BLACK
10
5.72607
20
-1.5186
11
5.72682
21
-1.52066
0
LINE
8
BLACK
10
5.72682
20
-1.52066
11
5.72682
21
-1.52285
0
LINE
8
BLACK
10
5.72682
20
-1.52285
11
5.7272
21
-1.525
0
LINE
8
BLACK
10
5.7272
20
-1.525
11
5.7272
21
-4.64
0
LINE
8
BLACK
10
5.7272
20
-4.64
11
5.72682
21
-4.64215
0
LINE
8
BLACK
10
5.72682
20
-4.64215
11
5.72682
21
-4.64434
0
LINE
8
BLACK
10
5.72682
20
-4.64434
11
5.72607
21
-4.6464
0
LINE
8
BLACK
10
5.72607
20
-4.6464
11
5.72569
21
-4.64855
0
LINE
8
BLACK
10
5.72569
20
-4.64855
11
5.7246
21
-4.65044
0
LINE
8
BLACK
10
5.7246
20
-4.65044
11
5.72385
21
-4.6525
0
LINE
8
BLACK
10
5.72385
20
-4.6525
11
5.72244
21
-4.65418
0
LINE
8
BLACK
10
5.72244
20
-4.65418
11
5.72135
21
-4.65607
0
LINE
8
BLACK
10
5.72135
20
-4.65607
11
5.71968
21
-4.65748
0
LINE
8
BLACK
10
5.71968
20
-4.65748
11
5.71827
21
-4.65915
0
LINE
8
BLACK
10
5.71827
20
-4.65915
11
5.71638
21
-4.66024
0
LINE
8
BLACK
10
5.71638
20
-4.66024
11
5.7147
21
-4.66165
0
LINE
8
BLACK
10
5.7147
20
-4.66165
11
5.71264
21
-4.6624
0
LINE
8
BLACK
10
5.71264
20
-4.6624
11
5.71075
21
-4.66349
0
LINE
8
BLACK
10
5.71075
20
-4.66349
11
5.7086
21
-4.66387
0
LINE
8
BLACK
10
5.7086
20
-4.66387
11
5.70654
21
-4.66462
0
LINE
8
BLACK
10
5.70654
20
-4.66462
11
5.70435
21
-4.66462
0
LINE
8
BLACK
10
5.70435
20
-4.66462
11
5.7022
21
-4.665
0
LINE
8
BLACK
10
5.7022
20
-4.665
11
1.7522
21
-4.665
0
LINE
8
BLACK
10
1.7522
20
-4.665
11
1.75004
21
-4.66462
0
LINE
8
BLACK
10
1.75004
20
-4.66462
11
1.74786
21
-4.66462
0
LINE
8
BLACK
10
1.74786
20
-4.66462
11
1.7458
21
-4.66387
0
LINE
8
BLACK
10
1.7458
20
-4.66387
11
1.74365
21
-4.66349
0
LINE
8
BLACK
10
1.74365
20
-4.66349
11
1.74176
21
-4.6624
0
LINE
8
BLACK
10
1.74176
20
-4.6624
11
1.7397
21
-4.66165
0
LINE
8
BLACK
10
1.7397
20
-4.66165
11
1.73802
21
-4.66024
0
LINE
8
BLACK
10
1.73802
20
-4.66024
11
1.73613
21
-4.65915
0
LINE
8
BLACK
10
1.73613
20
-4.65915
11
1.73472
21
-4.65748
0
LINE
8
BLACK
10
1.73472
20
-4.65748
11
1.73305
21
-4.65607
0
LINE
8
BLACK
10
1.73305
20
-4.65607
11
1.73196
21
-4.65418
0
LINE
8
BLACK
10
1.73196
20
-4.65418
11
1.73055
21
-4.6525
0
LINE
8
BLACK
10
1.73055
20
-4.6525
11
1.7298
21
-4.65044
0
LINE
8
BLACK
10
1.7298
20
-4.65044
11
1.72871
21
-4.64855
0
LINE
8
BLACK
10
1.72871
20
-4.64855
11
1.72833
21
-4.6464
0
LINE
8
BLACK
10
1.72833
20
-4.6464
11
1.72758
21
-4.64434
0
LINE
8
BLACK
10
1.72758
20
-4.64434
11
1.72758
21
-4.64215
0
LINE
8
BLACK
10
1.72758
20
-4.64215
11
1.7272
21
-4.64
0
LINE
8
BLACK
10
1.7272
20
-4.64
11
1.7272
21
-1.525
0
LINE
8
BLACK
10
1.7272
20
-1.525
11
1.72758
21
-1.52285
0
LINE
8
BLACK
10
1.72758
20
-1.52285
11
1.72758
21
-1.52066
0
LINE
8
BLACK
10
1.72758
20
-1.52066
11
1.72833
21
-1.5186
0
LINE
8
BLACK
10
1.72833
20
-1.5186
11
1.72871
21
-1.51645
0
LINE
8
BLACK
10
1.72871
20
-1.51645
11
1.7298
21
-1.51456
0
LINE
8
BLACK
10
1.7298
20
-1.51456
11
1.73055
21
-1.5125
0
LINE
8
BLACK
10
1.73055
20
-1.5125
11
1.73196
21
-1.51082
0
LINE
8
BLACK
10
1.73196
20
-1.51082
11
1.73305
21
-1.50893
0
LINE
8
BLACK
10
1.73305
20
-1.50893
11
1.73472
21
-1.50752
0
LINE
8
BLACK
10
1.73472
20
-1.50752
11
1.73613
21
-1.50585
0
LINE
8
BLACK
10
1.73613
20
-1.50585
11
1.73802
21
-1.50476
0
LINE
8
BLACK
10
1.73802
20
-1.50476
11
1.7397
21
-1.50335
0
LINE
8
BLACK
10
1.7397
20
-1.50335
11
1.74176
21
-1.5026
0
LINE
8
BLACK
10
1.74176
20
-1.5026
11
1.74365
21
-1.50151
0
LINE
8
BLACK
10
1.74365
20
-1.50151
11
1.7458
21
-1.50113
0
LINE
8
BLACK
10
1.7458
20
-1.50113
11
1.74786
21
-1.50038
0
LINE
8
BLACK
10
1.74786
20
-1.50038
11
1.75004
21
-1.50038
0
LINE
8
BLACK
10
1.75004
20
-1.50038
11
1.7522
21
-1.5
0
LINE
8
BLACK
10
1.7522
20
-1.5
11
3.2023
21
-1.5
0
LINE
8
BLACK
10
3.2023
20
-1.5
11
3.20445
21
-1.50038
0
LINE
8
BLACK
10
3.20445
20
-1.50038
11
3.20664
21
-1.50038
0
LINE
8
BLACK
10
3.20664
20
-1.50038
11
3.2087
21
-1.50113
0
LINE
8
BLACK
10
3.2087
20
-1.50113
11
3.21085
21
-1.50151
0
LINE
8
BLACK
10
3.21085
20
-1.50151
11
3.21274
21
-1.5026
0
LINE
8
BLACK
10
3.21274
20
-1.5026
11
3.2148
21
-1.50335
0
LINE
8
BLACK
10
3.2148
20
-1.50335
11
3.21648
21
-1.50476
0
LINE
8
BLACK
10
3.21648
20
-1.50476
11
3.21837
21
-1.50585
0
LINE
8
BLACK
10
3.21837
20
-1.50585
11
3.21978
21
-1.50752
0
LINE
8
BLACK
10
3.21978
20
-1.50752
11
3.22145
21
-1.50893
0
LINE
8
BLACK
10
3.22145
20
-1.50893
11
3.22254
21
-1.51082
0
LINE
8
BLACK
10
3.22254
20
-1.51082
11
3.22395
21
-1.5125
0
LINE
8
BLACK
10
3.22395
20
-1.5125
11
3.2247
21
-1.51456
0
LINE
8
BLACK
10
3.2247
20
-1.51456
11
3.22579
21
-1.51645
0
LINE
8
BLACK
10
3.22579
20
-1.51645
11
3.22617
21
-1.5186
0
LINE
8
BLACK
10
3.22617
20
-1.5186
11
3.22692
21
-1.52066
0
LINE
8
BLACK
10
3.22692
20
-1.52066
11
3.22692
21
-1.52285
0
LINE
8
BLACK
10
3.22692
20
-1.52285
11
3.2273
21
-1.525
0
LINE
8
BLACK
10
3.2273
20
-1.525
11
3.2273
21
-2.55377
0
LINE
8
BLACK
10
3.2273
20
-2.55377
11
3.22741
21
-2.55489
0
LINE
8
BLACK
10
3.22741
20
-2.55489
11
3.22853
21
-2.555
0
LINE
8
BLACK
10
3.22853
20
-2.555
11
3.47607
21
-2.555
0
LINE
8
BLACK
10
3.47607
20
-2.555
11
3.47719
21
-2.55489
0
LINE
8
BLACK
10
3.47719
20
-2.55489
11
3.4773
21
-2.55377
0
LINE
8
BLACK
10
3.4773
20
-2.55377
11
3.4773
21
-0.45973
0
LINE
8
BLACK
10
3.4773
20
-0.45973
11
3.47719
21
-0.45861
0
LINE
8
BLACK
10
3.47719
20
-0.45861
11
3.47607
21
-0.4585
0
LINE
8
BLACK
10
3.47607
20
-0.4585
11
1.9528
21
-0.4585
0
LINE
8
BLACK
10
1.9528
20
-0.4585
11
1.95064
21
-0.45812
0
LINE
8
BLACK
10
1.95064
20
-0.45812
11
1.94846
21
-0.45812
0
LINE
8
BLACK
10
1.94846
20
-0.45812
11
1.9464
21
-0.457372
0
LINE
8
BLACK
10
1.9464
20
-0.457372
11
1.94425
21
-0.456992
0
LINE
8
BLACK
10
1.94425
20
-0.456992
11
1.94236
21
-0.455899
0
LINE
8
BLACK
10
1.94236
20
-0.455899
11
1.9403
21
-0.455151
0
LINE
8
BLACK
10
1.9403
20
-0.455151
11
1.93862
21
-0.453744
0
LINE
8
BLACK
10
1.93862
20
-0.453744
11
1.93673
21
-0.452651
0
LINE
8
BLACK
10
1.93673
20
-0.452651
11
1.93532
21
-0.450976
0
LINE
8
BLACK
10
1.93532
20
-0.450976
11
1.93365
21
-0.44957
0
LINE
8
BLACK
10
1.93365
20
-0.44957
11
1.93256
21
-0.447677
0
LINE
8
BLACK
10
1.93256
20
-0.447677
11
1.93115
21
-0.446
0
LINE
8
BLACK
10
1.93115
20
-0.446
11
1.9304
21
-0.443944
0
LINE
8
BLACK
10
1.9304
20
-0.443944
11
1.92931
21
-0.442051
0
LINE
8
BLACK
10
1.92931
20
-0.442051
11
1.92893
21
-0.439897
0
LINE
8
BLACK
10
1.92893
20
-0.439897
11
1.92818
21
-0.437841
0
LINE
8
BLACK
10
1.92818
20
-0.437841
11
1.92818
21
-0.435655
0
LINE
8
BLACK
10
1.92818
20
-0.435655
11
1.9278
21
-0.4335
0
LINE
8
BLACK
10
1.9278
20
-0.4335
11
1.9278
21
-0.14023
0
LINE
8
BLACK
10
1.9278
20
-0.14023
11
1.92769
21
-0.13911
0
LINE
8
BLACK
10
1.92769
20
-0.13911
11
1.92657
21
-0.139
0
LINE
8
BLACK
10
1.92657
20
-0.139
11
-1.92657
21
-0.139
0
LINE
8
BLACK
10
-1.92657
20
-0.139
11
-1.92769
21
-0.13911
0
LINE
8
BLACK
10
-1.92769
20
-0.13911
11
-1.9278
21
-0.14023
0
LINE
8
BLACK
10
-1.9278
20
-0.14023
11
-1.9278
21
-0.4335
0
LINE
8
BLACK
10
-1.9278
20
-0.4335
11
-1.92818
21
-0.435655
0
LINE
8
BLACK
10
-1.92818
20
-0.435655
11
-1.92818
21
-0.437841
0
LINE
8
BLACK
10
-1.92818
20
-0.437841
11
-1.92893
21
-0.439897
0
LINE
8
BLACK
10
-1.92893
20
-0.439897
11
-1.92931
21
-0.442051
0
LINE
8
BLACK
10
-1.92931
20
-0.442051
11
-1.9304
21
-0.443944
0
LINE
8
BLACK
10
-1.9304
20
-0.443944
11
-1.93115
21
-0.446
0
LINE
8
BLACK
10
-1.93115
20
-0.446
11
-1.93256
21
-0.447677
0
LINE
8
BLACK
10
-1.93256
20
-0.447677
11
-1.93365
21
-0.44957
0
LINE
8
BLACK
10
-1.93365
20
-0.44957
11
-1.93532
21
-0.450976
0
LINE
8
BLACK
10
-1.93532
20
-0.450976
11
-1.93673
21
-0.452651
0
LINE
8
BLACK
10
-1.93673
20
-0.452651
11
-1.93862
21
-0.453744
0
LINE
8
BLACK
10
-1.93862
20
-0.453744
11
-1.9403
21
-0.455151
0
LINE
8
BLACK
10
-1.9403
20
-0.455151
11
-1.94236
21
-0.455899
0
LINE
8
BLACK
10
-1.94236
20
-0.455899
11
-1.94425
21
-0.456992
0
LINE
8
BLACK
10
-1.94425
20
-0.456992
11
-1.9464
21
-0.457372
0
LINE
8
BLACK
10
-1.9464
20
-0.457372
11
-1.94846
21
-0.45812
0
LINE
8
BLACK
10
-1.94846
20
-0.45812
11
-1.95064
21
-0.45812
0
LINE
8
BLACK
10
-1.95064
20
-0.45812
11
-1.9528
21
-0.4585
0
LINE
8
BLACK
10
-1.9528
20
-0.4585
11
-3.47607
21
-0.4585
0
LINE
8
BLACK
10
-3.47607
20
-0.4585
11
-3.47719
21
-0.45861
0
LINE
8
BLACK
10
-3.47719
20
-0.45861
11
-3.4773
21
-0.45973
0
LINE
8
BLACK
10
-3.4773
20
-0.45973
11
-3.4773
21
-2.55377
0
LINE
8
BLACK
10
-3.4773
20
-2.55377
11
-3.47719
21
-2.55489
0
LINE
8
BLACK
10
-3.47719
20
-2.55489
11
-3.47607
21
-2.555
0
LINE
8
BLACK
10
-3.47607
20
-2.555
11
-3.22853
21
-2.555
0
LINE
8
BLACK
10
-3.22853
20
-2.555
11
-3.22741
21
-2.55489
0
LINE
8
BLACK
10
-3.22741
20
-2.55489
11
-3.2273
21
-2.55377
0
LINE
8
BLACK
10
-3.2273
20
-2.55377
11
-3.2273
21
-1.525
0
LINE
8
BLACK
10
-3.2273
20
-1.525
11
-3.22692
21
-1.52285
0
LINE
8
BLACK
10
-3.22692
20
-1.52285
11
-3.22692
21
-1.52066
0
LINE
8
BLACK
10
-3.22692
20
-1.52066
11
-3.22617
21
-1.5186
0
LINE
8
BLACK
10
-3.22617
20
-1.5186
11
-3.22579
21
-1.51645
0
LINE
8
BLACK
10
-3.22579
20
-1.51645
11
-3.2247
21
-1.51456
0
LINE
8
BLACK
10
-3.2247
20
-1.51456
11
-3.22395
21
-1.5125
0
LINE
8
BLACK
10
-3.22395
20
-1.5125
11
-3.22254
21
-1.51082
0
LINE
8
BLACK
10
-3.22254
20
-1.51082
11
-3.22145
21
-1.50893
0
LINE
8
BLACK
10
-3.22145
20
-1.50893
11
-3.21978
21
-1.50752
0
LINE
8
BLACK
10
-3.21978
20
-1.50752
11
-3.21837
21
-1.50585
0
LINE
8
BLACK
10
-3.21837
20
-1.50585
11
-3.21648
21
-1.50476
0
LINE
8
BLACK
10
-3.21648
20
-1.50476
11
-3.2148
21
-1.50335
0
LINE
8
BLACK
10
-3.2148
20
-1.50335
11
-3.21274
21
-1.5026
0
LINE
8
BLACK
10
-3.21274
20
-1.5026
11
-3.21085
21
-1.50151
0
LINE
8
BLACK
10
-3.21085
20
-1.50151
11
-3.2087
21
-1.50113
0
LINE
8
BLACK
10
-3.2087
20
-1.50113
11
-3.20664
21
-1.50038
0
LINE
8
BLACK
10
-3.20664
20
-1.50038
11
-3.20445
21
-1.50038
0
LINE
8
BLACK
10
-3.20445
20
-1.50038
11
-3.2023
21
-1.5
0
LINE
8
BLACK
10
-3.2023
20
-1.5
11
-1.7522
21
-1.5
0
LINE
8
BLACK
10
-1.7522
20
-1.5
11
-1.75004
21
-1.50038
0
LINE
8
BLACK
10
-1.75004
20
-1.50038
11
-1.74786
21
-1.50038
0
LINE
8
BLACK
10
-1.74786
20
-1.50038
11
-1.7458
21
-1.50113
0
LINE
8
BLACK
10
-1.7458
20
-1.50113
11
-1.74365
21
-1.50151
0
LINE
8
BLACK
10
-1.74365
20
-1.50151
11
-1.74176
21
-1.5026
0
LINE
8
BLACK
10
-1.74176
20
-1.5026
11
-1.7397
21
-1.50335
0
LINE
8
BLACK
10
-1.7397
20
-1.50335
11
-1.73802
21
-1.50476
0
LINE
8
BLACK
10
-1.73802
20
-1.50476
11
-1.73613
21
-1.50585
0
LINE
8
BLACK
10
-1.73613
20
-1.50585
11
-1.73472
21
-1.50752
0
LINE
8
BLACK
10
-1.73472
20
-1.50752
11
-1.73305
21
-1.50893
0
LINE
8
BLACK
10
-1.73305
20
-1.50893
11
-1.73196
21
-1.51082
0
LINE
8
BLACK
10
-1.73196
20
-1.51082
11
-1.73055
21
-1.5125
0
LINE
8
BLACK
10
-1.73055
20
-1.5125
11
-1.7298
21
-1.51456
0
LINE
8
BLACK
10
-1.7298
20
-1.51456
11
-1.72871
21
-1.51645
0
LINE
8
BLACK
10
-1.72871
20
-1.51645
11
-1.72833
21
-1.5186
0
LINE
8
BLACK
10
-1.72833
20
-1.5186
11
-1.72758
21
-1.52066
0
LINE
8
BLACK
10
-1.72758
20
-1.52066
11
-1.72758
21
-1.52285
0
LINE
8
BLACK
10
-1.72758
20
-1.52285
11
-1.7272
21
-1.525
0
LINE
8
BLACK
10
-1.7272
20
-1.525
11
-1.7272
21
-4.64
0
LINE
8
BLACK
10
-1.7272
20
-4.64
11
-1.72758
21
-4.64215
0
LINE
8
BLACK
10
-1.72758
20
-4.64215
11
-1.72758
21
-4.64434
0
LINE
8
BLACK
10
-1.72758
20
-4.64434
11
-1.72833
21
-4.6464
0
LINE
8
BLACK
10
-1.72833
20
-4.6464
11
-1.72871
21
-4.64855
0
LINE
8
BLACK
10
-1.72871
20
-4.64855
11
-1.7298
21
-4.65044
0
LINE
8
BLACK
10
-1.7298
20
-4.65044
11
-1.73055
21
-4.6525
0
LINE
8
BLACK
10
-1.73055
20
-4.6525
11
-1.73196
21
-4.65418
0
LINE
8
BLACK
10
-1.73196
20
-4.65418
11
-1.73305
21
-4.65607
0
LINE
8
BLACK
10
-1.73305
20
-4.65607
11
-1.73472
21
-4.65748
0
LINE
8
BLACK
10
-1.73472
20
-4.65748
11
-1.73613
21
-4.65915
0
LINE
8
BLACK
10
-1.73613
20
-4.65915
11
-1.73802
21
-4.66024
0
LINE
8
BLACK
10
-1.73802
20
-4.66024
11
-1.7397
21
-4.66165
0
LINE
8
BLACK
10
-1.7397
20
-4.66165
11
-1.74176
21
-4.6624
0
LINE
8
BLACK
10
-1.74176
20
-4.6624
11
-1.74365
21
-4.66349
0
LINE
8
BLACK
10
-1.74365
20
-4.66349
11
-1.7458
21
-4.66387
0
LINE
8
BLACK
10
-1.7458
20
-4.66387
11
-1.74786
21
-4.66462
0
LINE
8
BLACK
10
-1.74786
20
-4.66462
11
-1.75004
21
-4.66462
0
LINE
8
BLACK
10
-1.75004
20
-4.66462
11
-1.7522
21
-4.665
0
LINE
8
BLACK
10
-1.7522
20
-4.665
11
-5.7022
21
-4.665
0
LINE
8
BLACK
10
-5.7022
20
-4.665
11
-5.70435
21
-4.66462
0
LINE
8
BLACK
10
-5.70435
20
-4.66462
11
-5.70654
21
-4.66462
0
LINE
8
BLACK
10
-5.70654
20
-4.66462
11
-5.7086
21
-4.66387
0
LINE
8
BLACK
10
-5.7086
20
-4.66387
11
-5.71075
21
-4.66349
0
LINE
8
BLACK
10
-5.71075
20
-4.66349
11
-5.71264
21
-4.6624
0
LINE
8
BLACK
10
-5.71264
20
-4.6624
11
-5.7147
21
-4.66165
0
LINE
8
BLACK
10
-5.7147
20
-4.66165
11
-5.71638
21
-4.66024
0
LINE
8
BLACK
10
-5.71638
20
-4.66024
11
-5.71827
21
-4.65915
0
LINE
8
BLACK
10
-5.71827
20
-4.65915
11
-5.71968
21
-4.65748
0
LINE
8
BLACK
10
-5.71968
20
-4.65748
11
-5.72135
21
-4.65607
0
LINE
8
BLACK
10
-5.72135
20
-4.65607
11
-5.72244
21
-4.65418
0
LINE
8
BLACK
10
-5.72244
20
-4.65418
11
-5.72385
21
-4.6525
0
LINE
8
BLACK
10
-5.72385
20
-4.6525
11
-5.7246
21
-4.65044
0
LINE
8
BLACK
10
-5.7246
20
-4.65044
11
-5.72569
21
-4.64855
0
LINE
8
BLACK
10
-5.72569
20
-4.64855
11
-5.72607
21
-4.6464
0
LINE
8
BLACK
10
-5.72607
20
-4.6464
11
-5.72682
21
-4.64434
0
LINE
8
BLACK
10
-5.72682
20
-4.64434
11
-5.72682
21
-4.64215
0
LINE
8
BLACK
10
-5.72682
20
-4.64215
11
-5.7272
21
-4.64
0
LINE
8
BLACK
10
-5.7272
20
-4.64
11
-5.7272
21
-1.525
0
LINE
8
BLACK
10
-5.7272
20
-1.525
11
-5.72682
21
-1.52285
0
LINE
8
BLACK
10
-5.72682
20
-1.52285
11
-5.72682
21
-1.52066
0
LINE
8
BLACK
10
-5.72682
20
-1.52066
11
-5.72607
21
-1.5186
0
LINE
8
BLACK
10
-5.72607
20
-1.5186
11
-5.72569
21
-1.51645
0
LINE
8
BLACK
10
-5.72569
20
-1.51645
11
-5.7246
21
-1.51456
0
LINE
8
BLACK
10
-5.7246
20
-1.51456
11
-5.72385
21
-1.5125
0
LINE
8
BLACK
10
-5.72385
20
-1.5125
11
-5.72244
21
-1.51082
0
LINE
8
BLACK
10
-5.72244
20
-1.51082
11
-5.72135
21
-1.50893
0
LINE
8
BLACK
10
-5.72135
20
-1.50893
11
-5.71968
21
-1.50752
0
LINE
8
BLACK
10
-5.71968
20
-1.50752
11
-5.71827
21
-1.50585
0
LINE
8
BLACK
10
-5.71827
20
-1.50585
11
-5.71638
21
-1.50476
0
LINE
8
BLACK
10
-5.71638
20
-1.50476
11
-5.7147
21
-1.50335
0
LINE
8
BLACK
10
-5.7147
20
-1.50335
11
-5.71264
21
-1.5026
0
LINE
8
BLACK
10
-5.71264
20
-1.5026
11
-5.71075
21
-1.50151
0
LINE
8
BLACK
10
-5.71075
20
-1.50151
11
-5.7086
21
-1.50113
0
LINE
8
BLACK
10
-5.7086
20
-1.50113
11
-5.70654
21
-1.50038
0
LINE
8
BLACK
10
-5.70654
20
-1.50038
11
-5.70435
21
-1.50038
0
LINE
8
BLACK
10
-5.70435
20
-1.50038
11
-5.7022
21
-1.5
0
LINE
8
BLACK
10
-5.7022
20
-1.5
11
-4.2522
21
-1.5
0
LINE
8
BLACK
10
-4.2522
20
-1.5
11
-4.25005
21
-1.50038
0
LINE
8
BLACK
10
-4.25005
20
-1.50038
11
-4.24786
21
-1.50038
0
LINE
8
BLACK
10
-4.24786
20
-1.50038
11
-4.2458
21
-1.50113
0
LINE
8
BLACK
10
-4.2458
20
-1.50113
11
-4.24365
21
-1.50151
0
LINE
8
BLACK
10
-4.24365
20
-1.50151
11
-4.24176
21
-1.5026
0
LINE
8
BLACK
10
-4.24176
20
-1.5026
11
-4.2397
21
-1.50335
0
LINE
8
BLACK
10
-4.2397
20
-1.50335
11
-4.23802
21
-1.50476
0
LINE
8
BLACK
10
-4.23802
20
-1.50476
11
-4.23613
21
-1.50585
0
LINE
8
BLACK
10
-4.23613
20
-1.50585
11
-4.23472
21
-1.50752
0
LINE
8
BLACK
10
-4.23472
20
-1.50752
11
-4.23305
21
-1.50893
0
LINE
8
BLACK
10
-4.23305
20
-1.50893
11
-4.23196
21
-1.51082
0
LINE
8
BLACK
10
-4.23196
20
-1.51082
11
-4.23055
21
-1.5125
0
LINE
8
BLACK
10
-4.23055
20
-1.5125
11
-4.2298
21
-1.51456
0
LINE
8
BLACK
10
-4.2298
20
-1.51456
11
-4.22871
21
-1.51645
0
LINE
8
BLACK
10
-4.22871
20
-1.51645
11
-4.22833
21
-1.5186
0
LINE
8
BLACK
10
-4.22833
20
-1.5186
11
-4.22758
21
-1.52066
0
LINE
8
BLACK
10
-4.22758
20
-1.52066
11
-4.22758
21
-1.52285
0
LINE
8
BLACK
10
-4.22758
20
-1.52285
11
-4.2272
21
-1.525
0
LINE
8
BLACK
10
-4.2272
20
-1.525
11
-4.2272
21
-2.55377
0
LINE
8
BLACK
10
-4.2272
20
-2.55377
11
-4.22709
21
-2.55489
0
LINE
8
BLACK
10
-4.22709
20
-2.55489
11
-4.22597
21
-2.555
0
LINE
8
BLACK
10
-4.22597
20
-2.555
11
-3.97843
21
-2.555
0
LINE
8
BLACK
10
-3.97843
20
-2.555
11
-3.97731
21
-2.55489
0
LINE
8
BLACK
10
-3.97731
20
-2.55489
11
-3.9772
21
-2.55377
0
LINE
8
BLACK
10
-3.9772
20
-2.55377
11
-3.9772
21
-0.25123
0
LINE
8
BLACK
10
-3.9772
20
-0.25123
11
-3.97731
21
-0.25011
0
LINE
8
BLACK
10
-3.97731
20
-0.25011
11
-3.97843
21
-0.25
0
LINE
8
BLACK
10
-3.97843
20
-0.25
11
-10.906
21
-0.25
0
LINE
8
BLACK
10
-10.906
20
-0.25
11
-10.9071
21
-0.25011
0
LINE
8
BLACK
10
-10.9071
20
-0.25011
11
-10.9072
21
-0.25123
0
LINE
8
BLACK
10
-10.9072
20
-0.25123
11
-10.9072
21
-2.55377
0
LINE
8
BLACK
10
-10.9072
20
-2.55377
11
-10.9071
21
-2.55489
0
LINE
8
BLACK
10
-10.9071
20
-2.55489
11
-10.906
21
-2.555
0
LINE
8
BLACK
10
-10.906
20
-2.555
11
-10.6584
21
-2.555
0
LINE
8
BLACK
10
-10.6584
20
-2.555
11
-10.6573
21
-2.55489
0
LINE
8
BLACK
10
-10.6573
20
-2.55489
11
-10.6572
21
-2.55377
0
LINE
8
BLACK
10
-10.6572
20
-2.55377
11
-10.6572
21
-1.525
0
LINE
8
BLACK
10
-10.6572
20
-1.525
11
-10.6568
21
-1.52285
0
LINE
8
BLACK
10
-10.6568
20
-1.52285
11
-10.6568
21
-1.52066
0
LINE
8
BLACK
10
-10.6568
20
-1.52066
11
-10.6561
21
-1.5186
0
LINE
8
BLACK
10
-10.6561
20
-1.5186
11
-10.6557
21
-1.51645
0
LINE
8
BLACK
10
-10.6557
20
-1.51645
11
-10.6546
21
-1.51456
0
LINE
8
BLACK
10
-10.6546
20
-1.51456
11
-10.6539
21
-1.5125
0
LINE
8
BLACK
10
-10.6539
20
-1.5125
11
-10.6524
21
-1.51082
0
LINE
8
BLACK
10
-10.6524
20
-1.51082
11
-10.6514
21
-1.50893
0
LINE
8
BLACK
10
-10.6514
20
-1.50893
11
-10.6497
21
-1.50752
0
LINE
8
BLACK
10
-10.6497
20
-1.50752
11
-10.6483
21
-1.50585
0
LINE
8
BLACK
10
-10.6483
20
-1.50585
11
-10.6464
21
-1.50476
0
LINE
8
BLACK
10
-10.6464
20
-1.50476
11
-10.6447
21
-1.50335
0
LINE
8
BLACK
10
-10.6447
20
-1.50335
11
-10.6426
21
-1.5026
0
LINE
8
BLACK
10
-10.6426
20
-1.5026
11
-10.6408
21
-1.50151
0
LINE
8
BLACK
10
-10.6408
20
-1.50151
11
-10.6386
21
-1.50113
0
LINE
8
BLACK
10
-10.6386
20
-1.50113
11
-10.6365
21
-1.50038
0
LINE
8
BLACK
10
-10.6365
20
-1.50038
11
-10.6344
21
-1.50038
0
LINE
8
BLACK
10
-10.6344
20
-1.50038
11
-10.6322
21
-1.5
0
LINE
8
BLACK
10
-10.6322
20
-1.5
11
-9.1823
21
-1.5
0
LINE
8
BLACK
10
-9.1823
20
-1.5
11
-9.18014
21
-1.50038
0
LINE
8
BLACK
10
-9.18014
20
-1.50038
11
-9.17796
21
-1.50038
0
LINE
8
BLACK
10
-9.17796
20
-1.50038
11
-9.1759
21
-1.50113
0
LINE
8
BLACK
10
-9.1759
20
-1.50113
11
-9.17375
21
-1.50151
0
LINE
8
BLACK
10
-9.17375
20
-1.50151
11
-9.17186
21
-1.5026
0
LINE
8
BLACK
10
-9.17186
20
-1.5026
11
-9.1698
21
-1.50335
0
LINE
8
BLACK
10
-9.1698
20
-1.50335
11
-9.16812
21
-1.50476
0
LINE
8
BLACK
10
-9.16812
20
-1.50476
11
-9.16623
21
-1.50585
0
LINE
8
BLACK
10
-9.16623
20
-1.50585
11
-9.16482
21
-1.50752
0
LINE
8
BLACK
10
-9.16482
20
-1.50752
11
-9.16315
21
-1.50893
0
LINE
8
BLACK
10
-9.16315
20
-1.50893
11
-9.16206
21
-1.51082
0
LINE
8
BLACK
10
-9.16206
20
-1.51082
11
-9.16065
21
-1.5125
0
LINE
8
BLACK
10
-9.16065
20
-1.5125
11
-9.1599
21
-1.51456
0
LINE
8
BLACK
10
-9.1599
20
-1.51456
11
-9.15881
21
-1.51645
0
LINE
8
BLACK
10
-9.15881
20
-1.51645
11
-9.15843
21
-1.5186
0
LINE
8
BLACK
10
-9.15843
20
-1.5186
11
-9.15768
21
-1.52066
0
LINE
8
BLACK
10
-9.15768
20
-1.52066
11
-9.15768
21
-1.52285
0
LINE
8
BLACK
10
-9.15768
20
-1.52285
11
-9.1573
21
-1.525
0
LINE
8
BLACK
10
-9.1573
20
-1.525
11
-9.1573
21
-4.64
0
LINE
8
BLACK
10
-9.1573
20
-4.64
11
-9.15768
21
-4.64215
0
LINE
8
BLACK
10
-9.15768
20
-4.64215
11
-9.15768
21
-4.64434
0
LINE
8
BLACK
10
-9.15768
20
-4.64434
11
-9.15843
21
-4.6464
0
LINE
8
BLACK
10
-9.15843
20
-4.6464
11
-9.15881
21
-4.64855
0
LINE
8
BLACK
10
-9.15881
20
-4.64855
11
-9.1599
21
-4.65044
0
LINE
8
BLACK
10
-9.1599
20
-4.65044
11
-9.16065
21
-4.6525
0
LINE
8
BLACK
10
-9.16065
20
-4.6525
11
-9.16206
21
-4.65418
0
LINE
8
BLACK
10
-9.16206
20
-4.65418
11
-9.16315
21
-4.65607
0
LINE
8
BLACK
10
-9.16315
20
-4.65607
11
-9.16482
21
-4.65748
0
LINE
8
BLACK
10
-9.16482
20
-4.65748
11
-9.16623
21
-4.65915
0
LINE
8
BLACK
10
-9.16623
20
-4.65915
11
-9.16812
21
-4.66024
0
LINE
8
BLACK
10
-9.16812
20
-4.66024
11
-9.1698
21
-4.66165
0
LINE
8
BLACK
10
-9.1698
20
-4.66165
11
-9.17186
21
-4.6624
0
LINE
8
BLACK
10
-9.17186
20
-4.6624
11
-9.17375
21
-4.66349
0
LINE
8
BLACK
10
-9.17375
20
-4.66349
11
-9.1759
21
-4.66387
0
LINE
8
BLACK
10
-9.1759
20
-4.66387
11
-9.17796
21
-4.66462
0
LINE
8
BLACK
10
-9.17796
20
-4.66462
11
-9.18014
21
-4.66462
0
LINE
8
BLACK
10
-9.18014
20
-4.66462
11
-9.1823
21
-4.665
0
LINE
8
BLACK
10
-9.1823
20
-4.665
11
-13.1323
21
-4.665
0
LINE
8
BLACK
10
-13.1323
20
-4.665
11
-13.1345
21
-4.66462
0
LINE
8
BLACK
10
-13.1345
20
-4.66462
11
-13.1366
21
-4.66462
0
LINE
8
BLACK
10
-13.1366
20
-4.66462
11
-13.1387
21
-4.66387
0
LINE
8
BLACK
10
-13.1387
20
-4.66387
11
-13.1409
21
-4.66349
0
LINE
8
BLACK
10
-13.1409
20
-4.66349
11
-13.1427
21
-4.6624
0
LINE
8
BLACK
10
-13.1427
20
-4.6624
11
-13.1448
21
-4.66165
0
LINE
8
BLACK
10
-13.1448
20
-4.66165
11
-13.1465
21
-4.66024
0
LINE
8
BLACK
10
-13.1465
20
-4.66024
11
-13.1484
21
-4.65915
0
LINE
8
BLACK
10
-13.1484
20
-4.65915
11
-13.1498
21
-4.65748
0
LINE
8
BLACK
10
-13.1498
20
-4.65748
11
-13.1515
21
-4.65607
0
LINE
8
BLACK
10
-13.1515
20
-4.65607
11
-13.1525
21
-4.65418
0
LINE
8
BLACK
10
-13.1525
20
-4.65418
11
-13.154
21
-4.6525
0
LINE
8
BLACK
10
-13.154
20
-4.6525
11
-13.1547
21
-4.65044
0
LINE
8
BLACK
10
-13.1547
20
-4.65044
11
-13.1558
21
-4.64855
0
LINE
8
BLACK
10
-13.1558
20
-4.64855
11
-13.1562
21
-4.6464
0
LINE
8
BLACK
10
-13.1562
20
-4.6464
11
-13.1569
21
-4.64434
0
LINE
8
BLACK
10
-13.1569
20
-4.64434
11
-13.1569
21
-4.64215
0
LINE
8
BLACK
10
-13.1569
20
-4.64215
11
-13.1573
21
-4.64
0
LINE
8
BLACK
10
-13.1573
20
-4.64
11
-13.1573
21
-1.525
0
LINE
8
BLACK
10
-13.1573
20
-1.525
11
-13.1569
21
-1.52285
0
LINE
8
BLACK
10
-13.1569
20
-1.52285
11
-13.1569
21
-1.52066
0
LINE
8
BLACK
10
-13.1569
20
-1.52066
11
-13.1562
21
-1.5186
0
LINE
8
BLACK
10
-13.1562
20
-1.5186
11
-13.1558
21
-1.51645
0
LINE
8
BLACK
10
-13.1558
20
-1.51645
11
-13.1547
21
-1.51456
0
LINE
8
BLACK
10
-13.1547
20
-1.51456
11
-13.154
21
-1.5125
0
LINE
8
BLACK
10
-13.154
20
-1.5125
11
-13.1525
21
-1.51082
0
LINE
8
BLACK
10
-13.1525
20
-1.51082
11
-13.1515
21
-1.50893
0
LINE
8
BLACK
10
-13.1515
20
-1.50893
11
-13.1498
21
-1.50752
0
LINE
8
BLACK
10
-13.1498
20
-1.50752
11
-13.1484
21
-1.50585
0
LINE
8
BLACK
10
-13.1484
20
-1.50585
11
-13.1465
21
-1.50476
0
LINE
8
BLACK
10
-13.1465
20
-1.50476
11
-13.1448
21
-1.50335
0
LINE
8
BLACK
10
-13.1448
20
-1.50335
11
-13.1427
21
-1.5026
0
LINE
8
BLACK
10
-13.1427
20
-1.5026
11
-13.1409
21
-1.50151
0
LINE
8
BLACK
10
-13.1409
20
-1.50151
11
-13.1387
21
-1.50113
0
LINE
8
BLACK
10
-13.1387
20
-1.50113
11
-13.1366
21
-1.50038
0
LINE
8
BLACK
10
-13.1366
20
-1.50038
11
-13.1345
21
-1.50038
0
LINE
8
BLACK
10
-13.1345
20
-1.50038
11
-13.1323
21
-1.5
0
LINE
8
BLACK
10
-13.1323
20
-1.5
11
-11.6823
21
-1.5
0
LINE
8
BLACK
10
-11.6823
20
-1.5
11
-11.6801
21
-1.50038
0
LINE
8
BLACK
10
-11.6801
20
-1.50038
11
-11.678
21
-1.50038
0
LINE
8
BLACK
10
-11.678
20
-1.50038
11
-11.6759
21
-1.50113
0
LINE
8
BLACK
10
-11.6759
20
-1.50113
11
-11.6737
21
-1.50151
0
LINE
8
BLACK
10
-11.6737
20
-1.50151
11
-11.6719
21
-1.5026
0
LINE
8
BLACK
10
-11.6719
20
-1.5026
11
-11.6698
21
-1.50335
0
LINE
8
BLACK
10
-11.6698
20
-1.50335
11
-11.6681
21
-1.50476
0
LINE
8
BLACK
10
-11.6681
20
-1.50476
11
-11.6662
21
-1.50585
0
LINE
8
BLACK
10
-11.6662
20
-1.50585
11
-11.6648
21
-1.50752
0
LINE
8
BLACK
10
-11.6648
20
-1.50752
11
-11.6631
21
-1.50893
0
LINE
8
BLACK
10
-11.6631
20
-1.50893
11
-11.6621
21
-1.51082
0
LINE
8
BLACK
10
-11.6621
20
-1.51082
11
-11.6606
21
-1.5125
0
LINE
8
BLACK
10
-11.6606
20
-1.5125
11
-11.6599
21
-1.51456
0
LINE
8
BLACK
10
-11.6599
20
-1.51456
11
-11.6588
21
-1.51645
0
LINE
8
BLACK
10
-11.6588
20
-1.51645
11
-11.6584
21
-1.5186
0
LINE
8
BLACK
10
-11.6584
20
-1.5186
11
-11.6577
21
-1.52066
0
LINE
8
BLACK
10
-11.6577
20
-1.52066
11
-11.6577
21
-1.52285
0
LINE
8
BLACK
10
-11.6577
20
-1.52285
11
-11.6573
21
-1.525
0
LINE
8
BLACK
10
-11.6573
20
-1.525
11
-11.6573
21
-2.55377
0
LINE
8
BLACK
10
-11.6573
20
-2.55377
11
-11.6572
21
-2.55489
0
LINE
8
BLACK
10
-11.6572
20
-2.55489
11
-11.6561
21
-2.555
0
LINE
8
BLACK
10
-11.6561
20
-2.555
11
-11.4085
21
-2.555
0
LINE
8
BLACK
10
-11.4085
20
-2.555
11
-11.4074
21
-2.55489
0
LINE
8
BLACK
10
-11.4074
20
-2.55489
11
-11.4073
21
-2.55377
0
LINE
8
BLACK
10
-11.4073
20
-2.55377
11
-11.4073
21
-0.212856
0
LINE
8
BLACK
10
-11.4073
20
-0.212856
11
-11.4071
21
-0.211773
0
LINE
8
BLACK
10
-11.4071
20
-0.211773
11
-11.4072
21
-0.210677
0
LINE
8
BLACK
10
-11.4072
20
-0.210677
11
-11.4064
21
-0.207519
0
LINE
8
BLACK
10
-11.4064
20
-0.207519
11
-11.4058
21
-0.204305
0
LINE
8
BLACK
10
-11.4058
20
-0.204305
11
-11.4052
21
-0.203354
0
LINE
8
BLACK
10
-11.4052
20
-0.203354
11
-11.405
21
-0.202291
0
LINE
8
BLACK
10
-11.405
20
-0.202291
11
-11.4031
21
-0.199614
0
LINE
8
BLACK
10
-11.4031
20
-0.199614
11
-11.4015
21
-0.196786
0
LINE
8
BLACK
10
-11.4015
20
-0.196786
11
-11.4006
21
-0.19608
0
LINE
8
BLACK
10
-11.4006
20
-0.19608
11
-11.4
21
-0.195178
0
LINE
8
BLACK
10
-11.4
20
-0.195178
11
-10.9621
21
0.242678
0
LINE
8
BLACK
10
-10.9621
20
0.242678
11
-10.9612
21
0.243309
0
LINE
8
BLACK
10
-10.9612
20
0.243309
11
-10.9605
21
0.244151
0
LINE
8
BLACK
10
-10.9605
20
0.244151
11
-10.9577
21
0.245783
0
LINE
8
BLACK
10
-10.9577
20
0.245783
11
-10.955
21
0.247658
0
LINE
8
BLACK
10
-10.955
20
0.247658
11
-10.9539
21
0.247943
0
LINE
8
BLACK
10
-10.9539
20
0.247943
11
-10.953
21
0.248492
0
LINE
8
BLACK
10
-10.953
20
0.248492
11
-10.9498
21
0.249059
0
LINE
8
BLACK
10
-10.9498
20
0.249059
11
-10.9466
21
0.249905
0
LINE
8
BLACK
10
-10.9466
20
0.249905
11
-10.9455
21
0.249809
0
LINE
8
BLACK
10
-10.9455
20
0.249809
11
-10.9444
21
0.25
0
LINE
8
BLACK
10
-10.9444
20
0.25
11
-3.72853
21
0.25
0
LINE
8
BLACK
10
-3.72853
20
0.25
11
-3.72741
21
0.25011
0
LINE
8
BLACK
10
-3.72741
20
0.25011
11
-3.7273
21
0.25123
0
LINE
8
BLACK
10
-3.7273
20
0.25123
11
-3.7273
21
0.4335
0
LINE
8
BLACK
10
-3.7273
20
0.4335
11
-3.72692
21
0.435655
0
LINE
8
BLACK
10
-3.72692
20
0.435655
11
-3.72692
21
0.437841
0
LINE
8
BLACK
10
-3.72692
20
0.437841
11
-3.72617
21
0.439897
0
LINE
8
BLACK
10
-3.72617
20
0.439897
11
-3.72579
21
0.442051
0
LINE
8
BLACK
10
-3.72579
20
0.442051
11
-3.7247
21
0.443944
0
LINE
8
BLACK
10
-3.7247
20
0.443944
11
-3.72395
21
0.446
0
LINE
8
BLACK
10
-3.72395
20
0.446
11
-3.72254
21
0.447677
0
LINE
8
BLACK
10
-3.72254
20
0.447677
11
-3.72145
21
0.44957
0
LINE
8
BLACK
10
-3.72145
20
0.44957
11
-3.71978
21
0.450976
0
LINE
8
BLACK
10
-3.71978
20
0.450976
11
-3.71837
21
0.452651
0
LINE
8
BLACK
10
-3.71837
20
0.452651
11
-3.71648
21
0.453744
0
LINE
8
BLACK
10
-3.71648
20
0.453744
11
-3.7148
21
0.455151
0
LINE
8
BLACK
10
-3.7148
20
0.455151
11
-3.71274
21
0.455899
0
LINE
8
BLACK
10
-3.71274
20
0.455899
11
-3.71085
21
0.456992
0
LINE
8
BLACK
10
-3.71085
20
0.456992
11
-3.7087
21
0.457372
0
LINE
8
BLACK
10
-3.7087
20
0.457372
11
-3.70664
21
0.45812
0
LINE
8
BLACK
10
-3.70664
20
0.45812
11
-3.70445
21
0.45812
0
LINE
8
BLACK
10
-3.70445
20
0.45812
11
-3.7023
21
0.4585
0
LINE
8
BLACK
10
-3.7023
20
0.4585
11
-1.9528
21
0.4585
0
LINE
8
BLACK
10
-1.9528
20
0.4585
11
-1.95064
21
0.45812
  0
ENDSEC
  0
EOF
