  0
SECTION
  2
HEADER
  9
$ANGBASE
  50
0.0
  9
$ANGDIR
  70
  1
  9
$MEASUREMENT
  70
0
  0
ENDSEC
  0
SECTION
  2
TABLES
  0
TABLE
  2
LTYPE
  70
1
  0
LTYPE
  2
CONTINUOUS
  70
0
  3
Solid line
  72
65
  73
0
  40
0.0
  0
ENDTAB
  0
TABLE
  2
STYLE
  70
4
  0
STYLE
  2
KICAD
  70
0
  40
0
  41
1
  42
1
  50
0
  71
0
  3
isocp.shx
  0
STYLE
  2
KICADB
  70
0
  40
0
  41
1
  42
1
  50
0
  71
0
  3
isocp.shx
  0
STYLE
  2
KICADI
  70
0
  40
0
  41
1
  42
1
  50
15
  71
0
  3
isocp.shx
  0
STYLE
  2
KICADBI
  70
0
  40
0
  41
1
  42
1
  50
15
  71
0
  3
isocp.shx
  0
ENDTAB
  0
TABLE
  2
LAYER
  70
30
  0
LAYER
  2
BLACK
  70
0
  62
7
  6
CONTINUOUS
  0
LAYER
  2
GRAY1
  70
0
  62
251
  6
CONTINUOUS
  0
LAYER
  2
GRAY2
  70
0
  62
8
  6
CONTINUOUS
  0
LAYER
  2
GRAY3
  70
0
  62
9
  6
CONTINUOUS
  0
LAYER
  2
WHITE
  70
0
  62
7
  6
CONTINUOUS
  0
LAYER
  2
LYELLOW
  70
0
  62
51
  6
CONTINUOUS
  0
LAYER
  2
BLUE1
  70
0
  62
178
  6
CONTINUOUS
  0
LAYER
  2
GREEN1
  70
0
  62
98
  6
CONTINUOUS
  0
LAYER
  2
CYAN1
  70
0
  62
138
  6
CONTINUOUS
  0
LAYER
  2
RED1
  70
0
  62
18
  6
CONTINUOUS
  0
LAYER
  2
MAGENTA1
  70
0
  62
228
  6
CONTINUOUS
  0
LAYER
  2
BROWN1
  70
0
  62
58
  6
CONTINUOUS
  0
LAYER
  2
BLUE2
  70
0
  62
5
  6
CONTINUOUS
  0
LAYER
  2
GREEN2
  70
0
  62
3
  6
CONTINUOUS
  0
LAYER
  2
CYAN2
  70
0
  62
4
  6
CONTINUOUS
  0
LAYER
  2
RED2
  70
0
  62
1
  6
CONTINUOUS
  0
LAYER
  2
MAGENTA2
  70
0
  62
6
  6
CONTINUOUS
  0
LAYER
  2
BROWN2
  70
0
  62
54
  6
CONTINUOUS
  0
LAYER
  2
BLUE3
  70
0
  62
171
  6
CONTINUOUS
  0
LAYER
  2
GREEN3
  70
0
  62
91
  6
CONTINUOUS
  0
LAYER
  2
CYAN3
  70
0
  62
131
  6
CONTINUOUS
  0
LAYER
  2
RED3
  70
0
  62
11
  6
CONTINUOUS
  0
LAYER
  2
MAGENTA3
  70
0
  62
221
  6
CONTINUOUS
  0
LAYER
  2
YELLOW3
  70
0
  62
2
  6
CONTINUOUS
  0
LAYER
  2
BLUE4
  70
0
  62
5
  6
CONTINUOUS
  0
LAYER
  2
GREEN4
  70
0
  62
3
  6
CONTINUOUS
  0
LAYER
  2
CYAN4
  70
0
  62
4
  6
CONTINUOUS
  0
LAYER
  2
RED4
  70
0
  62
1
  6
CONTINUOUS
  0
LAYER
  2
MAGENTA4
  70
0
  62
6
  6
CONTINUOUS
  0
LAYER
  2
YELLOW4
  70
0
  62
2
  6
CONTINUOUS
  0
ENDTAB
  0
ENDSEC
  0
SECTION
  2
ENTITIES
0
LINE
8
BLACK
10
-1.95064
20
4.17312
11
-1.94846
21
4.17312
0
LINE
8
BLACK
10
-1.94846
20
4.17312
11
-1.9464
21
4.17237
0
LINE
8
BLACK
10
-1.9464
20
4.17237
11
-1.94425
21
4.17199
0
LINE
8
BLACK
10
-1.94425
20
4.17199
11
-1.94236
21
4.1709
0
LINE
8
BLACK
10
-1.94236
20
4.1709
11
-1.9403
21
4.17015
0
LINE
8
BLACK
10
-1.9403
20
4.17015
11
-1.93862
21
4.16874
0
LINE
8
BLACK
10
-1.93862
20
4.16874
11
-1.93673
21
4.16765
0
LINE
8
BLACK
10
-1.93673
20
4.16765
11
-1.93532
21
4.16598
0
LINE
8
BLACK
10
-1.93532
20
4.16598
11
-1.93365
21
4.16457
0
LINE
8
BLACK
10
-1.93365
20
4.16457
11
-1.93256
21
4.16268
0
LINE
8
BLACK
10
-1.93256
20
4.16268
11
-1.93115
21
4.161
0
LINE
8
BLACK
10
-1.93115
20
4.161
11
-1.9304
21
4.15894
0
LINE
8
BLACK
10
-1.9304
20
4.15894
11
-1.92931
21
4.15705
0
LINE
8
BLACK
10
-1.92931
20
4.15705
11
-1.92893
21
4.1549
0
LINE
8
BLACK
10
-1.92893
20
4.1549
11
-1.92818
21
4.15284
0
LINE
8
BLACK
10
-1.92818
20
4.15284
11
-1.92818
21
4.15065
0
LINE
8
BLACK
10
-1.92818
20
4.15065
11
-1.9278
21
4.1485
0
LINE
8
BLACK
10
-1.9278
20
4.1485
11
-1.9278
21
3.85523
0
LINE
8
BLACK
10
-1.9278
20
3.85523
11
-1.92769
21
3.85411
0
LINE
8
BLACK
10
-1.92769
20
3.85411
11
-1.92657
21
3.854
0
LINE
8
BLACK
10
-1.92657
20
3.854
11
1.92657
21
3.854
0
LINE
8
BLACK
10
1.92657
20
3.854
11
1.92769
21
3.85411
0
LINE
8
BLACK
10
1.92769
20
3.85411
11
1.9278
21
3.85523
0
LINE
8
BLACK
10
1.9278
20
3.85523
11
1.9278
21
4.1485
0
LINE
8
BLACK
10
1.9278
20
4.1485
11
1.92818
21
4.15065
0
LINE
8
BLACK
10
1.92818
20
4.15065
11
1.92818
21
4.15284
0
LINE
8
BLACK
10
1.92818
20
4.15284
11
1.92893
21
4.1549
0
LINE
8
BLACK
10
1.92893
20
4.1549
11
1.92931
21
4.15705
0
LINE
8
BLACK
10
1.92931
20
4.15705
11
1.9304
21
4.15894
0
LINE
8
BLACK
10
1.9304
20
4.15894
11
1.93115
21
4.161
0
LINE
8
BLACK
10
1.93115
20
4.161
11
1.93256
21
4.16268
0
LINE
8
BLACK
10
1.93256
20
4.16268
11
1.93365
21
4.16457
0
LINE
8
BLACK
10
1.93365
20
4.16457
11
1.93532
21
4.16598
0
LINE
8
BLACK
10
1.93532
20
4.16598
11
1.93673
21
4.16765
0
LINE
8
BLACK
10
1.93673
20
4.16765
11
1.93862
21
4.16874
0
LINE
8
BLACK
10
1.93862
20
4.16874
11
1.9403
21
4.17015
0
LINE
8
BLACK
10
1.9403
20
4.17015
11
1.94236
21
4.1709
0
LINE
8
BLACK
10
1.94236
20
4.1709
11
1.94425
21
4.17199
0
LINE
8
BLACK
10
1.94425
20
4.17199
11
1.9464
21
4.17237
0
LINE
8
BLACK
10
1.9464
20
4.17237
11
1.94846
21
4.17312
0
LINE
8
BLACK
10
1.94846
20
4.17312
11
1.95064
21
4.17312
0
LINE
8
BLACK
10
1.95064
20
4.17312
11
1.9528
21
4.1735
0
LINE
8
BLACK
10
1.9528
20
4.1735
11
3.7023
21
4.1735
0
LINE
8
BLACK
10
3.7023
20
4.1735
11
3.70445
21
4.17312
0
LINE
8
BLACK
10
3.70445
20
4.17312
11
3.70664
21
4.17312
0
LINE
8
BLACK
10
3.70664
20
4.17312
11
3.7087
21
4.17237
0
LINE
8
BLACK
10
3.7087
20
4.17237
11
3.71085
21
4.17199
0
LINE
8
BLACK
10
3.71085
20
4.17199
11
3.71274
21
4.1709
0
LINE
8
BLACK
10
3.71274
20
4.1709
11
3.7148
21
4.17015
0
LINE
8
BLACK
10
3.7148
20
4.17015
11
3.71648
21
4.16874
0
LINE
8
BLACK
10
3.71648
20
4.16874
11
3.71837
21
4.16765
0
LINE
8
BLACK
10
3.71837
20
4.16765
11
3.71978
21
4.16598
0
LINE
8
BLACK
10
3.71978
20
4.16598
11
3.72145
21
4.16457
0
LINE
8
BLACK
10
3.72145
20
4.16457
11
3.72254
21
4.16268
0
LINE
8
BLACK
10
3.72254
20
4.16268
11
3.72395
21
4.161
0
LINE
8
BLACK
10
3.72395
20
4.161
11
3.7247
21
4.15894
0
LINE
8
BLACK
10
3.7247
20
4.15894
11
3.72579
21
4.15705
0
LINE
8
BLACK
10
3.72579
20
4.15705
11
3.72617
21
4.1549
0
LINE
8
BLACK
10
3.72617
20
4.1549
11
3.72692
21
4.15284
0
LINE
8
BLACK
10
3.72692
20
4.15284
11
3.72692
21
4.15065
0
LINE
8
BLACK
10
3.72692
20
4.15065
11
3.7273
21
4.1485
0
LINE
8
BLACK
10
3.7273
20
4.1485
11
3.7273
21
3.96623
0
LINE
8
BLACK
10
3.7273
20
3.96623
11
3.72741
21
3.96511
0
LINE
8
BLACK
10
3.72741
20
3.96511
11
3.72853
21
3.965
0
LINE
8
BLACK
10
3.72853
20
3.965
11
10.9444
21
3.965
0
LINE
8
BLACK
10
10.9444
20
3.965
11
10.9455
21
3.96481
0
LINE
8
BLACK
10
10.9455
20
3.96481
11
10.9466
21
3.9649
0
LINE
8
BLACK
10
10.9466
20
3.9649
11
10.9498
21
3.96406
0
LINE
8
BLACK
10
10.9498
20
3.96406
11
10.953
21
3.96349
0
LINE
8
BLACK
10
10.953
20
3.96349
11
10.9539
21
3.96294
0
LINE
8
BLACK
10
10.9539
20
3.96294
11
10.955
21
3.96266
0
LINE
8
BLACK
10
10.955
20
3.96266
11
10.9577
21
3.96078
0
LINE
8
BLACK
10
10.9577
20
3.96078
11
10.9605
21
3.95915
0
LINE
8
BLACK
10
10.9605
20
3.95915
11
10.9612
21
3.95831
0
LINE
8
BLACK
10
10.9612
20
3.95831
11
10.9621
21
3.95768
0
LINE
8
BLACK
10
10.9621
20
3.95768
11
11.4
21
3.51982
0
LINE
8
BLACK
10
11.4
20
3.51982
11
11.4006
21
3.51892
0
LINE
8
BLACK
10
11.4006
20
3.51892
11
11.4015
21
3.51821
0
LINE
8
BLACK
10
11.4015
20
3.51821
11
11.4031
21
3.51539
0
LINE
8
BLACK
10
11.4031
20
3.51539
11
11.405
21
3.51271
0
LINE
8
BLACK
10
11.405
20
3.51271
11
11.4052
21
3.51165
0
LINE
8
BLACK
10
11.4052
20
3.51165
11
11.4058
21
3.51069
0
LINE
8
BLACK
10
11.4058
20
3.51069
11
11.4064
21
3.50748
0
LINE
8
BLACK
10
11.4064
20
3.50748
11
11.4072
21
3.50432
0
LINE
8
BLACK
10
11.4072
20
3.50432
11
11.4071
21
3.50323
0
LINE
8
BLACK
10
11.4071
20
3.50323
11
11.4073
21
3.50214
0
LINE
8
BLACK
10
11.4073
20
3.50214
11
11.4073
21
1.16123
0
LINE
8
BLACK
10
11.4073
20
1.16123
11
11.4074
21
1.16011
0
LINE
8
BLACK
10
11.4074
20
1.16011
11
11.4085
21
1.16
0
LINE
8
BLACK
10
11.4085
20
1.16
11
11.6561
21
1.16
0
LINE
8
BLACK
10
11.6561
20
1.16
11
11.6572
21
1.16011
0
LINE
8
BLACK
10
11.6572
20
1.16011
11
11.6573
21
1.16123
0
LINE
8
BLACK
10
11.6573
20
1.16123
11
11.6573
21
2.19
0
LINE
8
BLACK
10
11.6573
20
2.19
11
11.6577
21
2.19216
0
LINE
8
BLACK
10
11.6577
20
2.19216
11
11.6577
21
2.19434
0
LINE
8
BLACK
10
11.6577
20
2.19434
11
11.6584
21
2.1964
0
LINE
8
BLACK
10
11.6584
20
2.1964
11
11.6588
21
2.19855
0
LINE
8
BLACK
10
11.6588
20
2.19855
11
11.6599
21
2.20044
0
LINE
8
BLACK
10
11.6599
20
2.20044
11
11.6606
21
2.2025
0
LINE
8
BLACK
10
11.6606
20
2.2025
11
11.6621
21
2.20418
0
LINE
8
BLACK
10
11.6621
20
2.20418
11
11.6631
21
2.20607
0
LINE
8
BLACK
10
11.6631
20
2.20607
11
11.6648
21
2.20748
0
LINE
8
BLACK
10
11.6648
20
2.20748
11
11.6662
21
2.20915
0
LINE
8
BLACK
10
11.6662
20
2.20915
11
11.6681
21
2.21024
0
LINE
8
BLACK
10
11.6681
20
2.21024
11
11.6698
21
2.21165
0
LINE
8
BLACK
10
11.6698
20
2.21165
11
11.6719
21
2.2124
0
LINE
8
BLACK
10
11.6719
20
2.2124
11
11.6737
21
2.21349
0
LINE
8
BLACK
10
11.6737
20
2.21349
11
11.6759
21
2.21387
0
LINE
8
BLACK
10
11.6759
20
2.21387
11
11.678
21
2.21462
0
LINE
8
BLACK
10
11.678
20
2.21462
11
11.6801
21
2.21462
0
LINE
8
BLACK
10
11.6801
20
2.21462
11
11.6823
21
2.215
0
LINE
8
BLACK
10
11.6823
20
2.215
11
13.1323
21
2.215
0
LINE
8
BLACK
10
13.1323
20
2.215
11
13.1345
21
2.21462
0
LINE
8
BLACK
10
13.1345
20
2.21462
11
13.1366
21
2.21462
0
LINE
8
BLACK
10
13.1366
20
2.21462
11
13.1387
21
2.21387
0
LINE
8
BLACK
10
13.1387
20
2.21387
11
13.1409
21
2.21349
0
LINE
8
BLACK
10
13.1409
20
2.21349
11
13.1427
21
2.2124
0
LINE
8
BLACK
10
13.1427
20
2.2124
11
13.1448
21
2.21165
0
LINE
8
BLACK
10
13.1448
20
2.21165
11
13.1465
21
2.21024
0
LINE
8
BLACK
10
13.1465
20
2.21024
11
13.1484
21
2.20915
0
LINE
8
BLACK
10
13.1484
20
2.20915
11
13.1498
21
2.20748
0
LINE
8
BLACK
10
13.1498
20
2.20748
11
13.1515
21
2.20607
0
LINE
8
BLACK
10
13.1515
20
2.20607
11
13.1525
21
2.20418
0
LINE
8
BLACK
10
13.1525
20
2.20418
11
13.154
21
2.2025
0
LINE
8
BLACK
10
13.154
20
2.2025
11
13.1547
21
2.20044
0
LINE
8
BLACK
10
13.1547
20
2.20044
11
13.1558
21
2.19855
0
LINE
8
BLACK
10
13.1558
20
2.19855
11
13.1562
21
2.1964
0
LINE
8
BLACK
10
13.1562
20
2.1964
11
13.1569
21
2.19434
0
LINE
8
BLACK
10
13.1569
20
2.19434
11
13.1569
21
2.19216
0
LINE
8
BLACK
10
13.1569
20
2.19216
11
13.1573
21
2.19
0
LINE
8
BLACK
10
13.1573
20
2.19
11
13.1573
21
-0.925
0
LINE
8
BLACK
10
13.1573
20
-0.925
11
13.1569
21
-0.927155
0
LINE
8
BLACK
10
13.1569
20
-0.927155
11
13.1569
21
-0.929341
0
LINE
8
BLACK
10
13.1569
20
-0.929341
11
13.1562
21
-0.931397
0
LINE
8
BLACK
10
13.1562
20
-0.931397
11
13.1558
21
-0.933551
0
LINE
8
BLACK
10
13.1558
20
-0.933551
11
13.1547
21
-0.935444
0
LINE
8
BLACK
10
13.1547
20
-0.935444
11
13.154
21
-0.9375
0
LINE
8
BLACK
10
13.154
20
-0.9375
11
13.1525
21
-0.939177
0
LINE
8
BLACK
10
13.1525
20
-0.939177
11
13.1515
21
-0.94107
0
LINE
8
BLACK
10
13.1515
20
-0.94107
11
13.1498
21
-0.942476
0
LINE
8
BLACK
10
13.1498
20
-0.942476
11
13.1484
21
-0.944151
0
LINE
8
BLACK
10
13.1484
20
-0.944151
11
13.1465
21
-0.945244
0
LINE
8
BLACK
10
13.1465
20
-0.945244
11
13.1448
21
-0.946651
0
LINE
8
BLACK
10
13.1448
20
-0.946651
11
13.1427
21
-0.947399
0
LINE
8
BLACK
10
13.1427
20
-0.947399
11
13.1409
21
-0.948492
0
LINE
8
BLACK
10
13.1409
20
-0.948492
11
13.1387
21
-0.948872
0
LINE
8
BLACK
10
13.1387
20
-0.948872
11
13.1366
21
-0.94962
0
LINE
8
BLACK
10
13.1366
20
-0.94962
11
13.1345
21
-0.94962
0
LINE
8
BLACK
10
13.1345
20
-0.94962
11
13.1323
21
-0.95
0
LINE
8
BLACK
10
13.1323
20
-0.95
11
9.1823
21
-0.95
0
LINE
8
BLACK
10
9.1823
20
-0.95
11
9.18014
21
-0.94962
0
LINE
8
BLACK
10
9.18014
20
-0.94962
11
9.17796
21
-0.94962
0
LINE
8
BLACK
10
9.17796
20
-0.94962
11
9.1759
21
-0.948872
0
LINE
8
BLACK
10
9.1759
20
-0.948872
11
9.17375
21
-0.948492
0
LINE
8
BLACK
10
9.17375
20
-0.948492
11
9.17186
21
-0.947399
0
LINE
8
BLACK
10
9.17186
20
-0.947399
11
9.1698
21
-0.946651
0
LINE
8
BLACK
10
9.1698
20
-0.946651
11
9.16812
21
-0.945244
0
LINE
8
BLACK
10
9.16812
20
-0.945244
11
9.16623
21
-0.944151
0
LINE
8
BLACK
10
9.16623
20
-0.944151
11
9.16482
21
-0.942476
0
LINE
8
BLACK
10
9.16482
20
-0.942476
11
9.16315
21
-0.94107
0
LINE
8
BLACK
10
9.16315
20
-0.94107
11
9.16206
21
-0.939177
0
LINE
8
BLACK
10
9.16206
20
-0.939177
11
9.16065
21
-0.9375
0
LINE
8
BLACK
10
9.16065
20
-0.9375
11
9.1599
21
-0.935444
0
LINE
8
BLACK
10
9.1599
20
-0.935444
11
9.15881
21
-0.933551
0
LINE
8
BLACK
10
9.15881
20
-0.933551
11
9.15843
21
-0.931397
0
LINE
8
BLACK
10
9.15843
20
-0.931397
11
9.15768
21
-0.929341
0
LINE
8
BLACK
10
9.15768
20
-0.929341
11
9.15768
21
-0.927155
0
LINE
8
BLACK
10
9.15768
20
-0.927155
11
9.1573
21
-0.925
0
LINE
8
BLACK
10
9.1573
20
-0.925
11
9.1573
21
2.19
0
LINE
8
BLACK
10
9.1573
20
2.19
11
9.15768
21
2.19216
0
LINE
8
BLACK
10
9.15768
20
2.19216
11
9.15768
21
2.19434
0
LINE
8
BLACK
10
9.15768
20
2.19434
11
9.15843
21
2.1964
0
LINE
8
BLACK
10
9.15843
20
2.1964
11
9.15881
21
2.19855
0
LINE
8
BLACK
10
9.15881
20
2.19855
11
9.1599
21
2.20044
0
LINE
8
BLACK
10
9.1599
20
2.20044
11
9.16065
21
2.2025
0
LINE
8
BLACK
10
9.16065
20
2.2025
11
9.16206
21
2.20418
0
LINE
8
BLACK
10
9.16206
20
2.20418
11
9.16315
21
2.20607
0
LINE
8
BLACK
10
9.16315
20
2.20607
11
9.16482
21
2.20748
0
LINE
8
BLACK
10
9.16482
20
2.20748
11
9.16623
21
2.20915
0
LINE
8
BLACK
10
9.16623
20
2.20915
11
9.16812
21
2.21024
0
LINE
8
BLACK
10
9.16812
20
2.21024
11
9.1698
21
2.21165
0
LINE
8
BLACK
10
9.1698
20
2.21165
11
9.17186
21
2.2124
0
LINE
8
BLACK
10
9.17186
20
2.2124
11
9.17375
21
2.21349
0
LINE
8
BLACK
10
9.17375
20
2.21349
11
9.1759
21
2.21387
0
LINE
8
BLACK
10
9.1759
20
2.21387
11
9.17796
21
2.21462
0
LINE
8
BLACK
10
9.17796
20
2.21462
11
9.18014
21
2.21462
0
LINE
8
BLACK
10
9.18014
20
2.21462
11
9.1823
21
2.215
0
LINE
8
BLACK
10
9.1823
20
2.215
11
10.6322
21
2.215
0
LINE
8
BLACK
10
10.6322
20
2.215
11
10.6344
21
2.21462
0
LINE
8
BLACK
10
10.6344
20
2.21462
11
10.6365
21
2.21462
0
LINE
8
BLACK
10
10.6365
20
2.21462
11
10.6386
21
2.21387
0
LINE
8
BLACK
10
10.6386
20
2.21387
11
10.6408
21
2.21349
0
LINE
8
BLACK
10
10.6408
20
2.21349
11
10.6426
21
2.2124
0
LINE
8
BLACK
10
10.6426
20
2.2124
11
10.6447
21
2.21165
0
LINE
8
BLACK
10
10.6447
20
2.21165
11
10.6464
21
2.21024
0
LINE
8
BLACK
10
10.6464
20
2.21024
11
10.6483
21
2.20915
0
LINE
8
BLACK
10
10.6483
20
2.20915
11
10.6497
21
2.20748
0
LINE
8
BLACK
10
10.6497
20
2.20748
11
10.6514
21
2.20607
0
LINE
8
BLACK
10
10.6514
20
2.20607
11
10.6524
21
2.20418
0
LINE
8
BLACK
10
10.6524
20
2.20418
11
10.6539
21
2.2025
0
LINE
8
BLACK
10
10.6539
20
2.2025
11
10.6546
21
2.20044
0
LINE
8
BLACK
10
10.6546
20
2.20044
11
10.6557
21
2.19855
0
LINE
8
BLACK
10
10.6557
20
2.19855
11
10.6561
21
2.1964
0
LINE
8
BLACK
10
10.6561
20
2.1964
11
10.6568
21
2.19434
0
LINE
8
BLACK
10
10.6568
20
2.19434
11
10.6568
21
2.19216
0
LINE
8
BLACK
10
10.6568
20
2.19216
11
10.6572
21
2.19
0
LINE
8
BLACK
10
10.6572
20
2.19
11
10.6572
21
1.16123
0
LINE
8
BLACK
10
10.6572
20
1.16123
11
10.6573
21
1.16011
0
LINE
8
BLACK
10
10.6573
20
1.16011
11
10.6584
21
1.16
0
LINE
8
BLACK
10
10.6584
20
1.16
11
10.906
21
1.16
0
LINE
8
BLACK
10
10.906
20
1.16
11
10.9071
21
1.16011
0
LINE
8
BLACK
10
10.9071
20
1.16011
11
10.9072
21
1.16123
0
LINE
8
BLACK
10
10.9072
20
1.16123
11
10.9072
21
3.46377
0
LINE
8
BLACK
10
10.9072
20
3.46377
11
10.9071
21
3.46489
0
LINE
8
BLACK
10
10.9071
20
3.46489
11
10.906
21
3.465
0
LINE
8
BLACK
10
10.906
20
3.465
11
3.97843
21
3.465
0
LINE
8
BLACK
10
3.97843
20
3.465
11
3.97731
21
3.46489
0
LINE
8
BLACK
10
3.97731
20
3.46489
11
3.9772
21
3.46377
0
LINE
8
BLACK
10
3.9772
20
3.46377
11
3.9772
21
1.16123
0
LINE
8
BLACK
10
3.9772
20
1.16123
11
3.97731
21
1.16011
0
LINE
8
BLACK
10
3.97731
20
1.16011
11
3.97843
21
1.16
0
LINE
8
BLACK
10
3.97843
20
1.16
11
4.22597
21
1.16
0
LINE
8
BLACK
10
4.22597
20
1.16
11
4.22709
21
1.16011
0
LINE
8
BLACK
10
4.22709
20
1.16011
11
4.2272
21
1.16123
0
LINE
8
BLACK
10
4.2272
20
1.16123
11
4.2272
21
2.19
0
LINE
8
BLACK
10
4.2272
20
2.19
11
4.22758
21
2.19216
0
LINE
8
BLACK
10
4.22758
20
2.19216
11
4.22758
21
2.19434
0
LINE
8
BLACK
10
4.22758
20
2.19434
11
4.22833
21
2.1964
0
LINE
8
BLACK
10
4.22833
20
2.1964
11
4.22871
21
2.19855
0
LINE
8
BLACK
10
4.22871
20
2.19855
11
4.2298
21
2.20044
0
LINE
8
BLACK
10
4.2298
20
2.20044
11
4.23055
21
2.2025
0
LINE
8
BLACK
10
4.23055
20
2.2025
11
4.23196
21
2.20418
0
LINE
8
BLACK
10
4.23196
20
2.20418
11
4.23305
21
2.20607
0
LINE
8
BLACK
10
4.23305
20
2.20607
11
4.23472
21
2.20748
0
LINE
8
BLACK
10
4.23472
20
2.20748
11
4.23613
21
2.20915
0
LINE
8
BLACK
10
4.23613
20
2.20915
11
4.23802
21
2.21024
0
LINE
8
BLACK
10
4.23802
20
2.21024
11
4.2397
21
2.21165
0
LINE
8
BLACK
10
4.2397
20
2.21165
11
4.24176
21
2.2124
0
LINE
8
BLACK
10
4.24176
20
2.2124
11
4.24365
21
2.21349
0
LINE
8
BLACK
10
4.24365
20
2.21349
11
4.2458
21
2.21387
0
LINE
8
BLACK
10
4.2458
20
2.21387
11
4.24786
21
2.21462
0
LINE
8
BLACK
10
4.24786
20
2.21462
11
4.25005
21
2.21462
0
LINE
8
BLACK
10
4.25005
20
2.21462
11
4.2522
21
2.215
0
LINE
8
BLACK
10
4.2522
20
2.215
11
5.7022
21
2.215
0
LINE
8
BLACK
10
5.7022
20
2.215
11
5.70435
21
2.21462
0
LINE
8
BLACK
10
5.70435
20
2.21462
11
5.70654
21
2.21462
0
LINE
8
BLACK
10
5.70654
20
2.21462
11
5.7086
21
2.21387
0
LINE
8
BLACK
10
5.7086
20
2.21387
11
5.71075
21
2.21349
0
LINE
8
BLACK
10
5.71075
20
2.21349
11
5.71264
21
2.2124
0
LINE
8
BLACK
10
5.71264
20
2.2124
11
5.7147
21
2.21165
0
LINE
8
BLACK
10
5.7147
20
2.21165
11
5.71638
21
2.21024
0
LINE
8
BLACK
10
5.71638
20
2.21024
11
5.71827
21
2.20915
0
LINE
8
BLACK
10
5.71827
20
2.20915
11
5.71968
21
2.20748
0
LINE
8
BLACK
10
5.71968
20
2.20748
11
5.72135
21
2.20607
0
LINE
8
BLACK
10
5.72135
20
2.20607
11
5.72244
21
2.20418
0
LINE
8
BLACK
10
5.72244
20
2.20418
11
5.72385
21
2.2025
0
LINE
8
BLACK
10
5.72385
20
2.2025
11
5.7246
21
2.20044
0
LINE
8
BLACK
10
5.7246
20
2.20044
11
5.72569
21
2.19855
0
LINE
8
BLACK
10
5.72569
20
2.19855
11
5.72607
21
2.1964
0
LINE
8
BLACK
10
5.72607
20
2.1964
11
5.72682
21
2.19434
0
LINE
8
BLACK
10
5.72682
20
2.19434
11
5.72682
21
2.19216
0
LINE
8
BLACK
10
5.72682
20
2.19216
11
5.7272
21
2.19
0
LINE
8
BLACK
10
5.7272
20
2.19
11
5.7272
21
-0.925
0
LINE
8
BLACK
10
5.7272
20
-0.925
11
5.72682
21
-0.927155
0
LINE
8
BLACK
10
5.72682
20
-0.927155
11
5.72682
21
-0.929341
0
LINE
8
BLACK
10
5.72682
20
-0.929341
11
5.72607
21
-0.931397
0
LINE
8
BLACK
10
5.72607
20
-0.931397
11
5.72569
21
-0.933551
0
LINE
8
BLACK
10
5.72569
20
-0.933551
11
5.7246
21
-0.935444
0
LINE
8
BLACK
10
5.7246
20
-0.935444
11
5.72385
21
-0.9375
0
LINE
8
BLACK
10
5.72385
20
-0.9375
11
5.72244
21
-0.939177
0
LINE
8
BLACK
10
5.72244
20
-0.939177
11
5.72135
21
-0.94107
0
LINE
8
BLACK
10
5.72135
20
-0.94107
11
5.71968
21
-0.942476
0
LINE
8
BLACK
10
5.71968
20
-0.942476
11
5.71827
21
-0.944151
0
LINE
8
BLACK
10
5.71827
20
-0.944151
11
5.71638
21
-0.945244
0
LINE
8
BLACK
10
5.71638
20
-0.945244
11
5.7147
21
-0.946651
0
LINE
8
BLACK
10
5.7147
20
-0.946651
11
5.71264
21
-0.947399
0
LINE
8
BLACK
10
5.71264
20
-0.947399
11
5.71075
21
-0.948492
0
LINE
8
BLACK
10
5.71075
20
-0.948492
11
5.7086
21
-0.948872
0
LINE
8
BLACK
10
5.7086
20
-0.948872
11
5.70654
21
-0.94962
0
LINE
8
BLACK
10
5.70654
20
-0.94962
11
5.70435
21
-0.94962
0
LINE
8
BLACK
10
5.70435
20
-0.94962
11
5.7022
21
-0.95
0
LINE
8
BLACK
10
5.7022
20
-0.95
11
1.7522
21
-0.95
0
LINE
8
BLACK
10
1.7522
20
-0.95
11
1.75004
21
-0.94962
0
LINE
8
BLACK
10
1.75004
20
-0.94962
11
1.74786
21
-0.94962
0
LINE
8
BLACK
10
1.74786
20
-0.94962
11
1.7458
21
-0.948872
0
LINE
8
BLACK
10
1.7458
20
-0.948872
11
1.74365
21
-0.948492
0
LINE
8
BLACK
10
1.74365
20
-0.948492
11
1.74176
21
-0.947399
0
LINE
8
BLACK
10
1.74176
20
-0.947399
11
1.7397
21
-0.946651
0
LINE
8
BLACK
10
1.7397
20
-0.946651
11
1.73802
21
-0.945244
0
LINE
8
BLACK
10
1.73802
20
-0.945244
11
1.73613
21
-0.944151
0
LINE
8
BLACK
10
1.73613
20
-0.944151
11
1.73472
21
-0.942476
0
LINE
8
BLACK
10
1.73472
20
-0.942476
11
1.73305
21
-0.94107
0
LINE
8
BLACK
10
1.73305
20
-0.94107
11
1.73196
21
-0.939177
0
LINE
8
BLACK
10
1.73196
20
-0.939177
11
1.73055
21
-0.9375
0
LINE
8
BLACK
10
1.73055
20
-0.9375
11
1.7298
21
-0.935444
0
LINE
8
BLACK
10
1.7298
20
-0.935444
11
1.72871
21
-0.933551
0
LINE
8
BLACK
10
1.72871
20
-0.933551
11
1.72833
21
-0.931397
0
LINE
8
BLACK
10
1.72833
20
-0.931397
11
1.72758
21
-0.929341
0
LINE
8
BLACK
10
1.72758
20
-0.929341
11
1.72758
21
-0.927155
0
LINE
8
BLACK
10
1.72758
20
-0.927155
11
1.7272
21
-0.925
0
LINE
8
BLACK
10
1.7272
20
-0.925
11
1.7272
21
2.19
0
LINE
8
BLACK
10
1.7272
20
2.19
11
1.72758
21
2.19216
0
LINE
8
BLACK
10
1.72758
20
2.19216
11
1.72758
21
2.19434
0
LINE
8
BLACK
10
1.72758
20
2.19434
11
1.72833
21
2.1964
0
LINE
8
BLACK
10
1.72833
20
2.1964
11
1.72871
21
2.19855
0
LINE
8
BLACK
10
1.72871
20
2.19855
11
1.7298
21
2.20044
0
LINE
8
BLACK
10
1.7298
20
2.20044
11
1.73055
21
2.2025
0
LINE
8
BLACK
10
1.73055
20
2.2025
11
1.73196
21
2.20418
0
LINE
8
BLACK
10
1.73196
20
2.20418
11
1.73305
21
2.20607
0
LINE
8
BLACK
10
1.73305
20
2.20607
11
1.73472
21
2.20748
0
LINE
8
BLACK
10
1.73472
20
2.20748
11
1.73613
21
2.20915
0
LINE
8
BLACK
10
1.73613
20
2.20915
11
1.73802
21
2.21024
0
LINE
8
BLACK
10
1.73802
20
2.21024
11
1.7397
21
2.21165
0
LINE
8
BLACK
10
1.7397
20
2.21165
11
1.74176
21
2.2124
0
LINE
8
BLACK
10
1.74176
20
2.2124
11
1.74365
21
2.21349
0
LINE
8
BLACK
10
1.74365
20
2.21349
11
1.7458
21
2.21387
0
LINE
8
BLACK
10
1.7458
20
2.21387
11
1.74786
21
2.21462
0
LINE
8
BLACK
10
1.74786
20
2.21462
11
1.75004
21
2.21462
0
LINE
8
BLACK
10
1.75004
20
2.21462
11
1.7522
21
2.215
0
LINE
8
BLACK
10
1.7522
20
2.215
11
3.2023
21
2.215
0
LINE
8
BLACK
10
3.2023
20
2.215
11
3.20445
21
2.21462
0
LINE
8
BLACK
10
3.20445
20
2.21462
11
3.20664
21
2.21462
0
LINE
8
BLACK
10
3.20664
20
2.21462
11
3.2087
21
2.21387
0
LINE
8
BLACK
10
3.2087
20
2.21387
11
3.21085
21
2.21349
0
LINE
8
BLACK
10
3.21085
20
2.21349
11
3.21274
21
2.2124
0
LINE
8
BLACK
10
3.21274
20
2.2124
11
3.2148
21
2.21165
0
LINE
8
BLACK
10
3.2148
20
2.21165
11
3.21648
21
2.21024
0
LINE
8
BLACK
10
3.21648
20
2.21024
11
3.21837
21
2.20915
0
LINE
8
BLACK
10
3.21837
20
2.20915
11
3.21978
21
2.20748
0
LINE
8
BLACK
10
3.21978
20
2.20748
11
3.22145
21
2.20607
0
LINE
8
BLACK
10
3.22145
20
2.20607
11
3.22254
21
2.20418
0
LINE
8
BLACK
10
3.22254
20
2.20418
11
3.22395
21
2.2025
0
LINE
8
BLACK
10
3.22395
20
2.2025
11
3.2247
21
2.20044
0
LINE
8
BLACK
10
3.2247
20
2.20044
11
3.22579
21
2.19855
0
LINE
8
BLACK
10
3.22579
20
2.19855
11
3.22617
21
2.1964
0
LINE
8
BLACK
10
3.22617
20
2.1964
11
3.22692
21
2.19434
0
LINE
8
BLACK
10
3.22692
20
2.19434
11
3.22692
21
2.19216
0
LINE
8
BLACK
10
3.22692
20
2.19216
11
3.2273
21
2.19
0
LINE
8
BLACK
10
3.2273
20
2.19
11
3.2273
21
1.16123
0
LINE
8
BLACK
10
3.2273
20
1.16123
11
3.22741
21
1.16011
0
LINE
8
BLACK
10
3.22741
20
1.16011
11
3.22853
21
1.16
0
LINE
8
BLACK
10
3.22853
20
1.16
11
3.47607
21
1.16
0
LINE
8
BLACK
10
3.47607
20
1.16
11
3.47719
21
1.16011
0
LINE
8
BLACK
10
3.47719
20
1.16011
11
3.4773
21
1.16123
0
LINE
8
BLACK
10
3.4773
20
1.16123
11
3.4773
21
3.25527
0
LINE
8
BLACK
10
3.4773
20
3.25527
11
3.47719
21
3.25639
0
LINE
8
BLACK
10
3.47719
20
3.25639
11
3.47607
21
3.2565
0
LINE
8
BLACK
10
3.47607
20
3.2565
11
1.9528
21
3.2565
0
LINE
8
BLACK
10
1.9528
20
3.2565
11
1.95064
21
3.25688
0
LINE
8
BLACK
10
1.95064
20
3.25688
11
1.94846
21
3.25688
0
LINE
8
BLACK
10
1.94846
20
3.25688
11
1.9464
21
3.25763
0
LINE
8
BLACK
10
1.9464
20
3.25763
11
1.94425
21
3.25801
0
LINE
8
BLACK
10
1.94425
20
3.25801
11
1.94236
21
3.2591
0
LINE
8
BLACK
10
1.94236
20
3.2591
11
1.9403
21
3.25985
0
LINE
8
BLACK
10
1.9403
20
3.25985
11
1.93862
21
3.26126
0
LINE
8
BLACK
10
1.93862
20
3.26126
11
1.93673
21
3.26235
0
LINE
8
BLACK
10
1.93673
20
3.26235
11
1.93532
21
3.26402
0
LINE
8
BLACK
10
1.93532
20
3.26402
11
1.93365
21
3.26543
0
LINE
8
BLACK
10
1.93365
20
3.26543
11
1.93256
21
3.26732
0
LINE
8
BLACK
10
1.93256
20
3.26732
11
1.93115
21
3.269
0
LINE
8
BLACK
10
1.93115
20
3.269
11
1.9304
21
3.27106
0
LINE
8
BLACK
10
1.9304
20
3.27106
11
1.92931
21
3.27295
0
LINE
8
BLACK
10
1.92931
20
3.27295
11
1.92893
21
3.2751
0
LINE
8
BLACK
10
1.92893
20
3.2751
11
1.92818
21
3.27716
0
LINE
8
BLACK
10
1.92818
20
3.27716
11
1.92818
21
3.27934
0
LINE
8
BLACK
10
1.92818
20
3.27934
11
1.9278
21
3.2815
0
LINE
8
BLACK
10
1.9278
20
3.2815
11
1.9278
21
3.57477
0
LINE
8
BLACK
10
1.9278
20
3.57477
11
1.92769
21
3.57589
0
LINE
8
BLACK
10
1.92769
20
3.57589
11
1.92657
21
3.576
0
LINE
8
BLACK
10
1.92657
20
3.576
11
0.25123
21
3.576
0
LINE
8
BLACK
10
0.25123
20
3.576
11
0.25011
21
3.57589
0
LINE
8
BLACK
10
0.25011
20
3.57589
11
0.25
21
3.57477
0
LINE
8
BLACK
10
0.25
20
3.57477
11
0.25
21
1.9528
0
LINE
8
BLACK
10
0.25
20
1.9528
11
0.24962
21
1.95064
0
LINE
8
BLACK
10
0.24962
20
1.95064
11
0.24962
21
1.94846
0
LINE
8
BLACK
10
0.24962
20
1.94846
11
0.248872
21
1.9464
0
LINE
8
BLACK
10
0.248872
20
1.9464
11
0.248492
21
1.94425
0
LINE
8
BLACK
10
0.248492
20
1.94425
11
0.247399
21
1.94236
0
LINE
8
BLACK
10
0.247399
20
1.94236
11
0.246651
21
1.9403
0
LINE
8
BLACK
10
0.246651
20
1.9403
11
0.245244
21
1.93862
0
LINE
8
BLACK
10
0.245244
20
1.93862
11
0.244151
21
1.93673
0
LINE
8
BLACK
10
0.244151
20
1.93673
11
0.242476
21
1.93532
0
LINE
8
BLACK
10
0.242476
20
1.93532
11
0.24107
21
1.93365
0
LINE
8
BLACK
10
0.24107
20
1.93365
11
0.239177
21
1.93256
0
LINE
8
BLACK
10
0.239177
20
1.93256
11
0.2375
21
1.93115
0
LINE
8
BLACK
10
0.2375
20
1.93115
11
0.235444
21
1.9304
0
LINE
8
BLACK
10
0.235444
20
1.9304
11
0.233551
21
1.92931
0
LINE
8
BLACK
10
0.233551
20
1.92931
11
0.231397
21
1.92893
0
LINE
8
BLACK
10
0.231397
20
1.92893
11
0.229341
21
1.92818
0
LINE
8
BLACK
10
0.229341
20
1.92818
11
0.227155
21
1.92818
0
LINE
8
BLACK
10
0.227155
20
1.92818
11
0.225
21
1.9278
0
LINE
8
BLACK
10
0.225
20
1.9278
11
0.14023
21
1.9278
0
LINE
8
BLACK
10
0.14023
20
1.9278
11
0.13911
21
1.92769
0
LINE
8
BLACK
10
0.13911
20
1.92769
11
0.139
21
1.92657
0
LINE
8
BLACK
10
0.139
20
1.92657
11
0.139
21
0.25123
0
LINE
8
BLACK
10
0.139
20
0.25123
11
0.13911
21
0.25011
0
LINE
8
BLACK
10
0.13911
20
0.25011
11
0.14023
21
0.25
0
LINE
8
BLACK
10
0.14023
20
0.25
11
0.650842
21
0.25
0
LINE
8
BLACK
10
0.650842
20
0.25
11
0.651925
21
0.249809
0
LINE
8
BLACK
10
0.651925
20
0.249809
11
0.653023
21
0.249905
0
LINE
8
BLACK
10
0.653023
20
0.249905
11
0.656181
21
0.249058
0
LINE
8
BLACK
10
0.656181
20
0.249058
11
0.659393
21
0.248492
0
LINE
8
BLACK
10
0.659393
20
0.248492
11
0.660345
21
0.247942
0
LINE
8
BLACK
10
0.660345
20
0.247942
11
0.661409
21
0.247657
0
LINE
8
BLACK
10
0.661409
20
0.247657
11
0.664085
21
0.245783
0
LINE
8
BLACK
10
0.664085
20
0.245783
11
0.666912
21
0.244151
0
LINE
8
BLACK
10
0.666912
20
0.244151
11
0.667619
21
0.243308
0
LINE
8
BLACK
10
0.667619
20
0.243308
11
0.668522
21
0.242676
0
LINE
8
BLACK
10
0.668522
20
0.242676
11
1.10628
21
-0.195178
0
LINE
8
BLACK
10
1.10628
20
-0.195178
11
1.10691
21
-0.196077
0
LINE
8
BLACK
10
1.10691
20
-0.196077
11
1.10775
21
-0.196784
0
LINE
8
BLACK
10
1.10775
20
-0.196784
11
1.10938
21
-0.199615
0
LINE
8
BLACK
10
1.10938
20
-0.199615
11
1.11126
21
-0.202291
0
LINE
8
BLACK
10
1.11126
20
-0.202291
11
1.11154
21
-0.203353
0
LINE
8
BLACK
10
1.11154
20
-0.203353
11
1.11209
21
-0.204303
0
LINE
8
BLACK
10
1.11209
20
-0.204303
11
1.11266
21
-0.20752
0
LINE
8
BLACK
10
1.11266
20
-0.20752
11
1.1135
21
-0.210678
0
LINE
8
BLACK
10
1.1135
20
-0.210678
11
1.11341
21
-0.211772
0
LINE
8
BLACK
10
1.11341
20
-0.211772
11
1.1136
21
-0.212854
0
LINE
8
BLACK
10
1.1136
20
-0.212854
11
1.1136
21
-2.08127
0
LINE
8
BLACK
10
1.1136
20
-2.08127
11
1.11371
21
-2.08239
0
LINE
8
BLACK
10
1.11371
20
-2.08239
11
1.11483
21
-2.0825
0
LINE
8
BLACK
10
1.11483
20
-2.0825
11
17.475
21
-2.0825
0
LINE
8
BLACK
10
17.475
20
-2.0825
11
17.4772
21
-2.08288
0
LINE
8
BLACK
10
17.4772
20
-2.08288
11
17.4793
21
-2.08288
0
LINE
8
BLACK
10
17.4793
20
-2.08288
11
17.4814
21
-2.08363
0
LINE
8
BLACK
10
17.4814
20
-2.08363
11
17.4836
21
-2.08401
0
LINE
8
BLACK
10
17.4836
20
-2.08401
11
17.4854
21
-2.0851
0
LINE
8
BLACK
10
17.4854
20
-2.0851
11
17.4875
21
-2.08585
0
LINE
8
BLACK
10
17.4875
20
-2.08585
11
17.4892
21
-2.08726
0
LINE
8
BLACK
10
17.4892
20
-2.08726
11
17.4911
21
-2.08835
0
LINE
8
BLACK
10
17.4911
20
-2.08835
11
17.4925
21
-2.09002
0
LINE
8
BLACK
10
17.4925
20
-2.09002
11
17.4942
21
-2.09143
0
LINE
8
BLACK
10
17.4942
20
-2.09143
11
17.4952
21
-2.09332
0
LINE
8
BLACK
10
17.4952
20
-2.09332
11
17.4967
21
-2.095
0
LINE
8
BLACK
10
17.4967
20
-2.095
11
17.4974
21
-2.09706
0
LINE
8
BLACK
10
17.4974
20
-2.09706
11
17.4985
21
-2.09895
0
LINE
8
BLACK
10
17.4985
20
-2.09895
11
17.4989
21
-2.1011
0
LINE
8
BLACK
10
17.4989
20
-2.1011
11
17.4996
21
-2.10316
0
LINE
8
BLACK
10
17.4996
20
-2.10316
11
17.4996
21
-2.10534
0
LINE
8
BLACK
10
17.4996
20
-2.10534
11
17.5
21
-2.1075
0
LINE
8
BLACK
10
17.5
20
-2.1075
11
17.5
21
-2.5575
0
LINE
8
BLACK
10
17.5
20
-2.5575
11
17.4996
21
-2.55965
0
LINE
8
BLACK
10
17.4996
20
-2.55965
11
17.4996
21
-2.56184
0
LINE
8
BLACK
10
17.4996
20
-2.56184
11
17.4989
21
-2.5639
0
LINE
8
BLACK
10
17.4989
20
-2.5639
11
17.4985
21
-2.56605
0
LINE
8
BLACK
10
17.4985
20
-2.56605
11
17.4974
21
-2.56794
0
LINE
8
BLACK
10
17.4974
20
-2.56794
11
17.4967
21
-2.57
0
LINE
8
BLACK
10
17.4967
20
-2.57
11
17.4952
21
-2.57168
0
LINE
8
BLACK
10
17.4952
20
-2.57168
11
17.4942
21
-2.57357
0
LINE
8
BLACK
10
17.4942
20
-2.57357
11
17.4925
21
-2.57498
0
LINE
8
BLACK
10
17.4925
20
-2.57498
11
17.4911
21
-2.57665
0
LINE
8
BLACK
10
17.4911
20
-2.57665
11
17.4892
21
-2.57774
0
LINE
8
BLACK
10
17.4892
20
-2.57774
11
17.4875
21
-2.57915
0
LINE
8
BLACK
10
17.4875
20
-2.57915
11
17.4854
21
-2.5799
0
LINE
8
BLACK
10
17.4854
20
-2.5799
11
17.4836
21
-2.58099
0
LINE
8
BLACK
10
17.4836
20
-2.58099
11
17.4814
21
-2.58137
0
LINE
8
BLACK
10
17.4814
20
-2.58137
11
17.4793
21
-2.58212
0
LINE
8
BLACK
10
17.4793
20
-2.58212
11
17.4772
21
-2.58212
0
LINE
8
BLACK
10
17.4772
20
-2.58212
11
17.475
21
-2.5825
0
LINE
8
BLACK
10
17.475
20
-2.5825
11
1.07646
21
-2.5825
0
LINE
8
BLACK
10
1.07646
20
-2.5825
11
1.07537
21
-2.58231
0
LINE
8
BLACK
10
1.07537
20
-2.58231
11
1.07428
21
-2.58241
0
LINE
8
BLACK
10
1.07428
20
-2.58241
11
1.07112
21
-2.58156
0
LINE
8
BLACK
10
1.07112
20
-2.58156
11
1.0679
21
-2.58099
0
LINE
8
BLACK
10
1.0679
20
-2.58099
11
1.06695
21
-2.58044
0
LINE
8
BLACK
10
1.06695
20
-2.58044
11
1.06589
21
-2.58016
0
LINE
8
BLACK
10
1.06589
20
-2.58016
11
1.06321
21
-2.57828
0
LINE
8
BLACK
10
1.06321
20
-2.57828
11
1.06039
21
-2.57665
0
LINE
8
BLACK
10
1.06039
20
-2.57665
11
1.05968
21
-2.57581
0
LINE
8
BLACK
10
1.05968
20
-2.57581
11
1.05878
21
-2.57518
0
LINE
8
BLACK
10
1.05878
20
-2.57518
11
0.620922
21
-2.13732
0
LINE
8
BLACK
10
0.620922
20
-2.13732
11
0.620291
21
-2.13642
0
LINE
8
BLACK
10
0.620291
20
-2.13642
11
0.619449
21
-2.13571
0
LINE
8
BLACK
10
0.619449
20
-2.13571
11
0.617817
21
-2.13289
0
LINE
8
BLACK
10
0.617817
20
-2.13289
11
0.615942
21
-2.13021
0
LINE
8
BLACK
10
0.615942
20
-2.13021
11
0.615657
21
-2.12915
0
LINE
8
BLACK
10
0.615657
20
-2.12915
11
0.615108
21
-2.12819
0
LINE
8
BLACK
10
0.615108
20
-2.12819
11
0.614541
21
-2.12498
0
LINE
8
BLACK
10
0.614541
20
-2.12498
11
0.613695
21
-2.12182
0
LINE
8
BLACK
10
0.613695
20
-2.12182
11
0.613791
21
-2.12073
0
LINE
8
BLACK
10
0.613791
20
-2.12073
11
0.6136
21
-2.11964
0
LINE
8
BLACK
10
0.6136
20
-2.11964
11
0.6136
21
-0.25123
0
LINE
8
BLACK
10
0.6136
20
-0.25123
11
0.61349
21
-0.25011
0
LINE
8
BLACK
10
0.61349
20
-0.25011
11
0.61237
21
-0.25
0
LINE
8
BLACK
10
0.61237
20
-0.25
11
0.14023
21
-0.25
0
LINE
8
BLACK
10
0.14023
20
-0.25
11
0.13911
21
-0.25011
0
LINE
8
BLACK
10
0.13911
20
-0.25011
11
0.139
21
-0.25123
0
LINE
8
BLACK
10
0.139
20
-0.25123
11
0.139
21
-1.92657
0
LINE
8
BLACK
10
0.139
20
-1.92657
11
0.13911
21
-1.92769
0
LINE
8
BLACK
10
0.13911
20
-1.92769
11
0.14023
21
-1.9278
0
LINE
8
BLACK
10
0.14023
20
-1.9278
11
0.225
21
-1.9278
0
LINE
8
BLACK
10
0.225
20
-1.9278
11
0.227155
21
-1.92818
0
LINE
8
BLACK
10
0.227155
20
-1.92818
11
0.229341
21
-1.92818
0
LINE
8
BLACK
10
0.229341
20
-1.92818
11
0.231397
21
-1.92893
0
LINE
8
BLACK
10
0.231397
20
-1.92893
11
0.233551
21
-1.92931
0
LINE
8
BLACK
10
0.233551
20
-1.92931
11
0.235444
21
-1.9304
0
LINE
8
BLACK
10
0.235444
20
-1.9304
11
0.2375
21
-1.93115
0
LINE
8
BLACK
10
0.2375
20
-1.93115
11
0.239177
21
-1.93256
0
LINE
8
BLACK
10
0.239177
20
-1.93256
11
0.24107
21
-1.93365
0
LINE
8
BLACK
10
0.24107
20
-1.93365
11
0.242476
21
-1.93532
0
LINE
8
BLACK
10
0.242476
20
-1.93532
11
0.244151
21
-1.93673
0
LINE
8
BLACK
10
0.244151
20
-1.93673
11
0.245244
21
-1.93862
0
LINE
8
BLACK
10
0.245244
20
-1.93862
11
0.246651
21
-1.9403
0
LINE
8
BLACK
10
0.246651
20
-1.9403
11
0.247399
21
-1.94236
0
LINE
8
BLACK
10
0.247399
20
-1.94236
11
0.248492
21
-1.94425
0
LINE
8
BLACK
10
0.248492
20
-1.94425
11
0.248872
21
-1.9464
0
LINE
8
BLACK
10
0.248872
20
-1.9464
11
0.24962
21
-1.94846
0
LINE
8
BLACK
10
0.24962
20
-1.94846
11
0.24962
21
-1.95064
0
LINE
8
BLACK
10
0.24962
20
-1.95064
11
0.25
21
-1.9528
0
LINE
8
BLACK
10
0.25
20
-1.9528
11
0.25
21
-3.57477
0
LINE
8
BLACK
10
0.25
20
-3.57477
11
0.25011
21
-3.57589
0
LINE
8
BLACK
10
0.25011
20
-3.57589
11
0.25123
21
-3.576
0
LINE
8
BLACK
10
0.25123
20
-3.576
11
1.92657
21
-3.576
0
LINE
8
BLACK
10
1.92657
20
-3.576
11
1.92769
21
-3.57589
0
LINE
8
BLACK
10
1.92769
20
-3.57589
11
1.9278
21
-3.57477
0
LINE
8
BLACK
10
1.9278
20
-3.57477
11
1.9278
21
-3.2815
0
LINE
8
BLACK
10
1.9278
20
-3.2815
11
1.92818
21
-3.27934
0
LINE
8
BLACK
10
1.92818
20
-3.27934
11
1.92818
21
-3.27716
0
LINE
8
BLACK
10
1.92818
20
-3.27716
11
1.92893
21
-3.2751
0
LINE
8
BLACK
10
1.92893
20
-3.2751
11
1.92931
21
-3.27295
0
LINE
8
BLACK
10
1.92931
20
-3.27295
11
1.9304
21
-3.27106
0
LINE
8
BLACK
10
1.9304
20
-3.27106
11
1.93115
21
-3.269
0
LINE
8
BLACK
10
1.93115
20
-3.269
11
1.93256
21
-3.26732
0
LINE
8
BLACK
10
1.93256
20
-3.26732
11
1.93365
21
-3.26543
0
LINE
8
BLACK
10
1.93365
20
-3.26543
11
1.93532
21
-3.26402
0
LINE
8
BLACK
10
1.93532
20
-3.26402
11
1.93673
21
-3.26235
0
LINE
8
BLACK
10
1.93673
20
-3.26235
11
1.93862
21
-3.26126
0
LINE
8
BLACK
10
1.93862
20
-3.26126
11
1.9403
21
-3.25985
0
LINE
8
BLACK
10
1.9403
20
-3.25985
11
1.94236
21
-3.2591
0
LINE
8
BLACK
10
1.94236
20
-3.2591
11
1.94425
21
-3.25801
0
LINE
8
BLACK
10
1.94425
20
-3.25801
11
1.9464
21
-3.25763
0
LINE
8
BLACK
10
1.9464
20
-3.25763
11
1.94846
21
-3.25688
0
LINE
8
BLACK
10
1.94846
20
-3.25688
11
1.95064
21
-3.25688
0
LINE
8
BLACK
10
1.95064
20
-3.25688
11
1.9528
21
-3.2565
0
LINE
8
BLACK
10
1.9528
20
-3.2565
11
3.7023
21
-3.2565
0
LINE
8
BLACK
10
3.7023
20
-3.2565
11
3.70445
21
-3.25688
0
LINE
8
BLACK
10
3.70445
20
-3.25688
11
3.70664
21
-3.25688
0
LINE
8
BLACK
10
3.70664
20
-3.25688
11
3.7087
21
-3.25763
0
LINE
8
BLACK
10
3.7087
20
-3.25763
11
3.71085
21
-3.25801
0
LINE
8
BLACK
10
3.71085
20
-3.25801
11
3.71274
21
-3.2591
0
LINE
8
BLACK
10
3.71274
20
-3.2591
11
3.7148
21
-3.25985
0
LINE
8
BLACK
10
3.7148
20
-3.25985
11
3.71648
21
-3.26126
0
LINE
8
BLACK
10
3.71648
20
-3.26126
11
3.71837
21
-3.26235
0
LINE
8
BLACK
10
3.71837
20
-3.26235
11
3.71978
21
-3.26402
0
LINE
8
BLACK
10
3.71978
20
-3.26402
11
3.72145
21
-3.26543
0
LINE
8
BLACK
10
3.72145
20
-3.26543
11
3.72254
21
-3.26732
0
LINE
8
BLACK
10
3.72254
20
-3.26732
11
3.72395
21
-3.269
0
LINE
8
BLACK
10
3.72395
20
-3.269
11
3.7247
21
-3.27106
0
LINE
8
BLACK
10
3.7247
20
-3.27106
11
3.72579
21
-3.27295
0
LINE
8
BLACK
10
3.72579
20
-3.27295
11
3.72617
21
-3.2751
0
LINE
8
BLACK
10
3.72617
20
-3.2751
11
3.72692
21
-3.27716
0
LINE
8
BLACK
10
3.72692
20
-3.27716
11
3.72692
21
-3.27934
0
LINE
8
BLACK
10
3.72692
20
-3.27934
11
3.7273
21
-3.2815
0
LINE
8
BLACK
10
3.7273
20
-3.2815
11
3.7273
21
-3.46377
0
LINE
8
BLACK
10
3.7273
20
-3.46377
11
3.72741
21
-3.46489
0
LINE
8
BLACK
10
3.72741
20
-3.46489
11
3.72853
21
-3.465
0
LINE
8
BLACK
10
3.72853
20
-3.465
11
10.9444
21
-3.465
0
LINE
8
BLACK
10
10.9444
20
-3.465
11
10.9455
21
-3.46519
0
LINE
8
BLACK
10
10.9455
20
-3.46519
11
10.9466
21
-3.46509
0
LINE
8
BLACK
10
10.9466
20
-3.46509
11
10.9498
21
-3.46594
0
LINE
8
BLACK
10
10.9498
20
-3.46594
11
10.953
21
-3.46651
0
LINE
8
BLACK
10
10.953
20
-3.46651
11
10.9539
21
-3.46706
0
LINE
8
BLACK
10
10.9539
20
-3.46706
11
10.955
21
-3.46734
0
LINE
8
BLACK
10
10.955
20
-3.46734
11
10.9577
21
-3.46922
0
LINE
8
BLACK
10
10.9577
20
-3.46922
11
10.9605
21
-3.47085
0
LINE
8
BLACK
10
10.9605
20
-3.47085
11
10.9612
21
-3.47169
0
LINE
8
BLACK
10
10.9612
20
-3.47169
11
10.9621
21
-3.47232
0
LINE
8
BLACK
10
10.9621
20
-3.47232
11
11.4
21
-3.91018
0
LINE
8
BLACK
10
11.4
20
-3.91018
11
11.4006
21
-3.91108
0
LINE
8
BLACK
10
11.4006
20
-3.91108
11
11.4015
21
-3.91179
0
LINE
8
BLACK
10
11.4015
20
-3.91179
11
11.4031
21
-3.91461
0
LINE
8
BLACK
10
11.4031
20
-3.91461
11
11.405
21
-3.91729
0
LINE
8
BLACK
10
11.405
20
-3.91729
11
11.4052
21
-3.91835
0
LINE
8
BLACK
10
11.4052
20
-3.91835
11
11.4058
21
-3.91931
0
LINE
8
BLACK
10
11.4058
20
-3.91931
11
11.4064
21
-3.92252
0
LINE
8
BLACK
10
11.4064
20
-3.92252
11
11.4072
21
-3.92568
0
LINE
8
BLACK
10
11.4072
20
-3.92568
11
11.4071
21
-3.92677
0
LINE
8
BLACK
10
11.4071
20
-3.92677
11
11.4073
21
-3.92786
0
LINE
8
BLACK
10
11.4073
20
-3.92786
11
11.4073
21
-6.26877
0
LINE
8
BLACK
10
11.4073
20
-6.26877
11
11.4074
21
-6.26989
0
LINE
8
BLACK
10
11.4074
20
-6.26989
11
11.4085
21
-6.27
0
LINE
8
BLACK
10
11.4085
20
-6.27
11
11.6561
21
-6.27
0
LINE
8
BLACK
10
11.6561
20
-6.27
11
11.6572
21
-6.26989
0
LINE
8
BLACK
10
11.6572
20
-6.26989
11
11.6573
21
-6.26877
0
LINE
8
BLACK
10
11.6573
20
-6.26877
11
11.6573
21
-5.24
0
LINE
8
BLACK
10
11.6573
20
-5.24
11
11.6577
21
-5.23785
0
LINE
8
BLACK
10
11.6577
20
-5.23785
11
11.6577
21
-5.23566
0
LINE
8
BLACK
10
11.6577
20
-5.23566
11
11.6584
21
-5.2336
0
LINE
8
BLACK
10
11.6584
20
-5.2336
11
11.6588
21
-5.23145
0
LINE
8
BLACK
10
11.6588
20
-5.23145
11
11.6599
21
-5.22956
0
LINE
8
BLACK
10
11.6599
20
-5.22956
11
11.6606
21
-5.2275
0
LINE
8
BLACK
10
11.6606
20
-5.2275
11
11.6621
21
-5.22582
0
LINE
8
BLACK
10
11.6621
20
-5.22582
11
11.6631
21
-5.22393
0
LINE
8
BLACK
10
11.6631
20
-5.22393
11
11.6648
21
-5.22252
0
LINE
8
BLACK
10
11.6648
20
-5.22252
11
11.6662
21
-5.22085
0
LINE
8
BLACK
10
11.6662
20
-5.22085
11
11.6681
21
-5.21976
0
LINE
8
BLACK
10
11.6681
20
-5.21976
11
11.6698
21
-5.21835
0
LINE
8
BLACK
10
11.6698
20
-5.21835
11
11.6719
21
-5.2176
0
LINE
8
BLACK
10
11.6719
20
-5.2176
11
11.6737
21
-5.21651
0
LINE
8
BLACK
10
11.6737
20
-5.21651
11
11.6759
21
-5.21613
0
LINE
8
BLACK
10
11.6759
20
-5.21613
11
11.678
21
-5.21538
0
LINE
8
BLACK
10
11.678
20
-5.21538
11
11.6801
21
-5.21538
0
LINE
8
BLACK
10
11.6801
20
-5.21538
11
11.6823
21
-5.215
0
LINE
8
BLACK
10
11.6823
20
-5.215
11
13.1323
21
-5.215
0
LINE
8
BLACK
10
13.1323
20
-5.215
11
13.1345
21
-5.21538
0
LINE
8
BLACK
10
13.1345
20
-5.21538
11
13.1366
21
-5.21538
0
LINE
8
BLACK
10
13.1366
20
-5.21538
11
13.1387
21
-5.21613
0
LINE
8
BLACK
10
13.1387
20
-5.21613
11
13.1409
21
-5.21651
0
LINE
8
BLACK
10
13.1409
20
-5.21651
11
13.1427
21
-5.2176
0
LINE
8
BLACK
10
13.1427
20
-5.2176
11
13.1448
21
-5.21835
0
LINE
8
BLACK
10
13.1448
20
-5.21835
11
13.1465
21
-5.21976
0
LINE
8
BLACK
10
13.1465
20
-5.21976
11
13.1484
21
-5.22085
0
LINE
8
BLACK
10
13.1484
20
-5.22085
11
13.1498
21
-5.22252
0
LINE
8
BLACK
10
13.1498
20
-5.22252
11
13.1515
21
-5.22393
0
LINE
8
BLACK
10
13.1515
20
-5.22393
11
13.1525
21
-5.22582
0
LINE
8
BLACK
10
13.1525
20
-5.22582
11
13.154
21
-5.2275
0
LINE
8
BLACK
10
13.154
20
-5.2275
11
13.1547
21
-5.22956
0
LINE
8
BLACK
10
13.1547
20
-5.22956
11
13.1558
21
-5.23145
0
LINE
8
BLACK
10
13.1558
20
-5.23145
11
13.1562
21
-5.2336
0
LINE
8
BLACK
10
13.1562
20
-5.2336
11
13.1569
21
-5.23566
0
LINE
8
BLACK
10
13.1569
20
-5.23566
11
13.1569
21
-5.23785
0
LINE
8
BLACK
10
13.1569
20
-5.23785
11
13.1573
21
-5.24
0
LINE
8
BLACK
10
13.1573
20
-5.24
11
13.1573
21
-8.355
0
LINE
8
BLACK
10
13.1573
20
-8.355
11
13.1569
21
-8.35715
0
LINE
8
BLACK
10
13.1569
20
-8.35715
11
13.1569
21
-8.35934
0
LINE
8
BLACK
10
13.1569
20
-8.35934
11
13.1562
21
-8.3614
0
LINE
8
BLACK
10
13.1562
20
-8.3614
11
13.1558
21
-8.36355
0
LINE
8
BLACK
10
13.1558
20
-8.36355
11
13.1547
21
-8.36544
0
LINE
8
BLACK
10
13.1547
20
-8.36544
11
13.154
21
-8.3675
0
LINE
8
BLACK
10
13.154
20
-8.3675
11
13.1525
21
-8.36918
0
LINE
8
BLACK
10
13.1525
20
-8.36918
11
13.1515
21
-8.37107
0
LINE
8
BLACK
10
13.1515
20
-8.37107
11
13.1498
21
-8.37248
0
LINE
8
BLACK
10
13.1498
20
-8.37248
11
13.1484
21
-8.37415
0
LINE
8
BLACK
10
13.1484
20
-8.37415
11
13.1465
21
-8.37524
0
LINE
8
BLACK
10
13.1465
20
-8.37524
11
13.1448
21
-8.37665
0
LINE
8
BLACK
10
13.1448
20
-8.37665
11
13.1427
21
-8.3774
0
LINE
8
BLACK
10
13.1427
20
-8.3774
11
13.1409
21
-8.37849
0
LINE
8
BLACK
10
13.1409
20
-8.37849
11
13.1387
21
-8.37887
0
LINE
8
BLACK
10
13.1387
20
-8.37887
11
13.1366
21
-8.37962
0
LINE
8
BLACK
10
13.1366
20
-8.37962
11
13.1345
21
-8.37962
0
LINE
8
BLACK
10
13.1345
20
-8.37962
11
13.1323
21
-8.38
0
LINE
8
BLACK
10
13.1323
20
-8.38
11
9.1823
21
-8.38
0
LINE
8
BLACK
10
9.1823
20
-8.38
11
9.18014
21
-8.37962
0
LINE
8
BLACK
10
9.18014
20
-8.37962
11
9.17796
21
-8.37962
0
LINE
8
BLACK
10
9.17796
20
-8.37962
11
9.1759
21
-8.37887
0
LINE
8
BLACK
10
9.1759
20
-8.37887
11
9.17375
21
-8.37849
0
LINE
8
BLACK
10
9.17375
20
-8.37849
11
9.17186
21
-8.3774
0
LINE
8
BLACK
10
9.17186
20
-8.3774
11
9.1698
21
-8.37665
0
LINE
8
BLACK
10
9.1698
20
-8.37665
11
9.16812
21
-8.37524
0
LINE
8
BLACK
10
9.16812
20
-8.37524
11
9.16623
21
-8.37415
0
LINE
8
BLACK
10
9.16623
20
-8.37415
11
9.16482
21
-8.37248
0
LINE
8
BLACK
10
9.16482
20
-8.37248
11
9.16315
21
-8.37107
0
LINE
8
BLACK
10
9.16315
20
-8.37107
11
9.16206
21
-8.36918
0
LINE
8
BLACK
10
9.16206
20
-8.36918
11
9.16065
21
-8.3675
0
LINE
8
BLACK
10
9.16065
20
-8.3675
11
9.1599
21
-8.36544
0
LINE
8
BLACK
10
9.1599
20
-8.36544
11
9.15881
21
-8.36355
0
LINE
8
BLACK
10
9.15881
20
-8.36355
11
9.15843
21
-8.3614
0
LINE
8
BLACK
10
9.15843
20
-8.3614
11
9.15768
21
-8.35934
0
LINE
8
BLACK
10
9.15768
20
-8.35934
11
9.15768
21
-8.35715
0
LINE
8
BLACK
10
9.15768
20
-8.35715
11
9.1573
21
-8.355
0
LINE
8
BLACK
10
9.1573
20
-8.355
11
9.1573
21
-5.24
0
LINE
8
BLACK
10
9.1573
20
-5.24
11
9.15768
21
-5.23785
0
LINE
8
BLACK
10
9.15768
20
-5.23785
11
9.15768
21
-5.23566
0
LINE
8
BLACK
10
9.15768
20
-5.23566
11
9.15843
21
-5.2336
0
LINE
8
BLACK
10
9.15843
20
-5.2336
11
9.15881
21
-5.23145
0
LINE
8
BLACK
10
9.15881
20
-5.23145
11
9.1599
21
-5.22956
0
LINE
8
BLACK
10
9.1599
20
-5.22956
11
9.16065
21
-5.2275
0
LINE
8
BLACK
10
9.16065
20
-5.2275
11
9.16206
21
-5.22582
0
LINE
8
BLACK
10
9.16206
20
-5.22582
11
9.16315
21
-5.22393
0
LINE
8
BLACK
10
9.16315
20
-5.22393
11
9.16482
21
-5.22252
0
LINE
8
BLACK
10
9.16482
20
-5.22252
11
9.16623
21
-5.22085
0
LINE
8
BLACK
10
9.16623
20
-5.22085
11
9.16812
21
-5.21976
0
LINE
8
BLACK
10
9.16812
20
-5.21976
11
9.1698
21
-5.21835
0
LINE
8
BLACK
10
9.1698
20
-5.21835
11
9.17186
21
-5.2176
0
LINE
8
BLACK
10
9.17186
20
-5.2176
11
9.17375
21
-5.21651
0
LINE
8
BLACK
10
9.17375
20
-5.21651
11
9.1759
21
-5.21613
0
LINE
8
BLACK
10
9.1759
20
-5.21613
11
9.17796
21
-5.21538
0
LINE
8
BLACK
10
9.17796
20
-5.21538
11
9.18014
21
-5.21538
0
LINE
8
BLACK
10
9.18014
20
-5.21538
11
9.1823
21
-5.215
0
LINE
8
BLACK
10
9.1823
20
-5.215
11
10.6322
21
-5.215
0
LINE
8
BLACK
10
10.6322
20
-5.215
11
10.6344
21
-5.21538
0
LINE
8
BLACK
10
10.6344
20
-5.21538
11
10.6365
21
-5.21538
0
LINE
8
BLACK
10
10.6365
20
-5.21538
11
10.6386
21
-5.21613
0
LINE
8
BLACK
10
10.6386
20
-5.21613
11
10.6408
21
-5.21651
0
LINE
8
BLACK
10
10.6408
20
-5.21651
11
10.6426
21
-5.2176
0
LINE
8
BLACK
10
10.6426
20
-5.2176
11
10.6447
21
-5.21835
0
LINE
8
BLACK
10
10.6447
20
-5.21835
11
10.6464
21
-5.21976
0
LINE
8
BLACK
10
10.6464
20
-5.21976
11
10.6483
21
-5.22085
0
LINE
8
BLACK
10
10.6483
20
-5.22085
11
10.6497
21
-5.22252
0
LINE
8
BLACK
10
10.6497
20
-5.22252
11
10.6514
21
-5.22393
0
LINE
8
BLACK
10
10.6514
20
-5.22393
11
10.6524
21
-5.22582
0
LINE
8
BLACK
10
10.6524
20
-5.22582
11
10.6539
21
-5.2275
0
LINE
8
BLACK
10
10.6539
20
-5.2275
11
10.6546
21
-5.22956
0
LINE
8
BLACK
10
10.6546
20
-5.22956
11
10.6557
21
-5.23145
0
LINE
8
BLACK
10
10.6557
20
-5.23145
11
10.6561
21
-5.2336
0
LINE
8
BLACK
10
10.6561
20
-5.2336
11
10.6568
21
-5.23566
0
LINE
8
BLACK
10
10.6568
20
-5.23566
11
10.6568
21
-5.23785
0
LINE
8
BLACK
10
10.6568
20
-5.23785
11
10.6572
21
-5.24
0
LINE
8
BLACK
10
10.6572
20
-5.24
11
10.6572
21
-6.26877
0
LINE
8
BLACK
10
10.6572
20
-6.26877
11
10.6573
21
-6.26989
0
LINE
8
BLACK
10
10.6573
20
-6.26989
11
10.6584
21
-6.27
0
LINE
8
BLACK
10
10.6584
20
-6.27
11
10.906
21
-6.27
0
LINE
8
BLACK
10
10.906
20
-6.27
11
10.9071
21
-6.26989
0
LINE
8
BLACK
10
10.9071
20
-6.26989
11
10.9072
21
-6.26877
0
LINE
8
BLACK
10
10.9072
20
-6.26877
11
10.9072
21
-3.96623
0
LINE
8
BLACK
10
10.9072
20
-3.96623
11
10.9071
21
-3.96511
0
LINE
8
BLACK
10
10.9071
20
-3.96511
11
10.906
21
-3.965
0
LINE
8
BLACK
10
10.906
20
-3.965
11
3.97843
21
-3.965
0
LINE
8
BLACK
10
3.97843
20
-3.965
11
3.97731
21
-3.96511
0
LINE
8
BLACK
10
3.97731
20
-3.96511
11
3.9772
21
-3.96623
0
LINE
8
BLACK
10
3.9772
20
-3.96623
11
3.9772
21
-6.26877
0
LINE
8
BLACK
10
3.9772
20
-6.26877
11
3.97731
21
-6.26989
0
LINE
8
BLACK
10
3.97731
20
-6.26989
11
3.97843
21
-6.27
0
LINE
8
BLACK
10
3.97843
20
-6.27
11
4.22597
21
-6.27
0
LINE
8
BLACK
10
4.22597
20
-6.27
11
4.22709
21
-6.26989
0
LINE
8
BLACK
10
4.22709
20
-6.26989
11
4.2272
21
-6.26877
0
LINE
8
BLACK
10
4.2272
20
-6.26877
11
4.2272
21
-5.24
0
LINE
8
BLACK
10
4.2272
20
-5.24
11
4.22758
21
-5.23785
0
LINE
8
BLACK
10
4.22758
20
-5.23785
11
4.22758
21
-5.23566
0
LINE
8
BLACK
10
4.22758
20
-5.23566
11
4.22833
21
-5.2336
0
LINE
8
BLACK
10
4.22833
20
-5.2336
11
4.22871
21
-5.23145
0
LINE
8
BLACK
10
4.22871
20
-5.23145
11
4.2298
21
-5.22956
0
LINE
8
BLACK
10
4.2298
20
-5.22956
11
4.23055
21
-5.2275
0
LINE
8
BLACK
10
4.23055
20
-5.2275
11
4.23196
21
-5.22582
0
LINE
8
BLACK
10
4.23196
20
-5.22582
11
4.23305
21
-5.22393
0
LINE
8
BLACK
10
4.23305
20
-5.22393
11
4.23472
21
-5.22252
0
LINE
8
BLACK
10
4.23472
20
-5.22252
11
4.23613
21
-5.22085
0
LINE
8
BLACK
10
4.23613
20
-5.22085
11
4.23802
21
-5.21976
0
LINE
8
BLACK
10
4.23802
20
-5.21976
11
4.2397
21
-5.21835
0
LINE
8
BLACK
10
4.2397
20
-5.21835
11
4.24176
21
-5.2176
0
LINE
8
BLACK
10
4.24176
20
-5.2176
11
4.24365
21
-5.21651
0
LINE
8
BLACK
10
4.24365
20
-5.21651
11
4.2458
21
-5.21613
0
LINE
8
BLACK
10
4.2458
20
-5.21613
11
4.24786
21
-5.21538
0
LINE
8
BLACK
10
4.24786
20
-5.21538
11
4.25005
21
-5.21538
0
LINE
8
BLACK
10
4.25005
20
-5.21538
11
4.2522
21
-5.215
0
LINE
8
BLACK
10
4.2522
20
-5.215
11
5.7022
21
-5.215
0
LINE
8
BLACK
10
5.7022
20
-5.215
11
5.70435
21
-5.21538
0
LINE
8
BLACK
10
5.70435
20
-5.21538
11
5.70654
21
-5.21538
0
LINE
8
BLACK
10
5.70654
20
-5.21538
11
5.7086
21
-5.21613
0
LINE
8
BLACK
10
5.7086
20
-5.21613
11
5.71075
21
-5.21651
0
LINE
8
BLACK
10
5.71075
20
-5.21651
11
5.71264
21
-5.2176
0
LINE
8
BLACK
10
5.71264
20
-5.2176
11
5.7147
21
-5.21835
0
LINE
8
BLACK
10
5.7147
20
-5.21835
11
5.71638
21
-5.21976
0
LINE
8
BLACK
10
5.71638
20
-5.21976
11
5.71827
21
-5.22085
0
LINE
8
BLACK
10
5.71827
20
-5.22085
11
5.71968
21
-5.22252
0
LINE
8
BLACK
10
5.71968
20
-5.22252
11
5.72135
21
-5.22393
0
LINE
8
BLACK
10
5.72135
20
-5.22393
11
5.72244
21
-5.22582
0
LINE
8
BLACK
10
5.72244
20
-5.22582
11
5.72385
21
-5.2275
0
LINE
8
BLACK
10
5.72385
20
-5.2275
11
5.7246
21
-5.22956
0
LINE
8
BLACK
10
5.7246
20
-5.22956
11
5.72569
21
-5.23145
0
LINE
8
BLACK
10
5.72569
20
-5.23145
11
5.72607
21
-5.2336
0
LINE
8
BLACK
10
5.72607
20
-5.2336
11
5.72682
21
-5.23566
0
LINE
8
BLACK
10
5.72682
20
-5.23566
11
5.72682
21
-5.23785
0
LINE
8
BLACK
10
5.72682
20
-5.23785
11
5.7272
21
-5.24
0
LINE
8
BLACK
10
5.7272
20
-5.24
11
5.7272
21
-8.355
0
LINE
8
BLACK
10
5.7272
20
-8.355
11
5.72682
21
-8.35715
0
LINE
8
BLACK
10
5.72682
20
-8.35715
11
5.72682
21
-8.35934
0
LINE
8
BLACK
10
5.72682
20
-8.35934
11
5.72607
21
-8.3614
0
LINE
8
BLACK
10
5.72607
20
-8.3614
11
5.72569
21
-8.36355
0
LINE
8
BLACK
10
5.72569
20
-8.36355
11
5.7246
21
-8.36544
0
LINE
8
BLACK
10
5.7246
20
-8.36544
11
5.72385
21
-8.3675
0
LINE
8
BLACK
10
5.72385
20
-8.3675
11
5.72244
21
-8.36918
0
LINE
8
BLACK
10
5.72244
20
-8.36918
11
5.72135
21
-8.37107
0
LINE
8
BLACK
10
5.72135
20
-8.37107
11
5.71968
21
-8.37248
0
LINE
8
BLACK
10
5.71968
20
-8.37248
11
5.71827
21
-8.37415
0
LINE
8
BLACK
10
5.71827
20
-8.37415
11
5.71638
21
-8.37524
0
LINE
8
BLACK
10
5.71638
20
-8.37524
11
5.7147
21
-8.37665
0
LINE
8
BLACK
10
5.7147
20
-8.37665
11
5.71264
21
-8.3774
0
LINE
8
BLACK
10
5.71264
20
-8.3774
11
5.71075
21
-8.37849
0
LINE
8
BLACK
10
5.71075
20
-8.37849
11
5.7086
21
-8.37887
0
LINE
8
BLACK
10
5.7086
20
-8.37887
11
5.70654
21
-8.37962
0
LINE
8
BLACK
10
5.70654
20
-8.37962
11
5.70435
21
-8.37962
0
LINE
8
BLACK
10
5.70435
20
-8.37962
11
5.7022
21
-8.38
0
LINE
8
BLACK
10
5.7022
20
-8.38
11
1.7522
21
-8.38
0
LINE
8
BLACK
10
1.7522
20
-8.38
11
1.75004
21
-8.37962
0
LINE
8
BLACK
10
1.75004
20
-8.37962
11
1.74786
21
-8.37962
0
LINE
8
BLACK
10
1.74786
20
-8.37962
11
1.7458
21
-8.37887
0
LINE
8
BLACK
10
1.7458
20
-8.37887
11
1.74365
21
-8.37849
0
LINE
8
BLACK
10
1.74365
20
-8.37849
11
1.74176
21
-8.3774
0
LINE
8
BLACK
10
1.74176
20
-8.3774
11
1.7397
21
-8.37665
0
LINE
8
BLACK
10
1.7397
20
-8.37665
11
1.73802
21
-8.37524
0
LINE
8
BLACK
10
1.73802
20
-8.37524
11
1.73613
21
-8.37415
0
LINE
8
BLACK
10
1.73613
20
-8.37415
11
1.73472
21
-8.37248
0
LINE
8
BLACK
10
1.73472
20
-8.37248
11
1.73305
21
-8.37107
0
LINE
8
BLACK
10
1.73305
20
-8.37107
11
1.73196
21
-8.36918
0
LINE
8
BLACK
10
1.73196
20
-8.36918
11
1.73055
21
-8.3675
0
LINE
8
BLACK
10
1.73055
20
-8.3675
11
1.7298
21
-8.36544
0
LINE
8
BLACK
10
1.7298
20
-8.36544
11
1.72871
21
-8.36355
0
LINE
8
BLACK
10
1.72871
20
-8.36355
11
1.72833
21
-8.3614
0
LINE
8
BLACK
10
1.72833
20
-8.3614
11
1.72758
21
-8.35934
0
LINE
8
BLACK
10
1.72758
20
-8.35934
11
1.72758
21
-8.35715
0
LINE
8
BLACK
10
1.72758
20
-8.35715
11
1.7272
21
-8.355
0
LINE
8
BLACK
10
1.7272
20
-8.355
11
1.7272
21
-5.24
0
LINE
8
BLACK
10
1.7272
20
-5.24
11
1.72758
21
-5.23785
0
LINE
8
BLACK
10
1.72758
20
-5.23785
11
1.72758
21
-5.23566
0
LINE
8
BLACK
10
1.72758
20
-5.23566
11
1.72833
21
-5.2336
0
LINE
8
BLACK
10
1.72833
20
-5.2336
11
1.72871
21
-5.23145
0
LINE
8
BLACK
10
1.72871
20
-5.23145
11
1.7298
21
-5.22956
0
LINE
8
BLACK
10
1.7298
20
-5.22956
11
1.73055
21
-5.2275
0
LINE
8
BLACK
10
1.73055
20
-5.2275
11
1.73196
21
-5.22582
0
LINE
8
BLACK
10
1.73196
20
-5.22582
11
1.73305
21
-5.22393
0
LINE
8
BLACK
10
1.73305
20
-5.22393
11
1.73472
21
-5.22252
0
LINE
8
BLACK
10
1.73472
20
-5.22252
11
1.73613
21
-5.22085
0
LINE
8
BLACK
10
1.73613
20
-5.22085
11
1.73802
21
-5.21976
0
LINE
8
BLACK
10
1.73802
20
-5.21976
11
1.7397
21
-5.21835
0
LINE
8
BLACK
10
1.7397
20
-5.21835
11
1.74176
21
-5.2176
0
LINE
8
BLACK
10
1.74176
20
-5.2176
11
1.74365
21
-5.21651
0
LINE
8
BLACK
10
1.74365
20
-5.21651
11
1.7458
21
-5.21613
0
LINE
8
BLACK
10
1.7458
20
-5.21613
11
1.74786
21
-5.21538
0
LINE
8
BLACK
10
1.74786
20
-5.21538
11
1.75004
21
-5.21538
0
LINE
8
BLACK
10
1.75004
20
-5.21538
11
1.7522
21
-5.215
0
LINE
8
BLACK
10
1.7522
20
-5.215
11
3.2023
21
-5.215
0
LINE
8
BLACK
10
3.2023
20
-5.215
11
3.20445
21
-5.21538
0
LINE
8
BLACK
10
3.20445
20
-5.21538
11
3.20664
21
-5.21538
0
LINE
8
BLACK
10
3.20664
20
-5.21538
11
3.2087
21
-5.21613
0
LINE
8
BLACK
10
3.2087
20
-5.21613
11
3.21085
21
-5.21651
0
LINE
8
BLACK
10
3.21085
20
-5.21651
11
3.21274
21
-5.2176
0
LINE
8
BLACK
10
3.21274
20
-5.2176
11
3.2148
21
-5.21835
0
LINE
8
BLACK
10
3.2148
20
-5.21835
11
3.21648
21
-5.21976
0
LINE
8
BLACK
10
3.21648
20
-5.21976
11
3.21837
21
-5.22085
0
LINE
8
BLACK
10
3.21837
20
-5.22085
11
3.21978
21
-5.22252
0
LINE
8
BLACK
10
3.21978
20
-5.22252
11
3.22145
21
-5.22393
0
LINE
8
BLACK
10
3.22145
20
-5.22393
11
3.22254
21
-5.22582
0
LINE
8
BLACK
10
3.22254
20
-5.22582
11
3.22395
21
-5.2275
0
LINE
8
BLACK
10
3.22395
20
-5.2275
11
3.2247
21
-5.22956
0
LINE
8
BLACK
10
3.2247
20
-5.22956
11
3.22579
21
-5.23145
0
LINE
8
BLACK
10
3.22579
20
-5.23145
11
3.22617
21
-5.2336
0
LINE
8
BLACK
10
3.22617
20
-5.2336
11
3.22692
21
-5.23566
0
LINE
8
BLACK
10
3.22692
20
-5.23566
11
3.22692
21
-5.23785
0
LINE
8
BLACK
10
3.22692
20
-5.23785
11
3.2273
21
-5.24
0
LINE
8
BLACK
10
3.2273
20
-5.24
11
3.2273
21
-6.26877
0
LINE
8
BLACK
10
3.2273
20
-6.26877
11
3.22741
21
-6.26989
0
LINE
8
BLACK
10
3.22741
20
-6.26989
11
3.22853
21
-6.27
0
LINE
8
BLACK
10
3.22853
20
-6.27
11
3.47607
21
-6.27
0
LINE
8
BLACK
10
3.47607
20
-6.27
11
3.47719
21
-6.26989
0
LINE
8
BLACK
10
3.47719
20
-6.26989
11
3.4773
21
-6.26877
0
LINE
8
BLACK
10
3.4773
20
-6.26877
11
3.4773
21
-4.17473
0
LINE
8
BLACK
10
3.4773
20
-4.17473
11
3.47719
21
-4.17361
0
LINE
8
BLACK
10
3.47719
20
-4.17361
11
3.47607
21
-4.1735
0
LINE
8
BLACK
10
3.47607
20
-4.1735
11
1.9528
21
-4.1735
0
LINE
8
BLACK
10
1.9528
20
-4.1735
11
1.95064
21
-4.17312
0
LINE
8
BLACK
10
1.95064
20
-4.17312
11
1.94846
21
-4.17312
0
LINE
8
BLACK
10
1.94846
20
-4.17312
11
1.9464
21
-4.17237
0
LINE
8
BLACK
10
1.9464
20
-4.17237
11
1.94425
21
-4.17199
0
LINE
8
BLACK
10
1.94425
20
-4.17199
11
1.94236
21
-4.1709
0
LINE
8
BLACK
10
1.94236
20
-4.1709
11
1.9403
21
-4.17015
0
LINE
8
BLACK
10
1.9403
20
-4.17015
11
1.93862
21
-4.16874
0
LINE
8
BLACK
10
1.93862
20
-4.16874
11
1.93673
21
-4.16765
0
LINE
8
BLACK
10
1.93673
20
-4.16765
11
1.93532
21
-4.16598
0
LINE
8
BLACK
10
1.93532
20
-4.16598
11
1.93365
21
-4.16457
0
LINE
8
BLACK
10
1.93365
20
-4.16457
11
1.93256
21
-4.16268
0
LINE
8
BLACK
10
1.93256
20
-4.16268
11
1.93115
21
-4.161
0
LINE
8
BLACK
10
1.93115
20
-4.161
11
1.9304
21
-4.15894
0
LINE
8
BLACK
10
1.9304
20
-4.15894
11
1.92931
21
-4.15705
0
LINE
8
BLACK
10
1.92931
20
-4.15705
11
1.92893
21
-4.1549
0
LINE
8
BLACK
10
1.92893
20
-4.1549
11
1.92818
21
-4.15284
0
LINE
8
BLACK
10
1.92818
20
-4.15284
11
1.92818
21
-4.15065
0
LINE
8
BLACK
10
1.92818
20
-4.15065
11
1.9278
21
-4.1485
0
LINE
8
BLACK
10
1.9278
20
-4.1485
11
1.9278
21
-3.85523
0
LINE
8
BLACK
10
1.9278
20
-3.85523
11
1.92769
21
-3.85411
0
LINE
8
BLACK
10
1.92769
20
-3.85411
11
1.92657
21
-3.854
0
LINE
8
BLACK
10
1.92657
20
-3.854
11
-1.92657
21
-3.854
0
LINE
8
BLACK
10
-1.92657
20
-3.854
11
-1.92769
21
-3.85411
0
LINE
8
BLACK
10
-1.92769
20
-3.85411
11
-1.9278
21
-3.85523
0
LINE
8
BLACK
10
-1.9278
20
-3.85523
11
-1.9278
21
-4.1485
0
LINE
8
BLACK
10
-1.9278
20
-4.1485
11
-1.92818
21
-4.15065
0
LINE
8
BLACK
10
-1.92818
20
-4.15065
11
-1.92818
21
-4.15284
0
LINE
8
BLACK
10
-1.92818
20
-4.15284
11
-1.92893
21
-4.1549
0
LINE
8
BLACK
10
-1.92893
20
-4.1549
11
-1.92931
21
-4.15705
0
LINE
8
BLACK
10
-1.92931
20
-4.15705
11
-1.9304
21
-4.15894
0
LINE
8
BLACK
10
-1.9304
20
-4.15894
11
-1.93115
21
-4.161
0
LINE
8
BLACK
10
-1.93115
20
-4.161
11
-1.93256
21
-4.16268
0
LINE
8
BLACK
10
-1.93256
20
-4.16268
11
-1.93365
21
-4.16457
0
LINE
8
BLACK
10
-1.93365
20
-4.16457
11
-1.93532
21
-4.16598
0
LINE
8
BLACK
10
-1.93532
20
-4.16598
11
-1.93673
21
-4.16765
0
LINE
8
BLACK
10
-1.93673
20
-4.16765
11
-1.93862
21
-4.16874
0
LINE
8
BLACK
10
-1.93862
20
-4.16874
11
-1.9403
21
-4.17015
0
LINE
8
BLACK
10
-1.9403
20
-4.17015
11
-1.94236
21
-4.1709
0
LINE
8
BLACK
10
-1.94236
20
-4.1709
11
-1.94425
21
-4.17199
0
LINE
8
BLACK
10
-1.94425
20
-4.17199
11
-1.9464
21
-4.17237
0
LINE
8
BLACK
10
-1.9464
20
-4.17237
11
-1.94846
21
-4.17312
0
LINE
8
BLACK
10
-1.94846
20
-4.17312
11
-1.95064
21
-4.17312
0
LINE
8
BLACK
10
-1.95064
20
-4.17312
11
-1.9528
21
-4.1735
0
LINE
8
BLACK
10
-1.9528
20
-4.1735
11
-3.47607
21
-4.1735
0
LINE
8
BLACK
10
-3.47607
20
-4.1735
11
-3.47719
21
-4.17361
0
LINE
8
BLACK
10
-3.47719
20
-4.17361
11
-3.4773
21
-4.17473
0
LINE
8
BLACK
10
-3.4773
20
-4.17473
11
-3.4773
21
-6.26877
0
LINE
8
BLACK
10
-3.4773
20
-6.26877
11
-3.47719
21
-6.26989
0
LINE
8
BLACK
10
-3.47719
20
-6.26989
11
-3.47607
21
-6.27
0
LINE
8
BLACK
10
-3.47607
20
-6.27
11
-3.22853
21
-6.27
0
LINE
8
BLACK
10
-3.22853
20
-6.27
11
-3.22741
21
-6.26989
0
LINE
8
BLACK
10
-3.22741
20
-6.26989
11
-3.2273
21
-6.26877
0
LINE
8
BLACK
10
-3.2273
20
-6.26877
11
-3.2273
21
-5.24
0
LINE
8
BLACK
10
-3.2273
20
-5.24
11
-3.22692
21
-5.23785
0
LINE
8
BLACK
10
-3.22692
20
-5.23785
11
-3.22692
21
-5.23566
0
LINE
8
BLACK
10
-3.22692
20
-5.23566
11
-3.22617
21
-5.2336
0
LINE
8
BLACK
10
-3.22617
20
-5.2336
11
-3.22579
21
-5.23145
0
LINE
8
BLACK
10
-3.22579
20
-5.23145
11
-3.2247
21
-5.22956
0
LINE
8
BLACK
10
-3.2247
20
-5.22956
11
-3.22395
21
-5.2275
0
LINE
8
BLACK
10
-3.22395
20
-5.2275
11
-3.22254
21
-5.22582
0
LINE
8
BLACK
10
-3.22254
20
-5.22582
11
-3.22145
21
-5.22393
0
LINE
8
BLACK
10
-3.22145
20
-5.22393
11
-3.21978
21
-5.22252
0
LINE
8
BLACK
10
-3.21978
20
-5.22252
11
-3.21837
21
-5.22085
0
LINE
8
BLACK
10
-3.21837
20
-5.22085
11
-3.21648
21
-5.21976
0
LINE
8
BLACK
10
-3.21648
20
-5.21976
11
-3.2148
21
-5.21835
0
LINE
8
BLACK
10
-3.2148
20
-5.21835
11
-3.21274
21
-5.2176
0
LINE
8
BLACK
10
-3.21274
20
-5.2176
11
-3.21085
21
-5.21651
0
LINE
8
BLACK
10
-3.21085
20
-5.21651
11
-3.2087
21
-5.21613
0
LINE
8
BLACK
10
-3.2087
20
-5.21613
11
-3.20664
21
-5.21538
0
LINE
8
BLACK
10
-3.20664
20
-5.21538
11
-3.20445
21
-5.21538
0
LINE
8
BLACK
10
-3.20445
20
-5.21538
11
-3.2023
21
-5.215
0
LINE
8
BLACK
10
-3.2023
20
-5.215
11
-1.7522
21
-5.215
0
LINE
8
BLACK
10
-1.7522
20
-5.215
11
-1.75004
21
-5.21538
0
LINE
8
BLACK
10
-1.75004
20
-5.21538
11
-1.74786
21
-5.21538
0
LINE
8
BLACK
10
-1.74786
20
-5.21538
11
-1.7458
21
-5.21613
0
LINE
8
BLACK
10
-1.7458
20
-5.21613
11
-1.74365
21
-5.21651
0
LINE
8
BLACK
10
-1.74365
20
-5.21651
11
-1.74176
21
-5.2176
0
LINE
8
BLACK
10
-1.74176
20
-5.2176
11
-1.7397
21
-5.21835
0
LINE
8
BLACK
10
-1.7397
20
-5.21835
11
-1.73802
21
-5.21976
0
LINE
8
BLACK
10
-1.73802
20
-5.21976
11
-1.73613
21
-5.22085
0
LINE
8
BLACK
10
-1.73613
20
-5.22085
11
-1.73472
21
-5.22252
0
LINE
8
BLACK
10
-1.73472
20
-5.22252
11
-1.73305
21
-5.22393
0
LINE
8
BLACK
10
-1.73305
20
-5.22393
11
-1.73196
21
-5.22582
0
LINE
8
BLACK
10
-1.73196
20
-5.22582
11
-1.73055
21
-5.2275
0
LINE
8
BLACK
10
-1.73055
20
-5.2275
11
-1.7298
21
-5.22956
0
LINE
8
BLACK
10
-1.7298
20
-5.22956
11
-1.72871
21
-5.23145
0
LINE
8
BLACK
10
-1.72871
20
-5.23145
11
-1.72833
21
-5.2336
0
LINE
8
BLACK
10
-1.72833
20
-5.2336
11
-1.72758
21
-5.23566
0
LINE
8
BLACK
10
-1.72758
20
-5.23566
11
-1.72758
21
-5.23785
0
LINE
8
BLACK
10
-1.72758
20
-5.23785
11
-1.7272
21
-5.24
0
LINE
8
BLACK
10
-1.7272
20
-5.24
11
-1.7272
21
-8.355
0
LINE
8
BLACK
10
-1.7272
20
-8.355
11
-1.72758
21
-8.35715
0
LINE
8
BLACK
10
-1.72758
20
-8.35715
11
-1.72758
21
-8.35934
0
LINE
8
BLACK
10
-1.72758
20
-8.35934
11
-1.72833
21
-8.3614
0
LINE
8
BLACK
10
-1.72833
20
-8.3614
11
-1.72871
21
-8.36355
0
LINE
8
BLACK
10
-1.72871
20
-8.36355
11
-1.7298
21
-8.36544
0
LINE
8
BLACK
10
-1.7298
20
-8.36544
11
-1.73055
21
-8.3675
0
LINE
8
BLACK
10
-1.73055
20
-8.3675
11
-1.73196
21
-8.36918
0
LINE
8
BLACK
10
-1.73196
20
-8.36918
11
-1.73305
21
-8.37107
0
LINE
8
BLACK
10
-1.73305
20
-8.37107
11
-1.73472
21
-8.37248
0
LINE
8
BLACK
10
-1.73472
20
-8.37248
11
-1.73613
21
-8.37415
0
LINE
8
BLACK
10
-1.73613
20
-8.37415
11
-1.73802
21
-8.37524
0
LINE
8
BLACK
10
-1.73802
20
-8.37524
11
-1.7397
21
-8.37665
0
LINE
8
BLACK
10
-1.7397
20
-8.37665
11
-1.74176
21
-8.3774
0
LINE
8
BLACK
10
-1.74176
20
-8.3774
11
-1.74365
21
-8.37849
0
LINE
8
BLACK
10
-1.74365
20
-8.37849
11
-1.7458
21
-8.37887
0
LINE
8
BLACK
10
-1.7458
20
-8.37887
11
-1.74786
21
-8.37962
0
LINE
8
BLACK
10
-1.74786
20
-8.37962
11
-1.75004
21
-8.37962
0
LINE
8
BLACK
10
-1.75004
20
-8.37962
11
-1.7522
21
-8.38
0
LINE
8
BLACK
10
-1.7522
20
-8.38
11
-5.7022
21
-8.38
0
LINE
8
BLACK
10
-5.7022
20
-8.38
11
-5.70435
21
-8.37962
0
LINE
8
BLACK
10
-5.70435
20
-8.37962
11
-5.70654
21
-8.37962
0
LINE
8
BLACK
10
-5.70654
20
-8.37962
11
-5.7086
21
-8.37887
0
LINE
8
BLACK
10
-5.7086
20
-8.37887
11
-5.71075
21
-8.37849
0
LINE
8
BLACK
10
-5.71075
20
-8.37849
11
-5.71264
21
-8.3774
0
LINE
8
BLACK
10
-5.71264
20
-8.3774
11
-5.7147
21
-8.37665
0
LINE
8
BLACK
10
-5.7147
20
-8.37665
11
-5.71638
21
-8.37524
0
LINE
8
BLACK
10
-5.71638
20
-8.37524
11
-5.71827
21
-8.37415
0
LINE
8
BLACK
10
-5.71827
20
-8.37415
11
-5.71968
21
-8.37248
0
LINE
8
BLACK
10
-5.71968
20
-8.37248
11
-5.72135
21
-8.37107
0
LINE
8
BLACK
10
-5.72135
20
-8.37107
11
-5.72244
21
-8.36918
0
LINE
8
BLACK
10
-5.72244
20
-8.36918
11
-5.72385
21
-8.3675
0
LINE
8
BLACK
10
-5.72385
20
-8.3675
11
-5.7246
21
-8.36544
0
LINE
8
BLACK
10
-5.7246
20
-8.36544
11
-5.72569
21
-8.36355
0
LINE
8
BLACK
10
-5.72569
20
-8.36355
11
-5.72607
21
-8.3614
0
LINE
8
BLACK
10
-5.72607
20
-8.3614
11
-5.72682
21
-8.35934
0
LINE
8
BLACK
10
-5.72682
20
-8.35934
11
-5.72682
21
-8.35715
0
LINE
8
BLACK
10
-5.72682
20
-8.35715
11
-5.7272
21
-8.355
0
LINE
8
BLACK
10
-5.7272
20
-8.355
11
-5.7272
21
-5.24
0
LINE
8
BLACK
10
-5.7272
20
-5.24
11
-5.72682
21
-5.23785
0
LINE
8
BLACK
10
-5.72682
20
-5.23785
11
-5.72682
21
-5.23566
0
LINE
8
BLACK
10
-5.72682
20
-5.23566
11
-5.72607
21
-5.2336
0
LINE
8
BLACK
10
-5.72607
20
-5.2336
11
-5.72569
21
-5.23145
0
LINE
8
BLACK
10
-5.72569
20
-5.23145
11
-5.7246
21
-5.22956
0
LINE
8
BLACK
10
-5.7246
20
-5.22956
11
-5.72385
21
-5.2275
0
LINE
8
BLACK
10
-5.72385
20
-5.2275
11
-5.72244
21
-5.22582
0
LINE
8
BLACK
10
-5.72244
20
-5.22582
11
-5.72135
21
-5.22393
0
LINE
8
BLACK
10
-5.72135
20
-5.22393
11
-5.71968
21
-5.22252
0
LINE
8
BLACK
10
-5.71968
20
-5.22252
11
-5.71827
21
-5.22085
0
LINE
8
BLACK
10
-5.71827
20
-5.22085
11
-5.71638
21
-5.21976
0
LINE
8
BLACK
10
-5.71638
20
-5.21976
11
-5.7147
21
-5.21835
0
LINE
8
BLACK
10
-5.7147
20
-5.21835
11
-5.71264
21
-5.2176
0
LINE
8
BLACK
10
-5.71264
20
-5.2176
11
-5.71075
21
-5.21651
0
LINE
8
BLACK
10
-5.71075
20
-5.21651
11
-5.7086
21
-5.21613
0
LINE
8
BLACK
10
-5.7086
20
-5.21613
11
-5.70654
21
-5.21538
0
LINE
8
BLACK
10
-5.70654
20
-5.21538
11
-5.70435
21
-5.21538
0
LINE
8
BLACK
10
-5.70435
20
-5.21538
11
-5.7022
21
-5.215
0
LINE
8
BLACK
10
-5.7022
20
-5.215
11
-4.2522
21
-5.215
0
LINE
8
BLACK
10
-4.2522
20
-5.215
11
-4.25005
21
-5.21538
0
LINE
8
BLACK
10
-4.25005
20
-5.21538
11
-4.24786
21
-5.21538
0
LINE
8
BLACK
10
-4.24786
20
-5.21538
11
-4.2458
21
-5.21613
0
LINE
8
BLACK
10
-4.2458
20
-5.21613
11
-4.24365
21
-5.21651
0
LINE
8
BLACK
10
-4.24365
20
-5.21651
11
-4.24176
21
-5.2176
0
LINE
8
BLACK
10
-4.24176
20
-5.2176
11
-4.2397
21
-5.21835
0
LINE
8
BLACK
10
-4.2397
20
-5.21835
11
-4.23802
21
-5.21976
0
LINE
8
BLACK
10
-4.23802
20
-5.21976
11
-4.23613
21
-5.22085
0
LINE
8
BLACK
10
-4.23613
20
-5.22085
11
-4.23472
21
-5.22252
0
LINE
8
BLACK
10
-4.23472
20
-5.22252
11
-4.23305
21
-5.22393
0
LINE
8
BLACK
10
-4.23305
20
-5.22393
11
-4.23196
21
-5.22582
0
LINE
8
BLACK
10
-4.23196
20
-5.22582
11
-4.23055
21
-5.2275
0
LINE
8
BLACK
10
-4.23055
20
-5.2275
11
-4.2298
21
-5.22956
0
LINE
8
BLACK
10
-4.2298
20
-5.22956
11
-4.22871
21
-5.23145
0
LINE
8
BLACK
10
-4.22871
20
-5.23145
11
-4.22833
21
-5.2336
0
LINE
8
BLACK
10
-4.22833
20
-5.2336
11
-4.22758
21
-5.23566
0
LINE
8
BLACK
10
-4.22758
20
-5.23566
11
-4.22758
21
-5.23785
0
LINE
8
BLACK
10
-4.22758
20
-5.23785
11
-4.2272
21
-5.24
0
LINE
8
BLACK
10
-4.2272
20
-5.24
11
-4.2272
21
-6.26877
0
LINE
8
BLACK
10
-4.2272
20
-6.26877
11
-4.22709
21
-6.26989
0
LINE
8
BLACK
10
-4.22709
20
-6.26989
11
-4.22597
21
-6.27
0
LINE
8
BLACK
10
-4.22597
20
-6.27
11
-3.97843
21
-6.27
0
LINE
8
BLACK
10
-3.97843
20
-6.27
11
-3.97731
21
-6.26989
0
LINE
8
BLACK
10
-3.97731
20
-6.26989
11
-3.9772
21
-6.26877
0
LINE
8
BLACK
10
-3.9772
20
-6.26877
11
-3.9772
21
-3.96623
0
LINE
8
BLACK
10
-3.9772
20
-3.96623
11
-3.97731
21
-3.96511
0
LINE
8
BLACK
10
-3.97731
20
-3.96511
11
-3.97843
21
-3.965
0
LINE
8
BLACK
10
-3.97843
20
-3.965
11
-10.906
21
-3.965
0
LINE
8
BLACK
10
-10.906
20
-3.965
11
-10.9071
21
-3.96511
0
LINE
8
BLACK
10
-10.9071
20
-3.96511
11
-10.9072
21
-3.96623
0
LINE
8
BLACK
10
-10.9072
20
-3.96623
11
-10.9072
21
-6.26877
0
LINE
8
BLACK
10
-10.9072
20
-6.26877
11
-10.9071
21
-6.26989
0
LINE
8
BLACK
10
-10.9071
20
-6.26989
11
-10.906
21
-6.27
0
LINE
8
BLACK
10
-10.906
20
-6.27
11
-10.6584
21
-6.27
0
LINE
8
BLACK
10
-10.6584
20
-6.27
11
-10.6573
21
-6.26989
0
LINE
8
BLACK
10
-10.6573
20
-6.26989
11
-10.6572
21
-6.26877
0
LINE
8
BLACK
10
-10.6572
20
-6.26877
11
-10.6572
21
-5.24
0
LINE
8
BLACK
10
-10.6572
20
-5.24
11
-10.6568
21
-5.23785
0
LINE
8
BLACK
10
-10.6568
20
-5.23785
11
-10.6568
21
-5.23566
0
LINE
8
BLACK
10
-10.6568
20
-5.23566
11
-10.6561
21
-5.2336
0
LINE
8
BLACK
10
-10.6561
20
-5.2336
11
-10.6557
21
-5.23145
0
LINE
8
BLACK
10
-10.6557
20
-5.23145
11
-10.6546
21
-5.22956
0
LINE
8
BLACK
10
-10.6546
20
-5.22956
11
-10.6539
21
-5.2275
0
LINE
8
BLACK
10
-10.6539
20
-5.2275
11
-10.6524
21
-5.22582
0
LINE
8
BLACK
10
-10.6524
20
-5.22582
11
-10.6514
21
-5.22393
0
LINE
8
BLACK
10
-10.6514
20
-5.22393
11
-10.6497
21
-5.22252
0
LINE
8
BLACK
10
-10.6497
20
-5.22252
11
-10.6483
21
-5.22085
0
LINE
8
BLACK
10
-10.6483
20
-5.22085
11
-10.6464
21
-5.21976
0
LINE
8
BLACK
10
-10.6464
20
-5.21976
11
-10.6447
21
-5.21835
0
LINE
8
BLACK
10
-10.6447
20
-5.21835
11
-10.6426
21
-5.2176
0
LINE
8
BLACK
10
-10.6426
20
-5.2176
11
-10.6408
21
-5.21651
0
LINE
8
BLACK
10
-10.6408
20
-5.21651
11
-10.6386
21
-5.21613
0
LINE
8
BLACK
10
-10.6386
20
-5.21613
11
-10.6365
21
-5.21538
0
LINE
8
BLACK
10
-10.6365
20
-5.21538
11
-10.6344
21
-5.21538
0
LINE
8
BLACK
10
-10.6344
20
-5.21538
11
-10.6322
21
-5.215
0
LINE
8
BLACK
10
-10.6322
20
-5.215
11
-9.1823
21
-5.215
0
LINE
8
BLACK
10
-9.1823
20
-5.215
11
-9.18014
21
-5.21538
0
LINE
8
BLACK
10
-9.18014
20
-5.21538
11
-9.17796
21
-5.21538
0
LINE
8
BLACK
10
-9.17796
20
-5.21538
11
-9.1759
21
-5.21613
0
LINE
8
BLACK
10
-9.1759
20
-5.21613
11
-9.17375
21
-5.21651
0
LINE
8
BLACK
10
-9.17375
20
-5.21651
11
-9.17186
21
-5.2176
0
LINE
8
BLACK
10
-9.17186
20
-5.2176
11
-9.1698
21
-5.21835
0
LINE
8
BLACK
10
-9.1698
20
-5.21835
11
-9.16812
21
-5.21976
0
LINE
8
BLACK
10
-9.16812
20
-5.21976
11
-9.16623
21
-5.22085
0
LINE
8
BLACK
10
-9.16623
20
-5.22085
11
-9.16482
21
-5.22252
0
LINE
8
BLACK
10
-9.16482
20
-5.22252
11
-9.16315
21
-5.22393
0
LINE
8
BLACK
10
-9.16315
20
-5.22393
11
-9.16206
21
-5.22582
0
LINE
8
BLACK
10
-9.16206
20
-5.22582
11
-9.16065
21
-5.2275
0
LINE
8
BLACK
10
-9.16065
20
-5.2275
11
-9.1599
21
-5.22956
0
LINE
8
BLACK
10
-9.1599
20
-5.22956
11
-9.15881
21
-5.23145
0
LINE
8
BLACK
10
-9.15881
20
-5.23145
11
-9.15843
21
-5.2336
0
LINE
8
BLACK
10
-9.15843
20
-5.2336
11
-9.15768
21
-5.23566
0
LINE
8
BLACK
10
-9.15768
20
-5.23566
11
-9.15768
21
-5.23785
0
LINE
8
BLACK
10
-9.15768
20
-5.23785
11
-9.1573
21
-5.24
0
LINE
8
BLACK
10
-9.1573
20
-5.24
11
-9.1573
21
-8.355
0
LINE
8
BLACK
10
-9.1573
20
-8.355
11
-9.15768
21
-8.35715
0
LINE
8
BLACK
10
-9.15768
20
-8.35715
11
-9.15768
21
-8.35934
0
LINE
8
BLACK
10
-9.15768
20
-8.35934
11
-9.15843
21
-8.3614
0
LINE
8
BLACK
10
-9.15843
20
-8.3614
11
-9.15881
21
-8.36355
0
LINE
8
BLACK
10
-9.15881
20
-8.36355
11
-9.1599
21
-8.36544
0
LINE
8
BLACK
10
-9.1599
20
-8.36544
11
-9.16065
21
-8.3675
0
LINE
8
BLACK
10
-9.16065
20
-8.3675
11
-9.16206
21
-8.36918
0
LINE
8
BLACK
10
-9.16206
20
-8.36918
11
-9.16315
21
-8.37107
0
LINE
8
BLACK
10
-9.16315
20
-8.37107
11
-9.16482
21
-8.37248
0
LINE
8
BLACK
10
-9.16482
20
-8.37248
11
-9.16623
21
-8.37415
0
LINE
8
BLACK
10
-9.16623
20
-8.37415
11
-9.16812
21
-8.37524
0
LINE
8
BLACK
10
-9.16812
20
-8.37524
11
-9.1698
21
-8.37665
0
LINE
8
BLACK
10
-9.1698
20
-8.37665
11
-9.17186
21
-8.3774
0
LINE
8
BLACK
10
-9.17186
20
-8.3774
11
-9.17375
21
-8.37849
0
LINE
8
BLACK
10
-9.17375
20
-8.37849
11
-9.1759
21
-8.37887
0
LINE
8
BLACK
10
-9.1759
20
-8.37887
11
-9.17796
21
-8.37962
0
LINE
8
BLACK
10
-9.17796
20
-8.37962
11
-9.18014
21
-8.37962
0
LINE
8
BLACK
10
-9.18014
20
-8.37962
11
-9.1823
21
-8.38
0
LINE
8
BLACK
10
-9.1823
20
-8.38
11
-13.1323
21
-8.38
0
LINE
8
BLACK
10
-13.1323
20
-8.38
11
-13.1345
21
-8.37962
0
LINE
8
BLACK
10
-13.1345
20
-8.37962
11
-13.1366
21
-8.37962
0
LINE
8
BLACK
10
-13.1366
20
-8.37962
11
-13.1387
21
-8.37887
0
LINE
8
BLACK
10
-13.1387
20
-8.37887
11
-13.1409
21
-8.37849
0
LINE
8
BLACK
10
-13.1409
20
-8.37849
11
-13.1427
21
-8.3774
0
LINE
8
BLACK
10
-13.1427
20
-8.3774
11
-13.1448
21
-8.37665
0
LINE
8
BLACK
10
-13.1448
20
-8.37665
11
-13.1465
21
-8.37524
0
LINE
8
BLACK
10
-13.1465
20
-8.37524
11
-13.1484
21
-8.37415
0
LINE
8
BLACK
10
-13.1484
20
-8.37415
11
-13.1498
21
-8.37248
0
LINE
8
BLACK
10
-13.1498
20
-8.37248
11
-13.1515
21
-8.37107
0
LINE
8
BLACK
10
-13.1515
20
-8.37107
11
-13.1525
21
-8.36918
0
LINE
8
BLACK
10
-13.1525
20
-8.36918
11
-13.154
21
-8.3675
0
LINE
8
BLACK
10
-13.154
20
-8.3675
11
-13.1547
21
-8.36544
0
LINE
8
BLACK
10
-13.1547
20
-8.36544
11
-13.1558
21
-8.36355
0
LINE
8
BLACK
10
-13.1558
20
-8.36355
11
-13.1562
21
-8.3614
0
LINE
8
BLACK
10
-13.1562
20
-8.3614
11
-13.1569
21
-8.35934
0
LINE
8
BLACK
10
-13.1569
20
-8.35934
11
-13.1569
21
-8.35715
0
LINE
8
BLACK
10
-13.1569
20
-8.35715
11
-13.1573
21
-8.355
0
LINE
8
BLACK
10
-13.1573
20
-8.355
11
-13.1573
21
-5.24
0
LINE
8
BLACK
10
-13.1573
20
-5.24
11
-13.1569
21
-5.23785
0
LINE
8
BLACK
10
-13.1569
20
-5.23785
11
-13.1569
21
-5.23566
0
LINE
8
BLACK
10
-13.1569
20
-5.23566
11
-13.1562
21
-5.2336
0
LINE
8
BLACK
10
-13.1562
20
-5.2336
11
-13.1558
21
-5.23145
0
LINE
8
BLACK
10
-13.1558
20
-5.23145
11
-13.1547
21
-5.22956
0
LINE
8
BLACK
10
-13.1547
20
-5.22956
11
-13.154
21
-5.2275
0
LINE
8
BLACK
10
-13.154
20
-5.2275
11
-13.1525
21
-5.22582
0
LINE
8
BLACK
10
-13.1525
20
-5.22582
11
-13.1515
21
-5.22393
0
LINE
8
BLACK
10
-13.1515
20
-5.22393
11
-13.1498
21
-5.22252
0
LINE
8
BLACK
10
-13.1498
20
-5.22252
11
-13.1484
21
-5.22085
0
LINE
8
BLACK
10
-13.1484
20
-5.22085
11
-13.1465
21
-5.21976
0
LINE
8
BLACK
10
-13.1465
20
-5.21976
11
-13.1448
21
-5.21835
0
LINE
8
BLACK
10
-13.1448
20
-5.21835
11
-13.1427
21
-5.2176
0
LINE
8
BLACK
10
-13.1427
20
-5.2176
11
-13.1409
21
-5.21651
0
LINE
8
BLACK
10
-13.1409
20
-5.21651
11
-13.1387
21
-5.21613
0
LINE
8
BLACK
10
-13.1387
20
-5.21613
11
-13.1366
21
-5.21538
0
LINE
8
BLACK
10
-13.1366
20
-5.21538
11
-13.1345
21
-5.21538
0
LINE
8
BLACK
10
-13.1345
20
-5.21538
11
-13.1323
21
-5.215
0
LINE
8
BLACK
10
-13.1323
20
-5.215
11
-11.6823
21
-5.215
0
LINE
8
BLACK
10
-11.6823
20
-5.215
11
-11.6801
21
-5.21538
0
LINE
8
BLACK
10
-11.6801
20
-5.21538
11
-11.678
21
-5.21538
0
LINE
8
BLACK
10
-11.678
20
-5.21538
11
-11.6759
21
-5.21613
0
LINE
8
BLACK
10
-11.6759
20
-5.21613
11
-11.6737
21
-5.21651
0
LINE
8
BLACK
10
-11.6737
20
-5.21651
11
-11.6719
21
-5.2176
0
LINE
8
BLACK
10
-11.6719
20
-5.2176
11
-11.6698
21
-5.21835
0
LINE
8
BLACK
10
-11.6698
20
-5.21835
11
-11.6681
21
-5.21976
0
LINE
8
BLACK
10
-11.6681
20
-5.21976
11
-11.6662
21
-5.22085
0
LINE
8
BLACK
10
-11.6662
20
-5.22085
11
-11.6648
21
-5.22252
0
LINE
8
BLACK
10
-11.6648
20
-5.22252
11
-11.6631
21
-5.22393
0
LINE
8
BLACK
10
-11.6631
20
-5.22393
11
-11.6621
21
-5.22582
0
LINE
8
BLACK
10
-11.6621
20
-5.22582
11
-11.6606
21
-5.2275
0
LINE
8
BLACK
10
-11.6606
20
-5.2275
11
-11.6599
21
-5.22956
0
LINE
8
BLACK
10
-11.6599
20
-5.22956
11
-11.6588
21
-5.23145
0
LINE
8
BLACK
10
-11.6588
20
-5.23145
11
-11.6584
21
-5.2336
0
LINE
8
BLACK
10
-11.6584
20
-5.2336
11
-11.6577
21
-5.23566
0
LINE
8
BLACK
10
-11.6577
20
-5.23566
11
-11.6577
21
-5.23785
0
LINE
8
BLACK
10
-11.6577
20
-5.23785
11
-11.6573
21
-5.24
0
LINE
8
BLACK
10
-11.6573
20
-5.24
11
-11.6573
21
-6.26877
0
LINE
8
BLACK
10
-11.6573
20
-6.26877
11
-11.6572
21
-6.26989
0
LINE
8
BLACK
10
-11.6572
20
-6.26989
11
-11.6561
21
-6.27
0
LINE
8
BLACK
10
-11.6561
20
-6.27
11
-11.4085
21
-6.27
0
LINE
8
BLACK
10
-11.4085
20
-6.27
11
-11.4074
21
-6.26989
0
LINE
8
BLACK
10
-11.4074
20
-6.26989
11
-11.4073
21
-6.26877
0
LINE
8
BLACK
10
-11.4073
20
-6.26877
11
-11.4073
21
-3.92786
0
LINE
8
BLACK
10
-11.4073
20
-3.92786
11
-11.4071
21
-3.92677
0
LINE
8
BLACK
10
-11.4071
20
-3.92677
11
-11.4072
21
-3.92568
0
LINE
8
BLACK
10
-11.4072
20
-3.92568
11
-11.4064
21
-3.92252
0
LINE
8
BLACK
10
-11.4064
20
-3.92252
11
-11.4058
21
-3.91931
0
LINE
8
BLACK
10
-11.4058
20
-3.91931
11
-11.4052
21
-3.91835
0
LINE
8
BLACK
10
-11.4052
20
-3.91835
11
-11.405
21
-3.91729
0
LINE
8
BLACK
10
-11.405
20
-3.91729
11
-11.4031
21
-3.91461
0
LINE
8
BLACK
10
-11.4031
20
-3.91461
11
-11.4015
21
-3.91179
0
LINE
8
BLACK
10
-11.4015
20
-3.91179
11
-11.4006
21
-3.91108
0
LINE
8
BLACK
10
-11.4006
20
-3.91108
11
-11.4
21
-3.91018
0
LINE
8
BLACK
10
-11.4
20
-3.91018
11
-10.9621
21
-3.47232
0
LINE
8
BLACK
10
-10.9621
20
-3.47232
11
-10.9612
21
-3.47169
0
LINE
8
BLACK
10
-10.9612
20
-3.47169
11
-10.9605
21
-3.47085
0
LINE
8
BLACK
10
-10.9605
20
-3.47085
11
-10.9577
21
-3.46922
0
LINE
8
BLACK
10
-10.9577
20
-3.46922
11
-10.955
21
-3.46734
0
LINE
8
BLACK
10
-10.955
20
-3.46734
11
-10.9539
21
-3.46706
0
LINE
8
BLACK
10
-10.9539
20
-3.46706
11
-10.953
21
-3.46651
0
LINE
8
BLACK
10
-10.953
20
-3.46651
11
-10.9498
21
-3.46594
0
LINE
8
BLACK
10
-10.9498
20
-3.46594
11
-10.9466
21
-3.46509
0
LINE
8
BLACK
10
-10.9466
20
-3.46509
11
-10.9455
21
-3.46519
0
LINE
8
BLACK
10
-10.9455
20
-3.46519
11
-10.9444
21
-3.465
0
LINE
8
BLACK
10
-10.9444
20
-3.465
11
-3.72853
21
-3.465
0
LINE
8
BLACK
10
-3.72853
20
-3.465
11
-3.72741
21
-3.46489
0
LINE
8
BLACK
10
-3.72741
20
-3.46489
11
-3.7273
21
-3.46377
0
LINE
8
BLACK
10
-3.7273
20
-3.46377
11
-3.7273
21
-3.2815
0
LINE
8
BLACK
10
-3.7273
20
-3.2815
11
-3.72692
21
-3.27934
0
LINE
8
BLACK
10
-3.72692
20
-3.27934
11
-3.72692
21
-3.27716
0
LINE
8
BLACK
10
-3.72692
20
-3.27716
11
-3.72617
21
-3.2751
0
LINE
8
BLACK
10
-3.72617
20
-3.2751
11
-3.72579
21
-3.27295
0
LINE
8
BLACK
10
-3.72579
20
-3.27295
11
-3.7247
21
-3.27106
0
LINE
8
BLACK
10
-3.7247
20
-3.27106
11
-3.72395
21
-3.269
0
LINE
8
BLACK
10
-3.72395
20
-3.269
11
-3.72254
21
-3.26732
0
LINE
8
BLACK
10
-3.72254
20
-3.26732
11
-3.72145
21
-3.26543
0
LINE
8
BLACK
10
-3.72145
20
-3.26543
11
-3.71978
21
-3.26402
0
LINE
8
BLACK
10
-3.71978
20
-3.26402
11
-3.71837
21
-3.26235
0
LINE
8
BLACK
10
-3.71837
20
-3.26235
11
-3.71648
21
-3.26126
0
LINE
8
BLACK
10
-3.71648
20
-3.26126
11
-3.7148
21
-3.25985
0
LINE
8
BLACK
10
-3.7148
20
-3.25985
11
-3.71274
21
-3.2591
0
LINE
8
BLACK
10
-3.71274
20
-3.2591
11
-3.71085
21
-3.25801
0
LINE
8
BLACK
10
-3.71085
20
-3.25801
11
-3.7087
21
-3.25763
0
LINE
8
BLACK
10
-3.7087
20
-3.25763
11
-3.70664
21
-3.25688
0
LINE
8
BLACK
10
-3.70664
20
-3.25688
11
-3.70445
21
-3.25688
0
LINE
8
BLACK
10
-3.70445
20
-3.25688
11
-3.7023
21
-3.2565
0
LINE
8
BLACK
10
-3.7023
20
-3.2565
11
-1.9528
21
-3.2565
0
LINE
8
BLACK
10
-1.9528
20
-3.2565
11
-1.95064
21
-3.25688
0
LINE
8
BLACK
10
-1.95064
20
-3.25688
11
-1.94846
21
-3.25688
0
LINE
8
BLACK
10
-1.94846
20
-3.25688
11
-1.9464
21
-3.25763
0
LINE
8
BLACK
10
-1.9464
20
-3.25763
11
-1.94425
21
-3.25801
0
LINE
8
BLACK
10
-1.94425
20
-3.25801
11
-1.94236
21
-3.2591
0
LINE
8
BLACK
10
-1.94236
20
-3.2591
11
-1.9403
21
-3.25985
0
LINE
8
BLACK
10
-1.9403
20
-3.25985
11
-1.93862
21
-3.26126
0
LINE
8
BLACK
10
-1.93862
20
-3.26126
11
-1.93673
21
-3.26235
0
LINE
8
BLACK
10
-1.93673
20
-3.26235
11
-1.93532
21
-3.26402
0
LINE
8
BLACK
10
-1.93532
20
-3.26402
11
-1.93365
21
-3.26543
0
LINE
8
BLACK
10
-1.93365
20
-3.26543
11
-1.93256
21
-3.26732
0
LINE
8
BLACK
10
-1.93256
20
-3.26732
11
-1.93115
21
-3.269
0
LINE
8
BLACK
10
-1.93115
20
-3.269
11
-1.9304
21
-3.27106
0
LINE
8
BLACK
10
-1.9304
20
-3.27106
11
-1.92931
21
-3.27295
0
LINE
8
BLACK
10
-1.92931
20
-3.27295
11
-1.92893
21
-3.2751
0
LINE
8
BLACK
10
-1.92893
20
-3.2751
11
-1.92818
21
-3.27716
0
LINE
8
BLACK
10
-1.92818
20
-3.27716
11
-1.92818
21
-3.27934
0
LINE
8
BLACK
10
-1.92818
20
-3.27934
11
-1.9278
21
-3.2815
0
LINE
8
BLACK
10
-1.9278
20
-3.2815
11
-1.9278
21
-3.57477
0
LINE
8
BLACK
10
-1.9278
20
-3.57477
11
-1.92769
21
-3.57589
0
LINE
8
BLACK
10
-1.92769
20
-3.57589
11
-1.92657
21
-3.576
0
LINE
8
BLACK
10
-1.92657
20
-3.576
11
-0.251229
21
-3.576
0
LINE
8
BLACK
10
-0.251229
20
-3.576
11
-0.25011
21
-3.57589
0
LINE
8
BLACK
10
-0.25011
20
-3.57589
11
-0.25
21
-3.57477
0
LINE
8
BLACK
10
-0.25
20
-3.57477
11
-0.25
21
-1.9528
0
LINE
8
BLACK
10
-0.25
20
-1.9528
11
-0.24962
21
-1.95064
0
LINE
8
BLACK
10
-0.24962
20
-1.95064
11
-0.24962
21
-1.94846
0
LINE
8
BLACK
10
-0.24962
20
-1.94846
11
-0.248872
21
-1.9464
0
LINE
8
BLACK
10
-0.248872
20
-1.9464
11
-0.248492
21
-1.94425
0
LINE
8
BLACK
10
-0.248492
20
-1.94425
11
-0.247399
21
-1.94236
0
LINE
8
BLACK
10
-0.247399
20
-1.94236
11
-0.246651
21
-1.9403
0
LINE
8
BLACK
10
-0.246651
20
-1.9403
11
-0.245244
21
-1.93862
0
LINE
8
BLACK
10
-0.245244
20
-1.93862
11
-0.244151
21
-1.93673
0
LINE
8
BLACK
10
-0.244151
20
-1.93673
11
-0.242476
21
-1.93532
0
LINE
8
BLACK
10
-0.242476
20
-1.93532
11
-0.24107
21
-1.93365
0
LINE
8
BLACK
10
-0.24107
20
-1.93365
11
-0.239177
21
-1.93256
0
LINE
8
BLACK
10
-0.239177
20
-1.93256
11
-0.2375
21
-1.93115
0
LINE
8
BLACK
10
-0.2375
20
-1.93115
11
-0.235444
21
-1.9304
0
LINE
8
BLACK
10
-0.235444
20
-1.9304
11
-0.233551
21
-1.92931
0
LINE
8
BLACK
10
-0.233551
20
-1.92931
11
-0.231397
21
-1.92893
0
LINE
8
BLACK
10
-0.231397
20
-1.92893
11
-0.229341
21
-1.92818
0
LINE
8
BLACK
10
-0.229341
20
-1.92818
11
-0.227155
21
-1.92818
0
LINE
8
BLACK
10
-0.227155
20
-1.92818
11
-0.225
21
-1.9278
0
LINE
8
BLACK
10
-0.225
20
-1.9278
11
-0.140229
21
-1.9278
0
LINE
8
BLACK
10
-0.140229
20
-1.9278
11
-0.13911
21
-1.92769
0
LINE
8
BLACK
10
-0.13911
20
-1.92769
11
-0.139
21
-1.92657
0
LINE
8
BLACK
10
-0.139
20
-1.92657
11
-0.139
21
1.92657
0
LINE
8
BLACK
10
-0.139
20
1.92657
11
-0.13911
21
1.92769
0
LINE
8
BLACK
10
-0.13911
20
1.92769
11
-0.14023
21
1.9278
0
LINE
8
BLACK
10
-0.14023
20
1.9278
11
-0.225
21
1.9278
0
LINE
8
BLACK
10
-0.225
20
1.9278
11
-0.227155
21
1.92818
0
LINE
8
BLACK
10
-0.227155
20
1.92818
11
-0.229341
21
1.92818
0
LINE
8
BLACK
10
-0.229341
20
1.92818
11
-0.231397
21
1.92893
0
LINE
8
BLACK
10
-0.231397
20
1.92893
11
-0.233551
21
1.92931
0
LINE
8
BLACK
10
-0.233551
20
1.92931
11
-0.235444
21
1.9304
0
LINE
8
BLACK
10
-0.235444
20
1.9304
11
-0.2375
21
1.93115
0
LINE
8
BLACK
10
-0.2375
20
1.93115
11
-0.239177
21
1.93256
0
LINE
8
BLACK
10
-0.239177
20
1.93256
11
-0.24107
21
1.93365
0
LINE
8
BLACK
10
-0.24107
20
1.93365
11
-0.242476
21
1.93532
0
LINE
8
BLACK
10
-0.242476
20
1.93532
11
-0.244151
21
1.93673
0
LINE
8
BLACK
10
-0.244151
20
1.93673
11
-0.245244
21
1.93862
0
LINE
8
BLACK
10
-0.245244
20
1.93862
11
-0.246651
21
1.9403
0
LINE
8
BLACK
10
-0.246651
20
1.9403
11
-0.247399
21
1.94236
0
LINE
8
BLACK
10
-0.247399
20
1.94236
11
-0.248492
21
1.94425
0
LINE
8
BLACK
10
-0.248492
20
1.94425
11
-0.248872
21
1.9464
0
LINE
8
BLACK
10
-0.248872
20
1.9464
11
-0.24962
21
1.94846
0
LINE
8
BLACK
10
-0.24962
20
1.94846
11
-0.24962
21
1.95064
0
LINE
8
BLACK
10
-0.24962
20
1.95064
11
-0.25
21
1.9528
0
LINE
8
BLACK
10
-0.25
20
1.9528
11
-0.25
21
3.57477
0
LINE
8
BLACK
10
-0.25
20
3.57477
11
-0.25011
21
3.57589
0
LINE
8
BLACK
10
-0.25011
20
3.57589
11
-0.25123
21
3.576
0
LINE
8
BLACK
10
-0.25123
20
3.576
11
-1.92657
21
3.576
0
LINE
8
BLACK
10
-1.92657
20
3.576
11
-1.92769
21
3.57589
0
LINE
8
BLACK
10
-1.92769
20
3.57589
11
-1.9278
21
3.57477
0
LINE
8
BLACK
10
-1.9278
20
3.57477
11
-1.9278
21
3.2815
0
LINE
8
BLACK
10
-1.9278
20
3.2815
11
-1.92818
21
3.27934
0
LINE
8
BLACK
10
-1.92818
20
3.27934
11
-1.92818
21
3.27716
0
LINE
8
BLACK
10
-1.92818
20
3.27716
11
-1.92893
21
3.2751
0
LINE
8
BLACK
10
-1.92893
20
3.2751
11
-1.92931
21
3.27295
0
LINE
8
BLACK
10
-1.92931
20
3.27295
11
-1.9304
21
3.27106
0
LINE
8
BLACK
10
-1.9304
20
3.27106
11
-1.93115
21
3.269
0
LINE
8
BLACK
10
-1.93115
20
3.269
11
-1.93256
21
3.26732
0
LINE
8
BLACK
10
-1.93256
20
3.26732
11
-1.93365
21
3.26543
0
LINE
8
BLACK
10
-1.93365
20
3.26543
11
-1.93532
21
3.26402
0
LINE
8
BLACK
10
-1.93532
20
3.26402
11
-1.93673
21
3.26235
0
LINE
8
BLACK
10
-1.93673
20
3.26235
11
-1.93862
21
3.26126
0
LINE
8
BLACK
10
-1.93862
20
3.26126
11
-1.9403
21
3.25985
0
LINE
8
BLACK
10
-1.9403
20
3.25985
11
-1.94236
21
3.2591
0
LINE
8
BLACK
10
-1.94236
20
3.2591
11
-1.94425
21
3.25801
0
LINE
8
BLACK
10
-1.94425
20
3.25801
11
-1.9464
21
3.25763
0
LINE
8
BLACK
10
-1.9464
20
3.25763
11
-1.94846
21
3.25688
0
LINE
8
BLACK
10
-1.94846
20
3.25688
11
-1.95064
21
3.25688
0
LINE
8
BLACK
10
-1.95064
20
3.25688
11
-1.9528
21
3.2565
0
LINE
8
BLACK
10
-1.9528
20
3.2565
11
-3.47607
21
3.2565
0
LINE
8
BLACK
10
-3.47607
20
3.2565
11
-3.47719
21
3.25639
0
LINE
8
BLACK
10
-3.47719
20
3.25639
11
-3.4773
21
3.25527
0
LINE
8
BLACK
10
-3.4773
20
3.25527
11
-3.4773
21
1.16123
0
LINE
8
BLACK
10
-3.4773
20
1.16123
11
-3.47719
21
1.16011
0
LINE
8
BLACK
10
-3.47719
20
1.16011
11
-3.47607
21
1.16
0
LINE
8
BLACK
10
-3.47607
20
1.16
11
-3.22853
21
1.16
0
LINE
8
BLACK
10
-3.22853
20
1.16
11
-3.22741
21
1.16011
0
LINE
8
BLACK
10
-3.22741
20
1.16011
11
-3.2273
21
1.16123
0
LINE
8
BLACK
10
-3.2273
20
1.16123
11
-3.2273
21
2.19
0
LINE
8
BLACK
10
-3.2273
20
2.19
11
-3.22692
21
2.19216
0
LINE
8
BLACK
10
-3.22692
20
2.19216
11
-3.22692
21
2.19434
0
LINE
8
BLACK
10
-3.22692
20
2.19434
11
-3.22617
21
2.1964
0
LINE
8
BLACK
10
-3.22617
20
2.1964
11
-3.22579
21
2.19855
0
LINE
8
BLACK
10
-3.22579
20
2.19855
11
-3.2247
21
2.20044
0
LINE
8
BLACK
10
-3.2247
20
2.20044
11
-3.22395
21
2.2025
0
LINE
8
BLACK
10
-3.22395
20
2.2025
11
-3.22254
21
2.20418
0
LINE
8
BLACK
10
-3.22254
20
2.20418
11
-3.22145
21
2.20607
0
LINE
8
BLACK
10
-3.22145
20
2.20607
11
-3.21978
21
2.20748
0
LINE
8
BLACK
10
-3.21978
20
2.20748
11
-3.21837
21
2.20915
0
LINE
8
BLACK
10
-3.21837
20
2.20915
11
-3.21648
21
2.21024
0
LINE
8
BLACK
10
-3.21648
20
2.21024
11
-3.2148
21
2.21165
0
LINE
8
BLACK
10
-3.2148
20
2.21165
11
-3.21274
21
2.2124
0
LINE
8
BLACK
10
-3.21274
20
2.2124
11
-3.21085
21
2.21349
0
LINE
8
BLACK
10
-3.21085
20
2.21349
11
-3.2087
21
2.21387
0
LINE
8
BLACK
10
-3.2087
20
2.21387
11
-3.20664
21
2.21462
0
LINE
8
BLACK
10
-3.20664
20
2.21462
11
-3.20445
21
2.21462
0
LINE
8
BLACK
10
-3.20445
20
2.21462
11
-3.2023
21
2.215
0
LINE
8
BLACK
10
-3.2023
20
2.215
11
-1.7522
21
2.215
0
LINE
8
BLACK
10
-1.7522
20
2.215
11
-1.75004
21
2.21462
0
LINE
8
BLACK
10
-1.75004
20
2.21462
11
-1.74786
21
2.21462
0
LINE
8
BLACK
10
-1.74786
20
2.21462
11
-1.7458
21
2.21387
0
LINE
8
BLACK
10
-1.7458
20
2.21387
11
-1.74365
21
2.21349
0
LINE
8
BLACK
10
-1.74365
20
2.21349
11
-1.74176
21
2.2124
0
LINE
8
BLACK
10
-1.74176
20
2.2124
11
-1.7397
21
2.21165
0
LINE
8
BLACK
10
-1.7397
20
2.21165
11
-1.73802
21
2.21024
0
LINE
8
BLACK
10
-1.73802
20
2.21024
11
-1.73613
21
2.20915
0
LINE
8
BLACK
10
-1.73613
20
2.20915
11
-1.73472
21
2.20748
0
LINE
8
BLACK
10
-1.73472
20
2.20748
11
-1.73305
21
2.20607
0
LINE
8
BLACK
10
-1.73305
20
2.20607
11
-1.73196
21
2.20418
0
LINE
8
BLACK
10
-1.73196
20
2.20418
11
-1.73055
21
2.2025
0
LINE
8
BLACK
10
-1.73055
20
2.2025
11
-1.7298
21
2.20044
0
LINE
8
BLACK
10
-1.7298
20
2.20044
11
-1.72871
21
2.19855
0
LINE
8
BLACK
10
-1.72871
20
2.19855
11
-1.72833
21
2.1964
0
LINE
8
BLACK
10
-1.72833
20
2.1964
11
-1.72758
21
2.19434
0
LINE
8
BLACK
10
-1.72758
20
2.19434
11
-1.72758
21
2.19216
0
LINE
8
BLACK
10
-1.72758
20
2.19216
11
-1.7272
21
2.19
0
LINE
8
BLACK
10
-1.7272
20
2.19
11
-1.7272
21
-0.925
0
LINE
8
BLACK
10
-1.7272
20
-0.925
11
-1.72758
21
-0.927155
0
LINE
8
BLACK
10
-1.72758
20
-0.927155
11
-1.72758
21
-0.929341
0
LINE
8
BLACK
10
-1.72758
20
-0.929341
11
-1.72833
21
-0.931397
0
LINE
8
BLACK
10
-1.72833
20
-0.931397
11
-1.72871
21
-0.933551
0
LINE
8
BLACK
10
-1.72871
20
-0.933551
11
-1.7298
21
-0.935444
0
LINE
8
BLACK
10
-1.7298
20
-0.935444
11
-1.73055
21
-0.9375
0
LINE
8
BLACK
10
-1.73055
20
-0.9375
11
-1.73196
21
-0.939177
0
LINE
8
BLACK
10
-1.73196
20
-0.939177
11
-1.73305
21
-0.94107
0
LINE
8
BLACK
10
-1.73305
20
-0.94107
11
-1.73472
21
-0.942476
0
LINE
8
BLACK
10
-1.73472
20
-0.942476
11
-1.73613
21
-0.944151
0
LINE
8
BLACK
10
-1.73613
20
-0.944151
11
-1.73802
21
-0.945244
0
LINE
8
BLACK
10
-1.73802
20
-0.945244
11
-1.7397
21
-0.946651
0
LINE
8
BLACK
10
-1.7397
20
-0.946651
11
-1.74176
21
-0.947399
0
LINE
8
BLACK
10
-1.74176
20
-0.947399
11
-1.74365
21
-0.948492
0
LINE
8
BLACK
10
-1.74365
20
-0.948492
11
-1.7458
21
-0.948872
0
LINE
8
BLACK
10
-1.7458
20
-0.948872
11
-1.74786
21
-0.94962
0
LINE
8
BLACK
10
-1.74786
20
-0.94962
11
-1.75004
21
-0.94962
0
LINE
8
BLACK
10
-1.75004
20
-0.94962
11
-1.7522
21
-0.95
0
LINE
8
BLACK
10
-1.7522
20
-0.95
11
-5.7022
21
-0.95
0
LINE
8
BLACK
10
-5.7022
20
-0.95
11
-5.70435
21
-0.94962
0
LINE
8
BLACK
10
-5.70435
20
-0.94962
11
-5.70654
21
-0.94962
0
LINE
8
BLACK
10
-5.70654
20
-0.94962
11
-5.7086
21
-0.948872
0
LINE
8
BLACK
10
-5.7086
20
-0.948872
11
-5.71075
21
-0.948492
0
LINE
8
BLACK
10
-5.71075
20
-0.948492
11
-5.71264
21
-0.947399
0
LINE
8
BLACK
10
-5.71264
20
-0.947399
11
-5.7147
21
-0.946651
0
LINE
8
BLACK
10
-5.7147
20
-0.946651
11
-5.71638
21
-0.945244
0
LINE
8
BLACK
10
-5.71638
20
-0.945244
11
-5.71827
21
-0.944151
0
LINE
8
BLACK
10
-5.71827
20
-0.944151
11
-5.71968
21
-0.942476
0
LINE
8
BLACK
10
-5.71968
20
-0.942476
11
-5.72135
21
-0.94107
0
LINE
8
BLACK
10
-5.72135
20
-0.94107
11
-5.72244
21
-0.939177
0
LINE
8
BLACK
10
-5.72244
20
-0.939177
11
-5.72385
21
-0.9375
0
LINE
8
BLACK
10
-5.72385
20
-0.9375
11
-5.7246
21
-0.935444
0
LINE
8
BLACK
10
-5.7246
20
-0.935444
11
-5.72569
21
-0.933551
0
LINE
8
BLACK
10
-5.72569
20
-0.933551
11
-5.72607
21
-0.931397
0
LINE
8
BLACK
10
-5.72607
20
-0.931397
11
-5.72682
21
-0.929341
0
LINE
8
BLACK
10
-5.72682
20
-0.929341
11
-5.72682
21
-0.927155
0
LINE
8
BLACK
10
-5.72682
20
-0.927155
11
-5.7272
21
-0.925
0
LINE
8
BLACK
10
-5.7272
20
-0.925
11
-5.7272
21
2.19
0
LINE
8
BLACK
10
-5.7272
20
2.19
11
-5.72682
21
2.19216
0
LINE
8
BLACK
10
-5.72682
20
2.19216
11
-5.72682
21
2.19434
0
LINE
8
BLACK
10
-5.72682
20
2.19434
11
-5.72607
21
2.1964
0
LINE
8
BLACK
10
-5.72607
20
2.1964
11
-5.72569
21
2.19855
0
LINE
8
BLACK
10
-5.72569
20
2.19855
11
-5.7246
21
2.20044
0
LINE
8
BLACK
10
-5.7246
20
2.20044
11
-5.72385
21
2.2025
0
LINE
8
BLACK
10
-5.72385
20
2.2025
11
-5.72244
21
2.20418
0
LINE
8
BLACK
10
-5.72244
20
2.20418
11
-5.72135
21
2.20607
0
LINE
8
BLACK
10
-5.72135
20
2.20607
11
-5.71968
21
2.20748
0
LINE
8
BLACK
10
-5.71968
20
2.20748
11
-5.71827
21
2.20915
0
LINE
8
BLACK
10
-5.71827
20
2.20915
11
-5.71638
21
2.21024
0
LINE
8
BLACK
10
-5.71638
20
2.21024
11
-5.7147
21
2.21165
0
LINE
8
BLACK
10
-5.7147
20
2.21165
11
-5.71264
21
2.2124
0
LINE
8
BLACK
10
-5.71264
20
2.2124
11
-5.71075
21
2.21349
0
LINE
8
BLACK
10
-5.71075
20
2.21349
11
-5.7086
21
2.21387
0
LINE
8
BLACK
10
-5.7086
20
2.21387
11
-5.70654
21
2.21462
0
LINE
8
BLACK
10
-5.70654
20
2.21462
11
-5.70435
21
2.21462
0
LINE
8
BLACK
10
-5.70435
20
2.21462
11
-5.7022
21
2.215
0
LINE
8
BLACK
10
-5.7022
20
2.215
11
-4.2522
21
2.215
0
LINE
8
BLACK
10
-4.2522
20
2.215
11
-4.25005
21
2.21462
0
LINE
8
BLACK
10
-4.25005
20
2.21462
11
-4.24786
21
2.21462
0
LINE
8
BLACK
10
-4.24786
20
2.21462
11
-4.2458
21
2.21387
0
LINE
8
BLACK
10
-4.2458
20
2.21387
11
-4.24365
21
2.21349
0
LINE
8
BLACK
10
-4.24365
20
2.21349
11
-4.24176
21
2.2124
0
LINE
8
BLACK
10
-4.24176
20
2.2124
11
-4.2397
21
2.21165
0
LINE
8
BLACK
10
-4.2397
20
2.21165
11
-4.23802
21
2.21024
0
LINE
8
BLACK
10
-4.23802
20
2.21024
11
-4.23613
21
2.20915
0
LINE
8
BLACK
10
-4.23613
20
2.20915
11
-4.23472
21
2.20748
0
LINE
8
BLACK
10
-4.23472
20
2.20748
11
-4.23305
21
2.20607
0
LINE
8
BLACK
10
-4.23305
20
2.20607
11
-4.23196
21
2.20418
0
LINE
8
BLACK
10
-4.23196
20
2.20418
11
-4.23055
21
2.2025
0
LINE
8
BLACK
10
-4.23055
20
2.2025
11
-4.2298
21
2.20044
0
LINE
8
BLACK
10
-4.2298
20
2.20044
11
-4.22871
21
2.19855
0
LINE
8
BLACK
10
-4.22871
20
2.19855
11
-4.22833
21
2.1964
0
LINE
8
BLACK
10
-4.22833
20
2.1964
11
-4.22758
21
2.19434
0
LINE
8
BLACK
10
-4.22758
20
2.19434
11
-4.22758
21
2.19216
0
LINE
8
BLACK
10
-4.22758
20
2.19216
11
-4.2272
21
2.19
0
LINE
8
BLACK
10
-4.2272
20
2.19
11
-4.2272
21
1.16123
0
LINE
8
BLACK
10
-4.2272
20
1.16123
11
-4.22709
21
1.16011
0
LINE
8
BLACK
10
-4.22709
20
1.16011
11
-4.22597
21
1.16
0
LINE
8
BLACK
10
-4.22597
20
1.16
11
-3.97843
21
1.16
0
LINE
8
BLACK
10
-3.97843
20
1.16
11
-3.97731
21
1.16011
0
LINE
8
BLACK
10
-3.97731
20
1.16011
11
-3.9772
21
1.16123
0
LINE
8
BLACK
10
-3.9772
20
1.16123
11
-3.9772
21
3.46377
0
LINE
8
BLACK
10
-3.9772
20
3.46377
11
-3.97731
21
3.46489
0
LINE
8
BLACK
10
-3.97731
20
3.46489
11
-3.97843
21
3.465
0
LINE
8
BLACK
10
-3.97843
20
3.465
11
-10.906
21
3.465
0
LINE
8
BLACK
10
-10.906
20
3.465
11
-10.9071
21
3.46489
0
LINE
8
BLACK
10
-10.9071
20
3.46489
11
-10.9072
21
3.46377
0
LINE
8
BLACK
10
-10.9072
20
3.46377
11
-10.9072
21
1.16123
0
LINE
8
BLACK
10
-10.9072
20
1.16123
11
-10.9071
21
1.16011
0
LINE
8
BLACK
10
-10.9071
20
1.16011
11
-10.906
21
1.16
0
LINE
8
BLACK
10
-10.906
20
1.16
11
-10.6584
21
1.16
0
LINE
8
BLACK
10
-10.6584
20
1.16
11
-10.6573
21
1.16011
0
LINE
8
BLACK
10
-10.6573
20
1.16011
11
-10.6572
21
1.16123
0
LINE
8
BLACK
10
-10.6572
20
1.16123
11
-10.6572
21
2.19
0
LINE
8
BLACK
10
-10.6572
20
2.19
11
-10.6568
21
2.19216
0
LINE
8
BLACK
10
-10.6568
20
2.19216
11
-10.6568
21
2.19434
0
LINE
8
BLACK
10
-10.6568
20
2.19434
11
-10.6561
21
2.1964
0
LINE
8
BLACK
10
-10.6561
20
2.1964
11
-10.6557
21
2.19855
0
LINE
8
BLACK
10
-10.6557
20
2.19855
11
-10.6546
21
2.20044
0
LINE
8
BLACK
10
-10.6546
20
2.20044
11
-10.6539
21
2.2025
0
LINE
8
BLACK
10
-10.6539
20
2.2025
11
-10.6524
21
2.20418
0
LINE
8
BLACK
10
-10.6524
20
2.20418
11
-10.6514
21
2.20607
0
LINE
8
BLACK
10
-10.6514
20
2.20607
11
-10.6497
21
2.20748
0
LINE
8
BLACK
10
-10.6497
20
2.20748
11
-10.6483
21
2.20915
0
LINE
8
BLACK
10
-10.6483
20
2.20915
11
-10.6464
21
2.21024
0
LINE
8
BLACK
10
-10.6464
20
2.21024
11
-10.6447
21
2.21165
0
LINE
8
BLACK
10
-10.6447
20
2.21165
11
-10.6426
21
2.2124
0
LINE
8
BLACK
10
-10.6426
20
2.2124
11
-10.6408
21
2.21349
0
LINE
8
BLACK
10
-10.6408
20
2.21349
11
-10.6386
21
2.21387
0
LINE
8
BLACK
10
-10.6386
20
2.21387
11
-10.6365
21
2.21462
0
LINE
8
BLACK
10
-10.6365
20
2.21462
11
-10.6344
21
2.21462
0
LINE
8
BLACK
10
-10.6344
20
2.21462
11
-10.6322
21
2.215
0
LINE
8
BLACK
10
-10.6322
20
2.215
11
-9.1823
21
2.215
0
LINE
8
BLACK
10
-9.1823
20
2.215
11
-9.18014
21
2.21462
0
LINE
8
BLACK
10
-9.18014
20
2.21462
11
-9.17796
21
2.21462
0
LINE
8
BLACK
10
-9.17796
20
2.21462
11
-9.1759
21
2.21387
0
LINE
8
BLACK
10
-9.1759
20
2.21387
11
-9.17375
21
2.21349
0
LINE
8
BLACK
10
-9.17375
20
2.21349
11
-9.17186
21
2.2124
0
LINE
8
BLACK
10
-9.17186
20
2.2124
11
-9.1698
21
2.21165
0
LINE
8
BLACK
10
-9.1698
20
2.21165
11
-9.16812
21
2.21024
0
LINE
8
BLACK
10
-9.16812
20
2.21024
11
-9.16623
21
2.20915
0
LINE
8
BLACK
10
-9.16623
20
2.20915
11
-9.16482
21
2.20748
0
LINE
8
BLACK
10
-9.16482
20
2.20748
11
-9.16315
21
2.20607
0
LINE
8
BLACK
10
-9.16315
20
2.20607
11
-9.16206
21
2.20418
0
LINE
8
BLACK
10
-9.16206
20
2.20418
11
-9.16065
21
2.2025
0
LINE
8
BLACK
10
-9.16065
20
2.2025
11
-9.1599
21
2.20044
0
LINE
8
BLACK
10
-9.1599
20
2.20044
11
-9.15881
21
2.19855
0
LINE
8
BLACK
10
-9.15881
20
2.19855
11
-9.15843
21
2.1964
0
LINE
8
BLACK
10
-9.15843
20
2.1964
11
-9.15768
21
2.19434
0
LINE
8
BLACK
10
-9.15768
20
2.19434
11
-9.15768
21
2.19216
0
LINE
8
BLACK
10
-9.15768
20
2.19216
11
-9.1573
21
2.19
0
LINE
8
BLACK
10
-9.1573
20
2.19
11
-9.1573
21
-0.925
0
LINE
8
BLACK
10
-9.1573
20
-0.925
11
-9.15768
21
-0.927155
0
LINE
8
BLACK
10
-9.15768
20
-0.927155
11
-9.15768
21
-0.929341
0
LINE
8
BLACK
10
-9.15768
20
-0.929341
11
-9.15843
21
-0.931397
0
LINE
8
BLACK
10
-9.15843
20
-0.931397
11
-9.15881
21
-0.933551
0
LINE
8
BLACK
10
-9.15881
20
-0.933551
11
-9.1599
21
-0.935444
0
LINE
8
BLACK
10
-9.1599
20
-0.935444
11
-9.16065
21
-0.9375
0
LINE
8
BLACK
10
-9.16065
20
-0.9375
11
-9.16206
21
-0.939177
0
LINE
8
BLACK
10
-9.16206
20
-0.939177
11
-9.16315
21
-0.94107
0
LINE
8
BLACK
10
-9.16315
20
-0.94107
11
-9.16482
21
-0.942476
0
LINE
8
BLACK
10
-9.16482
20
-0.942476
11
-9.16623
21
-0.944151
0
LINE
8
BLACK
10
-9.16623
20
-0.944151
11
-9.16812
21
-0.945244
0
LINE
8
BLACK
10
-9.16812
20
-0.945244
11
-9.1698
21
-0.946651
0
LINE
8
BLACK
10
-9.1698
20
-0.946651
11
-9.17186
21
-0.947399
0
LINE
8
BLACK
10
-9.17186
20
-0.947399
11
-9.17375
21
-0.948492
0
LINE
8
BLACK
10
-9.17375
20
-0.948492
11
-9.1759
21
-0.948872
0
LINE
8
BLACK
10
-9.1759
20
-0.948872
11
-9.17796
21
-0.94962
0
LINE
8
BLACK
10
-9.17796
20
-0.94962
11
-9.18014
21
-0.94962
0
LINE
8
BLACK
10
-9.18014
20
-0.94962
11
-9.1823
21
-0.95
0
LINE
8
BLACK
10
-9.1823
20
-0.95
11
-13.1323
21
-0.95
0
LINE
8
BLACK
10
-13.1323
20
-0.95
11
-13.1345
21
-0.94962
0
LINE
8
BLACK
10
-13.1345
20
-0.94962
11
-13.1366
21
-0.94962
0
LINE
8
BLACK
10
-13.1366
20
-0.94962
11
-13.1387
21
-0.948872
0
LINE
8
BLACK
10
-13.1387
20
-0.948872
11
-13.1409
21
-0.948492
0
LINE
8
BLACK
10
-13.1409
20
-0.948492
11
-13.1427
21
-0.947399
0
LINE
8
BLACK
10
-13.1427
20
-0.947399
11
-13.1448
21
-0.946651
0
LINE
8
BLACK
10
-13.1448
20
-0.946651
11
-13.1465
21
-0.945244
0
LINE
8
BLACK
10
-13.1465
20
-0.945244
11
-13.1484
21
-0.944151
0
LINE
8
BLACK
10
-13.1484
20
-0.944151
11
-13.1498
21
-0.942476
0
LINE
8
BLACK
10
-13.1498
20
-0.942476
11
-13.1515
21
-0.94107
0
LINE
8
BLACK
10
-13.1515
20
-0.94107
11
-13.1525
21
-0.939177
0
LINE
8
BLACK
10
-13.1525
20
-0.939177
11
-13.154
21
-0.9375
0
LINE
8
BLACK
10
-13.154
20
-0.9375
11
-13.1547
21
-0.935444
0
LINE
8
BLACK
10
-13.1547
20
-0.935444
11
-13.1558
21
-0.933551
0
LINE
8
BLACK
10
-13.1558
20
-0.933551
11
-13.1562
21
-0.931397
0
LINE
8
BLACK
10
-13.1562
20
-0.931397
11
-13.1569
21
-0.929341
0
LINE
8
BLACK
10
-13.1569
20
-0.929341
11
-13.1569
21
-0.927155
0
LINE
8
BLACK
10
-13.1569
20
-0.927155
11
-13.1573
21
-0.925
0
LINE
8
BLACK
10
-13.1573
20
-0.925
11
-13.1573
21
2.19
0
LINE
8
BLACK
10
-13.1573
20
2.19
11
-13.1569
21
2.19216
0
LINE
8
BLACK
10
-13.1569
20
2.19216
11
-13.1569
21
2.19434
0
LINE
8
BLACK
10
-13.1569
20
2.19434
11
-13.1562
21
2.1964
0
LINE
8
BLACK
10
-13.1562
20
2.1964
11
-13.1558
21
2.19855
0
LINE
8
BLACK
10
-13.1558
20
2.19855
11
-13.1547
21
2.20044
0
LINE
8
BLACK
10
-13.1547
20
2.20044
11
-13.154
21
2.2025
0
LINE
8
BLACK
10
-13.154
20
2.2025
11
-13.1525
21
2.20418
0
LINE
8
BLACK
10
-13.1525
20
2.20418
11
-13.1515
21
2.20607
0
LINE
8
BLACK
10
-13.1515
20
2.20607
11
-13.1498
21
2.20748
0
LINE
8
BLACK
10
-13.1498
20
2.20748
11
-13.1484
21
2.20915
0
LINE
8
BLACK
10
-13.1484
20
2.20915
11
-13.1465
21
2.21024
0
LINE
8
BLACK
10
-13.1465
20
2.21024
11
-13.1448
21
2.21165
0
LINE
8
BLACK
10
-13.1448
20
2.21165
11
-13.1427
21
2.2124
0
LINE
8
BLACK
10
-13.1427
20
2.2124
11
-13.1409
21
2.21349
0
LINE
8
BLACK
10
-13.1409
20
2.21349
11
-13.1387
21
2.21387
0
LINE
8
BLACK
10
-13.1387
20
2.21387
11
-13.1366
21
2.21462
0
LINE
8
BLACK
10
-13.1366
20
2.21462
11
-13.1345
21
2.21462
0
LINE
8
BLACK
10
-13.1345
20
2.21462
11
-13.1323
21
2.215
0
LINE
8
BLACK
10
-13.1323
20
2.215
11
-11.6823
21
2.215
0
LINE
8
BLACK
10
-11.6823
20
2.215
11
-11.6801
21
2.21462
0
LINE
8
BLACK
10
-11.6801
20
2.21462
11
-11.678
21
2.21462
0
LINE
8
BLACK
10
-11.678
20
2.21462
11
-11.6759
21
2.21387
0
LINE
8
BLACK
10
-11.6759
20
2.21387
11
-11.6737
21
2.21349
0
LINE
8
BLACK
10
-11.6737
20
2.21349
11
-11.6719
21
2.2124
0
LINE
8
BLACK
10
-11.6719
20
2.2124
11
-11.6698
21
2.21165
0
LINE
8
BLACK
10
-11.6698
20
2.21165
11
-11.6681
21
2.21024
0
LINE
8
BLACK
10
-11.6681
20
2.21024
11
-11.6662
21
2.20915
0
LINE
8
BLACK
10
-11.6662
20
2.20915
11
-11.6648
21
2.20748
0
LINE
8
BLACK
10
-11.6648
20
2.20748
11
-11.6631
21
2.20607
0
LINE
8
BLACK
10
-11.6631
20
2.20607
11
-11.6621
21
2.20418
0
LINE
8
BLACK
10
-11.6621
20
2.20418
11
-11.6606
21
2.2025
0
LINE
8
BLACK
10
-11.6606
20
2.2025
11
-11.6599
21
2.20044
0
LINE
8
BLACK
10
-11.6599
20
2.20044
11
-11.6588
21
2.19855
0
LINE
8
BLACK
10
-11.6588
20
2.19855
11
-11.6584
21
2.1964
0
LINE
8
BLACK
10
-11.6584
20
2.1964
11
-11.6577
21
2.19434
0
LINE
8
BLACK
10
-11.6577
20
2.19434
11
-11.6577
21
2.19216
0
LINE
8
BLACK
10
-11.6577
20
2.19216
11
-11.6573
21
2.19
0
LINE
8
BLACK
10
-11.6573
20
2.19
11
-11.6573
21
1.16123
0
LINE
8
BLACK
10
-11.6573
20
1.16123
11
-11.6572
21
1.16011
0
LINE
8
BLACK
10
-11.6572
20
1.16011
11
-11.6561
21
1.16
0
LINE
8
BLACK
10
-11.6561
20
1.16
11
-11.4085
21
1.16
0
LINE
8
BLACK
10
-11.4085
20
1.16
11
-11.4074
21
1.16011
0
LINE
8
BLACK
10
-11.4074
20
1.16011
11
-11.4073
21
1.16123
0
LINE
8
BLACK
10
-11.4073
20
1.16123
11
-11.4073
21
3.50214
0
LINE
8
BLACK
10
-11.4073
20
3.50214
11
-11.4071
21
3.50323
0
LINE
8
BLACK
10
-11.4071
20
3.50323
11
-11.4072
21
3.50432
0
LINE
8
BLACK
10
-11.4072
20
3.50432
11
-11.4064
21
3.50748
0
LINE
8
BLACK
10
-11.4064
20
3.50748
11
-11.4058
21
3.51069
0
LINE
8
BLACK
10
-11.4058
20
3.51069
11
-11.4052
21
3.51165
0
LINE
8
BLACK
10
-11.4052
20
3.51165
11
-11.405
21
3.51271
0
LINE
8
BLACK
10
-11.405
20
3.51271
11
-11.4031
21
3.51539
0
LINE
8
BLACK
10
-11.4031
20
3.51539
11
-11.4015
21
3.51821
0
LINE
8
BLACK
10
-11.4015
20
3.51821
11
-11.4006
21
3.51892
0
LINE
8
BLACK
10
-11.4006
20
3.51892
11
-11.4
21
3.51982
0
LINE
8
BLACK
10
-11.4
20
3.51982
11
-10.9621
21
3.95768
0
LINE
8
BLACK
10
-10.9621
20
3.95768
11
-10.9612
21
3.95831
0
LINE
8
BLACK
10
-10.9612
20
3.95831
11
-10.9605
21
3.95915
0
LINE
8
BLACK
10
-10.9605
20
3.95915
11
-10.9577
21
3.96078
0
LINE
8
BLACK
10
-10.9577
20
3.96078
11
-10.955
21
3.96266
0
LINE
8
BLACK
10
-10.955
20
3.96266
11
-10.9539
21
3.96294
0
LINE
8
BLACK
10
-10.9539
20
3.96294
11
-10.953
21
3.96349
0
LINE
8
BLACK
10
-10.953
20
3.96349
11
-10.9498
21
3.96406
0
LINE
8
BLACK
10
-10.9498
20
3.96406
11
-10.9466
21
3.9649
0
LINE
8
BLACK
10
-10.9466
20
3.9649
11
-10.9455
21
3.96481
0
LINE
8
BLACK
10
-10.9455
20
3.96481
11
-10.9444
21
3.965
0
LINE
8
BLACK
10
-10.9444
20
3.965
11
-3.72853
21
3.965
0
LINE
8
BLACK
10
-3.72853
20
3.965
11
-3.72741
21
3.96511
0
LINE
8
BLACK
10
-3.72741
20
3.96511
11
-3.7273
21
3.96623
0
LINE
8
BLACK
10
-3.7273
20
3.96623
11
-3.7273
21
4.1485
0
LINE
8
BLACK
10
-3.7273
20
4.1485
11
-3.72692
21
4.15065
0
LINE
8
BLACK
10
-3.72692
20
4.15065
11
-3.72692
21
4.15284
0
LINE
8
BLACK
10
-3.72692
20
4.15284
11
-3.72617
21
4.1549
0
LINE
8
BLACK
10
-3.72617
20
4.1549
11
-3.72579
21
4.15705
0
LINE
8
BLACK
10
-3.72579
20
4.15705
11
-3.7247
21
4.15894
0
LINE
8
BLACK
10
-3.7247
20
4.15894
11
-3.72395
21
4.161
0
LINE
8
BLACK
10
-3.72395
20
4.161
11
-3.72254
21
4.16268
0
LINE
8
BLACK
10
-3.72254
20
4.16268
11
-3.72145
21
4.16457
0
LINE
8
BLACK
10
-3.72145
20
4.16457
11
-3.71978
21
4.16598
0
LINE
8
BLACK
10
-3.71978
20
4.16598
11
-3.71837
21
4.16765
0
LINE
8
BLACK
10
-3.71837
20
4.16765
11
-3.71648
21
4.16874
0
LINE
8
BLACK
10
-3.71648
20
4.16874
11
-3.7148
21
4.17015
0
LINE
8
BLACK
10
-3.7148
20
4.17015
11
-3.71274
21
4.1709
0
LINE
8
BLACK
10
-3.71274
20
4.1709
11
-3.71085
21
4.17199
0
LINE
8
BLACK
10
-3.71085
20
4.17199
11
-3.7087
21
4.17237
0
LINE
8
BLACK
10
-3.7087
20
4.17237
11
-3.70664
21
4.17312
0
LINE
8
BLACK
10
-3.70664
20
4.17312
11
-3.70445
21
4.17312
0
LINE
8
BLACK
10
-3.70445
20
4.17312
11
-3.7023
21
4.1735
0
LINE
8
BLACK
10
-3.7023
20
4.1735
11
-1.9528
21
4.1735
0
LINE
8
BLACK
10
-1.9528
20
4.1735
11
-1.95064
21
4.17312
  0
ENDSEC
  0
EOF
