G04 #@! TF.GenerationSoftware,KiCad,Pcbnew,no-vcs-found-e79f978~58~ubuntu14.04.1*
G04 #@! TF.CreationDate,2017-05-18T21:28:03+01:00*
G04 #@! TF.ProjectId,bikedar,62696B656461722E6B696361645F7063,rev?*
G04 #@! TF.FileFunction,Copper,L1,Top,Signal*
G04 #@! TF.FilePolarity,Positive*
%FSLAX46Y46*%
G04 Gerber Fmt 4.6, Leading zero omitted, Abs format (unit mm)*
G04 Created by KiCad (PCBNEW no-vcs-found-e79f978~58~ubuntu14.04.1) date Thu May 18 21:28:03 2017*
%MOMM*%
%LPD*%
G01*
G04 APERTURE LIST*
%ADD10C,0.100000*%
%ADD11C,0.300000*%
%ADD12C,0.900000*%
%ADD13R,1.000000X0.950000*%
%ADD14R,0.950000X1.000000*%
%ADD15R,0.620000X0.620000*%
%ADD16R,0.950000X0.400000*%
%ADD17C,0.800000*%
%ADD18R,1.900000X1.900000*%
%ADD19C,1.900000*%
%ADD20R,1.450000X0.450000*%
%ADD21R,0.450000X1.450000*%
%ADD22R,0.300000X0.850000*%
%ADD23R,0.850000X0.300000*%
%ADD24C,0.700000*%
%ADD25R,3.900000X2.900000*%
%ADD26C,0.200000*%
%ADD27C,0.150000*%
%ADD28C,0.500000*%
%ADD29C,0.280000*%
G04 APERTURE END LIST*
D10*
D11*
X51892857Y-87975000D02*
X52607142Y-87975000D01*
X51750000Y-88403571D02*
X52250000Y-86903571D01*
X52750000Y-88403571D01*
X54035714Y-86975000D02*
X53892857Y-86903571D01*
X53678571Y-86903571D01*
X53464285Y-86975000D01*
X53321428Y-87117857D01*
X53250000Y-87260714D01*
X53178571Y-87546428D01*
X53178571Y-87760714D01*
X53250000Y-88046428D01*
X53321428Y-88189285D01*
X53464285Y-88332142D01*
X53678571Y-88403571D01*
X53821428Y-88403571D01*
X54035714Y-88332142D01*
X54107142Y-88260714D01*
X54107142Y-87760714D01*
X53821428Y-87760714D01*
X52178571Y-90953571D02*
X52178571Y-89953571D01*
X52178571Y-90239285D02*
X52250000Y-90096428D01*
X52321428Y-90025000D01*
X52464285Y-89953571D01*
X52607142Y-89953571D01*
X53892857Y-90953571D02*
X53035714Y-90953571D01*
X53464285Y-90953571D02*
X53464285Y-89453571D01*
X53321428Y-89667857D01*
X53178571Y-89810714D01*
X53035714Y-89882142D01*
D12*
X93500000Y-64500000D03*
D13*
X59400000Y-84000000D03*
X59400000Y-85600000D03*
X90600000Y-84000000D03*
X90600000Y-85600000D03*
X98200000Y-90950000D03*
X98200000Y-89350000D03*
X98200000Y-86050000D03*
X98200000Y-87650000D03*
D14*
X79000000Y-77750000D03*
X80600000Y-77750000D03*
D15*
X79750000Y-86000000D03*
X78850000Y-86000000D03*
X68800000Y-84350000D03*
X68800000Y-85250000D03*
X81200000Y-80350000D03*
X81200000Y-81250000D03*
X81200000Y-85250000D03*
X81200000Y-84350000D03*
X68800000Y-80350000D03*
X68800000Y-81250000D03*
X72250000Y-93600000D03*
X71350000Y-93600000D03*
X77750000Y-93600000D03*
X78650000Y-93600000D03*
X76550000Y-93600000D03*
X75650000Y-93600000D03*
X74350000Y-93600000D03*
X73450000Y-93600000D03*
X75600000Y-89900000D03*
X76500000Y-89900000D03*
D13*
X93000000Y-86100000D03*
X93000000Y-87700000D03*
X79000000Y-79600000D03*
X79000000Y-81200000D03*
X61000000Y-88000000D03*
X61000000Y-89600000D03*
X59400000Y-88000000D03*
X59400000Y-89600000D03*
D14*
X65800000Y-91000000D03*
X64200000Y-91000000D03*
D16*
X63900000Y-88150000D03*
X63900000Y-88800000D03*
X63900000Y-89450000D03*
X66100000Y-89450000D03*
X66100000Y-88150000D03*
D13*
X90600000Y-80000000D03*
X90600000Y-81600000D03*
D17*
X80200000Y-86850000D03*
D18*
X60000000Y-97000000D03*
D14*
X90300000Y-93800000D03*
X88700000Y-93800000D03*
D18*
X86430000Y-95730000D03*
D19*
X86430000Y-98270000D03*
X83890000Y-95730000D03*
X83890000Y-98270000D03*
X81350000Y-95730000D03*
X81350000Y-98270000D03*
X78810000Y-95730000D03*
X78810000Y-98270000D03*
X76270000Y-95730000D03*
X76270000Y-98270000D03*
X73730000Y-95730000D03*
X73730000Y-98270000D03*
X71190000Y-95730000D03*
X71190000Y-98270000D03*
X68650000Y-95730000D03*
X68650000Y-98270000D03*
X66110000Y-95730000D03*
X66110000Y-98270000D03*
X63570000Y-95730000D03*
X63570000Y-98270000D03*
D15*
X79750000Y-84800000D03*
X78850000Y-84800000D03*
D13*
X90600000Y-88000000D03*
X90600000Y-89600000D03*
X89000000Y-88000000D03*
X89000000Y-89600000D03*
D14*
X88700000Y-95500000D03*
X90300000Y-95500000D03*
X84200000Y-91000000D03*
X85800000Y-91000000D03*
D13*
X61000000Y-80000000D03*
X61000000Y-81600000D03*
X93000000Y-90900000D03*
X93000000Y-89300000D03*
X59400000Y-81600000D03*
X59400000Y-80000000D03*
X71000000Y-81200000D03*
X71000000Y-79600000D03*
D14*
X71000000Y-77750000D03*
X69400000Y-77750000D03*
D13*
X89000000Y-85600000D03*
X89000000Y-84000000D03*
X89000000Y-80000000D03*
X89000000Y-81600000D03*
X61000000Y-85600000D03*
X61000000Y-84000000D03*
D20*
X67200000Y-81775000D03*
X67200000Y-81125000D03*
X67200000Y-80475000D03*
X67200000Y-79825000D03*
X62800000Y-79825000D03*
X62800000Y-80475000D03*
X62800000Y-81125000D03*
X62800000Y-81775000D03*
X62800000Y-85775000D03*
X62800000Y-85125000D03*
X62800000Y-84475000D03*
X62800000Y-83825000D03*
X67200000Y-83825000D03*
X67200000Y-84475000D03*
X67200000Y-85125000D03*
X67200000Y-85775000D03*
X82800000Y-79825000D03*
X82800000Y-80475000D03*
X82800000Y-81125000D03*
X82800000Y-81775000D03*
X87200000Y-81775000D03*
X87200000Y-81125000D03*
X87200000Y-80475000D03*
X87200000Y-79825000D03*
X87200000Y-83825000D03*
X87200000Y-84475000D03*
X87200000Y-85125000D03*
X87200000Y-85775000D03*
X82800000Y-85775000D03*
X82800000Y-85125000D03*
X82800000Y-84475000D03*
X82800000Y-83825000D03*
D21*
X96575000Y-86300000D03*
X95925000Y-86300000D03*
X95275000Y-86300000D03*
X94625000Y-86300000D03*
X94625000Y-90700000D03*
X95275000Y-90700000D03*
X95925000Y-90700000D03*
X96575000Y-90700000D03*
D22*
X77250000Y-80725000D03*
X76750000Y-80725000D03*
X76250000Y-80725000D03*
X75750000Y-80725000D03*
X75250000Y-80725000D03*
X74750000Y-80725000D03*
X74250000Y-80725000D03*
X73750000Y-80725000D03*
X73250000Y-80725000D03*
X72750000Y-80725000D03*
D23*
X72425000Y-81550000D03*
X72425000Y-82050000D03*
X72425000Y-82550000D03*
X72425000Y-83050000D03*
X72425000Y-83550000D03*
X72425000Y-84050000D03*
D22*
X72750000Y-84875000D03*
X73250000Y-84875000D03*
X73750000Y-84875000D03*
X74250000Y-84875000D03*
X74750000Y-84875000D03*
X75250000Y-84875000D03*
X75750000Y-84875000D03*
X76250000Y-84875000D03*
X76750000Y-84875000D03*
X77250000Y-84875000D03*
D23*
X77575000Y-84050000D03*
X77575000Y-83550000D03*
X77575000Y-83050000D03*
X77575000Y-82550000D03*
X77575000Y-82050000D03*
X77575000Y-81550000D03*
D24*
X76300000Y-82150000D03*
X75000000Y-82150000D03*
X73700000Y-82150000D03*
X76300000Y-83450000D03*
X75000000Y-83450000D03*
X73700000Y-83450000D03*
D25*
X75000000Y-82800000D03*
D16*
X86100000Y-89450000D03*
X86100000Y-88800000D03*
X86100000Y-88150000D03*
X83900000Y-88150000D03*
X83900000Y-89450000D03*
D12*
X61000000Y-64500000D03*
D24*
X79650000Y-88350000D03*
X74450000Y-78150000D03*
X90800000Y-79000000D03*
X70200000Y-84300000D03*
X67900000Y-86700000D03*
X70700000Y-92700000D03*
X55100000Y-99500000D03*
X52900000Y-99500000D03*
X94900000Y-99500000D03*
X97100000Y-99500000D03*
X50500000Y-83100000D03*
X50500000Y-80900000D03*
X50500000Y-97100000D03*
X50500000Y-94900000D03*
X99500000Y-97100000D03*
X99500000Y-94900000D03*
X99500000Y-83100000D03*
X99500000Y-80900000D03*
X89000000Y-99500000D03*
X91000000Y-99500000D03*
X93000000Y-99500000D03*
X99000000Y-99500000D03*
X99500000Y-99000000D03*
X99500000Y-93000000D03*
X99500000Y-91000000D03*
X99500000Y-89000000D03*
X99500000Y-87000000D03*
X99500000Y-85000000D03*
X99500000Y-79000000D03*
X99500000Y-77000000D03*
X99500000Y-75000000D03*
X99500000Y-73000000D03*
X99500000Y-71000000D03*
X99500000Y-69000000D03*
X99500000Y-67000000D03*
X99500000Y-65000000D03*
X99500000Y-63000000D03*
X99500000Y-61000000D03*
X99500000Y-59000000D03*
X99500000Y-57000000D03*
X99500000Y-55000000D03*
X99500000Y-53000000D03*
X99500000Y-51000000D03*
X63100000Y-91000000D03*
X83000000Y-50500000D03*
X67000000Y-68500000D03*
X90600000Y-82700000D03*
X59400000Y-82900000D03*
X90600000Y-86700000D03*
X98200000Y-92100000D03*
X93000000Y-85000000D03*
X65100000Y-78999992D03*
X61200000Y-79000000D03*
X63000000Y-79000000D03*
X83000000Y-82600000D03*
X87600000Y-93500000D03*
X78700000Y-90800000D03*
X78100000Y-91400000D03*
X78800000Y-90000000D03*
X78800000Y-88600000D03*
X79290000Y-86850000D03*
X73150000Y-86900000D03*
X72500000Y-86900000D03*
X71850000Y-86900000D03*
X71200000Y-86900000D03*
X75900000Y-92100000D03*
X75000000Y-92100000D03*
X74100000Y-92000000D03*
X89000000Y-79000000D03*
X87000000Y-79000000D03*
X85000000Y-79000000D03*
X83000000Y-79000000D03*
X69400000Y-79000000D03*
X67000000Y-79000000D03*
X83000000Y-76500000D03*
X83000000Y-74500000D03*
X83000000Y-72500000D03*
X83000000Y-70500000D03*
X67000000Y-70500000D03*
X67000000Y-72500000D03*
X67000000Y-74500000D03*
X67000000Y-76500000D03*
X83000000Y-64500000D03*
X83000000Y-62500000D03*
X83000000Y-60500000D03*
X83000000Y-58500000D03*
X83000000Y-56500000D03*
X83000000Y-54500000D03*
X83000000Y-52500000D03*
X67000000Y-66500000D03*
X67000000Y-62500000D03*
X67000000Y-60500000D03*
X67000000Y-58500000D03*
X67000000Y-56500000D03*
X67000000Y-54500000D03*
X67000000Y-52500000D03*
X61000000Y-99500000D03*
X59000000Y-99500000D03*
X57000000Y-99500000D03*
X51000000Y-99500000D03*
X50500000Y-99000000D03*
X50500000Y-93000000D03*
X50500000Y-91000000D03*
X50500000Y-89000000D03*
X50500000Y-87000000D03*
X50500000Y-85000000D03*
X50500000Y-79000000D03*
X67000000Y-50500000D03*
X50500000Y-51000000D03*
X50500000Y-53000000D03*
X50500000Y-55000000D03*
X50500000Y-57000000D03*
X50500000Y-59000000D03*
X50500000Y-61000000D03*
X50500000Y-63000000D03*
X50500000Y-65000000D03*
X50500000Y-67000000D03*
X50500000Y-69000000D03*
X50500000Y-71000000D03*
X50500000Y-73000000D03*
X50500000Y-75000000D03*
X50500000Y-77000000D03*
X79900000Y-92350000D03*
X79900000Y-89450000D03*
X79900000Y-91050000D03*
X78800000Y-89250000D03*
X78000000Y-92300000D03*
X76850000Y-92300000D03*
X73200000Y-91950000D03*
X72350000Y-91400000D03*
X71700000Y-90750000D03*
X71200000Y-89950000D03*
X71200000Y-89200000D03*
X71200000Y-88400000D03*
X71200000Y-87550000D03*
X78950000Y-92400000D03*
X59400000Y-78950000D03*
X62000000Y-88100000D03*
X87400000Y-89800000D03*
D12*
X83150000Y-93149996D03*
X65800000Y-93150000D03*
D24*
X75200000Y-79700000D03*
X72300000Y-92300000D03*
X74900000Y-78900000D03*
X70700000Y-91800000D03*
X68700000Y-94100000D03*
X85150000Y-85800000D03*
X85500000Y-84400000D03*
X65800000Y-84700000D03*
X64500000Y-86300000D03*
X65200000Y-83000000D03*
X63700000Y-83000000D03*
X76050000Y-91040000D03*
D26*
X74250000Y-80725000D02*
X74250000Y-78350000D01*
X74250000Y-78350000D02*
X74450000Y-78150000D01*
X75750000Y-78250000D02*
X75750000Y-79150000D01*
X74250000Y-78250000D02*
X75750000Y-78250000D01*
X74250000Y-80725000D02*
X74250000Y-78250000D01*
D27*
X75800000Y-80675000D02*
X75750000Y-80725000D01*
D11*
X71350000Y-93600000D02*
X71350000Y-93350000D01*
X71350000Y-93350000D02*
X70700000Y-92700000D01*
D27*
X76850000Y-92300000D02*
X76100000Y-92300000D01*
X76100000Y-92300000D02*
X75900000Y-92100000D01*
D26*
X52900000Y-99500000D02*
X55100000Y-99500000D01*
X94900000Y-99500000D02*
X93000000Y-99500000D01*
X99000000Y-99500000D02*
X97100000Y-99500000D01*
X50500000Y-83100000D02*
X50500000Y-85000000D01*
X50500000Y-94900000D02*
X50500000Y-97100000D01*
X99500000Y-97100000D02*
X99500000Y-99000000D01*
X99500000Y-93000000D02*
X99500000Y-94900000D01*
X99500000Y-83100000D02*
X99500000Y-81100000D01*
X99500000Y-81100000D02*
X99600000Y-81000000D01*
X91000000Y-99500000D02*
X89000000Y-99500000D01*
X99500000Y-89000000D02*
X99500000Y-91000000D01*
X99500000Y-85000000D02*
X99500000Y-87000000D01*
X99500000Y-77000000D02*
X99500000Y-79000000D01*
X99500000Y-73000000D02*
X99500000Y-75000000D01*
X99500000Y-69000000D02*
X99500000Y-71000000D01*
X99500000Y-65000000D02*
X99500000Y-67000000D01*
X99500000Y-61000000D02*
X99500000Y-63000000D01*
X99500000Y-57000000D02*
X99500000Y-59000000D01*
X99500000Y-53000000D02*
X99500000Y-55000000D01*
X99000000Y-50500000D02*
X99500000Y-51000000D01*
D28*
X63570000Y-95730000D02*
X63570000Y-98270000D01*
X60000000Y-99500000D02*
X59000000Y-99500000D01*
X60000000Y-97000000D02*
X60000000Y-99500000D01*
D11*
X64200000Y-91000000D02*
X63100000Y-91000000D01*
X67000000Y-70500000D02*
X67000000Y-68500000D01*
X78950000Y-92400000D02*
X78950000Y-93300000D01*
X78950000Y-93300000D02*
X78650000Y-93600000D01*
X90600000Y-81600000D02*
X90600000Y-82700000D01*
X89000000Y-81600000D02*
X90600000Y-81600000D01*
X87200000Y-81800000D02*
X88800000Y-81800000D01*
X88800000Y-81800000D02*
X89000000Y-81600000D01*
X59400000Y-84000000D02*
X59400000Y-82900000D01*
X61000000Y-84000000D02*
X59400000Y-84000000D01*
X90600000Y-85600000D02*
X90600000Y-86700000D01*
X90600000Y-85600000D02*
X89000000Y-85600000D01*
X98200000Y-90950000D02*
X98200000Y-92100000D01*
X80600000Y-77750000D02*
X80600000Y-78550000D01*
X80600000Y-78550000D02*
X81050000Y-79000000D01*
X81050000Y-79000000D02*
X82575736Y-79000000D01*
X82575736Y-79000000D02*
X83000000Y-79000000D01*
X69400000Y-77750000D02*
X69400000Y-79000000D01*
X88700000Y-95500000D02*
X86660000Y-95500000D01*
X86660000Y-95500000D02*
X86430000Y-95730000D01*
X88700000Y-93800000D02*
X87900000Y-93800000D01*
X87900000Y-93800000D02*
X87600000Y-93500000D01*
D26*
X78100000Y-91400000D02*
X78700000Y-90800000D01*
X78000000Y-92300000D02*
X78000000Y-91500000D01*
X78450000Y-91050000D02*
X78399999Y-91100001D01*
X79900000Y-91050000D02*
X78450000Y-91050000D01*
X78399999Y-91100001D02*
X78100000Y-91400000D01*
X78000000Y-91500000D02*
X78100000Y-91400000D01*
X78800000Y-89250000D02*
X78800000Y-90000000D01*
X78800000Y-89250000D02*
X78800000Y-88600000D01*
X78850000Y-86000000D02*
X78850000Y-86410000D01*
X78850000Y-86410000D02*
X79290000Y-86850000D01*
D27*
X71850000Y-86900000D02*
X72500000Y-86900000D01*
X71200000Y-87550000D02*
X71200000Y-86900000D01*
D26*
X75000000Y-92100000D02*
X75900000Y-92100000D01*
X73200000Y-91950000D02*
X74050000Y-91950000D01*
X74050000Y-91950000D02*
X74100000Y-92000000D01*
X50500000Y-79000000D02*
X50500000Y-80900000D01*
X50500000Y-80900000D02*
X50400000Y-81000000D01*
X73200000Y-91950000D02*
X72900000Y-91950000D01*
X72900000Y-91950000D02*
X72350000Y-91400000D01*
X67000000Y-79000000D02*
X69400000Y-79000000D01*
D11*
X83000000Y-74500000D02*
X83000000Y-76500000D01*
X83000000Y-70500000D02*
X83000000Y-72500000D01*
X67000000Y-72500000D02*
X67000000Y-70500000D01*
X67000000Y-76500000D02*
X67000000Y-74500000D01*
X83000000Y-58500000D02*
X83000000Y-60500000D01*
X83000000Y-54500000D02*
X83000000Y-56500000D01*
X83000000Y-50500000D02*
X83000000Y-52500000D01*
X67000000Y-58500000D02*
X67000000Y-60500000D01*
X67000000Y-54500000D02*
X67000000Y-56500000D01*
X67000000Y-50500000D02*
X67000000Y-52500000D01*
D26*
X57000000Y-99500000D02*
X59000000Y-99500000D01*
X50500000Y-99000000D02*
X51000000Y-99500000D01*
X50500000Y-91000000D02*
X50500000Y-93000000D01*
X50500000Y-87000000D02*
X50500000Y-89000000D01*
X50500000Y-53000000D02*
X50500000Y-51000000D01*
X50500000Y-57000000D02*
X50500000Y-55000000D01*
X50500000Y-61000000D02*
X50500000Y-59000000D01*
X50500000Y-65000000D02*
X50500000Y-63000000D01*
X50500000Y-69000000D02*
X50500000Y-67000000D01*
X50500000Y-73000000D02*
X50500000Y-71000000D01*
X50500000Y-77000000D02*
X50500000Y-75000000D01*
X79900000Y-91050000D02*
X79900000Y-92350000D01*
X78950000Y-92400000D02*
X76950000Y-92400000D01*
X76950000Y-92400000D02*
X76850000Y-92300000D01*
X71200000Y-89950000D02*
X71200000Y-90250000D01*
X71200000Y-90250000D02*
X71700000Y-90750000D01*
X71200000Y-88400000D02*
X71200000Y-89200000D01*
D27*
X74250000Y-80450000D02*
X74250000Y-80725000D01*
X74174999Y-80374999D02*
X74250000Y-80450000D01*
D11*
X72425000Y-81550000D02*
X71350000Y-81550000D01*
X71350000Y-81550000D02*
X71000000Y-81200000D01*
X77575000Y-81550000D02*
X78650000Y-81550000D01*
X78650000Y-81550000D02*
X79000000Y-81200000D01*
X59400000Y-80000000D02*
X59400000Y-78950000D01*
X93000000Y-86100000D02*
X93000000Y-85000000D01*
X94625000Y-86300000D02*
X93200000Y-86300000D01*
X93200000Y-86300000D02*
X93000000Y-86100000D01*
X86810000Y-95350000D02*
X86430000Y-95730000D01*
X62700000Y-88800000D02*
X62000000Y-88100000D01*
D26*
X61900000Y-88000000D02*
X62000000Y-88100000D01*
D11*
X74750000Y-84875000D02*
X74750000Y-83050000D01*
X74750000Y-83050000D02*
X75000000Y-82800000D01*
X76250000Y-84875000D02*
X76250000Y-83500000D01*
X76250000Y-83500000D02*
X76300000Y-83450000D01*
X77575000Y-81550000D02*
X76250000Y-81550000D01*
X76250000Y-81550000D02*
X75000000Y-82800000D01*
X76750000Y-80725000D02*
X76750000Y-81450000D01*
X76750000Y-81450000D02*
X75400000Y-82800000D01*
X75400000Y-82800000D02*
X75000000Y-82800000D01*
X75750000Y-80725000D02*
X75750000Y-82050000D01*
X75750000Y-82050000D02*
X75000000Y-82800000D01*
X74250000Y-80725000D02*
X74250000Y-82050000D01*
X74250000Y-82050000D02*
X75000000Y-82800000D01*
X72425000Y-81550000D02*
X73750000Y-81550000D01*
X73750000Y-81550000D02*
X75000000Y-82800000D01*
X73250000Y-80725000D02*
X73250000Y-81450000D01*
X73250000Y-81450000D02*
X74600000Y-82800000D01*
X74600000Y-82800000D02*
X75000000Y-82800000D01*
X61900000Y-88000000D02*
X61000000Y-88000000D01*
X63900000Y-88800000D02*
X62700000Y-88800000D01*
X89000000Y-89800000D02*
X87400000Y-89800000D01*
X87400000Y-90600000D02*
X87400000Y-89800000D01*
X87000000Y-91000000D02*
X87400000Y-90600000D01*
X85800000Y-91000000D02*
X87000000Y-91000000D01*
X87400000Y-89325000D02*
X87400000Y-89800000D01*
X86100000Y-88800000D02*
X86875000Y-88800000D01*
X86875000Y-88800000D02*
X87400000Y-89325000D01*
X87200000Y-85775000D02*
X88825000Y-85775000D01*
X88825000Y-85775000D02*
X89000000Y-85600000D01*
X61000000Y-80000000D02*
X59400000Y-80000000D01*
X62800000Y-79825000D02*
X61175000Y-79825000D01*
X61175000Y-79825000D02*
X61000000Y-80000000D01*
X62800000Y-83825000D02*
X61175000Y-83825000D01*
X61175000Y-83825000D02*
X61000000Y-84000000D01*
X90600000Y-88000000D02*
X89000000Y-88000000D01*
X86100000Y-88150000D02*
X88950000Y-88150000D01*
X88950000Y-88150000D02*
X89000000Y-88200000D01*
D28*
X59300000Y-92400000D02*
X65200000Y-92400000D01*
X65200000Y-92400000D02*
X65400000Y-92400000D01*
X65800000Y-93150000D02*
X65800000Y-93000000D01*
X65800000Y-93000000D02*
X65200000Y-92400000D01*
D11*
X96575000Y-86300000D02*
X97950000Y-86300000D01*
X97950000Y-86300000D02*
X98200000Y-86050000D01*
X87200000Y-79850000D02*
X88850000Y-79850000D01*
X88850000Y-79850000D02*
X89000000Y-80000000D01*
X90600000Y-80000000D02*
X89000000Y-80000000D01*
D28*
X91800000Y-80000000D02*
X91800000Y-80400000D01*
X91800000Y-78800000D02*
X91800000Y-80000000D01*
D11*
X91800000Y-80000000D02*
X90600000Y-80000000D01*
X59400000Y-85600000D02*
X61000000Y-85600000D01*
X58150000Y-85600000D02*
X59400000Y-85600000D01*
X90600000Y-84000000D02*
X89000000Y-84000000D01*
X91800000Y-84000000D02*
X90600000Y-84000000D01*
D28*
X91800000Y-89400000D02*
X91800000Y-87900000D01*
X91800000Y-87900000D02*
X91800000Y-87750000D01*
X93000000Y-87700000D02*
X92000000Y-87700000D01*
X92000000Y-87700000D02*
X91800000Y-87900000D01*
X81450000Y-76750000D02*
X79975000Y-76750000D01*
X79975000Y-76750000D02*
X79000000Y-77725000D01*
X82900000Y-78200000D02*
X81450000Y-76750000D01*
X91236002Y-78200000D02*
X82900000Y-78200000D01*
X91800000Y-78800000D02*
X91800000Y-78763998D01*
X91800000Y-78763998D02*
X91236002Y-78200000D01*
X58700000Y-78200000D02*
X58150000Y-78750000D01*
X58150000Y-78750000D02*
X58150000Y-81600000D01*
X67254998Y-78200000D02*
X58700000Y-78200000D01*
X70075000Y-76800000D02*
X68654998Y-76800000D01*
X68654998Y-76800000D02*
X67254998Y-78200000D01*
X71000000Y-77725000D02*
X70075000Y-76800000D01*
D11*
X91850000Y-87700000D02*
X91800000Y-87750000D01*
D28*
X91800000Y-87750000D02*
X91800000Y-84000000D01*
D11*
X93000000Y-87700000D02*
X93000000Y-89300000D01*
X79000000Y-77750000D02*
X79000000Y-77725000D01*
X79000000Y-79600000D02*
X79000000Y-77750000D01*
X71000000Y-77725000D02*
X71000000Y-77750000D01*
X71000000Y-78750000D02*
X71000000Y-77750000D01*
D28*
X90900000Y-90300000D02*
X91400000Y-89800000D01*
X91400000Y-89800000D02*
X91800000Y-89400000D01*
D11*
X90600000Y-89800000D02*
X91400000Y-89800000D01*
D28*
X89100000Y-92100000D02*
X90600000Y-90600000D01*
X90600000Y-90600000D02*
X90900000Y-90300000D01*
D11*
X90600000Y-89800000D02*
X90600000Y-90600000D01*
X90600000Y-89800000D02*
X90600000Y-90000000D01*
X90600000Y-90000000D02*
X90900000Y-90300000D01*
D28*
X84150000Y-92100000D02*
X89100000Y-92100000D01*
D11*
X93000000Y-89300000D02*
X92975000Y-89300000D01*
X79000000Y-79600000D02*
X79025000Y-79600000D01*
D28*
X91800000Y-80400000D02*
X91800000Y-80700000D01*
X91800000Y-80700000D02*
X91800000Y-84000000D01*
D11*
X83900000Y-89450000D02*
X83900000Y-90700000D01*
X83900000Y-90700000D02*
X84200000Y-91000000D01*
D28*
X83449999Y-92849997D02*
X83150000Y-93149996D01*
X84150000Y-92149996D02*
X83449999Y-92849997D01*
D11*
X84150000Y-92100000D02*
X84150000Y-92149996D01*
X77250000Y-80725000D02*
X77875000Y-80725000D01*
X77875000Y-80725000D02*
X79000000Y-79600000D01*
X72750000Y-80725000D02*
X72125000Y-80725000D01*
X72125000Y-80725000D02*
X71000000Y-79600000D01*
X71000000Y-78750000D02*
X71000000Y-79600000D01*
X58600000Y-81600000D02*
X58150000Y-81600000D01*
D28*
X58150000Y-81600000D02*
X58150000Y-83000000D01*
D11*
X59400000Y-81600000D02*
X58600000Y-81600000D01*
X67000000Y-90575000D02*
X67000000Y-88775000D01*
X67000000Y-88775000D02*
X66375000Y-88150000D01*
X66375000Y-88150000D02*
X66100000Y-88150000D01*
X65800000Y-91000000D02*
X66575000Y-91000000D01*
X66575000Y-91000000D02*
X67000000Y-90575000D01*
D28*
X65800000Y-93150000D02*
X65800000Y-92725736D01*
X65800000Y-92725736D02*
X65800000Y-92300000D01*
D11*
X84200000Y-91000000D02*
X84200000Y-92050000D01*
X84200000Y-92050000D02*
X84150000Y-92100000D01*
X93000000Y-87700000D02*
X95250000Y-87700000D01*
X95250000Y-87700000D02*
X95850000Y-87700000D01*
X95275000Y-86300000D02*
X95275000Y-87675000D01*
X95275000Y-87675000D02*
X95250000Y-87700000D01*
X95850000Y-87700000D02*
X96200000Y-87700000D01*
X95925000Y-87625000D02*
X95850000Y-87700000D01*
X95925000Y-86300000D02*
X95925000Y-87625000D01*
X96200000Y-87700000D02*
X96575000Y-87325000D01*
X96575000Y-87325000D02*
X96575000Y-86300000D01*
D28*
X65400000Y-92400000D02*
X65700000Y-92400000D01*
D11*
X65800000Y-91000000D02*
X65800000Y-92300000D01*
X65800000Y-92300000D02*
X65700000Y-92400000D01*
D28*
X58150000Y-83000000D02*
X58150000Y-85600000D01*
X58150000Y-85600000D02*
X58150000Y-88000000D01*
X58150000Y-88000000D02*
X58150000Y-91250000D01*
D11*
X59400000Y-88000000D02*
X58600000Y-88000000D01*
X58600000Y-88000000D02*
X58150000Y-88000000D01*
D28*
X58150000Y-91250000D02*
X59300000Y-92400000D01*
D11*
X87200000Y-83825000D02*
X88825000Y-83825000D01*
X88825000Y-83825000D02*
X89000000Y-84000000D01*
X62800000Y-85775000D02*
X61175000Y-85775000D01*
X61175000Y-85775000D02*
X61000000Y-85600000D01*
X61000000Y-81600000D02*
X59400000Y-81600000D01*
X62800000Y-81775000D02*
X61175000Y-81775000D01*
X61175000Y-81775000D02*
X61000000Y-81600000D01*
D27*
X75250000Y-80725000D02*
X75250000Y-79750000D01*
X75250000Y-79750000D02*
X75200000Y-79700000D01*
D11*
X72800000Y-92800000D02*
X72300000Y-92300000D01*
X72800000Y-92800000D02*
X76360000Y-92800000D01*
X76360000Y-92800000D02*
X76550000Y-92990000D01*
X76550000Y-92990000D02*
X76550000Y-93600000D01*
X76550000Y-93600000D02*
X77750000Y-93600000D01*
D27*
X74600000Y-80000000D02*
X74600000Y-79200000D01*
X74600000Y-79200000D02*
X74900000Y-78900000D01*
X74750000Y-80150000D02*
X74600000Y-80000000D01*
X74750000Y-80725000D02*
X74750000Y-80150000D01*
D11*
X72250000Y-93250000D02*
X70800000Y-91800000D01*
X70800000Y-91800000D02*
X70700000Y-91800000D01*
X72250000Y-93600000D02*
X72250000Y-93250000D01*
X72250000Y-93600000D02*
X73450000Y-93600000D01*
D26*
X68050000Y-82050000D02*
X67775000Y-81775000D01*
X67775000Y-81775000D02*
X67200000Y-81775000D01*
X72425000Y-82050000D02*
X68050000Y-82050000D01*
X72425000Y-82550000D02*
X66550000Y-82550000D01*
X66550000Y-82550000D02*
X66200000Y-82200000D01*
X66200000Y-79900000D02*
X66275000Y-79825000D01*
X66200000Y-82200000D02*
X66200000Y-79900000D01*
X66275000Y-79825000D02*
X67200000Y-79825000D01*
X67200000Y-83825000D02*
X68125000Y-83825000D01*
X68125000Y-83825000D02*
X68900000Y-83050000D01*
X68900000Y-83050000D02*
X71800000Y-83050000D01*
X71800000Y-83050000D02*
X72425000Y-83050000D01*
X67675000Y-85775000D02*
X67900000Y-86000000D01*
X67900000Y-86000000D02*
X69100000Y-86000000D01*
X67200000Y-85775000D02*
X67675000Y-85775000D01*
X69500000Y-85600000D02*
X69100000Y-86000000D01*
X69500000Y-83900000D02*
X69500000Y-85600000D01*
X69850000Y-83550000D02*
X69500000Y-83900000D01*
X72425000Y-83550000D02*
X69850000Y-83550000D01*
X71700000Y-84600000D02*
X71975000Y-84875000D01*
X71975000Y-84875000D02*
X72750000Y-84875000D01*
X71700000Y-84200000D02*
X71700000Y-84600000D01*
X71850000Y-84050000D02*
X71700000Y-84200000D01*
X72425000Y-84050000D02*
X71850000Y-84050000D01*
D11*
X68700000Y-88250000D02*
X68700000Y-87000000D01*
D26*
X68700000Y-94100000D02*
X68700000Y-93800000D01*
X73250000Y-84875000D02*
X73250000Y-85500000D01*
X73250000Y-85500000D02*
X73150000Y-85600000D01*
X73150000Y-85600000D02*
X70100000Y-85600000D01*
X70100000Y-85600000D02*
X68700000Y-87000000D01*
D11*
X68700000Y-93800000D02*
X68700000Y-88250000D01*
X69300000Y-88450000D02*
X69300000Y-87000000D01*
D26*
X73750000Y-84875000D02*
X73750000Y-85500000D01*
X73750000Y-85500000D02*
X73300000Y-85950000D01*
X73300000Y-85950000D02*
X70350000Y-85950000D01*
X70350000Y-85950000D02*
X69300000Y-87000000D01*
D11*
X69900000Y-94800000D02*
X69900000Y-93700000D01*
X69300000Y-93100000D02*
X69300000Y-88450000D01*
X69900000Y-93700000D02*
X69300000Y-93100000D01*
D26*
X69900000Y-94800000D02*
X69900000Y-96980000D01*
X69900000Y-96980000D02*
X71190000Y-98270000D01*
D11*
X69900000Y-92900000D02*
X69900000Y-87900000D01*
X69900000Y-87900000D02*
X69900000Y-87000000D01*
D26*
X74250000Y-84875000D02*
X74250000Y-85494988D01*
X74250000Y-85494988D02*
X73444988Y-86300000D01*
X73444988Y-86300000D02*
X70600000Y-86300000D01*
X70600000Y-86300000D02*
X69900000Y-87000000D01*
X70400000Y-94200000D02*
X70400000Y-93400000D01*
X70400000Y-93400000D02*
X69900000Y-92900000D01*
X70600000Y-94400000D02*
X70400000Y-94200000D01*
X71800000Y-94400000D02*
X70600000Y-94400000D01*
X72475000Y-95075000D02*
X71800000Y-94400000D01*
X72475000Y-97015000D02*
X72475000Y-95075000D01*
X73730000Y-98270000D02*
X72475000Y-97015000D01*
X76750000Y-84875000D02*
X76750000Y-85400002D01*
X78240000Y-86670000D02*
X79110000Y-87540000D01*
X80340000Y-87540000D02*
X80650000Y-87850000D01*
X80650000Y-87850000D02*
X80650000Y-93050000D01*
X76750000Y-85400002D02*
X76909998Y-85560000D01*
X76909998Y-85560000D02*
X78060000Y-85560000D01*
X78060000Y-85560000D02*
X78240000Y-85740000D01*
X78240000Y-85740000D02*
X78240000Y-86670000D01*
X80650000Y-93050000D02*
X79300000Y-94400000D01*
X78250000Y-94400000D02*
X77550000Y-95100000D01*
X77550000Y-96950000D02*
X76270000Y-98230000D01*
X76270000Y-98230000D02*
X76270000Y-98270000D01*
X79110000Y-87540000D02*
X80340000Y-87540000D01*
X79300000Y-94400000D02*
X78250000Y-94400000D01*
X77550000Y-95100000D02*
X77550000Y-96950000D01*
X77250000Y-84875000D02*
X78775000Y-84875000D01*
X78775000Y-84875000D02*
X78850000Y-84800000D01*
D27*
X77250000Y-84875000D02*
X77250000Y-85150000D01*
D26*
X77575000Y-84050000D02*
X80300000Y-84050000D01*
X80300000Y-84050000D02*
X80500000Y-84250000D01*
X80500000Y-84250000D02*
X80500000Y-85800000D01*
X81050000Y-86350000D02*
X81050000Y-93950000D01*
X80500000Y-85800000D02*
X81050000Y-86350000D01*
X81050000Y-93950000D02*
X80075000Y-94925000D01*
X80075000Y-94925000D02*
X80075000Y-97005000D01*
X80075000Y-97005000D02*
X78810000Y-98270000D01*
X82050000Y-83550000D02*
X82325000Y-83825000D01*
X82325000Y-83825000D02*
X82800000Y-83825000D01*
X77575000Y-83550000D02*
X82050000Y-83550000D01*
D27*
X82800000Y-83825000D02*
X82275000Y-83825000D01*
X82300000Y-83825000D02*
X82800000Y-83825000D01*
D26*
X83700000Y-83300000D02*
X83800000Y-83400000D01*
X83800000Y-83400000D02*
X83800000Y-85480002D01*
X82400000Y-83300000D02*
X83700000Y-83300000D01*
X82150000Y-83050000D02*
X82400000Y-83300000D01*
X77575000Y-83050000D02*
X82150000Y-83050000D01*
X82800000Y-85775000D02*
X83505002Y-85775000D01*
X83505002Y-85775000D02*
X83800000Y-85480002D01*
X81550000Y-82550000D02*
X82300000Y-81800000D01*
X77575000Y-82550000D02*
X81550000Y-82550000D01*
D27*
X82800000Y-81800000D02*
X82300000Y-81800000D01*
D26*
X82800000Y-79850000D02*
X82250000Y-79850000D01*
X82250000Y-79850000D02*
X82000000Y-79600000D01*
X80879998Y-79600000D02*
X80500000Y-79979998D01*
X82000000Y-79600000D02*
X80879998Y-79600000D01*
X80500000Y-79979998D02*
X80500000Y-81700000D01*
X80500000Y-81700000D02*
X80150000Y-82050000D01*
X80150000Y-82050000D02*
X77575000Y-82050000D01*
D27*
X82800000Y-79850000D02*
X82300000Y-79850000D01*
D11*
X94625000Y-90700000D02*
X93200000Y-90700000D01*
X93200000Y-90700000D02*
X93000000Y-90900000D01*
X93500000Y-92300000D02*
X95900000Y-92300000D01*
X95900000Y-92300000D02*
X95925000Y-92275000D01*
X95950000Y-92300000D02*
X96200000Y-92300000D01*
X95925000Y-90700000D02*
X95925000Y-92275000D01*
X95925000Y-92275000D02*
X95950000Y-92300000D01*
X96200000Y-92300000D02*
X96575000Y-91925000D01*
X96575000Y-91925000D02*
X96575000Y-90700000D01*
X93500000Y-92300000D02*
X90300000Y-95500000D01*
X90300000Y-95500000D02*
X90300000Y-96300000D01*
X90300000Y-96300000D02*
X89600000Y-97000000D01*
X89600000Y-97000000D02*
X87950000Y-97000000D01*
D26*
X83890000Y-98270000D02*
X85160000Y-97000000D01*
X85160000Y-97000000D02*
X87950000Y-97000000D01*
D11*
X83890000Y-95730000D02*
X82200000Y-94040000D01*
X82200000Y-94040000D02*
X82200000Y-87250000D01*
X82200000Y-87250000D02*
X82350000Y-87100000D01*
X82350000Y-87100000D02*
X84274264Y-87100000D01*
X84274264Y-87100000D02*
X85150000Y-86224264D01*
X85150000Y-86224264D02*
X85150000Y-85800000D01*
X85150000Y-85800000D02*
X85050000Y-85800000D01*
X87200000Y-84475000D02*
X85575000Y-84475000D01*
X85575000Y-84475000D02*
X85500000Y-84400000D01*
D26*
X82800000Y-85125000D02*
X81325000Y-85125000D01*
X81325000Y-85125000D02*
X81200000Y-85250000D01*
X82800000Y-84475000D02*
X81325000Y-84475000D01*
X81325000Y-84475000D02*
X81200000Y-84350000D01*
X82800000Y-80500000D02*
X81350000Y-80500000D01*
X81350000Y-80500000D02*
X81200000Y-80350000D01*
X82800000Y-81150000D02*
X81300000Y-81150000D01*
X81300000Y-81150000D02*
X81200000Y-81250000D01*
D11*
X81350000Y-95730000D02*
X81600000Y-95480000D01*
X81600000Y-95480000D02*
X81600000Y-87000000D01*
X81600000Y-87000000D02*
X82100000Y-86500000D01*
X82100000Y-86500000D02*
X83900000Y-86500000D01*
X83900000Y-86500000D02*
X84300000Y-86100000D01*
X84300000Y-86100000D02*
X84300000Y-81750000D01*
X84300000Y-81750000D02*
X85550000Y-80500000D01*
X85550000Y-80500000D02*
X87200000Y-80500000D01*
X62800000Y-85125000D02*
X64325000Y-85125000D01*
X66110000Y-95690000D02*
X66110000Y-95730000D01*
X64325000Y-85125000D02*
X67500000Y-88300000D01*
X67500000Y-88300000D02*
X67500000Y-94300000D01*
X67500000Y-94300000D02*
X66110000Y-95690000D01*
D26*
X67200000Y-84475000D02*
X68675000Y-84475000D01*
X68675000Y-84475000D02*
X68800000Y-84350000D01*
X67200000Y-85125000D02*
X68675000Y-85125000D01*
X68675000Y-85125000D02*
X68800000Y-85250000D01*
X67200000Y-81125000D02*
X68675000Y-81125000D01*
X68675000Y-81125000D02*
X68800000Y-81250000D01*
X67200000Y-80475000D02*
X68675000Y-80475000D01*
X68675000Y-80475000D02*
X68800000Y-80350000D01*
D11*
X75650000Y-93600000D02*
X75650000Y-95110000D01*
X75650000Y-95110000D02*
X76270000Y-95730000D01*
X74350000Y-93600000D02*
X74350000Y-95110000D01*
X74350000Y-95110000D02*
X73730000Y-95730000D01*
X74150000Y-95310000D02*
X73730000Y-95730000D01*
X68650000Y-95730000D02*
X68050000Y-95130000D01*
X68050000Y-95130000D02*
X68050000Y-88050000D01*
X68050000Y-88050000D02*
X64500000Y-84500000D01*
X64500000Y-84500000D02*
X64500000Y-81800000D01*
X64500000Y-81800000D02*
X63825000Y-81125000D01*
X63825000Y-81125000D02*
X62800000Y-81125000D01*
D26*
X79750000Y-86000000D02*
X79750000Y-86400000D01*
X79750000Y-86400000D02*
X80200000Y-86850000D01*
X79750000Y-84800000D02*
X79750000Y-86000000D01*
X93250000Y-91850000D02*
X95050000Y-91850000D01*
X95050000Y-91850000D02*
X95275000Y-91625000D01*
X95275000Y-91625000D02*
X95275000Y-90700000D01*
X81350000Y-98270000D02*
X82620000Y-97000000D01*
X87600000Y-94300000D02*
X87899999Y-94599999D01*
X90300000Y-93825000D02*
X90300000Y-93800000D01*
X82620000Y-97000000D02*
X84450000Y-97000000D01*
X84450000Y-97000000D02*
X85150000Y-96300000D01*
X87899999Y-94599999D02*
X89525001Y-94599999D01*
X89525001Y-94599999D02*
X90300000Y-93825000D01*
X85150000Y-96300000D02*
X85150000Y-94600000D01*
X85150000Y-94600000D02*
X85450000Y-94300000D01*
X85450000Y-94300000D02*
X87600000Y-94300000D01*
X93250000Y-91850000D02*
X91300000Y-93800000D01*
X91300000Y-93800000D02*
X90300000Y-93800000D01*
D11*
X61000000Y-89600000D02*
X59400000Y-89600000D01*
X63900000Y-89450000D02*
X61150000Y-89450000D01*
X61150000Y-89450000D02*
X61000000Y-89600000D01*
X65800000Y-84700000D02*
X65824265Y-84675735D01*
X65824265Y-84675735D02*
X65824265Y-83624265D01*
X65824265Y-83624265D02*
X65600000Y-83400000D01*
X65600000Y-83000000D02*
X65600000Y-83400000D01*
X65600000Y-83400000D02*
X65200000Y-83000000D01*
X65200000Y-82600000D02*
X65600000Y-83000000D01*
X65200000Y-82600000D02*
X65200000Y-83000000D01*
X65200000Y-81600000D02*
X65200000Y-82600000D01*
X63900000Y-88150000D02*
X63900000Y-86900000D01*
X63900000Y-86900000D02*
X64500000Y-86300000D01*
X65100000Y-88400000D02*
X64850000Y-88150000D01*
X64850000Y-88150000D02*
X63900000Y-88150000D01*
X65100000Y-89225000D02*
X65100000Y-88400000D01*
X66100000Y-89450000D02*
X65325000Y-89450000D01*
X65325000Y-89450000D02*
X65100000Y-89225000D01*
X64075000Y-80475000D02*
X65200000Y-81600000D01*
X62800000Y-80475000D02*
X64075000Y-80475000D01*
X64000000Y-83300000D02*
X63700000Y-83000000D01*
X64000000Y-84300000D02*
X64000000Y-83300000D01*
X62800000Y-84475000D02*
X63825000Y-84475000D01*
X63825000Y-84475000D02*
X64000000Y-84300000D01*
X85025000Y-85125000D02*
X86000000Y-85125000D01*
X86000000Y-85125000D02*
X87200000Y-85125000D01*
X86000000Y-85300000D02*
X86000000Y-85125000D01*
X84800000Y-84900000D02*
X85025000Y-85125000D01*
X84800000Y-82100000D02*
X84800000Y-84900000D01*
X85750000Y-81150000D02*
X84800000Y-82100000D01*
X87200000Y-81150000D02*
X85750000Y-81150000D01*
X86000000Y-85300000D02*
X86000000Y-87100000D01*
X86000000Y-87100000D02*
X84950000Y-88150000D01*
X87200000Y-85125000D02*
X86175000Y-85125000D01*
X85000000Y-89125000D02*
X85000000Y-88200000D01*
X83900000Y-88150000D02*
X84950000Y-88150000D01*
X84950000Y-88150000D02*
X85000000Y-88200000D01*
X85325000Y-89450000D02*
X85000000Y-89125000D01*
X86100000Y-89450000D02*
X85325000Y-89450000D01*
D28*
X93500000Y-64500000D02*
X86500000Y-64500000D01*
X86500000Y-64500000D02*
X85650000Y-64850000D01*
X77300000Y-73200000D02*
X77128667Y-73616097D01*
X77128667Y-73616097D02*
X76950000Y-74050000D01*
X85650000Y-64850000D02*
X77300000Y-73200000D01*
X76950000Y-74050000D02*
X76950000Y-77500000D01*
D11*
X76950000Y-78375000D02*
X76950000Y-77500000D01*
X76250000Y-79075000D02*
X76950000Y-78375000D01*
X76250000Y-80725000D02*
X76250000Y-79075000D01*
D28*
X61000000Y-64500000D02*
X70800000Y-64500000D01*
X70800000Y-64500000D02*
X72350000Y-65000000D01*
X72350000Y-65000000D02*
X72394720Y-65089442D01*
X72394720Y-65089442D02*
X73050000Y-66400000D01*
X73050000Y-71826362D02*
X73050000Y-77500000D01*
X73050000Y-66400000D02*
X73050000Y-71826362D01*
D11*
X73050000Y-78325000D02*
X73050000Y-77500000D01*
X73750000Y-79025000D02*
X73050000Y-78325000D01*
X73750000Y-80000000D02*
X73750000Y-79025000D01*
X73750000Y-80725000D02*
X73750000Y-80000000D01*
D28*
X76500000Y-89900000D02*
X76500000Y-87874081D01*
X76500000Y-87874081D02*
X76500000Y-87550000D01*
X73620000Y-88230000D02*
X73560000Y-88320000D01*
X74500000Y-87550000D02*
X74460000Y-87750000D01*
X74560000Y-89360000D02*
X74610000Y-89270000D01*
X74130000Y-90080000D02*
X74220000Y-90050000D01*
X74460000Y-87750000D02*
X74410000Y-87840000D01*
X75590000Y-89490000D02*
X75600000Y-89590000D01*
X74220000Y-90050000D02*
X74310000Y-89990000D01*
X74410000Y-87840000D02*
X74340000Y-87910000D01*
X74070000Y-88050000D02*
X73970000Y-88050000D01*
X74870000Y-89120000D02*
X74970000Y-89100000D01*
X73930000Y-90090000D02*
X74030000Y-90100000D01*
X73590000Y-89890000D02*
X73660000Y-89970000D01*
X74260000Y-87980000D02*
X74170000Y-88030000D01*
X74340000Y-87910000D02*
X74260000Y-87980000D01*
X74170000Y-88030000D02*
X74070000Y-88050000D01*
X73520000Y-88410000D02*
X73500000Y-88510000D01*
X75600000Y-89590000D02*
X75600000Y-89900000D01*
X73970000Y-88050000D02*
X73870000Y-88070000D01*
X74380000Y-89920000D02*
X74440000Y-89840000D01*
X73870000Y-88070000D02*
X73780000Y-88110000D01*
X73560000Y-88320000D02*
X73520000Y-88410000D01*
X73780000Y-88110000D02*
X73690000Y-88160000D01*
X75170000Y-89110000D02*
X75270000Y-89130000D01*
X73690000Y-88160000D02*
X73620000Y-88230000D01*
X73500000Y-88510000D02*
X73500000Y-89600000D01*
X73500000Y-89600000D02*
X73510000Y-89700000D01*
X73660000Y-89970000D02*
X73740000Y-90030000D01*
X73510000Y-89700000D02*
X73540000Y-89800000D01*
X75360000Y-89170000D02*
X75440000Y-89230000D01*
X73540000Y-89800000D02*
X73590000Y-89890000D01*
X74500000Y-89650000D02*
X74520000Y-89450000D01*
X73740000Y-90030000D02*
X73830000Y-90070000D01*
X73830000Y-90070000D02*
X73930000Y-90090000D01*
X74520000Y-89450000D02*
X74560000Y-89360000D01*
X74030000Y-90100000D02*
X74130000Y-90080000D01*
X74310000Y-89990000D02*
X74380000Y-89920000D01*
X74440000Y-89840000D02*
X74480000Y-89750000D01*
X74480000Y-89750000D02*
X74500000Y-89650000D01*
X74610000Y-89270000D02*
X74690000Y-89210000D01*
X74970000Y-89100000D02*
X75070000Y-89100000D01*
X74690000Y-89210000D02*
X74780000Y-89160000D01*
X75270000Y-89130000D02*
X75360000Y-89170000D01*
X74780000Y-89160000D02*
X74870000Y-89120000D01*
X75070000Y-89100000D02*
X75170000Y-89110000D01*
X75440000Y-89230000D02*
X75510000Y-89300000D01*
X75510000Y-89300000D02*
X75560000Y-89390000D01*
X75560000Y-89390000D02*
X75590000Y-89490000D01*
D29*
X75600000Y-89900000D02*
X75590000Y-90390000D01*
X75680000Y-91040000D02*
X76030000Y-91040000D01*
X75590000Y-90390000D02*
X75542913Y-90406816D01*
X75542913Y-90406816D02*
X75450000Y-90440000D01*
X75290000Y-90680000D02*
X75310000Y-90830000D01*
X75310000Y-90830000D02*
X75390000Y-90960000D01*
X75450000Y-90440000D02*
X75330000Y-90540000D01*
X75330000Y-90540000D02*
X75290000Y-90680000D01*
X75390000Y-90960000D02*
X75530000Y-91030000D01*
X75530000Y-91030000D02*
X75579889Y-91033325D01*
X75579889Y-91033325D02*
X75680000Y-91040000D01*
X76030000Y-91040000D02*
X76050000Y-91040000D01*
X76500000Y-89900000D02*
X76500000Y-90390000D01*
X76810000Y-90770000D02*
X76776367Y-90864173D01*
X76500000Y-90390000D02*
X76547087Y-90406816D01*
X76547087Y-90406816D02*
X76640000Y-90440000D01*
X76640000Y-90440000D02*
X76800000Y-90620000D01*
X76800000Y-90620000D02*
X76809977Y-90769667D01*
X76809977Y-90769667D02*
X76810000Y-90770000D01*
X76776367Y-90864173D02*
X76760000Y-90910000D01*
X76490000Y-91040000D02*
X76090000Y-91040000D01*
X76760000Y-90910000D02*
X76640000Y-91000000D01*
X76640000Y-91000000D02*
X76490000Y-91040000D01*
X76090000Y-91040000D02*
X76050000Y-91040000D01*
D26*
X75250000Y-84875000D02*
X75250000Y-86800000D01*
X75250000Y-86800000D02*
X74500000Y-87550000D01*
D28*
X75580000Y-89900000D02*
X75600000Y-89900000D01*
D26*
X75750000Y-84875000D02*
X75750000Y-86800000D01*
X75750000Y-86800000D02*
X76500000Y-87550000D01*
D11*
X98200000Y-87650000D02*
X98200000Y-89350000D01*
D27*
G36*
X73225000Y-78100000D02*
X73230709Y-78128701D01*
X73246967Y-78153033D01*
X73271299Y-78169291D01*
X73300000Y-78175000D01*
X73825000Y-78175000D01*
X73825000Y-81075000D01*
X73675000Y-81075000D01*
X73675000Y-79750000D01*
X73669291Y-79721299D01*
X73653033Y-79696967D01*
X73628701Y-79680709D01*
X73600000Y-79675000D01*
X72875000Y-79675000D01*
X72875000Y-77575000D01*
X73225000Y-77575000D01*
X73225000Y-78100000D01*
X73225000Y-78100000D01*
G37*
X73225000Y-78100000D02*
X73230709Y-78128701D01*
X73246967Y-78153033D01*
X73271299Y-78169291D01*
X73300000Y-78175000D01*
X73825000Y-78175000D01*
X73825000Y-81075000D01*
X73675000Y-81075000D01*
X73675000Y-79750000D01*
X73669291Y-79721299D01*
X73653033Y-79696967D01*
X73628701Y-79680709D01*
X73600000Y-79675000D01*
X72875000Y-79675000D01*
X72875000Y-77575000D01*
X73225000Y-77575000D01*
X73225000Y-78100000D01*
G36*
X77125000Y-79675000D02*
X76400000Y-79675000D01*
X76371299Y-79680709D01*
X76346967Y-79696967D01*
X76330709Y-79721299D01*
X76325000Y-79750000D01*
X76325000Y-81075000D01*
X76175000Y-81075000D01*
X76175000Y-78175000D01*
X76700000Y-78175000D01*
X76728701Y-78169291D01*
X76753033Y-78153033D01*
X76769291Y-78128701D01*
X76775000Y-78100000D01*
X76775000Y-77575000D01*
X77125000Y-77575000D01*
X77125000Y-79675000D01*
X77125000Y-79675000D01*
G37*
X77125000Y-79675000D02*
X76400000Y-79675000D01*
X76371299Y-79680709D01*
X76346967Y-79696967D01*
X76330709Y-79721299D01*
X76325000Y-79750000D01*
X76325000Y-81075000D01*
X76175000Y-81075000D01*
X76175000Y-78175000D01*
X76700000Y-78175000D01*
X76728701Y-78169291D01*
X76753033Y-78153033D01*
X76769291Y-78128701D01*
X76775000Y-78100000D01*
X76775000Y-77575000D01*
X77125000Y-77575000D01*
X77125000Y-79675000D01*
G36*
X75825000Y-85850000D02*
X75830709Y-85878701D01*
X75846967Y-85903033D01*
X75871299Y-85919291D01*
X75900000Y-85925000D01*
X76675000Y-85925000D01*
X76675000Y-87475000D01*
X76325000Y-87475000D01*
X76325000Y-87450000D01*
X76319291Y-87421299D01*
X76303033Y-87396967D01*
X76278701Y-87380709D01*
X76250000Y-87375000D01*
X75675000Y-87375000D01*
X75675000Y-84525000D01*
X75825000Y-84525000D01*
X75825000Y-85850000D01*
X75825000Y-85850000D01*
G37*
X75825000Y-85850000D02*
X75830709Y-85878701D01*
X75846967Y-85903033D01*
X75871299Y-85919291D01*
X75900000Y-85925000D01*
X76675000Y-85925000D01*
X76675000Y-87475000D01*
X76325000Y-87475000D01*
X76325000Y-87450000D01*
X76319291Y-87421299D01*
X76303033Y-87396967D01*
X76278701Y-87380709D01*
X76250000Y-87375000D01*
X75675000Y-87375000D01*
X75675000Y-84525000D01*
X75825000Y-84525000D01*
X75825000Y-85850000D01*
G36*
X75325000Y-87375000D02*
X74750000Y-87375000D01*
X74721299Y-87380709D01*
X74696967Y-87396967D01*
X74680709Y-87421299D01*
X74675000Y-87450000D01*
X74675000Y-87475000D01*
X74325000Y-87475000D01*
X74325000Y-85925000D01*
X75100000Y-85925000D01*
X75128701Y-85919291D01*
X75153033Y-85903033D01*
X75169291Y-85878701D01*
X75175000Y-85850000D01*
X75175000Y-84525000D01*
X75325000Y-84525000D01*
X75325000Y-87375000D01*
X75325000Y-87375000D01*
G37*
X75325000Y-87375000D02*
X74750000Y-87375000D01*
X74721299Y-87380709D01*
X74696967Y-87396967D01*
X74680709Y-87421299D01*
X74675000Y-87450000D01*
X74675000Y-87475000D01*
X74325000Y-87475000D01*
X74325000Y-85925000D01*
X75100000Y-85925000D01*
X75128701Y-85919291D01*
X75153033Y-85903033D01*
X75169291Y-85878701D01*
X75175000Y-85850000D01*
X75175000Y-84525000D01*
X75325000Y-84525000D01*
X75325000Y-87375000D01*
G36*
X75825000Y-80375000D02*
X75675000Y-80375000D01*
X75675000Y-80038293D01*
X75687177Y-80026137D01*
X75774900Y-79814876D01*
X75775100Y-79586127D01*
X75687746Y-79374714D01*
X75675000Y-79361946D01*
X75675000Y-78450000D01*
X75669291Y-78421299D01*
X75653033Y-78396967D01*
X75628701Y-78380709D01*
X75600000Y-78375000D01*
X75135049Y-78375000D01*
X75014876Y-78325100D01*
X74786127Y-78324900D01*
X74664876Y-78375000D01*
X74375000Y-78375000D01*
X74346299Y-78380709D01*
X74321967Y-78396967D01*
X74305709Y-78421299D01*
X74300000Y-78450000D01*
X74300000Y-80375000D01*
X74175000Y-80375000D01*
X74175000Y-78175000D01*
X75825000Y-78175000D01*
X75825000Y-80375000D01*
X75825000Y-80375000D01*
G37*
X75825000Y-80375000D02*
X75675000Y-80375000D01*
X75675000Y-80038293D01*
X75687177Y-80026137D01*
X75774900Y-79814876D01*
X75775100Y-79586127D01*
X75687746Y-79374714D01*
X75675000Y-79361946D01*
X75675000Y-78450000D01*
X75669291Y-78421299D01*
X75653033Y-78396967D01*
X75628701Y-78380709D01*
X75600000Y-78375000D01*
X75135049Y-78375000D01*
X75014876Y-78325100D01*
X74786127Y-78324900D01*
X74664876Y-78375000D01*
X74375000Y-78375000D01*
X74346299Y-78380709D01*
X74321967Y-78396967D01*
X74305709Y-78421299D01*
X74300000Y-78450000D01*
X74300000Y-80375000D01*
X74175000Y-80375000D01*
X74175000Y-78175000D01*
X75825000Y-78175000D01*
X75825000Y-80375000D01*
D26*
G36*
X99825000Y-99825000D02*
X50175000Y-99825000D01*
X50175000Y-82673335D01*
X50599411Y-82673335D01*
X50900000Y-83400815D01*
X50900000Y-94599675D01*
X50600591Y-95320731D01*
X50599411Y-96673335D01*
X50900000Y-97400815D01*
X50900000Y-99000000D01*
X50907612Y-99038268D01*
X50929289Y-99070711D01*
X50961732Y-99092388D01*
X51000000Y-99100000D01*
X52599675Y-99100000D01*
X53320731Y-99399409D01*
X54673335Y-99400589D01*
X55400815Y-99100000D01*
X67782976Y-99100000D01*
X67969367Y-99286717D01*
X68410258Y-99469791D01*
X68887647Y-99470207D01*
X69328857Y-99287903D01*
X69517089Y-99100000D01*
X70322976Y-99100000D01*
X70509367Y-99286717D01*
X70950258Y-99469791D01*
X71427647Y-99470207D01*
X71868857Y-99287903D01*
X72057089Y-99100000D01*
X72862976Y-99100000D01*
X73049367Y-99286717D01*
X73490258Y-99469791D01*
X73967647Y-99470207D01*
X74408857Y-99287903D01*
X74597089Y-99100000D01*
X75402976Y-99100000D01*
X75589367Y-99286717D01*
X76030258Y-99469791D01*
X76507647Y-99470207D01*
X76948857Y-99287903D01*
X77137089Y-99100000D01*
X77942976Y-99100000D01*
X78129367Y-99286717D01*
X78570258Y-99469791D01*
X79047647Y-99470207D01*
X79488857Y-99287903D01*
X79677089Y-99100000D01*
X80482976Y-99100000D01*
X80669367Y-99286717D01*
X81110258Y-99469791D01*
X81587647Y-99470207D01*
X82028857Y-99287903D01*
X82217089Y-99100000D01*
X83022976Y-99100000D01*
X83209367Y-99286717D01*
X83650258Y-99469791D01*
X84127647Y-99470207D01*
X84568857Y-99287903D01*
X84757089Y-99100000D01*
X94599675Y-99100000D01*
X95320731Y-99399409D01*
X96673335Y-99400589D01*
X97400815Y-99100000D01*
X99000000Y-99100000D01*
X99038268Y-99092388D01*
X99070711Y-99070711D01*
X99092388Y-99038268D01*
X99100000Y-99000000D01*
X99100000Y-97400325D01*
X99399409Y-96679269D01*
X99400589Y-95326665D01*
X99100000Y-94599185D01*
X99100000Y-83400325D01*
X99399409Y-82679269D01*
X99400589Y-81326665D01*
X99100000Y-80599185D01*
X99100000Y-77000000D01*
X99092388Y-76961732D01*
X99070711Y-76929289D01*
X99038268Y-76907612D01*
X99000000Y-76900000D01*
X82600000Y-76900000D01*
X82600000Y-70541422D01*
X87041422Y-66100000D01*
X95200000Y-66100000D01*
X95238268Y-66092388D01*
X95270711Y-66070711D01*
X95292388Y-66038268D01*
X95300000Y-66000000D01*
X95300000Y-63000000D01*
X95292388Y-62961732D01*
X95270711Y-62929289D01*
X95238268Y-62907612D01*
X95200000Y-62900000D01*
X59300000Y-62900000D01*
X59261732Y-62907612D01*
X59229289Y-62929289D01*
X59207612Y-62961732D01*
X59200000Y-63000000D01*
X59200000Y-66000000D01*
X59207612Y-66038268D01*
X59229289Y-66070711D01*
X59261732Y-66092388D01*
X59300000Y-66100000D01*
X67400000Y-66100000D01*
X67400000Y-76900000D01*
X51000000Y-76900000D01*
X50961732Y-76907612D01*
X50929289Y-76929289D01*
X50907612Y-76961732D01*
X50900000Y-77000000D01*
X50900000Y-80599675D01*
X50600591Y-81320731D01*
X50599411Y-82673335D01*
X50175000Y-82673335D01*
X50175000Y-50175000D01*
X99825000Y-50175000D01*
X99825000Y-99825000D01*
X99825000Y-99825000D01*
G37*
X99825000Y-99825000D02*
X50175000Y-99825000D01*
X50175000Y-82673335D01*
X50599411Y-82673335D01*
X50900000Y-83400815D01*
X50900000Y-94599675D01*
X50600591Y-95320731D01*
X50599411Y-96673335D01*
X50900000Y-97400815D01*
X50900000Y-99000000D01*
X50907612Y-99038268D01*
X50929289Y-99070711D01*
X50961732Y-99092388D01*
X51000000Y-99100000D01*
X52599675Y-99100000D01*
X53320731Y-99399409D01*
X54673335Y-99400589D01*
X55400815Y-99100000D01*
X67782976Y-99100000D01*
X67969367Y-99286717D01*
X68410258Y-99469791D01*
X68887647Y-99470207D01*
X69328857Y-99287903D01*
X69517089Y-99100000D01*
X70322976Y-99100000D01*
X70509367Y-99286717D01*
X70950258Y-99469791D01*
X71427647Y-99470207D01*
X71868857Y-99287903D01*
X72057089Y-99100000D01*
X72862976Y-99100000D01*
X73049367Y-99286717D01*
X73490258Y-99469791D01*
X73967647Y-99470207D01*
X74408857Y-99287903D01*
X74597089Y-99100000D01*
X75402976Y-99100000D01*
X75589367Y-99286717D01*
X76030258Y-99469791D01*
X76507647Y-99470207D01*
X76948857Y-99287903D01*
X77137089Y-99100000D01*
X77942976Y-99100000D01*
X78129367Y-99286717D01*
X78570258Y-99469791D01*
X79047647Y-99470207D01*
X79488857Y-99287903D01*
X79677089Y-99100000D01*
X80482976Y-99100000D01*
X80669367Y-99286717D01*
X81110258Y-99469791D01*
X81587647Y-99470207D01*
X82028857Y-99287903D01*
X82217089Y-99100000D01*
X83022976Y-99100000D01*
X83209367Y-99286717D01*
X83650258Y-99469791D01*
X84127647Y-99470207D01*
X84568857Y-99287903D01*
X84757089Y-99100000D01*
X94599675Y-99100000D01*
X95320731Y-99399409D01*
X96673335Y-99400589D01*
X97400815Y-99100000D01*
X99000000Y-99100000D01*
X99038268Y-99092388D01*
X99070711Y-99070711D01*
X99092388Y-99038268D01*
X99100000Y-99000000D01*
X99100000Y-97400325D01*
X99399409Y-96679269D01*
X99400589Y-95326665D01*
X99100000Y-94599185D01*
X99100000Y-83400325D01*
X99399409Y-82679269D01*
X99400589Y-81326665D01*
X99100000Y-80599185D01*
X99100000Y-77000000D01*
X99092388Y-76961732D01*
X99070711Y-76929289D01*
X99038268Y-76907612D01*
X99000000Y-76900000D01*
X82600000Y-76900000D01*
X82600000Y-70541422D01*
X87041422Y-66100000D01*
X95200000Y-66100000D01*
X95238268Y-66092388D01*
X95270711Y-66070711D01*
X95292388Y-66038268D01*
X95300000Y-66000000D01*
X95300000Y-63000000D01*
X95292388Y-62961732D01*
X95270711Y-62929289D01*
X95238268Y-62907612D01*
X95200000Y-62900000D01*
X59300000Y-62900000D01*
X59261732Y-62907612D01*
X59229289Y-62929289D01*
X59207612Y-62961732D01*
X59200000Y-63000000D01*
X59200000Y-66000000D01*
X59207612Y-66038268D01*
X59229289Y-66070711D01*
X59261732Y-66092388D01*
X59300000Y-66100000D01*
X67400000Y-66100000D01*
X67400000Y-76900000D01*
X51000000Y-76900000D01*
X50961732Y-76907612D01*
X50929289Y-76929289D01*
X50907612Y-76961732D01*
X50900000Y-77000000D01*
X50900000Y-80599675D01*
X50600591Y-81320731D01*
X50599411Y-82673335D01*
X50175000Y-82673335D01*
X50175000Y-50175000D01*
X99825000Y-50175000D01*
X99825000Y-99825000D01*
G36*
X70772246Y-92550063D02*
X71532164Y-93309981D01*
X71532164Y-93900000D01*
X70900000Y-93900000D01*
X70900000Y-93400000D01*
X70861940Y-93208658D01*
X70812007Y-93133928D01*
X70753554Y-93046447D01*
X70600000Y-92892894D01*
X70600000Y-92549913D01*
X70772246Y-92550063D01*
X70772246Y-92550063D01*
G37*
X70772246Y-92550063D02*
X71532164Y-93309981D01*
X71532164Y-93900000D01*
X70900000Y-93900000D01*
X70900000Y-93400000D01*
X70861940Y-93208658D01*
X70812007Y-93133928D01*
X70753554Y-93046447D01*
X70600000Y-92892894D01*
X70600000Y-92549913D01*
X70772246Y-92550063D01*
G36*
X77886447Y-87023553D02*
X78756447Y-87893554D01*
X78918658Y-88001940D01*
X79110000Y-88040000D01*
X80132894Y-88040000D01*
X80150000Y-88057107D01*
X80150000Y-92842893D01*
X79092894Y-93900000D01*
X78467836Y-93900000D01*
X78467836Y-93290000D01*
X78436791Y-93133928D01*
X78348384Y-93001616D01*
X78216072Y-92913209D01*
X78060000Y-92882164D01*
X77440000Y-92882164D01*
X77283928Y-92913209D01*
X77151616Y-93001616D01*
X77150000Y-93004035D01*
X77148384Y-93001616D01*
X77095250Y-92966113D01*
X77058134Y-92779524D01*
X77021225Y-92724286D01*
X76938909Y-92601091D01*
X76938906Y-92601089D01*
X76748909Y-92411091D01*
X76570476Y-92291866D01*
X76360000Y-92250000D01*
X73050044Y-92250000D01*
X73050130Y-92151470D01*
X73028863Y-92100000D01*
X77750000Y-92100000D01*
X77788268Y-92092388D01*
X77820711Y-92070711D01*
X77842388Y-92038268D01*
X77850000Y-92000000D01*
X77850000Y-86969007D01*
X77886447Y-87023553D01*
X77886447Y-87023553D01*
G37*
X77886447Y-87023553D02*
X78756447Y-87893554D01*
X78918658Y-88001940D01*
X79110000Y-88040000D01*
X80132894Y-88040000D01*
X80150000Y-88057107D01*
X80150000Y-92842893D01*
X79092894Y-93900000D01*
X78467836Y-93900000D01*
X78467836Y-93290000D01*
X78436791Y-93133928D01*
X78348384Y-93001616D01*
X78216072Y-92913209D01*
X78060000Y-92882164D01*
X77440000Y-92882164D01*
X77283928Y-92913209D01*
X77151616Y-93001616D01*
X77150000Y-93004035D01*
X77148384Y-93001616D01*
X77095250Y-92966113D01*
X77058134Y-92779524D01*
X77021225Y-92724286D01*
X76938909Y-92601091D01*
X76938906Y-92601089D01*
X76748909Y-92411091D01*
X76570476Y-92291866D01*
X76360000Y-92250000D01*
X73050044Y-92250000D01*
X73050130Y-92151470D01*
X73028863Y-92100000D01*
X77750000Y-92100000D01*
X77788268Y-92092388D01*
X77820711Y-92070711D01*
X77842388Y-92038268D01*
X77850000Y-92000000D01*
X77850000Y-86969007D01*
X77886447Y-87023553D01*
G36*
X73400000Y-87150000D02*
X71500000Y-87150000D01*
X71461732Y-87157612D01*
X71429289Y-87179289D01*
X71407612Y-87211732D01*
X71400000Y-87250000D01*
X71400000Y-90500000D01*
X71407612Y-90538268D01*
X71429289Y-90570711D01*
X72408673Y-91550095D01*
X72151470Y-91549870D01*
X71875714Y-91663811D01*
X71664552Y-91874605D01*
X71660993Y-91883176D01*
X71450112Y-91672294D01*
X71450130Y-91651470D01*
X71336189Y-91375714D01*
X71125395Y-91164552D01*
X70849839Y-91050131D01*
X70600000Y-91049912D01*
X70600000Y-87007106D01*
X70807107Y-86800000D01*
X73400000Y-86800000D01*
X73400000Y-87150000D01*
X73400000Y-87150000D01*
G37*
X73400000Y-87150000D02*
X71500000Y-87150000D01*
X71461732Y-87157612D01*
X71429289Y-87179289D01*
X71407612Y-87211732D01*
X71400000Y-87250000D01*
X71400000Y-90500000D01*
X71407612Y-90538268D01*
X71429289Y-90570711D01*
X72408673Y-91550095D01*
X72151470Y-91549870D01*
X71875714Y-91663811D01*
X71664552Y-91874605D01*
X71660993Y-91883176D01*
X71450112Y-91672294D01*
X71450130Y-91651470D01*
X71336189Y-91375714D01*
X71125395Y-91164552D01*
X70849839Y-91050131D01*
X70600000Y-91049912D01*
X70600000Y-87007106D01*
X70807107Y-86800000D01*
X73400000Y-86800000D01*
X73400000Y-87150000D01*
G36*
X79032164Y-85690000D02*
X79032164Y-86310000D01*
X79063209Y-86466072D01*
X79151616Y-86598384D01*
X79283928Y-86686791D01*
X79362247Y-86702370D01*
X79396447Y-86753553D01*
X79400080Y-86757186D01*
X79399861Y-87008432D01*
X79412905Y-87040000D01*
X79317107Y-87040000D01*
X78740000Y-86462894D01*
X78740000Y-85740000D01*
X78712152Y-85600000D01*
X79050066Y-85600000D01*
X79032164Y-85690000D01*
X79032164Y-85690000D01*
G37*
X79032164Y-85690000D02*
X79032164Y-86310000D01*
X79063209Y-86466072D01*
X79151616Y-86598384D01*
X79283928Y-86686791D01*
X79362247Y-86702370D01*
X79396447Y-86753553D01*
X79400080Y-86757186D01*
X79399861Y-87008432D01*
X79412905Y-87040000D01*
X79317107Y-87040000D01*
X78740000Y-86462894D01*
X78740000Y-85740000D01*
X78712152Y-85600000D01*
X79050066Y-85600000D01*
X79032164Y-85690000D01*
M02*
