G04 #@! TF.GenerationSoftware,KiCad,Pcbnew,no-vcs-found-e79f978~58~ubuntu14.04.1*
G04 #@! TF.CreationDate,2017-05-18T21:28:03+01:00*
G04 #@! TF.ProjectId,bikedar,62696B656461722E6B696361645F7063,rev?*
G04 #@! TF.FileFunction,Copper,L3,Inr,Signal*
G04 #@! TF.FilePolarity,Positive*
%FSLAX46Y46*%
G04 Gerber Fmt 4.6, Leading zero omitted, Abs format (unit mm)*
G04 Created by KiCad (PCBNEW no-vcs-found-e79f978~58~ubuntu14.04.1) date Thu May 18 21:28:03 2017*
%MOMM*%
%LPD*%
G01*
G04 APERTURE LIST*
%ADD10C,0.100000*%
%ADD11C,0.900000*%
%ADD12R,1.900000X1.900000*%
%ADD13C,1.900000*%
%ADD14C,0.700000*%
%ADD15C,0.200000*%
G04 APERTURE END LIST*
D10*
D11*
X93500000Y-64500000D03*
D12*
X60000000Y-97000000D03*
X86430000Y-95730000D03*
D13*
X86430000Y-98270000D03*
X83890000Y-95730000D03*
X83890000Y-98270000D03*
X81350000Y-95730000D03*
X81350000Y-98270000D03*
X78810000Y-95730000D03*
X78810000Y-98270000D03*
X76270000Y-95730000D03*
X76270000Y-98270000D03*
X73730000Y-95730000D03*
X73730000Y-98270000D03*
X71190000Y-95730000D03*
X71190000Y-98270000D03*
X68650000Y-95730000D03*
X68650000Y-98270000D03*
X66110000Y-95730000D03*
X66110000Y-98270000D03*
X63570000Y-95730000D03*
X63570000Y-98270000D03*
D14*
X76300000Y-82150000D03*
X75000000Y-82150000D03*
X73700000Y-82150000D03*
X76300000Y-83450000D03*
X75000000Y-83450000D03*
X73700000Y-83450000D03*
D11*
X61000000Y-64500000D03*
D14*
X79650000Y-88350000D03*
X74450000Y-78150000D03*
X90800000Y-79000000D03*
X70200000Y-84300000D03*
X67900000Y-86700000D03*
X70700000Y-92700000D03*
X55100000Y-99500000D03*
X52900000Y-99500000D03*
X94900000Y-99500000D03*
X97100000Y-99500000D03*
X50500000Y-83100000D03*
X50500000Y-80900000D03*
X50500000Y-97100000D03*
X50500000Y-94900000D03*
X99500000Y-97100000D03*
X99500000Y-94900000D03*
X99500000Y-83100000D03*
X99500000Y-80900000D03*
X89000000Y-99500000D03*
X91000000Y-99500000D03*
X93000000Y-99500000D03*
X99000000Y-99500000D03*
X99500000Y-99000000D03*
X99500000Y-93000000D03*
X99500000Y-91000000D03*
X99500000Y-89000000D03*
X99500000Y-87000000D03*
X99500000Y-85000000D03*
X99500000Y-79000000D03*
X99500000Y-77000000D03*
X99500000Y-75000000D03*
X99500000Y-73000000D03*
X99500000Y-71000000D03*
X99500000Y-69000000D03*
X99500000Y-67000000D03*
X99500000Y-65000000D03*
X99500000Y-63000000D03*
X99500000Y-61000000D03*
X99500000Y-59000000D03*
X99500000Y-57000000D03*
X99500000Y-55000000D03*
X99500000Y-53000000D03*
X99500000Y-51000000D03*
X63100000Y-91000000D03*
X83000000Y-50500000D03*
X67000000Y-68500000D03*
X90600000Y-82700000D03*
X59400000Y-82900000D03*
X90600000Y-86700000D03*
X98200000Y-92100000D03*
X93000000Y-85000000D03*
X65100000Y-78999992D03*
X61200000Y-79000000D03*
X63000000Y-79000000D03*
X83000000Y-82600000D03*
X87600000Y-93500000D03*
X78700000Y-90800000D03*
X78100000Y-91400000D03*
X78800000Y-90000000D03*
X78800000Y-88600000D03*
X79290000Y-86850000D03*
X73150000Y-86900000D03*
X72500000Y-86900000D03*
X71850000Y-86900000D03*
X71200000Y-86900000D03*
X75900000Y-92100000D03*
X75000000Y-92100000D03*
X74100000Y-92000000D03*
X89000000Y-79000000D03*
X87000000Y-79000000D03*
X85000000Y-79000000D03*
X83000000Y-79000000D03*
X69400000Y-79000000D03*
X67000000Y-79000000D03*
X83000000Y-76500000D03*
X83000000Y-74500000D03*
X83000000Y-72500000D03*
X83000000Y-70500000D03*
X67000000Y-70500000D03*
X67000000Y-72500000D03*
X67000000Y-74500000D03*
X67000000Y-76500000D03*
X83000000Y-64500000D03*
X83000000Y-62500000D03*
X83000000Y-60500000D03*
X83000000Y-58500000D03*
X83000000Y-56500000D03*
X83000000Y-54500000D03*
X83000000Y-52500000D03*
X67000000Y-66500000D03*
X67000000Y-62500000D03*
X67000000Y-60500000D03*
X67000000Y-58500000D03*
X67000000Y-56500000D03*
X67000000Y-54500000D03*
X67000000Y-52500000D03*
X61000000Y-99500000D03*
X59000000Y-99500000D03*
X57000000Y-99500000D03*
X51000000Y-99500000D03*
X50500000Y-99000000D03*
X50500000Y-93000000D03*
X50500000Y-91000000D03*
X50500000Y-89000000D03*
X50500000Y-87000000D03*
X50500000Y-85000000D03*
X50500000Y-79000000D03*
X67000000Y-50500000D03*
X50500000Y-51000000D03*
X50500000Y-53000000D03*
X50500000Y-55000000D03*
X50500000Y-57000000D03*
X50500000Y-59000000D03*
X50500000Y-61000000D03*
X50500000Y-63000000D03*
X50500000Y-65000000D03*
X50500000Y-67000000D03*
X50500000Y-69000000D03*
X50500000Y-71000000D03*
X50500000Y-73000000D03*
X50500000Y-75000000D03*
X50500000Y-77000000D03*
X79900000Y-92350000D03*
X79900000Y-89450000D03*
X79900000Y-91050000D03*
X78800000Y-89250000D03*
X78000000Y-92300000D03*
X76850000Y-92300000D03*
X73200000Y-91950000D03*
X72350000Y-91400000D03*
X71700000Y-90750000D03*
X71200000Y-89950000D03*
X71200000Y-89200000D03*
X71200000Y-88400000D03*
X71200000Y-87550000D03*
X78950000Y-92400000D03*
X59400000Y-78950000D03*
X62000000Y-88100000D03*
X87400000Y-89800000D03*
D11*
X83150000Y-93149996D03*
X65800000Y-93150000D03*
D14*
X75200000Y-79700000D03*
X72300000Y-92300000D03*
X74900000Y-78900000D03*
X70700000Y-91800000D03*
X68700000Y-94100000D03*
X85150000Y-85800000D03*
X85500000Y-84400000D03*
X65800000Y-84700000D03*
X64500000Y-86300000D03*
X65200000Y-83000000D03*
X63700000Y-83000000D03*
X76050000Y-91040000D03*
D15*
G36*
X99525000Y-99525000D02*
X86949374Y-99525000D01*
X87156016Y-99439406D01*
X87259100Y-99240522D01*
X86430000Y-98411421D01*
X85600900Y-99240522D01*
X85703984Y-99439406D01*
X85931899Y-99525000D01*
X84387838Y-99525000D01*
X84653715Y-99415142D01*
X85033807Y-99035712D01*
X85155572Y-98742470D01*
X85260594Y-98996016D01*
X85459478Y-99099100D01*
X86288579Y-98270000D01*
X86571421Y-98270000D01*
X87400522Y-99099100D01*
X87599406Y-98996016D01*
X87788225Y-98493239D01*
X87770266Y-97956476D01*
X87599406Y-97543984D01*
X87400522Y-97440900D01*
X86571421Y-98270000D01*
X86288579Y-98270000D01*
X85459478Y-97440900D01*
X85260594Y-97543984D01*
X85160664Y-97810072D01*
X85035142Y-97506285D01*
X84655712Y-97126193D01*
X84351670Y-96999944D01*
X84653715Y-96875142D01*
X85033807Y-96495712D01*
X85080000Y-96384467D01*
X85080000Y-96759565D01*
X85140896Y-96906582D01*
X85253418Y-97019104D01*
X85400435Y-97080000D01*
X85753702Y-97080000D01*
X85703984Y-97100594D01*
X85600900Y-97299478D01*
X86430000Y-98128579D01*
X87259100Y-97299478D01*
X87156016Y-97100594D01*
X87101179Y-97080000D01*
X87459565Y-97080000D01*
X87606582Y-97019104D01*
X87719104Y-96906582D01*
X87780000Y-96759565D01*
X87780000Y-96673335D01*
X92599411Y-96673335D01*
X93115940Y-97923429D01*
X94071540Y-98880699D01*
X95320731Y-99399409D01*
X96673335Y-99400589D01*
X97923429Y-98884060D01*
X98880699Y-97928460D01*
X99399409Y-96679269D01*
X99400589Y-95326665D01*
X98884060Y-94076571D01*
X97928460Y-93119301D01*
X96679269Y-92600591D01*
X95326665Y-92599411D01*
X94076571Y-93115940D01*
X93119301Y-94071540D01*
X92600591Y-95320731D01*
X92599411Y-96673335D01*
X87780000Y-96673335D01*
X87780000Y-95930000D01*
X87680000Y-95830000D01*
X86530000Y-95830000D01*
X86530000Y-95850000D01*
X86330000Y-95850000D01*
X86330000Y-95830000D01*
X86310000Y-95830000D01*
X86310000Y-95630000D01*
X86330000Y-95630000D01*
X86330000Y-94480000D01*
X86530000Y-94480000D01*
X86530000Y-95630000D01*
X87680000Y-95630000D01*
X87780000Y-95530000D01*
X87780000Y-94700435D01*
X87719104Y-94553418D01*
X87606582Y-94440896D01*
X87459565Y-94380000D01*
X86630000Y-94380000D01*
X86530000Y-94480000D01*
X86330000Y-94480000D01*
X86230000Y-94380000D01*
X85400435Y-94380000D01*
X85253418Y-94440896D01*
X85140896Y-94553418D01*
X85080000Y-94700435D01*
X85080000Y-95074850D01*
X85035142Y-94966285D01*
X84655712Y-94586193D01*
X84159710Y-94380235D01*
X83622647Y-94379766D01*
X83126285Y-94584858D01*
X82746193Y-94964288D01*
X82619944Y-95268330D01*
X82495142Y-94966285D01*
X82115712Y-94586193D01*
X81619710Y-94380235D01*
X81082647Y-94379766D01*
X80586285Y-94584858D01*
X80206193Y-94964288D01*
X80084428Y-95257530D01*
X79979406Y-95003984D01*
X79780522Y-94900900D01*
X78951421Y-95730000D01*
X79780522Y-96559100D01*
X79979406Y-96456016D01*
X80079336Y-96189928D01*
X80204858Y-96493715D01*
X80584288Y-96873807D01*
X80888330Y-97000056D01*
X80586285Y-97124858D01*
X80206193Y-97504288D01*
X80079944Y-97808330D01*
X79955142Y-97506285D01*
X79575712Y-97126193D01*
X79282470Y-97004428D01*
X79536016Y-96899406D01*
X79639100Y-96700522D01*
X78810000Y-95871421D01*
X77980900Y-96700522D01*
X78083984Y-96899406D01*
X78350072Y-96999336D01*
X78046285Y-97124858D01*
X77666193Y-97504288D01*
X77539944Y-97808330D01*
X77415142Y-97506285D01*
X77035712Y-97126193D01*
X76731670Y-96999944D01*
X77033715Y-96875142D01*
X77413807Y-96495712D01*
X77535572Y-96202470D01*
X77640594Y-96456016D01*
X77839478Y-96559100D01*
X78668579Y-95730000D01*
X77839478Y-94900900D01*
X77640594Y-95003984D01*
X77540664Y-95270072D01*
X77415142Y-94966285D01*
X77208696Y-94759478D01*
X77980900Y-94759478D01*
X78810000Y-95588579D01*
X79639100Y-94759478D01*
X79536016Y-94560594D01*
X79033239Y-94371775D01*
X78496476Y-94389734D01*
X78083984Y-94560594D01*
X77980900Y-94759478D01*
X77208696Y-94759478D01*
X77035712Y-94586193D01*
X76539710Y-94380235D01*
X76002647Y-94379766D01*
X75506285Y-94584858D01*
X75126193Y-94964288D01*
X74999944Y-95268330D01*
X74875142Y-94966285D01*
X74495712Y-94586193D01*
X73999710Y-94380235D01*
X73462647Y-94379766D01*
X72966285Y-94584858D01*
X72586193Y-94964288D01*
X72464428Y-95257530D01*
X72359406Y-95003984D01*
X72160522Y-94900900D01*
X71331421Y-95730000D01*
X72160522Y-96559100D01*
X72359406Y-96456016D01*
X72459336Y-96189928D01*
X72584858Y-96493715D01*
X72964288Y-96873807D01*
X73268330Y-97000056D01*
X72966285Y-97124858D01*
X72586193Y-97504288D01*
X72459944Y-97808330D01*
X72335142Y-97506285D01*
X71955712Y-97126193D01*
X71662470Y-97004428D01*
X71916016Y-96899406D01*
X72019100Y-96700522D01*
X71190000Y-95871421D01*
X70360900Y-96700522D01*
X70463984Y-96899406D01*
X70730072Y-96999336D01*
X70426285Y-97124858D01*
X70046193Y-97504288D01*
X69919944Y-97808330D01*
X69795142Y-97506285D01*
X69415712Y-97126193D01*
X69111670Y-96999944D01*
X69413715Y-96875142D01*
X69793807Y-96495712D01*
X69915572Y-96202470D01*
X70020594Y-96456016D01*
X70219478Y-96559100D01*
X71048579Y-95730000D01*
X70219478Y-94900900D01*
X70020594Y-95003984D01*
X69920664Y-95270072D01*
X69795142Y-94966285D01*
X69588696Y-94759478D01*
X70360900Y-94759478D01*
X71190000Y-95588579D01*
X72019100Y-94759478D01*
X71916016Y-94560594D01*
X71413239Y-94371775D01*
X70876476Y-94389734D01*
X70463984Y-94560594D01*
X70360900Y-94759478D01*
X69588696Y-94759478D01*
X69415712Y-94586193D01*
X69316014Y-94544795D01*
X69335448Y-94525395D01*
X69449869Y-94249839D01*
X69450130Y-93951470D01*
X69336189Y-93675714D01*
X69125395Y-93464552D01*
X68849839Y-93350131D01*
X68551470Y-93349870D01*
X68275714Y-93463811D01*
X68064552Y-93674605D01*
X67950131Y-93950161D01*
X67949870Y-94248530D01*
X68059300Y-94513370D01*
X67886285Y-94584858D01*
X67506193Y-94964288D01*
X67379944Y-95268330D01*
X67255142Y-94966285D01*
X66875712Y-94586193D01*
X66379710Y-94380235D01*
X65842647Y-94379766D01*
X65346285Y-94584858D01*
X64966193Y-94964288D01*
X64844428Y-95257530D01*
X64739406Y-95003984D01*
X64540522Y-94900900D01*
X63711421Y-95730000D01*
X64540522Y-96559100D01*
X64739406Y-96456016D01*
X64839336Y-96189928D01*
X64964858Y-96493715D01*
X65344288Y-96873807D01*
X65637530Y-96995572D01*
X65383984Y-97100594D01*
X65280900Y-97299478D01*
X66110000Y-98128579D01*
X66939100Y-97299478D01*
X66836016Y-97100594D01*
X66569928Y-97000664D01*
X66873715Y-96875142D01*
X67253807Y-96495712D01*
X67380056Y-96191670D01*
X67504858Y-96493715D01*
X67884288Y-96873807D01*
X68188330Y-97000056D01*
X67886285Y-97124858D01*
X67506193Y-97504288D01*
X67384428Y-97797530D01*
X67279406Y-97543984D01*
X67080522Y-97440900D01*
X66251421Y-98270000D01*
X67080522Y-99099100D01*
X67279406Y-98996016D01*
X67379336Y-98729928D01*
X67504858Y-99033715D01*
X67884288Y-99413807D01*
X68152071Y-99525000D01*
X66629374Y-99525000D01*
X66836016Y-99439406D01*
X66939100Y-99240522D01*
X66110000Y-98411421D01*
X65280900Y-99240522D01*
X65383984Y-99439406D01*
X65611899Y-99525000D01*
X64089374Y-99525000D01*
X64296016Y-99439406D01*
X64399100Y-99240522D01*
X63570000Y-98411421D01*
X62740900Y-99240522D01*
X62843984Y-99439406D01*
X63071899Y-99525000D01*
X50475000Y-99525000D01*
X50475000Y-96673335D01*
X50599411Y-96673335D01*
X51115940Y-97923429D01*
X52071540Y-98880699D01*
X53320731Y-99399409D01*
X54673335Y-99400589D01*
X55923429Y-98884060D01*
X56880699Y-97928460D01*
X57183182Y-97200000D01*
X58650000Y-97200000D01*
X58650000Y-98029565D01*
X58710896Y-98176582D01*
X58823418Y-98289104D01*
X58970435Y-98350000D01*
X59800000Y-98350000D01*
X59900000Y-98250000D01*
X59900000Y-97100000D01*
X60100000Y-97100000D01*
X60100000Y-98250000D01*
X60200000Y-98350000D01*
X61029565Y-98350000D01*
X61176582Y-98289104D01*
X61289104Y-98176582D01*
X61342877Y-98046761D01*
X62211775Y-98046761D01*
X62229734Y-98583524D01*
X62400594Y-98996016D01*
X62599478Y-99099100D01*
X63428579Y-98270000D01*
X63711421Y-98270000D01*
X64540522Y-99099100D01*
X64739406Y-98996016D01*
X64835076Y-98741272D01*
X64940594Y-98996016D01*
X65139478Y-99099100D01*
X65968579Y-98270000D01*
X65139478Y-97440900D01*
X64940594Y-97543984D01*
X64844924Y-97798728D01*
X64739406Y-97543984D01*
X64540522Y-97440900D01*
X63711421Y-98270000D01*
X63428579Y-98270000D01*
X62599478Y-97440900D01*
X62400594Y-97543984D01*
X62211775Y-98046761D01*
X61342877Y-98046761D01*
X61350000Y-98029565D01*
X61350000Y-97200000D01*
X61250000Y-97100000D01*
X60100000Y-97100000D01*
X59900000Y-97100000D01*
X58750000Y-97100000D01*
X58650000Y-97200000D01*
X57183182Y-97200000D01*
X57399409Y-96679269D01*
X57400027Y-95970435D01*
X58650000Y-95970435D01*
X58650000Y-96800000D01*
X58750000Y-96900000D01*
X59900000Y-96900000D01*
X59900000Y-95750000D01*
X60100000Y-95750000D01*
X60100000Y-96900000D01*
X61250000Y-96900000D01*
X61350000Y-96800000D01*
X61350000Y-96700522D01*
X62740900Y-96700522D01*
X62843984Y-96899406D01*
X63098728Y-96995076D01*
X62843984Y-97100594D01*
X62740900Y-97299478D01*
X63570000Y-98128579D01*
X64399100Y-97299478D01*
X64296016Y-97100594D01*
X64041272Y-97004924D01*
X64296016Y-96899406D01*
X64399100Y-96700522D01*
X63570000Y-95871421D01*
X62740900Y-96700522D01*
X61350000Y-96700522D01*
X61350000Y-95970435D01*
X61289104Y-95823418D01*
X61176582Y-95710896D01*
X61029565Y-95650000D01*
X60200000Y-95650000D01*
X60100000Y-95750000D01*
X59900000Y-95750000D01*
X59800000Y-95650000D01*
X58970435Y-95650000D01*
X58823418Y-95710896D01*
X58710896Y-95823418D01*
X58650000Y-95970435D01*
X57400027Y-95970435D01*
X57400431Y-95506761D01*
X62211775Y-95506761D01*
X62229734Y-96043524D01*
X62400594Y-96456016D01*
X62599478Y-96559100D01*
X63428579Y-95730000D01*
X62599478Y-94900900D01*
X62400594Y-95003984D01*
X62211775Y-95506761D01*
X57400431Y-95506761D01*
X57400589Y-95326665D01*
X57166232Y-94759478D01*
X62740900Y-94759478D01*
X63570000Y-95588579D01*
X64399100Y-94759478D01*
X64296016Y-94560594D01*
X63793239Y-94371775D01*
X63256476Y-94389734D01*
X62843984Y-94560594D01*
X62740900Y-94759478D01*
X57166232Y-94759478D01*
X56884060Y-94076571D01*
X56127146Y-93318334D01*
X64949853Y-93318334D01*
X65078985Y-93630857D01*
X65317885Y-93870174D01*
X65630183Y-93999852D01*
X65968334Y-94000147D01*
X66280857Y-93871015D01*
X66520174Y-93632115D01*
X66649852Y-93319817D01*
X66649853Y-93318330D01*
X82299853Y-93318330D01*
X82428985Y-93630853D01*
X82667885Y-93870170D01*
X82980183Y-93999848D01*
X83318334Y-94000143D01*
X83630857Y-93871011D01*
X83870174Y-93632111D01*
X83999852Y-93319813D01*
X84000147Y-92981662D01*
X83871015Y-92669139D01*
X83632115Y-92429822D01*
X83319817Y-92300144D01*
X82981666Y-92299849D01*
X82669143Y-92428981D01*
X82429826Y-92667881D01*
X82300148Y-92980179D01*
X82299853Y-93318330D01*
X66649853Y-93318330D01*
X66650147Y-92981666D01*
X66521015Y-92669143D01*
X66282115Y-92429826D01*
X65969817Y-92300148D01*
X65631666Y-92299853D01*
X65319143Y-92428985D01*
X65079826Y-92667885D01*
X64950148Y-92980183D01*
X64949853Y-93318334D01*
X56127146Y-93318334D01*
X55928460Y-93119301D01*
X54679269Y-92600591D01*
X53326665Y-92599411D01*
X52076571Y-93115940D01*
X51119301Y-94071540D01*
X50600591Y-95320731D01*
X50599411Y-96673335D01*
X50475000Y-96673335D01*
X50475000Y-91948530D01*
X69949870Y-91948530D01*
X70063811Y-92224286D01*
X70274605Y-92435448D01*
X70550161Y-92549869D01*
X70848530Y-92550130D01*
X71094418Y-92448530D01*
X71549870Y-92448530D01*
X71663811Y-92724286D01*
X71874605Y-92935448D01*
X72150161Y-93049869D01*
X72448530Y-93050130D01*
X72724286Y-92936189D01*
X72935448Y-92725395D01*
X73049869Y-92449839D01*
X73050130Y-92151470D01*
X72936189Y-91875714D01*
X72725395Y-91664552D01*
X72449839Y-91550131D01*
X72151470Y-91549870D01*
X71875714Y-91663811D01*
X71664552Y-91874605D01*
X71550131Y-92150161D01*
X71549870Y-92448530D01*
X71094418Y-92448530D01*
X71124286Y-92436189D01*
X71335448Y-92225395D01*
X71449869Y-91949839D01*
X71450130Y-91651470D01*
X71336189Y-91375714D01*
X71149332Y-91188530D01*
X75299870Y-91188530D01*
X75413811Y-91464286D01*
X75624605Y-91675448D01*
X75900161Y-91789869D01*
X76198530Y-91790130D01*
X76474286Y-91676189D01*
X76685448Y-91465395D01*
X76799869Y-91189839D01*
X76800130Y-90891470D01*
X76686189Y-90615714D01*
X76475395Y-90404552D01*
X76199839Y-90290131D01*
X75901470Y-90289870D01*
X75625714Y-90403811D01*
X75414552Y-90614605D01*
X75300131Y-90890161D01*
X75299870Y-91188530D01*
X71149332Y-91188530D01*
X71125395Y-91164552D01*
X70849839Y-91050131D01*
X70551470Y-91049870D01*
X70275714Y-91163811D01*
X70064552Y-91374605D01*
X69950131Y-91650161D01*
X69949870Y-91948530D01*
X50475000Y-91948530D01*
X50475000Y-86448530D01*
X63749870Y-86448530D01*
X63863811Y-86724286D01*
X64074605Y-86935448D01*
X64350161Y-87049869D01*
X64648530Y-87050130D01*
X64924286Y-86936189D01*
X65135448Y-86725395D01*
X65249869Y-86449839D01*
X65250130Y-86151470D01*
X65166277Y-85948530D01*
X84399870Y-85948530D01*
X84513811Y-86224286D01*
X84724605Y-86435448D01*
X85000161Y-86549869D01*
X85298530Y-86550130D01*
X85574286Y-86436189D01*
X85785448Y-86225395D01*
X85899869Y-85949839D01*
X85900130Y-85651470D01*
X85786189Y-85375714D01*
X85575395Y-85164552D01*
X85540435Y-85150035D01*
X85648530Y-85150130D01*
X85924286Y-85036189D01*
X86135448Y-84825395D01*
X86249869Y-84549839D01*
X86250130Y-84251470D01*
X86136189Y-83975714D01*
X85925395Y-83764552D01*
X85649839Y-83650131D01*
X85351470Y-83649870D01*
X85075714Y-83763811D01*
X84864552Y-83974605D01*
X84750131Y-84250161D01*
X84749870Y-84548530D01*
X84863811Y-84824286D01*
X85074605Y-85035448D01*
X85109565Y-85049965D01*
X85001470Y-85049870D01*
X84725714Y-85163811D01*
X84514552Y-85374605D01*
X84400131Y-85650161D01*
X84399870Y-85948530D01*
X65166277Y-85948530D01*
X65136189Y-85875714D01*
X64925395Y-85664552D01*
X64649839Y-85550131D01*
X64351470Y-85549870D01*
X64075714Y-85663811D01*
X63864552Y-85874605D01*
X63750131Y-86150161D01*
X63749870Y-86448530D01*
X50475000Y-86448530D01*
X50475000Y-82673335D01*
X50599411Y-82673335D01*
X51115940Y-83923429D01*
X52071540Y-84880699D01*
X53320731Y-85399409D01*
X54673335Y-85400589D01*
X55923429Y-84884060D01*
X55959021Y-84848530D01*
X65049870Y-84848530D01*
X65163811Y-85124286D01*
X65374605Y-85335448D01*
X65650161Y-85449869D01*
X65948530Y-85450130D01*
X66224286Y-85336189D01*
X66435448Y-85125395D01*
X66549869Y-84849839D01*
X66550130Y-84551470D01*
X66436189Y-84275714D01*
X66225395Y-84064552D01*
X65949839Y-83950131D01*
X65651470Y-83949870D01*
X65375714Y-84063811D01*
X65164552Y-84274605D01*
X65050131Y-84550161D01*
X65049870Y-84848530D01*
X55959021Y-84848530D01*
X56880699Y-83928460D01*
X57204554Y-83148530D01*
X62949870Y-83148530D01*
X63063811Y-83424286D01*
X63274605Y-83635448D01*
X63550161Y-83749869D01*
X63848530Y-83750130D01*
X64124286Y-83636189D01*
X64335448Y-83425395D01*
X64449869Y-83149839D01*
X64449870Y-83148530D01*
X64563811Y-83424286D01*
X64774605Y-83635448D01*
X65050161Y-83749869D01*
X65348530Y-83750130D01*
X65624286Y-83636189D01*
X65835448Y-83425395D01*
X65949869Y-83149839D01*
X65950130Y-82851470D01*
X65876526Y-82673335D01*
X92599411Y-82673335D01*
X93115940Y-83923429D01*
X94071540Y-84880699D01*
X95320731Y-85399409D01*
X96673335Y-85400589D01*
X97923429Y-84884060D01*
X98880699Y-83928460D01*
X99399409Y-82679269D01*
X99400589Y-81326665D01*
X98884060Y-80076571D01*
X97928460Y-79119301D01*
X96679269Y-78600591D01*
X95326665Y-78599411D01*
X94076571Y-79115940D01*
X93119301Y-80071540D01*
X92600591Y-81320731D01*
X92599411Y-82673335D01*
X65876526Y-82673335D01*
X65836189Y-82575714D01*
X65625395Y-82364552D01*
X65349839Y-82250131D01*
X65051470Y-82249870D01*
X64775714Y-82363811D01*
X64564552Y-82574605D01*
X64450131Y-82850161D01*
X64450130Y-82851470D01*
X64336189Y-82575714D01*
X64125395Y-82364552D01*
X63849839Y-82250131D01*
X63551470Y-82249870D01*
X63275714Y-82363811D01*
X63064552Y-82574605D01*
X62950131Y-82850161D01*
X62949870Y-83148530D01*
X57204554Y-83148530D01*
X57399409Y-82679269D01*
X57400589Y-81326665D01*
X56884060Y-80076571D01*
X55928460Y-79119301D01*
X55758025Y-79048530D01*
X74149870Y-79048530D01*
X74263811Y-79324286D01*
X74461635Y-79522456D01*
X74450131Y-79550161D01*
X74449870Y-79848530D01*
X74563811Y-80124286D01*
X74774605Y-80335448D01*
X75050161Y-80449869D01*
X75348530Y-80450130D01*
X75624286Y-80336189D01*
X75835448Y-80125395D01*
X75949869Y-79849839D01*
X75950130Y-79551470D01*
X75836189Y-79275714D01*
X75638365Y-79077544D01*
X75649869Y-79049839D01*
X75650130Y-78751470D01*
X75536189Y-78475714D01*
X75325395Y-78264552D01*
X75049839Y-78150131D01*
X74751470Y-78149870D01*
X74475714Y-78263811D01*
X74264552Y-78474605D01*
X74150131Y-78750161D01*
X74149870Y-79048530D01*
X55758025Y-79048530D01*
X54679269Y-78600591D01*
X53326665Y-78599411D01*
X52076571Y-79115940D01*
X51119301Y-80071540D01*
X50600591Y-81320731D01*
X50599411Y-82673335D01*
X50475000Y-82673335D01*
X50475000Y-64668334D01*
X60149853Y-64668334D01*
X60278985Y-64980857D01*
X60517885Y-65220174D01*
X60830183Y-65349852D01*
X61168334Y-65350147D01*
X61480857Y-65221015D01*
X61720174Y-64982115D01*
X61849852Y-64669817D01*
X61849853Y-64668334D01*
X92649853Y-64668334D01*
X92778985Y-64980857D01*
X93017885Y-65220174D01*
X93330183Y-65349852D01*
X93668334Y-65350147D01*
X93980857Y-65221015D01*
X94220174Y-64982115D01*
X94349852Y-64669817D01*
X94350147Y-64331666D01*
X94221015Y-64019143D01*
X93982115Y-63779826D01*
X93669817Y-63650148D01*
X93331666Y-63649853D01*
X93019143Y-63778985D01*
X92779826Y-64017885D01*
X92650148Y-64330183D01*
X92649853Y-64668334D01*
X61849853Y-64668334D01*
X61850147Y-64331666D01*
X61721015Y-64019143D01*
X61482115Y-63779826D01*
X61169817Y-63650148D01*
X60831666Y-63649853D01*
X60519143Y-63778985D01*
X60279826Y-64017885D01*
X60150148Y-64330183D01*
X60149853Y-64668334D01*
X50475000Y-64668334D01*
X50475000Y-50475000D01*
X99525000Y-50475000D01*
X99525000Y-99525000D01*
X99525000Y-99525000D01*
G37*
X99525000Y-99525000D02*
X86949374Y-99525000D01*
X87156016Y-99439406D01*
X87259100Y-99240522D01*
X86430000Y-98411421D01*
X85600900Y-99240522D01*
X85703984Y-99439406D01*
X85931899Y-99525000D01*
X84387838Y-99525000D01*
X84653715Y-99415142D01*
X85033807Y-99035712D01*
X85155572Y-98742470D01*
X85260594Y-98996016D01*
X85459478Y-99099100D01*
X86288579Y-98270000D01*
X86571421Y-98270000D01*
X87400522Y-99099100D01*
X87599406Y-98996016D01*
X87788225Y-98493239D01*
X87770266Y-97956476D01*
X87599406Y-97543984D01*
X87400522Y-97440900D01*
X86571421Y-98270000D01*
X86288579Y-98270000D01*
X85459478Y-97440900D01*
X85260594Y-97543984D01*
X85160664Y-97810072D01*
X85035142Y-97506285D01*
X84655712Y-97126193D01*
X84351670Y-96999944D01*
X84653715Y-96875142D01*
X85033807Y-96495712D01*
X85080000Y-96384467D01*
X85080000Y-96759565D01*
X85140896Y-96906582D01*
X85253418Y-97019104D01*
X85400435Y-97080000D01*
X85753702Y-97080000D01*
X85703984Y-97100594D01*
X85600900Y-97299478D01*
X86430000Y-98128579D01*
X87259100Y-97299478D01*
X87156016Y-97100594D01*
X87101179Y-97080000D01*
X87459565Y-97080000D01*
X87606582Y-97019104D01*
X87719104Y-96906582D01*
X87780000Y-96759565D01*
X87780000Y-96673335D01*
X92599411Y-96673335D01*
X93115940Y-97923429D01*
X94071540Y-98880699D01*
X95320731Y-99399409D01*
X96673335Y-99400589D01*
X97923429Y-98884060D01*
X98880699Y-97928460D01*
X99399409Y-96679269D01*
X99400589Y-95326665D01*
X98884060Y-94076571D01*
X97928460Y-93119301D01*
X96679269Y-92600591D01*
X95326665Y-92599411D01*
X94076571Y-93115940D01*
X93119301Y-94071540D01*
X92600591Y-95320731D01*
X92599411Y-96673335D01*
X87780000Y-96673335D01*
X87780000Y-95930000D01*
X87680000Y-95830000D01*
X86530000Y-95830000D01*
X86530000Y-95850000D01*
X86330000Y-95850000D01*
X86330000Y-95830000D01*
X86310000Y-95830000D01*
X86310000Y-95630000D01*
X86330000Y-95630000D01*
X86330000Y-94480000D01*
X86530000Y-94480000D01*
X86530000Y-95630000D01*
X87680000Y-95630000D01*
X87780000Y-95530000D01*
X87780000Y-94700435D01*
X87719104Y-94553418D01*
X87606582Y-94440896D01*
X87459565Y-94380000D01*
X86630000Y-94380000D01*
X86530000Y-94480000D01*
X86330000Y-94480000D01*
X86230000Y-94380000D01*
X85400435Y-94380000D01*
X85253418Y-94440896D01*
X85140896Y-94553418D01*
X85080000Y-94700435D01*
X85080000Y-95074850D01*
X85035142Y-94966285D01*
X84655712Y-94586193D01*
X84159710Y-94380235D01*
X83622647Y-94379766D01*
X83126285Y-94584858D01*
X82746193Y-94964288D01*
X82619944Y-95268330D01*
X82495142Y-94966285D01*
X82115712Y-94586193D01*
X81619710Y-94380235D01*
X81082647Y-94379766D01*
X80586285Y-94584858D01*
X80206193Y-94964288D01*
X80084428Y-95257530D01*
X79979406Y-95003984D01*
X79780522Y-94900900D01*
X78951421Y-95730000D01*
X79780522Y-96559100D01*
X79979406Y-96456016D01*
X80079336Y-96189928D01*
X80204858Y-96493715D01*
X80584288Y-96873807D01*
X80888330Y-97000056D01*
X80586285Y-97124858D01*
X80206193Y-97504288D01*
X80079944Y-97808330D01*
X79955142Y-97506285D01*
X79575712Y-97126193D01*
X79282470Y-97004428D01*
X79536016Y-96899406D01*
X79639100Y-96700522D01*
X78810000Y-95871421D01*
X77980900Y-96700522D01*
X78083984Y-96899406D01*
X78350072Y-96999336D01*
X78046285Y-97124858D01*
X77666193Y-97504288D01*
X77539944Y-97808330D01*
X77415142Y-97506285D01*
X77035712Y-97126193D01*
X76731670Y-96999944D01*
X77033715Y-96875142D01*
X77413807Y-96495712D01*
X77535572Y-96202470D01*
X77640594Y-96456016D01*
X77839478Y-96559100D01*
X78668579Y-95730000D01*
X77839478Y-94900900D01*
X77640594Y-95003984D01*
X77540664Y-95270072D01*
X77415142Y-94966285D01*
X77208696Y-94759478D01*
X77980900Y-94759478D01*
X78810000Y-95588579D01*
X79639100Y-94759478D01*
X79536016Y-94560594D01*
X79033239Y-94371775D01*
X78496476Y-94389734D01*
X78083984Y-94560594D01*
X77980900Y-94759478D01*
X77208696Y-94759478D01*
X77035712Y-94586193D01*
X76539710Y-94380235D01*
X76002647Y-94379766D01*
X75506285Y-94584858D01*
X75126193Y-94964288D01*
X74999944Y-95268330D01*
X74875142Y-94966285D01*
X74495712Y-94586193D01*
X73999710Y-94380235D01*
X73462647Y-94379766D01*
X72966285Y-94584858D01*
X72586193Y-94964288D01*
X72464428Y-95257530D01*
X72359406Y-95003984D01*
X72160522Y-94900900D01*
X71331421Y-95730000D01*
X72160522Y-96559100D01*
X72359406Y-96456016D01*
X72459336Y-96189928D01*
X72584858Y-96493715D01*
X72964288Y-96873807D01*
X73268330Y-97000056D01*
X72966285Y-97124858D01*
X72586193Y-97504288D01*
X72459944Y-97808330D01*
X72335142Y-97506285D01*
X71955712Y-97126193D01*
X71662470Y-97004428D01*
X71916016Y-96899406D01*
X72019100Y-96700522D01*
X71190000Y-95871421D01*
X70360900Y-96700522D01*
X70463984Y-96899406D01*
X70730072Y-96999336D01*
X70426285Y-97124858D01*
X70046193Y-97504288D01*
X69919944Y-97808330D01*
X69795142Y-97506285D01*
X69415712Y-97126193D01*
X69111670Y-96999944D01*
X69413715Y-96875142D01*
X69793807Y-96495712D01*
X69915572Y-96202470D01*
X70020594Y-96456016D01*
X70219478Y-96559100D01*
X71048579Y-95730000D01*
X70219478Y-94900900D01*
X70020594Y-95003984D01*
X69920664Y-95270072D01*
X69795142Y-94966285D01*
X69588696Y-94759478D01*
X70360900Y-94759478D01*
X71190000Y-95588579D01*
X72019100Y-94759478D01*
X71916016Y-94560594D01*
X71413239Y-94371775D01*
X70876476Y-94389734D01*
X70463984Y-94560594D01*
X70360900Y-94759478D01*
X69588696Y-94759478D01*
X69415712Y-94586193D01*
X69316014Y-94544795D01*
X69335448Y-94525395D01*
X69449869Y-94249839D01*
X69450130Y-93951470D01*
X69336189Y-93675714D01*
X69125395Y-93464552D01*
X68849839Y-93350131D01*
X68551470Y-93349870D01*
X68275714Y-93463811D01*
X68064552Y-93674605D01*
X67950131Y-93950161D01*
X67949870Y-94248530D01*
X68059300Y-94513370D01*
X67886285Y-94584858D01*
X67506193Y-94964288D01*
X67379944Y-95268330D01*
X67255142Y-94966285D01*
X66875712Y-94586193D01*
X66379710Y-94380235D01*
X65842647Y-94379766D01*
X65346285Y-94584858D01*
X64966193Y-94964288D01*
X64844428Y-95257530D01*
X64739406Y-95003984D01*
X64540522Y-94900900D01*
X63711421Y-95730000D01*
X64540522Y-96559100D01*
X64739406Y-96456016D01*
X64839336Y-96189928D01*
X64964858Y-96493715D01*
X65344288Y-96873807D01*
X65637530Y-96995572D01*
X65383984Y-97100594D01*
X65280900Y-97299478D01*
X66110000Y-98128579D01*
X66939100Y-97299478D01*
X66836016Y-97100594D01*
X66569928Y-97000664D01*
X66873715Y-96875142D01*
X67253807Y-96495712D01*
X67380056Y-96191670D01*
X67504858Y-96493715D01*
X67884288Y-96873807D01*
X68188330Y-97000056D01*
X67886285Y-97124858D01*
X67506193Y-97504288D01*
X67384428Y-97797530D01*
X67279406Y-97543984D01*
X67080522Y-97440900D01*
X66251421Y-98270000D01*
X67080522Y-99099100D01*
X67279406Y-98996016D01*
X67379336Y-98729928D01*
X67504858Y-99033715D01*
X67884288Y-99413807D01*
X68152071Y-99525000D01*
X66629374Y-99525000D01*
X66836016Y-99439406D01*
X66939100Y-99240522D01*
X66110000Y-98411421D01*
X65280900Y-99240522D01*
X65383984Y-99439406D01*
X65611899Y-99525000D01*
X64089374Y-99525000D01*
X64296016Y-99439406D01*
X64399100Y-99240522D01*
X63570000Y-98411421D01*
X62740900Y-99240522D01*
X62843984Y-99439406D01*
X63071899Y-99525000D01*
X50475000Y-99525000D01*
X50475000Y-96673335D01*
X50599411Y-96673335D01*
X51115940Y-97923429D01*
X52071540Y-98880699D01*
X53320731Y-99399409D01*
X54673335Y-99400589D01*
X55923429Y-98884060D01*
X56880699Y-97928460D01*
X57183182Y-97200000D01*
X58650000Y-97200000D01*
X58650000Y-98029565D01*
X58710896Y-98176582D01*
X58823418Y-98289104D01*
X58970435Y-98350000D01*
X59800000Y-98350000D01*
X59900000Y-98250000D01*
X59900000Y-97100000D01*
X60100000Y-97100000D01*
X60100000Y-98250000D01*
X60200000Y-98350000D01*
X61029565Y-98350000D01*
X61176582Y-98289104D01*
X61289104Y-98176582D01*
X61342877Y-98046761D01*
X62211775Y-98046761D01*
X62229734Y-98583524D01*
X62400594Y-98996016D01*
X62599478Y-99099100D01*
X63428579Y-98270000D01*
X63711421Y-98270000D01*
X64540522Y-99099100D01*
X64739406Y-98996016D01*
X64835076Y-98741272D01*
X64940594Y-98996016D01*
X65139478Y-99099100D01*
X65968579Y-98270000D01*
X65139478Y-97440900D01*
X64940594Y-97543984D01*
X64844924Y-97798728D01*
X64739406Y-97543984D01*
X64540522Y-97440900D01*
X63711421Y-98270000D01*
X63428579Y-98270000D01*
X62599478Y-97440900D01*
X62400594Y-97543984D01*
X62211775Y-98046761D01*
X61342877Y-98046761D01*
X61350000Y-98029565D01*
X61350000Y-97200000D01*
X61250000Y-97100000D01*
X60100000Y-97100000D01*
X59900000Y-97100000D01*
X58750000Y-97100000D01*
X58650000Y-97200000D01*
X57183182Y-97200000D01*
X57399409Y-96679269D01*
X57400027Y-95970435D01*
X58650000Y-95970435D01*
X58650000Y-96800000D01*
X58750000Y-96900000D01*
X59900000Y-96900000D01*
X59900000Y-95750000D01*
X60100000Y-95750000D01*
X60100000Y-96900000D01*
X61250000Y-96900000D01*
X61350000Y-96800000D01*
X61350000Y-96700522D01*
X62740900Y-96700522D01*
X62843984Y-96899406D01*
X63098728Y-96995076D01*
X62843984Y-97100594D01*
X62740900Y-97299478D01*
X63570000Y-98128579D01*
X64399100Y-97299478D01*
X64296016Y-97100594D01*
X64041272Y-97004924D01*
X64296016Y-96899406D01*
X64399100Y-96700522D01*
X63570000Y-95871421D01*
X62740900Y-96700522D01*
X61350000Y-96700522D01*
X61350000Y-95970435D01*
X61289104Y-95823418D01*
X61176582Y-95710896D01*
X61029565Y-95650000D01*
X60200000Y-95650000D01*
X60100000Y-95750000D01*
X59900000Y-95750000D01*
X59800000Y-95650000D01*
X58970435Y-95650000D01*
X58823418Y-95710896D01*
X58710896Y-95823418D01*
X58650000Y-95970435D01*
X57400027Y-95970435D01*
X57400431Y-95506761D01*
X62211775Y-95506761D01*
X62229734Y-96043524D01*
X62400594Y-96456016D01*
X62599478Y-96559100D01*
X63428579Y-95730000D01*
X62599478Y-94900900D01*
X62400594Y-95003984D01*
X62211775Y-95506761D01*
X57400431Y-95506761D01*
X57400589Y-95326665D01*
X57166232Y-94759478D01*
X62740900Y-94759478D01*
X63570000Y-95588579D01*
X64399100Y-94759478D01*
X64296016Y-94560594D01*
X63793239Y-94371775D01*
X63256476Y-94389734D01*
X62843984Y-94560594D01*
X62740900Y-94759478D01*
X57166232Y-94759478D01*
X56884060Y-94076571D01*
X56127146Y-93318334D01*
X64949853Y-93318334D01*
X65078985Y-93630857D01*
X65317885Y-93870174D01*
X65630183Y-93999852D01*
X65968334Y-94000147D01*
X66280857Y-93871015D01*
X66520174Y-93632115D01*
X66649852Y-93319817D01*
X66649853Y-93318330D01*
X82299853Y-93318330D01*
X82428985Y-93630853D01*
X82667885Y-93870170D01*
X82980183Y-93999848D01*
X83318334Y-94000143D01*
X83630857Y-93871011D01*
X83870174Y-93632111D01*
X83999852Y-93319813D01*
X84000147Y-92981662D01*
X83871015Y-92669139D01*
X83632115Y-92429822D01*
X83319817Y-92300144D01*
X82981666Y-92299849D01*
X82669143Y-92428981D01*
X82429826Y-92667881D01*
X82300148Y-92980179D01*
X82299853Y-93318330D01*
X66649853Y-93318330D01*
X66650147Y-92981666D01*
X66521015Y-92669143D01*
X66282115Y-92429826D01*
X65969817Y-92300148D01*
X65631666Y-92299853D01*
X65319143Y-92428985D01*
X65079826Y-92667885D01*
X64950148Y-92980183D01*
X64949853Y-93318334D01*
X56127146Y-93318334D01*
X55928460Y-93119301D01*
X54679269Y-92600591D01*
X53326665Y-92599411D01*
X52076571Y-93115940D01*
X51119301Y-94071540D01*
X50600591Y-95320731D01*
X50599411Y-96673335D01*
X50475000Y-96673335D01*
X50475000Y-91948530D01*
X69949870Y-91948530D01*
X70063811Y-92224286D01*
X70274605Y-92435448D01*
X70550161Y-92549869D01*
X70848530Y-92550130D01*
X71094418Y-92448530D01*
X71549870Y-92448530D01*
X71663811Y-92724286D01*
X71874605Y-92935448D01*
X72150161Y-93049869D01*
X72448530Y-93050130D01*
X72724286Y-92936189D01*
X72935448Y-92725395D01*
X73049869Y-92449839D01*
X73050130Y-92151470D01*
X72936189Y-91875714D01*
X72725395Y-91664552D01*
X72449839Y-91550131D01*
X72151470Y-91549870D01*
X71875714Y-91663811D01*
X71664552Y-91874605D01*
X71550131Y-92150161D01*
X71549870Y-92448530D01*
X71094418Y-92448530D01*
X71124286Y-92436189D01*
X71335448Y-92225395D01*
X71449869Y-91949839D01*
X71450130Y-91651470D01*
X71336189Y-91375714D01*
X71149332Y-91188530D01*
X75299870Y-91188530D01*
X75413811Y-91464286D01*
X75624605Y-91675448D01*
X75900161Y-91789869D01*
X76198530Y-91790130D01*
X76474286Y-91676189D01*
X76685448Y-91465395D01*
X76799869Y-91189839D01*
X76800130Y-90891470D01*
X76686189Y-90615714D01*
X76475395Y-90404552D01*
X76199839Y-90290131D01*
X75901470Y-90289870D01*
X75625714Y-90403811D01*
X75414552Y-90614605D01*
X75300131Y-90890161D01*
X75299870Y-91188530D01*
X71149332Y-91188530D01*
X71125395Y-91164552D01*
X70849839Y-91050131D01*
X70551470Y-91049870D01*
X70275714Y-91163811D01*
X70064552Y-91374605D01*
X69950131Y-91650161D01*
X69949870Y-91948530D01*
X50475000Y-91948530D01*
X50475000Y-86448530D01*
X63749870Y-86448530D01*
X63863811Y-86724286D01*
X64074605Y-86935448D01*
X64350161Y-87049869D01*
X64648530Y-87050130D01*
X64924286Y-86936189D01*
X65135448Y-86725395D01*
X65249869Y-86449839D01*
X65250130Y-86151470D01*
X65166277Y-85948530D01*
X84399870Y-85948530D01*
X84513811Y-86224286D01*
X84724605Y-86435448D01*
X85000161Y-86549869D01*
X85298530Y-86550130D01*
X85574286Y-86436189D01*
X85785448Y-86225395D01*
X85899869Y-85949839D01*
X85900130Y-85651470D01*
X85786189Y-85375714D01*
X85575395Y-85164552D01*
X85540435Y-85150035D01*
X85648530Y-85150130D01*
X85924286Y-85036189D01*
X86135448Y-84825395D01*
X86249869Y-84549839D01*
X86250130Y-84251470D01*
X86136189Y-83975714D01*
X85925395Y-83764552D01*
X85649839Y-83650131D01*
X85351470Y-83649870D01*
X85075714Y-83763811D01*
X84864552Y-83974605D01*
X84750131Y-84250161D01*
X84749870Y-84548530D01*
X84863811Y-84824286D01*
X85074605Y-85035448D01*
X85109565Y-85049965D01*
X85001470Y-85049870D01*
X84725714Y-85163811D01*
X84514552Y-85374605D01*
X84400131Y-85650161D01*
X84399870Y-85948530D01*
X65166277Y-85948530D01*
X65136189Y-85875714D01*
X64925395Y-85664552D01*
X64649839Y-85550131D01*
X64351470Y-85549870D01*
X64075714Y-85663811D01*
X63864552Y-85874605D01*
X63750131Y-86150161D01*
X63749870Y-86448530D01*
X50475000Y-86448530D01*
X50475000Y-82673335D01*
X50599411Y-82673335D01*
X51115940Y-83923429D01*
X52071540Y-84880699D01*
X53320731Y-85399409D01*
X54673335Y-85400589D01*
X55923429Y-84884060D01*
X55959021Y-84848530D01*
X65049870Y-84848530D01*
X65163811Y-85124286D01*
X65374605Y-85335448D01*
X65650161Y-85449869D01*
X65948530Y-85450130D01*
X66224286Y-85336189D01*
X66435448Y-85125395D01*
X66549869Y-84849839D01*
X66550130Y-84551470D01*
X66436189Y-84275714D01*
X66225395Y-84064552D01*
X65949839Y-83950131D01*
X65651470Y-83949870D01*
X65375714Y-84063811D01*
X65164552Y-84274605D01*
X65050131Y-84550161D01*
X65049870Y-84848530D01*
X55959021Y-84848530D01*
X56880699Y-83928460D01*
X57204554Y-83148530D01*
X62949870Y-83148530D01*
X63063811Y-83424286D01*
X63274605Y-83635448D01*
X63550161Y-83749869D01*
X63848530Y-83750130D01*
X64124286Y-83636189D01*
X64335448Y-83425395D01*
X64449869Y-83149839D01*
X64449870Y-83148530D01*
X64563811Y-83424286D01*
X64774605Y-83635448D01*
X65050161Y-83749869D01*
X65348530Y-83750130D01*
X65624286Y-83636189D01*
X65835448Y-83425395D01*
X65949869Y-83149839D01*
X65950130Y-82851470D01*
X65876526Y-82673335D01*
X92599411Y-82673335D01*
X93115940Y-83923429D01*
X94071540Y-84880699D01*
X95320731Y-85399409D01*
X96673335Y-85400589D01*
X97923429Y-84884060D01*
X98880699Y-83928460D01*
X99399409Y-82679269D01*
X99400589Y-81326665D01*
X98884060Y-80076571D01*
X97928460Y-79119301D01*
X96679269Y-78600591D01*
X95326665Y-78599411D01*
X94076571Y-79115940D01*
X93119301Y-80071540D01*
X92600591Y-81320731D01*
X92599411Y-82673335D01*
X65876526Y-82673335D01*
X65836189Y-82575714D01*
X65625395Y-82364552D01*
X65349839Y-82250131D01*
X65051470Y-82249870D01*
X64775714Y-82363811D01*
X64564552Y-82574605D01*
X64450131Y-82850161D01*
X64450130Y-82851470D01*
X64336189Y-82575714D01*
X64125395Y-82364552D01*
X63849839Y-82250131D01*
X63551470Y-82249870D01*
X63275714Y-82363811D01*
X63064552Y-82574605D01*
X62950131Y-82850161D01*
X62949870Y-83148530D01*
X57204554Y-83148530D01*
X57399409Y-82679269D01*
X57400589Y-81326665D01*
X56884060Y-80076571D01*
X55928460Y-79119301D01*
X55758025Y-79048530D01*
X74149870Y-79048530D01*
X74263811Y-79324286D01*
X74461635Y-79522456D01*
X74450131Y-79550161D01*
X74449870Y-79848530D01*
X74563811Y-80124286D01*
X74774605Y-80335448D01*
X75050161Y-80449869D01*
X75348530Y-80450130D01*
X75624286Y-80336189D01*
X75835448Y-80125395D01*
X75949869Y-79849839D01*
X75950130Y-79551470D01*
X75836189Y-79275714D01*
X75638365Y-79077544D01*
X75649869Y-79049839D01*
X75650130Y-78751470D01*
X75536189Y-78475714D01*
X75325395Y-78264552D01*
X75049839Y-78150131D01*
X74751470Y-78149870D01*
X74475714Y-78263811D01*
X74264552Y-78474605D01*
X74150131Y-78750161D01*
X74149870Y-79048530D01*
X55758025Y-79048530D01*
X54679269Y-78600591D01*
X53326665Y-78599411D01*
X52076571Y-79115940D01*
X51119301Y-80071540D01*
X50600591Y-81320731D01*
X50599411Y-82673335D01*
X50475000Y-82673335D01*
X50475000Y-64668334D01*
X60149853Y-64668334D01*
X60278985Y-64980857D01*
X60517885Y-65220174D01*
X60830183Y-65349852D01*
X61168334Y-65350147D01*
X61480857Y-65221015D01*
X61720174Y-64982115D01*
X61849852Y-64669817D01*
X61849853Y-64668334D01*
X92649853Y-64668334D01*
X92778985Y-64980857D01*
X93017885Y-65220174D01*
X93330183Y-65349852D01*
X93668334Y-65350147D01*
X93980857Y-65221015D01*
X94220174Y-64982115D01*
X94349852Y-64669817D01*
X94350147Y-64331666D01*
X94221015Y-64019143D01*
X93982115Y-63779826D01*
X93669817Y-63650148D01*
X93331666Y-63649853D01*
X93019143Y-63778985D01*
X92779826Y-64017885D01*
X92650148Y-64330183D01*
X92649853Y-64668334D01*
X61849853Y-64668334D01*
X61850147Y-64331666D01*
X61721015Y-64019143D01*
X61482115Y-63779826D01*
X61169817Y-63650148D01*
X60831666Y-63649853D01*
X60519143Y-63778985D01*
X60279826Y-64017885D01*
X60150148Y-64330183D01*
X60149853Y-64668334D01*
X50475000Y-64668334D01*
X50475000Y-50475000D01*
X99525000Y-50475000D01*
X99525000Y-99525000D01*
M02*
