M48
;DRILL file {KiCad no-vcs-found-e79f978~58~ubuntu14.04.1} date Thu May 18 21:28:04 2017
;FORMAT={-:-/ absolute / inch / decimal}
FMAT,2
INCH,TZ
T1C0.012
T2C0.020
T3C0.039
%
G90
G05
M72
T1
X1.9882Y-2.0079
X1.9882Y-2.0866
X1.9882Y-2.1654
X1.9882Y-2.2441
X1.9882Y-2.3228
X1.9882Y-2.4016
X1.9882Y-2.4803
X1.9882Y-2.5591
X1.9882Y-2.6378
X1.9882Y-2.7165
X1.9882Y-2.7953
X1.9882Y-2.874
X1.9882Y-2.9528
X1.9882Y-3.0315
X1.9882Y-3.1102
X1.9882Y-3.185
X1.9882Y-3.2717
X1.9882Y-3.3465
X1.9882Y-3.4252
X1.9882Y-3.5039
X1.9882Y-3.5827
X1.9882Y-3.6614
X1.9882Y-3.7362
X1.9882Y-3.8228
X1.9882Y-3.8976
X2.0079Y-3.9173
X2.0827Y-3.9173
X2.1693Y-3.9173
X2.2441Y-3.9173
X2.3228Y-3.9173
X2.3386Y-3.1083
X2.3386Y-3.2638
X2.4016Y-3.9173
X2.4094Y-3.1102
X2.4409Y-3.4685
X2.4803Y-3.1102
X2.4843Y-3.5827
X2.5079Y-3.2677
X2.5394Y-3.3976
X2.563Y-3.1102
X2.5669Y-3.2677
X2.5906Y-3.3346
X2.6378Y-1.9882
X2.6378Y-2.0669
X2.6378Y-2.1457
X2.6378Y-2.2244
X2.6378Y-2.3031
X2.6378Y-2.3819
X2.6378Y-2.4606
X2.6378Y-2.6181
X2.6378Y-2.6969
X2.6378Y-2.7756
X2.6378Y-2.8543
X2.6378Y-2.9331
X2.6378Y-3.0118
X2.6378Y-3.1102
X2.6732Y-3.4134
X2.7047Y-3.7047
X2.7323Y-3.1102
X2.7638Y-3.3189
X2.7835Y-3.6142
X2.7835Y-3.6496
X2.8031Y-3.4213
X2.8031Y-3.4469
X2.8031Y-3.4803
X2.8031Y-3.5118
X2.8031Y-3.5413
X2.8228Y-3.5728
X2.8287Y-3.4213
X2.8465Y-3.6339
X2.8484Y-3.5984
X2.8543Y-3.4213
X2.8799Y-3.4213
X2.8819Y-3.6201
X2.9173Y-3.622
X2.9311Y-3.0768
X2.9488Y-3.1063
X2.9528Y-3.626
X2.9606Y-3.1378
X2.9882Y-3.626
X2.9941Y-3.5843
X3.0256Y-3.6339
X3.0709Y-3.6339
X3.0748Y-3.5984
X3.0984Y-3.5748
X3.1024Y-3.4882
X3.1024Y-3.5138
X3.1024Y-3.5433
X3.1083Y-3.6378
X3.1217Y-3.4193
X3.1358Y-3.4783
X3.1457Y-3.5217
X3.1457Y-3.5846
X3.1457Y-3.6358
X3.2677Y-1.9882
X3.2677Y-2.0669
X3.2677Y-2.1457
X3.2677Y-2.2244
X3.2677Y-2.3031
X3.2677Y-2.3819
X3.2677Y-2.4606
X3.2677Y-2.5394
X3.2677Y-2.7756
X3.2677Y-2.8543
X3.2677Y-2.9331
X3.2677Y-3.0118
X3.2677Y-3.1102
X3.2677Y-3.252
X3.3465Y-3.1102
X3.3524Y-3.378
X3.3661Y-3.3228
X3.4252Y-3.1102
X3.4409Y-3.5354
X3.4488Y-3.6811
X3.5039Y-3.1102
X3.5039Y-3.9173
X3.5669Y-3.2559
X3.5669Y-3.4134
X3.5748Y-3.1102
X3.5827Y-3.9173
X3.6614Y-3.3465
X3.6614Y-3.9173
X3.7362Y-3.9173
X3.8228Y-3.9173
X3.8661Y-3.626
X3.8976Y-3.9173
X3.9173Y-2.0079
X3.9173Y-2.0866
X3.9173Y-2.1654
X3.9173Y-2.2441
X3.9173Y-2.3228
X3.9173Y-2.4016
X3.9173Y-2.4803
X3.9173Y-2.5591
X3.9173Y-2.6378
X3.9173Y-2.7165
X3.9173Y-2.7953
X3.9173Y-2.874
X3.9173Y-2.9528
X3.9173Y-3.0315
X3.9173Y-3.1102
X3.9173Y-3.185
X3.9173Y-3.2717
X3.9173Y-3.3465
X3.9173Y-3.4252
X3.9173Y-3.5039
X3.9173Y-3.5827
X3.9173Y-3.6614
X3.9173Y-3.7362
X3.9173Y-3.8228
X3.9173Y-3.8976
X2.9016Y-3.2343
X2.9016Y-3.2854
X2.9528Y-3.2343
X2.9528Y-3.2854
X3.0039Y-3.2343
X3.0039Y-3.2854
T2
X2.5906Y-3.6673
X3.2736Y-3.6673
X2.4016Y-2.5394
X3.6811Y-2.5394
T3
X2.3622Y-3.8189
X2.5028Y-3.7689
X2.5028Y-3.8689
X2.6028Y-3.7689
X2.6028Y-3.8689
X2.7028Y-3.7689
X2.7028Y-3.8689
X2.8028Y-3.7689
X2.8028Y-3.8689
X2.9028Y-3.7689
X2.9028Y-3.8689
X3.0028Y-3.7689
X3.0028Y-3.8689
X3.1028Y-3.7689
X3.1028Y-3.8689
X3.2028Y-3.7689
X3.2028Y-3.8689
X3.3028Y-3.7689
X3.3028Y-3.8689
X3.4028Y-3.7689
X3.4028Y-3.8689
T0
M30
