M48
;DRILL file {KiCad no-vcs-found-e79f978~58~ubuntu14.04.1} date Thu May 18 21:28:04 2017
;FORMAT={-:-/ absolute / inch / decimal}
FMAT,2
INCH,TZ
T1C0.024
T2C0.130
%
G90
G05
M72
T1
X2.0551Y-3.2992
X3.6811Y-3.2283
X3.7087Y-3.1575
X3.7087Y-3.2992
X3.7795Y-3.1299
X3.7795Y-3.3268
X3.8504Y-3.1575
X3.8504Y-3.2992
X3.878Y-3.2283
X3.6811Y-3.7795
X3.7087Y-3.7087
X3.7087Y-3.8504
X3.7795Y-3.6811
X3.7795Y-3.878
X3.8504Y-3.7087
X3.8504Y-3.8504
X3.878Y-3.7795
X2.0276Y-3.7795
X2.0551Y-3.7087
X2.0551Y-3.8504
X2.126Y-3.6811
X2.126Y-3.878
X2.1969Y-3.7087
X2.1969Y-3.8504
X2.2244Y-3.7795
X2.0276Y-3.2283
X2.0551Y-3.1575
X2.126Y-3.1299
X2.126Y-3.3268
X2.1969Y-3.1575
X2.1969Y-3.2992
X2.2244Y-3.2283
T2
X3.7795Y-3.7795
X2.126Y-3.7795
X2.126Y-3.2283
X3.7795Y-3.2283
T0
M30
